  0
SECTION
  2
HEADER
  9
$ACADVER
  1
AC1018
  9
$ACADMAINTVER
 70
     0
  9
$DWGCODEPAGE
  3
ANSI_1252
  9
$INSBASE
 10
0.0
 20
0.0
 30
0.0
  9
$EXTMIN
 10
1.000000000000000E+20
 20
1.000000000000000E+20
 30
1.000000000000000E+20
  9
$EXTMAX
 10
-1.000000000000000E+20
 20
-1.000000000000000E+20
 30
-1.000000000000000E+20
  9
$LIMMIN
 10
0.0
 20
0.0
  9
$LIMMAX
 10
12.0
 20
9.0
  9
$ORTHOMODE
 70
     0
  9
$REGENMODE
 70
     1
  9
$FILLMODE
 70
     1
  9
$QTEXTMODE
 70
     0
  9
$MIRRTEXT
 70
     1
  9
$LTSCALE
 40
1.0
  9
$ATTMODE
 70
     1
  9
$TEXTSIZE
 40
0.2
  9
$TRACEWID
 40
0.05
  9
$TEXTSTYLE
  7
Standard
  9
$CLAYER
  8
0
  9
$CELTYPE
  6
ByLayer
  9
$CECOLOR
 62
   256
  9
$CELTSCALE
 40
1.0
  9
$DISPSILH
 70
     0
  9
$DIMSCALE
 40
1.0
  9
$DIMASZ
 40
0.18
  9
$DIMEXO
 40
0.0625
  9
$DIMDLI
 40
0.38
  9
$DIMRND
 40
0.0
  9
$DIMDLE
 40
0.0
  9
$DIMEXE
 40
0.18
  9
$DIMTP
 40
0.0
  9
$DIMTM
 40
0.0
  9
$DIMTXT
 40
0.18
  9
$DIMCEN
 40
0.09
  9
$DIMTSZ
 40
0.0
  9
$DIMTOL
 70
     0
  9
$DIMLIM
 70
     0
  9
$DIMTIH
 70
     1
  9
$DIMTOH
 70
     1
  9
$DIMSE1
 70
     0
  9
$DIMSE2
 70
     0
  9
$DIMTAD
 70
     0
  9
$DIMZIN
 70
     0
  9
$DIMBLK
  1

  9
$DIMASO
 70
     1
  9
$DIMSHO
 70
     1
  9
$DIMPOST
  1

  9
$DIMAPOST
  1

  9
$DIMALT
 70
     0
  9
$DIMALTD
 70
     2
  9
$DIMALTF
 40
25.4
  9
$DIMLFAC
 40
1.0
  9
$DIMTOFL
 70
     0
  9
$DIMTVP
 40
0.0
  9
$DIMTIX
 70
     0
  9
$DIMSOXD
 70
     0
  9
$DIMSAH
 70
     0
  9
$DIMBLK1
  1

  9
$DIMBLK2
  1

  9
$DIMSTYLE
  2
Standard
  9
$DIMCLRD
 70
     0
  9
$DIMCLRE
 70
     0
  9
$DIMCLRT
 70
     0
  9
$DIMTFAC
 40
1.0
  9
$DIMGAP
 40
0.09
  9
$DIMJUST
 70
     0
  9
$DIMSD1
 70
     0
  9
$DIMSD2
 70
     0
  9
$DIMTOLJ
 70
     1
  9
$DIMTZIN
 70
     0
  9
$DIMALTZ
 70
     0
  9
$DIMALTTZ
 70
     0
  9
$DIMUPT
 70
     0
  9
$DIMDEC
 70
     4
  9
$DIMTDEC
 70
     4
  9
$DIMALTU
 70
     2
  9
$DIMALTTD
 70
     2
  9
$DIMTXSTY
  7
Standard
  9
$DIMAUNIT
 70
     0
  9
$DIMADEC
 70
     0
  9
$DIMALTRND
 40
0.0
  9
$DIMAZIN
 70
     0
  9
$DIMDSEP
 70
    46
  9
$DIMATFIT
 70
     3
  9
$DIMFRAC
 70
     0
  9
$DIMLDRBLK
  1

  9
$DIMLUNIT
 70
     2
  9
$DIMLWD
 70
    -2
  9
$DIMLWE
 70
    -2
  9
$DIMTMOVE
 70
     0
  9
$LUNITS
 70
     2
  9
$LUPREC
 70
     4
  9
$SKETCHINC
 40
0.1
  9
$FILLETRAD
 40
0.5
  9
$AUNITS
 70
     0
  9
$AUPREC
 70
     0
  9
$MENU
  1
.
  9
$ELEVATION
 40
0.0
  9
$PELEVATION
 40
0.0
  9
$THICKNESS
 40
0.0
  9
$LIMCHECK
 70
     0
  9
$CHAMFERA
 40
0.5
  9
$CHAMFERB
 40
0.5
  9
$CHAMFERC
 40
1.0
  9
$CHAMFERD
 40
0.0
  9
$SKPOLY
 70
     0
  9
$TDCREATE
 40
2456821.959709595
  9
$TDUCREATE
 40
2456821.876376261
  9
$TDUPDATE
 40
2456821.959709607
  9
$TDUUPDATE
 40
2456821.876376273
  9
$TDINDWG
 40
0.0000000116
  9
$TDUSRTIMER
 40
0.0000000116
  9
$USRTIMER
 70
     1
  9
$ANGBASE
 50
0.0
  9
$ANGDIR
 70
     0
  9
$PDMODE
 70
     0
  9
$PDSIZE
 40
0.0
  9
$PLINEWID
 40
0.0
  9
$SPLFRAME
 70
     0
  9
$SPLINETYPE
 70
     6
  9
$SPLINESEGS
 70
     8
  9
$HANDSEED
  5
17D
  9
$SURFTAB1
 70
     6
  9
$SURFTAB2
 70
     6
  9
$SURFTYPE
 70
     6
  9
$SURFU
 70
     6
  9
$SURFV
 70
     6
  9
$UCSBASE
  2

  9
$UCSNAME
  2

  9
$UCSORG
 10
0.0
 20
0.0
 30
0.0
  9
$UCSXDIR
 10
1.0
 20
0.0
 30
0.0
  9
$UCSYDIR
 10
0.0
 20
1.0
 30
0.0
  9
$UCSORTHOREF
  2

  9
$UCSORTHOVIEW
 70
     0
  9
$UCSORGTOP
 10
0.0
 20
0.0
 30
0.0
  9
$UCSORGBOTTOM
 10
0.0
 20
0.0
 30
0.0
  9
$UCSORGLEFT
 10
0.0
 20
0.0
 30
0.0
  9
$UCSORGRIGHT
 10
0.0
 20
0.0
 30
0.0
  9
$UCSORGFRONT
 10
0.0
 20
0.0
 30
0.0
  9
$UCSORGBACK
 10
0.0
 20
0.0
 30
0.0
  9
$PUCSBASE
  2

  9
$PUCSNAME
  2

  9
$PUCSORG
 10
0.0
 20
0.0
 30
0.0
  9
$PUCSXDIR
 10
1.0
 20
0.0
 30
0.0
  9
$PUCSYDIR
 10
0.0
 20
1.0
 30
0.0
  9
$PUCSORTHOREF
  2

  9
$PUCSORTHOVIEW
 70
     0
  9
$PUCSORGTOP
 10
0.0
 20
0.0
 30
0.0
  9
$PUCSORGBOTTOM
 10
0.0
 20
0.0
 30
0.0
  9
$PUCSORGLEFT
 10
0.0
 20
0.0
 30
0.0
  9
$PUCSORGRIGHT
 10
0.0
 20
0.0
 30
0.0
  9
$PUCSORGFRONT
 10
0.0
 20
0.0
 30
0.0
  9
$PUCSORGBACK
 10
0.0
 20
0.0
 30
0.0
  9
$USERI1
 70
     0
  9
$USERI2
 70
     0
  9
$USERI3
 70
     0
  9
$USERI4
 70
     0
  9
$USERI5
 70
     0
  9
$USERR1
 40
0.0
  9
$USERR2
 40
0.0
  9
$USERR3
 40
0.0
  9
$USERR4
 40
0.0
  9
$USERR5
 40
0.0
  9
$WORLDVIEW
 70
     1
  9
$SHADEDGE
 70
     3
  9
$SHADEDIF
 70
    70
  9
$TILEMODE
 70
     1
  9
$MAXACTVP
 70
    64
  9
$PINSBASE
 10
0.0
 20
0.0
 30
0.0
  9
$PLIMCHECK
 70
     0
  9
$PEXTMIN
 10
1.000000000000000E+20
 20
1.000000000000000E+20
 30
1.000000000000000E+20
  9
$PEXTMAX
 10
-1.000000000000000E+20
 20
-1.000000000000000E+20
 30
-1.000000000000000E+20
  9
$PLIMMIN
 10
0.0
 20
0.0
  9
$PLIMMAX
 10
12.0
 20
9.0
  9
$UNITMODE
 70
     0
  9
$VISRETAIN
 70
     1
  9
$PLINEGEN
 70
     0
  9
$PSLTSCALE
 70
     1
  9
$TREEDEPTH
 70
  3020
  9
$CMLSTYLE
  2
Standard
  9
$CMLJUST
 70
     0
  9
$CMLSCALE
 40
1.0
  9
$PROXYGRAPHICS
 70
     1
  9
$MEASUREMENT
 70
     0
  9
$CELWEIGHT
370
    -1
  9
$ENDCAPS
280
     0
  9
$JOINSTYLE
280
     0
  9
$LWDISPLAY
290
     1
  9
$INSUNITS
 70
     1
  9
$HYPERLINKBASE
  1

  9
$STYLESHEET
  1

  9
$XEDIT
290
     1
  9
$CEPSNTYPE
380
     0
  9
$PSTYLEMODE
290
     1
  9
$FINGERPRINTGUID
  2
{8D7ADD61-2649-4C7A-824A-35B173E84602}
  9
$VERSIONGUID
  2
{FAEB1C32-E019-11D5-929B-00C0DF256EC4}
  9
$EXTNAMES
290
     1
  9
$PSVPSCALE
 40
0.0
  9
$OLESTARTUP
290
     0
  9
$SORTENTS
280
   127
  9
$INDEXCTL
280
     0
  9
$HIDETEXT
280
     1
  9
$XCLIPFRAME
290
     0
  9
$HALOGAP
280
     0
  9
$OBSCOLOR
 70
   257
  9
$OBSLTYPE
280
     0
  9
$INTERSECTIONDISPLAY
280
     0
  9
$INTERSECTIONCOLOR
 70
   257
  9
$DIMASSOC
280
     2
  9
$PROJECTNAME
  1

  0
ENDSEC
  0
SECTION
  2
CLASSES
  0
CLASS
  1
ACDBDICTIONARYWDFLT
  2
AcDbDictionaryWithDefault
  3
ObjectDBX Classes
 90
        0
 91
        3
280
     0
281
     0
  0
CLASS
  1
VISUALSTYLE
  2
AcDbVisualStyle
  3
ObjectDBX Classes
 90
     4095
 91
        3
280
     0
281
     0
  0
ENDSEC
  0
SECTION
  2
TABLES
  0
TABLE
  2
VPORT
  5
8
330
0
100
AcDbSymbolTable
 70
     1
  0
VPORT
  5
29
330
8
100
AcDbSymbolTableRecord
100
AcDbViewportTableRecord
  2
*Active
 70
     0
 10
0.0
 20
0.0
 11
1.0
 21
1.0
 12
0.0
 22
0.0
 13
0.0
 23
0.0
 14
0.5
 24
0.5
 15
0.5
 25
0.5
 16
0.0
 26
0.0
 36
1.0
 17
1079.100368653836
 27
1017.396296946172
 37
0.0
 40
1682.827858737279
 41
1.453020918761539
 42
50.0
 43
0.0
 44
0.0
 50
0.0
 51
0.0
 71
     0
 72
   100
 73
     1
 74
     3
 75
     0
 76
     0
 77
     0
 78
     0
281
     0
 65
     1
110
0.0
120
0.0
130
0.0
111
1.0
121
0.0
131
0.0
112
0.0
122
1.0
132
0.0
 79
     0
146
0.0
  0
ENDTAB
  0
TABLE
  2
LTYPE
  5
5
330
0
100
AcDbSymbolTable
 70
     1
  0
LTYPE
  5
14
330
5
100
AcDbSymbolTableRecord
100
AcDbLinetypeTableRecord
  2
ByBlock
 70
     0
  3

 72
    65
 73
     0
 40
0.0
  0
LTYPE
  5
15
330
5
100
AcDbSymbolTableRecord
100
AcDbLinetypeTableRecord
  2
ByLayer
 70
     0
  3

 72
    65
 73
     0
 40
0.0
  0
LTYPE
  5
16
330
5
100
AcDbSymbolTableRecord
100
AcDbLinetypeTableRecord
  2
Continuous
 70
     0
  3
Solid line
 72
    65
 73
     0
 40
0.0
  0
ENDTAB
  0
TABLE
  2
LAYER
  5
2
330
0
100
AcDbSymbolTable
 70
    20
  0
LAYER
  5
10
330
2
100
AcDbSymbolTableRecord
100
AcDbLayerTableRecord
  2
0
 70
     0
 62
     7
  6
Continuous
370
    -3
390
F
  0
LAYER
  5
3B
330
2
100
AcDbSymbolTableRecord
100
AcDbLayerTableRecord
  2
Layer 1
 70
     0
 62
     7
  6
Continuous
370
    -3
390
F
  0
LAYER
  5
3C
330
2
100
AcDbSymbolTableRecord
100
AcDbLayerTableRecord
  2
Layer 12
 70
     0
 62
     7
  6
Continuous
370
    -3
390
F
  0
LAYER
  5
3D
330
2
100
AcDbSymbolTableRecord
100
AcDbLayerTableRecord
  2
SYMBOLS
 70
     0
 62
     7
  6
Continuous
370
    -3
390
F
  0
LAYER
  5
3E
330
2
100
AcDbSymbolTableRecord
100
AcDbLayerTableRecord
  2
Layer 5
 70
     0
 62
     7
  6
Continuous
370
    -3
390
F
  0
LAYER
  5
3F
330
2
100
AcDbSymbolTableRecord
100
AcDbLayerTableRecord
  2
Layer 8
 70
     0
 62
     7
  6
Continuous
370
    -3
390
F
  0
LAYER
  5
40
330
2
100
AcDbSymbolTableRecord
100
AcDbLayerTableRecord
  2
ELECTRONICS
 70
     0
 62
     7
  6
Continuous
370
    -3
390
F
  0
LAYER
  5
41
330
2
100
AcDbSymbolTableRecord
100
AcDbLayerTableRecord
  2
Layer 11
 70
     0
 62
     7
  6
Continuous
370
    -3
390
F
  0
LAYER
  5
42
330
2
100
AcDbSymbolTableRecord
100
AcDbLayerTableRecord
  2
Layer 10
 70
     0
 62
     7
  6
Continuous
370
    -3
390
F
  0
LAYER
  5
43
330
2
100
AcDbSymbolTableRecord
100
AcDbLayerTableRecord
  2
Layer 6
 70
     0
 62
     7
  6
Continuous
370
    -3
390
F
  0
LAYER
  5
44
330
2
100
AcDbSymbolTableRecord
100
AcDbLayerTableRecord
  2
ULTIMAKER LOGO
 70
     0
 62
     7
  6
Continuous
370
    -3
390
F
  0
LAYER
  5
45
330
2
100
AcDbSymbolTableRecord
100
AcDbLayerTableRecord
  2
Layer 7
 70
     0
 62
     7
  6
Continuous
370
    -3
390
F
  0
LAYER
  5
46
330
2
100
AcDbSymbolTableRecord
100
AcDbLayerTableRecord
  2
Layer 9
 70
     0
 62
     7
  6
Continuous
370
    -3
390
F
  0
LAYER
  5
47
330
2
100
AcDbSymbolTableRecord
100
AcDbLayerTableRecord
  2
Layer 13
 70
     1
 62
     7
  6
Continuous
370
    -3
390
F
  0
LAYER
  5
5B
330
2
100
AcDbSymbolTableRecord
100
AcDbLayerTableRecord
  2
Layer 14
 70
     0
 62
     7
  6
Continuous
370
    -3
390
F
  0
LAYER
  5
15E
330
2
100
AcDbSymbolTableRecord
100
AcDbLayerTableRecord
  2
HIDE
 70
     1
 62
     7
  6
Continuous
370
    -3
390
F
  0
LAYER
  5
16F
330
2
100
AcDbSymbolTableRecord
100
AcDbLayerTableRecord
  2
Layer 15
 70
     0
 62
     7
  6
Continuous
370
    -3
390
F
  0
LAYER
  5
170
330
2
100
AcDbSymbolTableRecord
100
AcDbLayerTableRecord
  2
Layer 16
 70
     0
 62
     7
  6
Continuous
370
    -3
390
F
  0
LAYER
  5
17A
330
2
100
AcDbSymbolTableRecord
100
AcDbLayerTableRecord
  2
Layer 18
 70
     0
 62
     7
  6
Continuous
370
    -3
390
F
  0
LAYER
  5
17B
330
2
100
AcDbSymbolTableRecord
100
AcDbLayerTableRecord
  2
Layer 19
 70
     0
 62
     7
  6
Continuous
370
    -3
390
F
  0
ENDTAB
  0
TABLE
  2
STYLE
  5
3
330
0
100
AcDbSymbolTable
 70
     1
  0
STYLE
  5
11
330
3
100
AcDbSymbolTableRecord
100
AcDbTextStyleTableRecord
  2
Standard
 70
     0
 40
0.0
 41
1.0
 50
0.0
 71
     0
 42
0.2
  3
txt
  4

  0
ENDTAB
  0
TABLE
  2
VIEW
  5
6
330
0
100
AcDbSymbolTable
 70
     0
  0
ENDTAB
  0
TABLE
  2
UCS
  5
7
330
0
100
AcDbSymbolTable
 70
     0
  0
ENDTAB
  0
TABLE
  2
APPID
  5
9
330
0
100
AcDbSymbolTable
 70
     1
  0
APPID
  5
12
330
9
100
AcDbSymbolTableRecord
100
AcDbRegAppTableRecord
  2
ACAD
 70
     0
  0
ENDTAB
  0
TABLE
  2
DIMSTYLE
  5
A
330
0
100
AcDbSymbolTable
 70
     1
100
AcDbDimStyleTable
  0
DIMSTYLE
105
27
330
A
100
AcDbSymbolTableRecord
100
AcDbDimStyleTableRecord
  2
Standard
 70
     0
340
11
  0
ENDTAB
  0
TABLE
  2
BLOCK_RECORD
  5
1
330
0
100
AcDbSymbolTable
 70
    25
  0
BLOCK_RECORD
  5
1F
330
1
100
AcDbSymbolTableRecord
100
AcDbBlockTableRecord
  2
*Model_Space
340
22
  0
BLOCK_RECORD
  5
1B
330
1
100
AcDbSymbolTableRecord
100
AcDbBlockTableRecord
  2
*Paper_Space
340
1E
  0
BLOCK_RECORD
  5
23
330
1
100
AcDbSymbolTableRecord
100
AcDbBlockTableRecord
  2
*Paper_Space0
340
26
  0
BLOCK_RECORD
  5
48
330
1
100
AcDbSymbolTableRecord
100
AcDbBlockTableRecord
  2
block 2
340
0
102
{BLKREFS
331
49
102
}
  0
BLOCK_RECORD
  5
4C
330
1
100
AcDbSymbolTableRecord
100
AcDbBlockTableRecord
  2
block 3
340
0
102
{BLKREFS
331
4D
102
}
  0
BLOCK_RECORD
  5
53
330
1
100
AcDbSymbolTableRecord
100
AcDbBlockTableRecord
  2
block 4
340
0
102
{BLKREFS
331
54
102
}
  0
BLOCK_RECORD
  5
67
330
1
100
AcDbSymbolTableRecord
100
AcDbBlockTableRecord
  2
block 5
340
0
102
{BLKREFS
331
68
102
}
  0
BLOCK_RECORD
  5
72
330
1
100
AcDbSymbolTableRecord
100
AcDbBlockTableRecord
  2
block 6
340
0
102
{BLKREFS
331
73
102
}
  0
BLOCK_RECORD
  5
81
330
1
100
AcDbSymbolTableRecord
100
AcDbBlockTableRecord
  2
block 7
340
0
102
{BLKREFS
331
82
102
}
  0
BLOCK_RECORD
  5
8C
330
1
100
AcDbSymbolTableRecord
100
AcDbBlockTableRecord
  2
block 8
340
0
102
{BLKREFS
331
8D
102
}
  0
BLOCK_RECORD
  5
91
330
1
100
AcDbSymbolTableRecord
100
AcDbBlockTableRecord
  2
block 9
340
0
102
{BLKREFS
331
92
102
}
  0
BLOCK_RECORD
  5
9C
330
1
100
AcDbSymbolTableRecord
100
AcDbBlockTableRecord
  2
block 10
340
0
102
{BLKREFS
331
9D
102
}
  0
BLOCK_RECORD
  5
A1
330
1
100
AcDbSymbolTableRecord
100
AcDbBlockTableRecord
  2
block 11
340
0
102
{BLKREFS
331
A2
102
}
  0
BLOCK_RECORD
  5
A5
330
1
100
AcDbSymbolTableRecord
100
AcDbBlockTableRecord
  2
block 12
340
0
102
{BLKREFS
331
A6
102
}
  0
BLOCK_RECORD
  5
B0
330
1
100
AcDbSymbolTableRecord
100
AcDbBlockTableRecord
  2
block 13
340
0
102
{BLKREFS
331
B1
102
}
  0
BLOCK_RECORD
  5
BB
330
1
100
AcDbSymbolTableRecord
100
AcDbBlockTableRecord
  2
block 14
340
0
102
{BLKREFS
331
BC
102
}
  0
BLOCK_RECORD
  5
104
330
1
100
AcDbSymbolTableRecord
100
AcDbBlockTableRecord
  2
block 15
340
0
102
{BLKREFS
331
105
102
}
  0
BLOCK_RECORD
  5
10F
330
1
100
AcDbSymbolTableRecord
100
AcDbBlockTableRecord
  2
block 16
340
0
102
{BLKREFS
331
110
102
}
  0
BLOCK_RECORD
  5
11A
330
1
100
AcDbSymbolTableRecord
100
AcDbBlockTableRecord
  2
block 17
340
0
102
{BLKREFS
331
11B
102
}
  0
BLOCK_RECORD
  5
125
330
1
100
AcDbSymbolTableRecord
100
AcDbBlockTableRecord
  2
block 18
340
0
102
{BLKREFS
331
126
102
}
  0
BLOCK_RECORD
  5
130
330
1
100
AcDbSymbolTableRecord
100
AcDbBlockTableRecord
  2
block 19
340
0
102
{BLKREFS
331
131
102
}
  0
BLOCK_RECORD
  5
13B
330
1
100
AcDbSymbolTableRecord
100
AcDbBlockTableRecord
  2
block 20
340
0
102
{BLKREFS
331
13C
102
}
  0
BLOCK_RECORD
  5
146
330
1
100
AcDbSymbolTableRecord
100
AcDbBlockTableRecord
  2
block 21
340
0
102
{BLKREFS
331
147
102
}
  0
BLOCK_RECORD
  5
151
330
1
100
AcDbSymbolTableRecord
100
AcDbBlockTableRecord
  2
block 22
340
0
102
{BLKREFS
331
152
102
}
  0
BLOCK_RECORD
  5
15F
330
1
100
AcDbSymbolTableRecord
100
AcDbBlockTableRecord
  2
block 23
340
0
102
{BLKREFS
331
160
102
}
  0
BLOCK_RECORD
  5
171
330
1
100
AcDbSymbolTableRecord
100
AcDbBlockTableRecord
  2
block 24
340
0
102
{BLKREFS
331
172
102
}
  0
BLOCK_RECORD
  5
175
330
1
100
AcDbSymbolTableRecord
100
AcDbBlockTableRecord
  2
block 25
340
0
102
{BLKREFS
331
176
102
}
  0
ENDTAB
  0
ENDSEC
  0
SECTION
  2
BLOCKS
  0
BLOCK
  5
20
330
1F
100
AcDbEntity
  8
0
100
AcDbBlockBegin
  2
*Model_Space
 70
     0
 71
     0
 10
0.0
 20
0.0
 30
0.0
  3
*Model_Space
  1

  0
ENDBLK
  5
21
330
1F
100
AcDbEntity
  8
0
100
AcDbBlockEnd
  0
BLOCK
  5
1C
330
1B
100
AcDbEntity
 67
     1
  8
0
100
AcDbBlockBegin
  2
*Paper_Space
 70
     0
 71
     0
 10
0.0
 20
0.0
 30
0.0
  3
*Paper_Space
  1

  0
ENDBLK
  5
1D
330
1B
100
AcDbEntity
 67
     1
  8
0
100
AcDbBlockEnd
  0
BLOCK
  5
24
330
23
100
AcDbEntity
  8
0
100
AcDbBlockBegin
  2
*Paper_Space0
 70
     0
 71
     0
 10
0.0
 20
0.0
 30
0.0
  3
*Paper_Space0
  1

  0
ENDBLK
  5
25
330
23
100
AcDbEntity
  8
0
100
AcDbBlockEnd
  0
BLOCK
  5
4A
330
48
100
AcDbEntity
  8
0
100
AcDbBlockBegin
  2
block 2
 70
     0
 71
     0
 10
0.0
 20
0.0
 30
0.0
  3
block 2
  1

  0
INSERT
  5
4D
330
48
100
AcDbEntity
  8
Layer 13
100
AcDbBlockReference
  2
block 3
 10
0.0
 20
0.0
 30
0.0
  0
INSERT
  5
54
330
48
100
AcDbEntity
  8
Layer 13
100
AcDbBlockReference
  2
block 4
 10
0.0
 20
0.0
 30
0.0
  0
SPLINE
  5
5A
330
48
100
AcDbEntity
  8
Layer 13
370
     0
100
AcDbSpline
210
0.0
220
0.0
230
1.0
 70
    11
 71
     3
 72
    41
 73
    37
 74
     0
 42
0.0000000001
 43
0.0000000001
 40
0.0
 40
0.0
 40
0.0
 40
0.0
 40
1.0
 40
1.0
 40
1.0
 40
2.0
 40
2.0
 40
2.0
 40
3.0
 40
3.0
 40
3.0
 40
4.0
 40
4.0
 40
4.0
 40
5.0
 40
5.0
 40
5.0
 40
6.0
 40
6.0
 40
6.0
 40
7.0
 40
7.0
 40
7.0
 40
8.0
 40
8.0
 40
8.0
 40
9.0
 40
9.0
 40
9.0
 40
10.0
 40
10.0
 40
10.0
 40
11.0
 40
11.0
 40
11.0
 40
12.0
 40
12.0
 40
12.0
 40
12.0
 10
936.9622746138498
 20
749.3213594046836
 30
0.0
 10
936.9622746138498
 20
749.3213594046836
 30
0.0
 10
936.9622746138498
 20
758.3213268503503
 30
0.0
 10
936.9622746138498
 20
758.3213268503503
 30
0.0
 10
936.9622746138498
 20
759.9780732692069
 30
0.0
 10
938.3056895983229
 20
761.3213159989058
 30
0.0
 10
939.9624360171796
 20
761.3213159989058
 30
0.0
 10
939.9624360171796
 20
761.3213159989058
 30
0.0
 10
957.9632321823842
 20
761.3213159989058
 30
0.0
 10
957.9632321823842
 20
761.3213159989058
 30
0.0
 10
959.6199786012409
 20
761.3213159989058
 30
0.0
 10
960.9632213309397
 20
759.9780732692069
 30
0.0
 10
960.9632213309397
 20
758.3213268503503
 30
0.0
 10
960.9632213309397
 20
758.3213268503503
 30
0.0
 10
960.9632213309397
 20
749.3213594046836
 30
0.0
 10
960.9632213309397
 20
749.3213594046836
 30
0.0
 10
960.9632213309397
 20
749.3213594046836
 30
0.0
 10
960.9632213309397
 20
743.3213811075725
 30
0.0
 10
960.9632213309397
 20
743.3213811075725
 30
0.0
 10
960.9632213309397
 20
743.3213811075725
 30
0.0
 10
960.9632213309397
 20
734.3214136619058
 30
0.0
 10
960.9632213309397
 20
734.3214136619058
 30
0.0
 10
960.9632213309397
 20
732.6646672430492
 30
0.0
 10
959.6199786012409
 20
731.3214245133503
 30
0.0
 10
957.9632321823842
 20
731.3214245133503
 30
0.0
 10
957.9632321823842
 20
731.3214245133503
 30
0.0
 10
939.9624360171796
 20
731.3214245133503
 30
0.0
 10
939.9624360171796
 20
731.3214245133503
 30
0.0
 10
938.3056895983229
 20
731.3214245133503
 30
0.0
 10
936.9622746138498
 20
732.6646672430492
 30
0.0
 10
936.9622746138498
 20
734.3214136619058
 30
0.0
 10
936.9622746138498
 20
734.3214136619058
 30
0.0
 10
936.9622746138498
 20
743.3213811075725
 30
0.0
 10
936.9622746138498
 20
743.3213811075725
 30
0.0
 10
936.9622746138498
 20
743.3213811075725
 30
0.0
 10
936.9622746138498
 20
749.3213594046836
 30
0.0
 10
936.9622746138498
 20
749.3213594046836
 30
0.0
  0
ENDBLK
  5
4B
330
48
100
AcDbEntity
  8
0
100
AcDbBlockEnd
  0
BLOCK
  5
4E
330
4C
100
AcDbEntity
  8
0
100
AcDbBlockBegin
  2
block 3
 70
     0
 71
     0
 10
0.0
 20
0.0
 30
0.0
  3
block 3
  1

  0
SPLINE
  5
50
330
4C
100
AcDbEntity
  8
Layer 13
370
     0
100
AcDbSpline
210
0.0
220
0.0
230
1.0
 70
    11
 71
     3
 72
    17
 73
    13
 74
     0
 42
0.0000000001
 43
0.0000000001
 40
0.0
 40
0.0
 40
0.0
 40
0.0
 40
1.0
 40
1.0
 40
1.0
 40
2.0
 40
2.0
 40
2.0
 40
3.0
 40
3.0
 40
3.0
 40
4.0
 40
4.0
 40
4.0
 40
4.0
 10
941.1091360494449
 20
758.5745413685161
 30
0.0
 10
941.1091360494449
 20
759.4027423231702
 30
0.0
 10
940.4380314489183
 20
760.0745359427939
 30
0.0
 10
939.6091414751672
 20
760.0745359427939
 30
0.0
 10
938.7809405205131
 20
760.0745359427939
 30
0.0
 10
938.1091469008894
 20
759.4027423231702
 30
0.0
 10
938.1091469008894
 20
758.5745413685161
 30
0.0
 10
938.1091469008894
 20
757.7463404138621
 30
0.0
 10
938.7809405205131
 20
757.0745467942384
 30
0.0
 10
939.6091414751672
 20
757.0745467942384
 30
0.0
 10
940.4380314489183
 20
757.0745467942384
 30
0.0
 10
941.1091360494449
 20
757.7463404138621
 30
0.0
 10
941.1091360494449
 20
758.5745413685161
 30
0.0
  0
SPLINE
  5
51
330
4C
100
AcDbEntity
  8
Layer 13
370
     0
100
AcDbSpline
210
0.0
220
0.0
230
1.0
 70
    11
 71
     3
 72
    17
 73
    13
 74
     0
 42
0.0000000001
 43
0.0000000001
 40
0.0
 40
0.0
 40
0.0
 40
0.0
 40
1.0
 40
1.0
 40
1.0
 40
2.0
 40
2.0
 40
2.0
 40
3.0
 40
3.0
 40
3.0
 40
4.0
 40
4.0
 40
4.0
 40
4.0
 10
959.6051646906543
 20
749.0743460583911
 30
0.0
 10
959.6051646906543
 20
749.9032360321423
 30
0.0
 10
958.9344045996762
 20
750.574340632669
 30
0.0
 10
958.1075816832162
 20
750.574340632669
 30
0.0
 10
957.2807587667562
 20
750.574340632669
 30
0.0
 10
956.609309656681
 20
749.9032360321423
 30
0.0
 10
956.609309656681
 20
749.0743460583911
 30
0.0
 10
956.609309656681
 20
748.2461451037371
 30
0.0
 10
957.2807587667562
 20
747.5743514841134
 30
0.0
 10
958.1075816832162
 20
747.5743514841134
 30
0.0
 10
958.9344045996762
 20
747.5743514841134
 30
0.0
 10
959.6051646906543
 20
748.2461451037371
 30
0.0
 10
959.6051646906543
 20
749.0743460583911
 30
0.0
  0
SPLINE
  5
52
330
4C
100
AcDbEntity
  8
Layer 13
370
     0
100
AcDbSpline
210
0.0
220
0.0
230
1.0
 70
    11
 71
     3
 72
    41
 73
    37
 74
     0
 42
0.0000000001
 43
0.0000000001
 40
0.0
 40
0.0
 40
0.0
 40
0.0
 40
1.0
 40
1.0
 40
1.0
 40
2.0
 40
2.0
 40
2.0
 40
3.0
 40
3.0
 40
3.0
 40
4.0
 40
4.0
 40
4.0
 40
5.0
 40
5.0
 40
5.0
 40
6.0
 40
6.0
 40
6.0
 40
7.0
 40
7.0
 40
7.0
 40
8.0
 40
8.0
 40
8.0
 40
9.0
 40
9.0
 40
9.0
 40
10.0
 40
10.0
 40
10.0
 40
11.0
 40
11.0
 40
11.0
 40
12.0
 40
12.0
 40
12.0
 40
12.0
 10
942.6973250681451
 20
748.0738903294746
 30
0.0
 10
940.76462650092
 20
748.0738903294746
 30
0.0
 10
939.1977970742283
 20
749.6414087752632
 30
0.0
 10
939.1977970742283
 20
751.5741073424884
 30
0.0
 10
939.1977970742283
 20
751.5741073424884
 30
0.0
 10
939.1599010238906
 20
755.8239771330926
 30
0.0
 10
939.1599010238906
 20
755.8239771330926
 30
0.0
 10
939.1599010238906
 20
755.8239771330926
 30
0.0
 10
939.6091414751672
 20
755.8170869421222
 30
0.0
 10
939.6091414751672
 20
755.8170869421222
 30
0.0
 10
941.1325626987447
 20
755.8170869421222
 30
0.0
 10
942.3672849206582
 20
757.0511201449386
 30
0.0
 10
942.3672849206582
 20
758.5745413685161
 30
0.0
 10
942.3672849206582
 20
758.5745413685161
 30
0.0
 10
942.3597057105907
 20
759.5749970974326
 30
0.0
 10
942.3597057105907
 20
759.5749970974326
 30
0.0
 10
942.3597057105907
 20
759.5749970974326
 30
0.0
 10
955.4596812932532
 20
759.5749970974326
 30
0.0
 10
955.4596812932532
 20
759.5749970974326
 30
0.0
 10
957.3910018222842
 20
759.5749970974326
 30
0.0
 10
958.9550751725876
 20
758.008167670741
 30
0.0
 10
958.9550751725876
 20
756.0754691035158
 30
0.0
 10
958.9550751725876
 20
756.0754691035158
 30
0.0
 10
958.9550751725876
 20
751.8249102938147
 30
0.0
 10
958.9550751725876
 20
751.8249102938147
 30
0.0
 10
958.9550751725876
 20
751.8249102938147
 30
0.0
 10
958.1075816832162
 20
751.8207761792323
 30
0.0
 10
958.1075816832162
 20
751.8207761792323
 30
0.0
 10
956.5920841792548
 20
751.8207761792323
 30
0.0
 10
955.3628741101177
 20
750.5915661100952
 30
0.0
 10
955.3628741101177
 20
749.0743460583911
 30
0.0
 10
955.3628741101177
 20
749.0743460583911
 30
0.0
 10
955.3587399955353
 20
748.0738903294746
 30
0.0
 10
955.3587399955353
 20
748.0738903294746
 30
0.0
 10
955.3587399955353
 20
748.0738903294746
 30
0.0
 10
942.6973250681451
 20
748.0738903294746
 30
0.0
 10
942.6973250681451
 20
748.0738903294746
 30
0.0
  0
ENDBLK
  5
4F
330
4C
100
AcDbEntity
  8
0
100
AcDbBlockEnd
  0
BLOCK
  5
55
330
53
100
AcDbEntity
  8
0
100
AcDbBlockBegin
  2
block 4
 70
     0
 71
     0
 10
0.0
 20
0.0
 30
0.0
  3
block 4
  1

  0
SPLINE
  5
57
330
53
100
AcDbEntity
  8
Layer 13
370
     0
100
AcDbSpline
210
0.0
220
0.0
230
1.0
 70
    11
 71
     3
 72
    17
 73
    13
 74
     0
 42
0.0000000001
 43
0.0000000001
 40
0.0
 40
0.0
 40
0.0
 40
0.0
 40
1.0
 40
1.0
 40
1.0
 40
2.0
 40
2.0
 40
2.0
 40
3.0
 40
3.0
 40
3.0
 40
4.0
 40
4.0
 40
4.0
 40
4.0
 10
941.1091360494449
 20
743.5745956257383
 30
0.0
 10
941.1091360494449
 20
744.4027965803924
 30
0.0
 10
940.4380314489183
 20
745.0745902000161
 30
0.0
 10
939.6091414751672
 20
745.0745902000161
 30
0.0
 10
938.7809405205131
 20
745.0745902000161
 30
0.0
 10
938.1091469008894
 20
744.4027965803924
 30
0.0
 10
938.1091469008894
 20
743.5745956257383
 30
0.0
 10
938.1091469008894
 20
742.7463946710843
 30
0.0
 10
938.7809405205131
 20
742.0746010514606
 30
0.0
 10
939.6091414751672
 20
742.0746010514606
 30
0.0
 10
940.4380314489183
 20
742.0746010514606
 30
0.0
 10
941.1091360494449
 20
742.7463946710843
 30
0.0
 10
941.1091360494449
 20
743.5745956257383
 30
0.0
  0
SPLINE
  5
58
330
53
100
AcDbEntity
  8
Layer 13
370
     0
100
AcDbSpline
210
0.0
220
0.0
230
1.0
 70
    11
 71
     3
 72
    17
 73
    13
 74
     0
 42
0.0000000001
 43
0.0000000001
 40
0.0
 40
0.0
 40
0.0
 40
0.0
 40
1.0
 40
1.0
 40
1.0
 40
2.0
 40
2.0
 40
2.0
 40
3.0
 40
3.0
 40
3.0
 40
4.0
 40
4.0
 40
4.0
 40
4.0
 10
959.6051646906543
 20
734.0744003156134
 30
0.0
 10
959.6051646906543
 20
734.9032902893645
 30
0.0
 10
958.9344045996762
 20
735.5743948898912
 30
0.0
 10
958.1075816832162
 20
735.5743948898912
 30
0.0
 10
957.2807587667562
 20
735.5743948898912
 30
0.0
 10
956.609309656681
 20
734.9032902893645
 30
0.0
 10
956.609309656681
 20
734.0744003156134
 30
0.0
 10
956.609309656681
 20
733.2461993609593
 30
0.0
 10
957.2807587667562
 20
732.5744057413356
 30
0.0
 10
958.1075816832162
 20
732.5744057413356
 30
0.0
 10
958.9344045996762
 20
732.5744057413356
 30
0.0
 10
959.6051646906543
 20
733.2461993609593
 30
0.0
 10
959.6051646906543
 20
734.0744003156134
 30
0.0
  0
SPLINE
  5
59
330
53
100
AcDbEntity
  8
Layer 13
370
     0
100
AcDbSpline
210
0.0
220
0.0
230
1.0
 70
    11
 71
     3
 72
    41
 73
    37
 74
     0
 42
0.0000000001
 43
0.0000000001
 40
0.0
 40
0.0
 40
0.0
 40
0.0
 40
1.0
 40
1.0
 40
1.0
 40
2.0
 40
2.0
 40
2.0
 40
3.0
 40
3.0
 40
3.0
 40
4.0
 40
4.0
 40
4.0
 40
5.0
 40
5.0
 40
5.0
 40
6.0
 40
6.0
 40
6.0
 40
7.0
 40
7.0
 40
7.0
 40
8.0
 40
8.0
 40
8.0
 40
9.0
 40
9.0
 40
9.0
 40
10.0
 40
10.0
 40
10.0
 40
11.0
 40
11.0
 40
11.0
 40
12.0
 40
12.0
 40
12.0
 40
12.0
 10
942.6973250681451
 20
733.0739445866968
 30
0.0
 10
940.76462650092
 20
733.0739445866968
 30
0.0
 10
939.1977970742283
 20
734.6414630324855
 30
0.0
 10
939.1977970742283
 20
736.5741615997107
 30
0.0
 10
939.1977970742283
 20
736.5741615997107
 30
0.0
 10
939.1599010238906
 20
740.8240313903149
 30
0.0
 10
939.1599010238906
 20
740.8240313903149
 30
0.0
 10
939.1599010238906
 20
740.8240313903149
 30
0.0
 10
939.6091414751672
 20
740.8171411993444
 30
0.0
 10
939.6091414751672
 20
740.8171411993444
 30
0.0
 10
941.1325626987447
 20
740.8171411993444
 30
0.0
 10
942.3672849206582
 20
742.0511744021609
 30
0.0
 10
942.3672849206582
 20
743.5745956257383
 30
0.0
 10
942.3672849206582
 20
743.5745956257383
 30
0.0
 10
942.3597057105907
 20
744.5750513546549
 30
0.0
 10
942.3597057105907
 20
744.5750513546549
 30
0.0
 10
942.3597057105907
 20
744.5750513546549
 30
0.0
 10
955.4596812932532
 20
744.5750513546549
 30
0.0
 10
955.4596812932532
 20
744.5750513546549
 30
0.0
 10
957.3910018222842
 20
744.5750513546549
 30
0.0
 10
958.9550751725876
 20
743.0082219279633
 30
0.0
 10
958.9550751725876
 20
741.0755233607381
 30
0.0
 10
958.9550751725876
 20
741.0755233607381
 30
0.0
 10
958.9550751725876
 20
736.8249645510368
 30
0.0
 10
958.9550751725876
 20
736.8249645510368
 30
0.0
 10
958.9550751725876
 20
736.8249645510368
 30
0.0
 10
958.1075816832162
 20
736.8208304364546
 30
0.0
 10
958.1075816832162
 20
736.8208304364546
 30
0.0
 10
956.5920841792548
 20
736.8208304364546
 30
0.0
 10
955.3628741101177
 20
735.5916203673174
 30
0.0
 10
955.3628741101177
 20
734.0744003156134
 30
0.0
 10
955.3628741101177
 20
734.0744003156134
 30
0.0
 10
955.3587399955353
 20
733.0739445866968
 30
0.0
 10
955.3587399955353
 20
733.0739445866968
 30
0.0
 10
955.3587399955353
 20
733.0739445866968
 30
0.0
 10
942.6973250681451
 20
733.0739445866968
 30
0.0
 10
942.6973250681451
 20
733.0739445866968
 30
0.0
  0
ENDBLK
  5
56
330
53
100
AcDbEntity
  8
0
100
AcDbBlockEnd
  0
BLOCK
  5
69
330
67
100
AcDbEntity
  8
0
100
AcDbBlockBegin
  2
block 5
 70
     0
 71
     0
 10
0.0
 20
0.0
 30
0.0
  3
block 5
  1

  0
POLYLINE
  5
6B
330
67
100
AcDbEntity
  8
Layer 14
370
     0
100
AcDb2dPolyline
 66
     1
 10
0.0
 20
0.0
 30
0.0
  0
VERTEX
  5
6C
330
6B
100
AcDbEntity
  8
Layer 14
370
     0
100
AcDbVertex
100
AcDb2dVertex
 10
284.6616942647721
 20
371.3223821771347
 30
0.0
  0
VERTEX
  5
6D
330
6B
100
AcDbEntity
  8
Layer 14
370
     0
100
AcDbVertex
100
AcDb2dVertex
 10
274.8125107819913
 20
371.3223821771347
 30
0.0
  0
VERTEX
  5
6E
330
6B
100
AcDbEntity
  8
Layer 14
370
     0
100
AcDbVertex
100
AcDb2dVertex
 10
274.8125107819913
 20
377.5221760123903
 30
0.0
  0
VERTEX
  5
6F
330
6B
100
AcDbEntity
  8
Layer 14
370
     0
100
AcDbVertex
100
AcDb2dVertex
 10
284.6616942647721
 20
377.5221760123903
 30
0.0
  0
VERTEX
  5
70
330
6B
100
AcDbEntity
  8
Layer 14
370
     0
100
AcDbVertex
100
AcDb2dVertex
 10
284.6616942647721
 20
371.3223821771347
 30
0.0
  0
SEQEND
  5
71
330
6B
100
AcDbEntity
  8
Layer 14
370
     0
  0
ENDBLK
  5
6A
330
67
100
AcDbEntity
  8
0
100
AcDbBlockEnd
  0
BLOCK
  5
74
330
72
100
AcDbEntity
  8
0
100
AcDbBlockBegin
  2
block 6
 70
     0
 71
     0
 10
0.0
 20
0.0
 30
0.0
  3
block 6
  1

  0
SPLINE
  5
76
330
72
100
AcDbEntity
  8
Layer 14
370
     0
100
AcDbSpline
210
0.0
220
0.0
230
1.0
 70
    11
 71
     3
 72
    17
 73
    13
 74
     0
 42
0.0000000001
 43
0.0000000001
 40
0.0
 40
0.0
 40
0.0
 40
0.0
 40
1.0
 40
1.0
 40
1.0
 40
2.0
 40
2.0
 40
2.0
 40
3.0
 40
3.0
 40
3.0
 40
4.0
 40
4.0
 40
4.0
 40
4.0
 10
304.7354043834516
 20
372.9997991689028
 30
0.0
 10
303.9485445746205
 20
372.9997991689028
 30
0.0
 10
303.3105128907522
 20
373.6378308527711
 30
0.0
 10
303.3105128907522
 20
374.4243461520537
 30
0.0
 10
303.3105128907522
 20
375.2115504704332
 30
0.0
 10
303.9485445746205
 20
375.8488931352044
 30
0.0
 10
304.7354043834516
 20
375.8488931352044
 30
0.0
 10
305.5229532113797
 20
375.8488931352044
 30
0.0
 10
306.1602958761509
 20
375.2115504704332
 30
0.0
 10
306.1602958761509
 20
374.4243461520537
 30
0.0
 10
306.1602958761509
 20
373.6378308527711
 30
0.0
 10
305.5229532113797
 20
372.9997991689028
 30
0.0
 10
304.7354043834516
 20
372.9997991689028
 30
0.0
  0
ENDBLK
  5
75
330
72
100
AcDbEntity
  8
0
100
AcDbBlockEnd
  0
BLOCK
  5
83
330
81
100
AcDbEntity
  8
0
100
AcDbBlockBegin
  2
block 7
 70
     0
 71
     0
 10
0.0
 20
0.0
 30
0.0
  3
block 7
  1

  0
POLYLINE
  5
85
330
81
100
AcDbEntity
  8
Layer 14
370
     0
100
AcDb2dPolyline
 66
     1
 10
0.0
 20
0.0
 30
0.0
  0
VERTEX
  5
86
330
85
100
AcDbEntity
  8
Layer 14
370
     0
100
AcDbVertex
100
AcDb2dVertex
 10
324.8218613554265
 20
711.6258136241769
 30
0.0
  0
VERTEX
  5
87
330
85
100
AcDbEntity
  8
Layer 14
370
     0
100
AcDbVertex
100
AcDb2dVertex
 10
334.6710448382073
 20
711.6258136241769
 30
0.0
  0
VERTEX
  5
88
330
85
100
AcDbEntity
  8
Layer 14
370
     0
100
AcDbVertex
100
AcDb2dVertex
 10
334.6710448382073
 20
705.4260197889213
 30
0.0
  0
VERTEX
  5
89
330
85
100
AcDbEntity
  8
Layer 14
370
     0
100
AcDbVertex
100
AcDb2dVertex
 10
324.8218613554265
 20
705.4260197889213
 30
0.0
  0
VERTEX
  5
8A
330
85
100
AcDbEntity
  8
Layer 14
370
     0
100
AcDbVertex
100
AcDb2dVertex
 10
324.8218613554265
 20
711.6258136241769
 30
0.0
  0
SEQEND
  5
8B
330
85
100
AcDbEntity
  8
Layer 14
370
     0
  0
ENDBLK
  5
84
330
81
100
AcDbEntity
  8
0
100
AcDbBlockEnd
  0
BLOCK
  5
8E
330
8C
100
AcDbEntity
  8
0
100
AcDbBlockBegin
  2
block 8
 70
     0
 71
     0
 10
0.0
 20
0.0
 30
0.0
  3
block 8
  1

  0
SPLINE
  5
90
330
8C
100
AcDbEntity
  8
Layer 14
370
     0
100
AcDbSpline
210
0.0
220
0.0
230
1.0
 70
    11
 71
     3
 72
    17
 73
    13
 74
     0
 42
0.0000000001
 43
0.0000000001
 40
0.0
 40
0.0
 40
0.0
 40
0.0
 40
1.0
 40
1.0
 40
1.0
 40
2.0
 40
2.0
 40
2.0
 40
3.0
 40
3.0
 40
3.0
 40
4.0
 40
4.0
 40
4.0
 40
4.0
 10
304.748151236747
 20
709.9483966324087
 30
0.0
 10
305.5350110455781
 20
709.9483966324087
 30
0.0
 10
306.1730427294463
 20
709.3103649485405
 30
0.0
 10
306.1730427294463
 20
708.523849649258
 30
0.0
 10
306.1730427294463
 20
707.7366453308783
 30
0.0
 10
305.5350110455781
 20
707.0993026661072
 30
0.0
 10
304.748151236747
 20
707.0993026661072
 30
0.0
 10
303.9606024088189
 20
707.0993026661072
 30
0.0
 10
303.3232597440477
 20
707.7366453308783
 30
0.0
 10
303.3232597440477
 20
708.523849649258
 30
0.0
 10
303.3232597440477
 20
709.3103649485405
 30
0.0
 10
303.9606024088189
 20
709.9483966324087
 30
0.0
 10
304.748151236747
 20
709.9483966324087
 30
0.0
  0
ENDBLK
  5
8F
330
8C
100
AcDbEntity
  8
0
100
AcDbBlockEnd
  0
BLOCK
  5
93
330
91
100
AcDbEntity
  8
0
100
AcDbBlockBegin
  2
block 9
 70
     0
 71
     0
 10
0.0
 20
0.0
 30
0.0
  3
block 9
  1

  0
POLYLINE
  5
95
330
91
100
AcDbEntity
  8
Layer 14
370
     0
100
AcDb2dPolyline
 66
     1
 10
0.0
 20
0.0
 30
0.0
  0
VERTEX
  5
96
330
95
100
AcDbEntity
  8
Layer 14
370
     0
100
AcDbVertex
100
AcDb2dVertex
 10
518.2112628912805
 20
705.4253307698242
 30
0.0
  0
VERTEX
  5
97
330
95
100
AcDbEntity
  8
Layer 14
370
     0
100
AcDbVertex
100
AcDb2dVertex
 10
508.3620794084998
 20
705.4253307698242
 30
0.0
  0
VERTEX
  5
98
330
95
100
AcDbEntity
  8
Layer 14
370
     0
100
AcDbVertex
100
AcDb2dVertex
 10
508.3620794084998
 20
711.6251246050799
 30
0.0
  0
VERTEX
  5
99
330
95
100
AcDbEntity
  8
Layer 14
370
     0
100
AcDbVertex
100
AcDb2dVertex
 10
518.2112628912805
 20
711.6251246050799
 30
0.0
  0
VERTEX
  5
9A
330
95
100
AcDbEntity
  8
Layer 14
370
     0
100
AcDbVertex
100
AcDb2dVertex
 10
518.2112628912805
 20
705.4253307698242
 30
0.0
  0
SEQEND
  5
9B
330
95
100
AcDbEntity
  8
Layer 14
370
     0
  0
ENDBLK
  5
94
330
91
100
AcDbEntity
  8
0
100
AcDbBlockEnd
  0
BLOCK
  5
9E
330
9C
100
AcDbEntity
  8
0
100
AcDbBlockBegin
  2
block 10
 70
     0
 71
     0
 10
0.0
 20
0.0
 30
0.0
  3
block 10
  1

  0
SPLINE
  5
A0
330
9C
100
AcDbEntity
  8
Layer 14
370
     0
100
AcDbSpline
210
0.0
220
0.0
230
1.0
 70
    11
 71
     3
 72
    17
 73
    13
 74
     0
 42
0.0000000001
 43
0.0000000001
 40
0.0
 40
0.0
 40
0.0
 40
0.0
 40
1.0
 40
1.0
 40
1.0
 40
2.0
 40
2.0
 40
2.0
 40
3.0
 40
3.0
 40
3.0
 40
4.0
 40
4.0
 40
4.0
 40
4.0
 10
538.28497300996
 20
707.1027477615924
 30
0.0
 10
537.498113201129
 20
707.1027477615924
 30
0.0
 10
536.8600815172607
 20
707.7407794454607
 30
0.0
 10
536.8600815172607
 20
708.5272947447432
 30
0.0
 10
536.8600815172607
 20
709.3144990631228
 30
0.0
 10
537.498113201129
 20
709.951841727894
 30
0.0
 10
538.28497300996
 20
709.951841727894
 30
0.0
 10
539.0725218378882
 20
709.951841727894
 30
0.0
 10
539.7098645026593
 20
709.3144990631228
 30
0.0
 10
539.7098645026593
 20
708.5272947447432
 30
0.0
 10
539.7098645026593
 20
707.7407794454607
 30
0.0
 10
539.0725218378882
 20
707.1027477615924
 30
0.0
 10
538.28497300996
 20
707.1027477615924
 30
0.0
  0
ENDBLK
  5
9F
330
9C
100
AcDbEntity
  8
0
100
AcDbBlockEnd
  0
BLOCK
  5
A3
330
A1
100
AcDbEntity
  8
0
100
AcDbBlockBegin
  2
block 11
 70
     0
 71
     0
 10
0.0
 20
0.0
 30
0.0
  3
block 11
  1

  0
INSERT
  5
A6
330
A1
100
AcDbEntity
  8
Layer 14
100
AcDbBlockReference
  2
block 12
 10
0.0
 20
0.0
 30
0.0
  0
INSERT
  5
B1
330
A1
100
AcDbEntity
  8
Layer 14
100
AcDbBlockReference
  2
block 13
 10
0.0
 20
0.0
 30
0.0
  0
ENDBLK
  5
A4
330
A1
100
AcDbEntity
  8
0
100
AcDbBlockEnd
  0
BLOCK
  5
A7
330
A5
100
AcDbEntity
  8
0
100
AcDbBlockBegin
  2
block 12
 70
     0
 71
     0
 10
0.0
 20
0.0
 30
0.0
  3
block 12
  1

  0
POLYLINE
  5
A9
330
A5
100
AcDbEntity
  8
Layer 14
370
     0
100
AcDb2dPolyline
 66
     1
 10
0.0
 20
0.0
 30
0.0
  0
VERTEX
  5
AA
330
A9
100
AcDbEntity
  8
Layer 14
370
     0
100
AcDbVertex
100
AcDb2dVertex
 10
518.2033391716644
 20
371.3223821771347
 30
0.0
  0
VERTEX
  5
AB
330
A9
100
AcDbEntity
  8
Layer 14
370
     0
100
AcDbVertex
100
AcDb2dVertex
 10
508.3541556888837
 20
371.3223821771347
 30
0.0
  0
VERTEX
  5
AC
330
A9
100
AcDbEntity
  8
Layer 14
370
     0
100
AcDbVertex
100
AcDb2dVertex
 10
508.3541556888837
 20
377.5221760123903
 30
0.0
  0
VERTEX
  5
AD
330
A9
100
AcDbEntity
  8
Layer 14
370
     0
100
AcDbVertex
100
AcDb2dVertex
 10
518.2033391716644
 20
377.5221760123903
 30
0.0
  0
VERTEX
  5
AE
330
A9
100
AcDbEntity
  8
Layer 14
370
     0
100
AcDbVertex
100
AcDb2dVertex
 10
518.2033391716644
 20
371.3223821771347
 30
0.0
  0
SEQEND
  5
AF
330
A9
100
AcDbEntity
  8
Layer 14
370
     0
  0
ENDBLK
  5
A8
330
A5
100
AcDbEntity
  8
0
100
AcDbBlockEnd
  0
BLOCK
  5
B2
330
B0
100
AcDbEntity
  8
0
100
AcDbBlockBegin
  2
block 13
 70
     0
 71
     0
 10
0.0
 20
0.0
 30
0.0
  3
block 13
  1

  0
POLYLINE
  5
B4
330
B0
100
AcDbEntity
  8
Layer 14
370
     0
100
AcDb2dPolyline
 66
     1
 10
0.0
 20
0.0
 30
0.0
  0
VERTEX
  5
B5
330
B4
100
AcDbEntity
  8
Layer 14
370
     0
100
AcDbVertex
100
AcDb2dVertex
 10
568.2033879872895
 20
371.3223821771347
 30
0.0
  0
VERTEX
  5
B6
330
B4
100
AcDbEntity
  8
Layer 14
370
     0
100
AcDbVertex
100
AcDb2dVertex
 10
558.3542045045087
 20
371.3223821771347
 30
0.0
  0
VERTEX
  5
B7
330
B4
100
AcDbEntity
  8
Layer 14
370
     0
100
AcDbVertex
100
AcDb2dVertex
 10
558.3542045045087
 20
377.5221760123903
 30
0.0
  0
VERTEX
  5
B8
330
B4
100
AcDbEntity
  8
Layer 14
370
     0
100
AcDbVertex
100
AcDb2dVertex
 10
568.2033879872895
 20
377.5221760123903
 30
0.0
  0
VERTEX
  5
B9
330
B4
100
AcDbEntity
  8
Layer 14
370
     0
100
AcDbVertex
100
AcDb2dVertex
 10
568.2033879872895
 20
371.3223821771347
 30
0.0
  0
SEQEND
  5
BA
330
B4
100
AcDbEntity
  8
Layer 14
370
     0
  0
ENDBLK
  5
B3
330
B0
100
AcDbEntity
  8
0
100
AcDbBlockEnd
  0
BLOCK
  5
BD
330
BB
100
AcDbEntity
  8
0
100
AcDbBlockBegin
  2
block 14
 70
     0
 71
     0
 10
0.0
 20
0.0
 30
0.0
  3
block 14
  1

  0
SPLINE
  5
BF
330
BB
100
AcDbEntity
  8
Layer 14
370
     0
100
AcDbSpline
210
0.0
220
0.0
230
1.0
 70
    11
 71
     3
 72
    17
 73
    13
 74
     0
 42
0.0000000001
 43
0.0000000001
 40
0.0
 40
0.0
 40
0.0
 40
0.0
 40
1.0
 40
1.0
 40
1.0
 40
2.0
 40
2.0
 40
2.0
 40
3.0
 40
3.0
 40
3.0
 40
4.0
 40
4.0
 40
4.0
 40
4.0
 10
538.2787718380865
 20
372.9980766211602
 30
0.0
 10
537.4919120292556
 20
372.9980766211602
 30
0.0
 10
536.8538803453872
 20
373.6361083050285
 30
0.0
 10
536.8538803453872
 20
374.422623604311
 30
0.0
 10
536.8538803453872
 20
375.2098279226906
 30
0.0
 10
537.4919120292556
 20
375.8471705874618
 30
0.0
 10
538.2787718380865
 20
375.8471705874618
 30
0.0
 10
539.0663206660147
 20
375.8471705874618
 30
0.0
 10
539.703663330786
 20
375.2098279226906
 30
0.0
 10
539.703663330786
 20
374.422623604311
 30
0.0
 10
539.703663330786
 20
373.6361083050285
 30
0.0
 10
539.0663206660147
 20
372.9980766211602
 30
0.0
 10
538.2787718380865
 20
372.9980766211602
 30
0.0
  0
ENDBLK
  5
BE
330
BB
100
AcDbEntity
  8
0
100
AcDbBlockEnd
  0
BLOCK
  5
106
330
104
100
AcDbEntity
  8
0
100
AcDbBlockBegin
  2
block 15
 70
     0
 71
     0
 10
0.0
 20
0.0
 30
0.0
  3
block 15
  1

  0
POLYLINE
  5
108
330
104
100
AcDbEntity
  8
Layer 14
370
     0
100
AcDb2dPolyline
 66
     1
 10
0.0
 20
0.0
 30
0.0
  0
VERTEX
  5
109
330
108
100
AcDbEntity
  8
Layer 14
370
     0
100
AcDbVertex
100
AcDb2dVertex
 10
536.5143661853159
 20
684.0312878064227
 30
0.0
  0
VERTEX
  5
10A
330
108
100
AcDbEntity
  8
Layer 14
370
     0
100
AcDbVertex
100
AcDb2dVertex
 10
530.1132065189474
 20
684.0312878064227
 30
0.0
  0
VERTEX
  5
10B
330
108
100
AcDbEntity
  8
Layer 14
370
     0
100
AcDbVertex
100
AcDb2dVertex
 10
530.1132065189474
 20
704.0314451364922
 30
0.0
  0
VERTEX
  5
10C
330
108
100
AcDbEntity
  8
Layer 14
370
     0
100
AcDbVertex
100
AcDb2dVertex
 10
536.5143661853159
 20
704.0314451364922
 30
0.0
  0
VERTEX
  5
10D
330
108
100
AcDbEntity
  8
Layer 14
370
     0
100
AcDbVertex
100
AcDb2dVertex
 10
536.5143661853159
 20
684.0312878064227
 30
0.0
  0
SEQEND
  5
10E
330
108
100
AcDbEntity
  8
Layer 14
370
     0
  0
ENDBLK
  5
107
330
104
100
AcDbEntity
  8
0
100
AcDbBlockEnd
  0
BLOCK
  5
111
330
10F
100
AcDbEntity
  8
0
100
AcDbBlockBegin
  2
block 16
 70
     0
 71
     0
 10
0.0
 20
0.0
 30
0.0
  3
block 16
  1

  0
POLYLINE
  5
113
330
10F
100
AcDbEntity
  8
Layer 14
370
     0
100
AcDb2dPolyline
 66
     1
 10
0.0
 20
0.0
 30
0.0
  0
VERTEX
  5
114
330
113
100
AcDbEntity
  8
Layer 14
370
     0
100
AcDbVertex
100
AcDb2dVertex
 10
546.5156506337704
 20
684.0312878064227
 30
0.0
  0
VERTEX
  5
115
330
113
100
AcDbEntity
  8
Layer 14
370
     0
100
AcDbVertex
100
AcDb2dVertex
 10
540.1144909674019
 20
684.0312878064227
 30
0.0
  0
VERTEX
  5
116
330
113
100
AcDbEntity
  8
Layer 14
370
     0
100
AcDbVertex
100
AcDb2dVertex
 10
540.1144909674019
 20
704.0314451364922
 30
0.0
  0
VERTEX
  5
117
330
113
100
AcDbEntity
  8
Layer 14
370
     0
100
AcDbVertex
100
AcDb2dVertex
 10
546.5156506337704
 20
704.0314451364922
 30
0.0
  0
VERTEX
  5
118
330
113
100
AcDbEntity
  8
Layer 14
370
     0
100
AcDbVertex
100
AcDb2dVertex
 10
546.5156506337704
 20
684.0312878064227
 30
0.0
  0
SEQEND
  5
119
330
113
100
AcDbEntity
  8
Layer 14
370
     0
  0
ENDBLK
  5
112
330
10F
100
AcDbEntity
  8
0
100
AcDbBlockEnd
  0
BLOCK
  5
11C
330
11A
100
AcDbEntity
  8
0
100
AcDbBlockBegin
  2
block 17
 70
     0
 71
     0
 10
0.0
 20
0.0
 30
0.0
  3
block 17
  1

  0
POLYLINE
  5
11E
330
11A
100
AcDbEntity
  8
Layer 14
370
     0
100
AcDb2dPolyline
 66
     1
 10
0.0
 20
0.0
 30
0.0
  0
VERTEX
  5
11F
330
11E
100
AcDbEntity
  8
Layer 14
370
     0
100
AcDbVertex
100
AcDb2dVertex
 10
536.5143661853159
 20
656.2383244887183
 30
0.0
  0
VERTEX
  5
120
330
11E
100
AcDbEntity
  8
Layer 14
370
     0
100
AcDbVertex
100
AcDb2dVertex
 10
530.1132065189474
 20
656.2383244887183
 30
0.0
  0
VERTEX
  5
121
330
11E
100
AcDbEntity
  8
Layer 14
370
     0
100
AcDbVertex
100
AcDb2dVertex
 10
530.1132065189474
 20
676.2384818187876
 30
0.0
  0
VERTEX
  5
122
330
11E
100
AcDbEntity
  8
Layer 14
370
     0
100
AcDbVertex
100
AcDb2dVertex
 10
536.5143661853159
 20
676.2384818187876
 30
0.0
  0
VERTEX
  5
123
330
11E
100
AcDbEntity
  8
Layer 14
370
     0
100
AcDbVertex
100
AcDb2dVertex
 10
536.5143661853159
 20
656.2383244887183
 30
0.0
  0
SEQEND
  5
124
330
11E
100
AcDbEntity
  8
Layer 14
370
     0
  0
ENDBLK
  5
11D
330
11A
100
AcDbEntity
  8
0
100
AcDbBlockEnd
  0
BLOCK
  5
127
330
125
100
AcDbEntity
  8
0
100
AcDbBlockBegin
  2
block 18
 70
     0
 71
     0
 10
0.0
 20
0.0
 30
0.0
  3
block 18
  1

  0
POLYLINE
  5
129
330
125
100
AcDbEntity
  8
Layer 14
370
     0
100
AcDb2dPolyline
 66
     1
 10
0.0
 20
0.0
 30
0.0
  0
VERTEX
  5
12A
330
129
100
AcDbEntity
  8
Layer 14
370
     0
100
AcDbVertex
100
AcDb2dVertex
 10
546.5156506337704
 20
656.2383244887183
 30
0.0
  0
VERTEX
  5
12B
330
129
100
AcDbEntity
  8
Layer 14
370
     0
100
AcDbVertex
100
AcDb2dVertex
 10
540.1144909674019
 20
656.2383244887183
 30
0.0
  0
VERTEX
  5
12C
330
129
100
AcDbEntity
  8
Layer 14
370
     0
100
AcDbVertex
100
AcDb2dVertex
 10
540.1144909674019
 20
676.2384818187876
 30
0.0
  0
VERTEX
  5
12D
330
129
100
AcDbEntity
  8
Layer 14
370
     0
100
AcDbVertex
100
AcDb2dVertex
 10
546.5156506337704
 20
676.2384818187876
 30
0.0
  0
VERTEX
  5
12E
330
129
100
AcDbEntity
  8
Layer 14
370
     0
100
AcDbVertex
100
AcDb2dVertex
 10
546.5156506337704
 20
656.2383244887183
 30
0.0
  0
SEQEND
  5
12F
330
129
100
AcDbEntity
  8
Layer 14
370
     0
  0
ENDBLK
  5
128
330
125
100
AcDbEntity
  8
0
100
AcDbBlockEnd
  0
BLOCK
  5
132
330
130
100
AcDbEntity
  8
0
100
AcDbBlockBegin
  2
block 19
 70
     0
 71
     0
 10
0.0
 20
0.0
 30
0.0
  3
block 19
  1

  0
POLYLINE
  5
134
330
130
100
AcDbEntity
  8
Layer 14
370
     0
100
AcDb2dPolyline
 66
     1
 10
0.0
 20
0.0
 30
0.0
  0
VERTEX
  5
135
330
134
100
AcDbEntity
  8
Layer 14
370
     0
100
AcDbVertex
100
AcDb2dVertex
 10
463.5139986362917
 20
684.0312878064227
 30
0.0
  0
VERTEX
  5
136
330
134
100
AcDbEntity
  8
Layer 14
370
     0
100
AcDbVertex
100
AcDb2dVertex
 10
457.1128389699232
 20
684.0312878064227
 30
0.0
  0
VERTEX
  5
137
330
134
100
AcDbEntity
  8
Layer 14
370
     0
100
AcDbVertex
100
AcDb2dVertex
 10
457.1128389699232
 20
704.0314451364922
 30
0.0
  0
VERTEX
  5
138
330
134
100
AcDbEntity
  8
Layer 14
370
     0
100
AcDbVertex
100
AcDb2dVertex
 10
463.5139986362917
 20
704.0314451364922
 30
0.0
  0
VERTEX
  5
139
330
134
100
AcDbEntity
  8
Layer 14
370
     0
100
AcDbVertex
100
AcDb2dVertex
 10
463.5139986362917
 20
684.0312878064227
 30
0.0
  0
SEQEND
  5
13A
330
134
100
AcDbEntity
  8
Layer 14
370
     0
  0
ENDBLK
  5
133
330
130
100
AcDbEntity
  8
0
100
AcDbBlockEnd
  0
BLOCK
  5
13D
330
13B
100
AcDbEntity
  8
0
100
AcDbBlockBegin
  2
block 20
 70
     0
 71
     0
 10
0.0
 20
0.0
 30
0.0
  3
block 20
  1

  0
POLYLINE
  5
13F
330
13B
100
AcDbEntity
  8
Layer 14
370
     0
100
AcDb2dPolyline
 66
     1
 10
0.0
 20
0.0
 30
0.0
  0
VERTEX
  5
140
330
13F
100
AcDbEntity
  8
Layer 14
370
     0
100
AcDbVertex
100
AcDb2dVertex
 10
473.5152830847462
 20
684.0312878064227
 30
0.0
  0
VERTEX
  5
141
330
13F
100
AcDbEntity
  8
Layer 14
370
     0
100
AcDbVertex
100
AcDb2dVertex
 10
467.1141234183777
 20
684.0312878064227
 30
0.0
  0
VERTEX
  5
142
330
13F
100
AcDbEntity
  8
Layer 14
370
     0
100
AcDbVertex
100
AcDb2dVertex
 10
467.1141234183777
 20
704.0314451364922
 30
0.0
  0
VERTEX
  5
143
330
13F
100
AcDbEntity
  8
Layer 14
370
     0
100
AcDbVertex
100
AcDb2dVertex
 10
473.5152830847462
 20
704.0314451364922
 30
0.0
  0
VERTEX
  5
144
330
13F
100
AcDbEntity
  8
Layer 14
370
     0
100
AcDbVertex
100
AcDb2dVertex
 10
473.5152830847462
 20
684.0312878064227
 30
0.0
  0
SEQEND
  5
145
330
13F
100
AcDbEntity
  8
Layer 14
370
     0
  0
ENDBLK
  5
13E
330
13B
100
AcDbEntity
  8
0
100
AcDbBlockEnd
  0
BLOCK
  5
148
330
146
100
AcDbEntity
  8
0
100
AcDbBlockBegin
  2
block 21
 70
     0
 71
     0
 10
0.0
 20
0.0
 30
0.0
  3
block 21
  1

  0
POLYLINE
  5
14A
330
146
100
AcDbEntity
  8
Layer 14
370
     0
100
AcDb2dPolyline
 66
     1
 10
0.0
 20
0.0
 30
0.0
  0
VERTEX
  5
14B
330
14A
100
AcDbEntity
  8
Layer 14
370
     0
100
AcDbVertex
100
AcDb2dVertex
 10
463.5139986362917
 20
656.2383244887183
 30
0.0
  0
VERTEX
  5
14C
330
14A
100
AcDbEntity
  8
Layer 14
370
     0
100
AcDbVertex
100
AcDb2dVertex
 10
457.1128389699232
 20
656.2383244887183
 30
0.0
  0
VERTEX
  5
14D
330
14A
100
AcDbEntity
  8
Layer 14
370
     0
100
AcDbVertex
100
AcDb2dVertex
 10
457.1128389699232
 20
676.2384818187876
 30
0.0
  0
VERTEX
  5
14E
330
14A
100
AcDbEntity
  8
Layer 14
370
     0
100
AcDbVertex
100
AcDb2dVertex
 10
463.5139986362917
 20
676.2384818187876
 30
0.0
  0
VERTEX
  5
14F
330
14A
100
AcDbEntity
  8
Layer 14
370
     0
100
AcDbVertex
100
AcDb2dVertex
 10
463.5139986362917
 20
656.2383244887183
 30
0.0
  0
SEQEND
  5
150
330
14A
100
AcDbEntity
  8
Layer 14
370
     0
  0
ENDBLK
  5
149
330
146
100
AcDbEntity
  8
0
100
AcDbBlockEnd
  0
BLOCK
  5
153
330
151
100
AcDbEntity
  8
0
100
AcDbBlockBegin
  2
block 22
 70
     0
 71
     0
 10
0.0
 20
0.0
 30
0.0
  3
block 22
  1

  0
POLYLINE
  5
155
330
151
100
AcDbEntity
  8
Layer 14
370
     0
100
AcDb2dPolyline
 66
     1
 10
0.0
 20
0.0
 30
0.0
  0
VERTEX
  5
156
330
155
100
AcDbEntity
  8
Layer 14
370
     0
100
AcDbVertex
100
AcDb2dVertex
 10
473.5152830847462
 20
656.2383244887183
 30
0.0
  0
VERTEX
  5
157
330
155
100
AcDbEntity
  8
Layer 14
370
     0
100
AcDbVertex
100
AcDb2dVertex
 10
467.1141234183777
 20
656.2383244887183
 30
0.0
  0
VERTEX
  5
158
330
155
100
AcDbEntity
  8
Layer 14
370
     0
100
AcDbVertex
100
AcDb2dVertex
 10
467.1141234183777
 20
676.2384818187876
 30
0.0
  0
VERTEX
  5
159
330
155
100
AcDbEntity
  8
Layer 14
370
     0
100
AcDbVertex
100
AcDb2dVertex
 10
473.5152830847462
 20
676.2384818187876
 30
0.0
  0
VERTEX
  5
15A
330
155
100
AcDbEntity
  8
Layer 14
370
     0
100
AcDbVertex
100
AcDb2dVertex
 10
473.5152830847462
 20
656.2383244887183
 30
0.0
  0
SEQEND
  5
15B
330
155
100
AcDbEntity
  8
Layer 14
370
     0
  0
ENDBLK
  5
154
330
151
100
AcDbEntity
  8
0
100
AcDbBlockEnd
  0
BLOCK
  5
161
330
15F
100
AcDbEntity
  8
0
100
AcDbBlockBegin
  2
block 23
 70
     0
 71
     0
 10
0.0
 20
0.0
 30
0.0
  3
block 23
  1

  0
SPLINE
  5
163
330
15F
100
AcDbEntity
  8
HIDE
 62
     7
420
 16777215
370
    35
100
AcDbSpline
210
0.0
220
0.0
230
1.0
 70
     8
 71
     3
 72
     8
 73
     4
 74
     0
 42
0.0000000001
 43
0.0000000001
 40
0.0
 40
0.0
 40
0.0
 40
0.0
 40
1.0
 40
1.0
 40
1.0
 40
1.0
 10
2571.867132603561
 20
863.6075789941676
 30
0.0
 10
2574.075438809606
 20
866.5893091366513
 30
0.0
 10
2573.413291457341
 20
872.0005206153332
 30
0.0
 10
2574.738275180968
 20
875.6447426196305
 30
0.0
  0
SPLINE
  5
164
330
15F
100
AcDbEntity
  8
HIDE
 62
     7
420
 16777215
370
    35
100
AcDbSpline
210
0.0
220
0.0
230
1.0
 70
     8
 71
     3
 72
    17
 73
    13
 74
     0
 42
0.0000000001
 43
0.0000000001
 40
0.0
 40
0.0
 40
0.0
 40
0.0
 40
1.0
 40
1.0
 40
1.0
 40
2.0
 40
2.0
 40
2.0
 40
3.0
 40
3.0
 40
3.0
 40
4.0
 40
4.0
 40
4.0
 40
4.0
 10
2574.738275180968
 20
876.4178220465205
 30
0.0
 10
2576.726095275958
 20
875.423911999026
 30
0.0
 10
2579.486994797837
 20
875.5344995641025
 30
0.0
 10
2581.695990022979
 20
875.313668943498
 30
0.0
 10
2584.12478234008
 20
875.0921493037964
 30
0.0
 10
2586.553574657181
 20
874.872007702289
 30
0.0
 10
2588.984434031574
 20
874.6504880625874
 30
0.0
 10
2593.952950740401
 20
874.0985837658504
 30
0.0
 10
2599.033433052499
 20
873.2152612834324
 30
0.0
 10
2604.112881835951
 20
872.5527694216188
 30
0.0
 10
2607.315098089491
 20
872.2213512359377
 30
0.0
 10
2610.517658852579
 20
872.1111081804098
 30
0.0
 10
2613.720219615667
 20
871.8899330502567
 30
0.0
  0
SPLINE
  5
165
330
15F
100
AcDbEntity
  8
HIDE
 62
     7
420
 16777215
370
    35
100
AcDbSpline
210
0.0
220
0.0
230
1.0
 70
     8
 71
     3
 72
    38
 73
    34
 74
     0
 42
0.0000000001
 43
0.0000000001
 40
0.0
 40
0.0
 40
0.0
 40
0.0
 40
1.0
 40
1.0
 40
1.0
 40
2.0
 40
2.0
 40
2.0
 40
3.0
 40
3.0
 40
3.0
 40
4.0
 40
4.0
 40
4.0
 40
5.0
 40
5.0
 40
5.0
 40
6.0
 40
6.0
 40
6.0
 40
7.0
 40
7.0
 40
7.0
 40
8.0
 40
8.0
 40
8.0
 40
9.0
 40
9.0
 40
9.0
 40
10.0
 40
10.0
 40
10.0
 40
11.0
 40
11.0
 40
11.0
 40
11.0
 10
2614.051637801349
 20
872.3319388010143
 30
0.0
 10
2614.383055987029
 20
873.1050182279043
 30
0.0
 10
2614.162569875974
 20
871.1171981329152
 30
0.0
 10
2614.162569875974
 20
870.8960230027621
 30
0.0
 10
2614.162569875974
 20
869.7918698997396
 30
0.0
 10
2613.94139474582
 20
868.6873722871685
 30
0.0
 10
2613.831151690292
 20
867.583219184146
 30
0.0
 10
2613.499733504611
 20
865.1537378479477
 30
0.0
 10
2613.168659828479
 20
862.834844076826
 30
0.0
 10
2612.947829207874
 20
860.4050182310793
 30
0.0
 10
2612.726654077721
 20
857.8652938393532
 30
0.0
 10
2612.616411022193
 20
855.325569447627
 30
0.0
 10
2612.505478947568
 20
852.7855005463523
 30
0.0
 10
2612.284992836512
 20
849.6935273483406
 30
0.0
 10
2611.179806204844
 20
846.7117972058568
 30
0.0
 10
2611.070252168413
 20
843.6194794982965
 30
0.0
 10
2610.84907703826
 20
838.6506182799208
 30
0.0
 10
2609.966443574939
 20
833.4602374218433
 30
0.0
 10
2609.524093314633
 20
828.4903426748219
 30
0.0
 10
2609.082432073424
 20
823.300306326293
 30
0.0
 10
2607.426030164116
 20
818.0000269222361
 30
0.0
 10
2604.996548827918
 20
813.4724824355208
 30
0.0
 10
2603.560633029665
 20
810.8218259691696
 30
0.0
 10
2602.236338325135
 20
808.3926891425199
 30
0.0
 10
2600.358072266577
 20
806.1833494078292
 30
0.0
 10
2600.358072266577
 20
806.1833494078292
 30
0.0
 10
2600.358072266577
 20
806.1833494078292
 30
0.0
 10
2600.358072266577
 20
806.1833494078292
 30
0.0
 10
2601.462569879148
 20
804.6378795731462
 30
0.0
 10
2605.327967013598
 20
802.318641292476
 30
0.0
 10
2602.345892361566
 20
800.4414087625632
 30
0.0
 10
2600.026654080896
 20
799.0058374738597
 30
0.0
 10
2597.928590930379
 20
801.7663924861904
 30
0.0
 10
2596.824093317808
 20
802.7606470432335
 30
0.0
  0
SPLINE
  5
166
330
15F
100
AcDbEntity
  8
HIDE
 62
     7
420
 16777215
370
    35
100
AcDbSpline
210
0.0
220
0.0
230
1.0
 70
     8
 71
     3
 72
    26
 73
    22
 74
     0
 42
0.0000000001
 43
0.0000000001
 40
0.0
 40
0.0
 40
0.0
 40
0.0
 40
1.0
 40
1.0
 40
1.0
 40
2.0
 40
2.0
 40
2.0
 40
3.0
 40
3.0
 40
3.0
 40
4.0
 40
4.0
 40
4.0
 40
5.0
 40
5.0
 40
5.0
 40
6.0
 40
6.0
 40
6.0
 40
7.0
 40
7.0
 40
7.0
 40
7.0
 10
2595.830183270313
 20
801.987912125892
 30
0.0
 10
2595.830183270313
 20
801.1045896434739
 30
0.0
 10
2594.174125870554
 20
800.7728269482443
 30
0.0
 10
2593.401046443664
 20
800.3308211974868
 30
0.0
 10
2591.081808162994
 20
799.0058374738597
 30
0.0
 10
2588.321597660211
 20
798.1225149914417
 30
0.0
 10
2585.892116324013
 20
797.0180173788706
 30
0.0
 10
2580.701735465936
 20
794.5885360426723
 30
0.0
 10
2575.290868496802
 20
792.9321341333642
 30
0.0
 10
2569.658826397516
 20
793.1526202444202
 30
0.0
 10
2558.50532976402
 20
793.4840384301012
 30
0.0
 10
2546.910171889314
 20
797.4596786200796
 30
0.0
 10
2539.069134564886
 20
805.8526202412452
 30
0.0
 10
2537.633907785731
 20
807.3987790950254
 30
0.0
 10
2536.528721154062
 20
809.3865991900145
 30
0.0
 10
2535.093838884456
 20
811.1532441548507
 30
0.0
 10
2533.547335521127
 20
813.0304766847632
 30
0.0
 10
2532.55411449273
 20
815.0179522702039
 30
0.0
 10
2532.001865686444
 20
817.4477781159505
 30
0.0
 10
2531.339029315082
 20
820.8711694996433
 30
0.0
 10
2530.897712583422
 20
824.4048039388641
 30
0.0
 10
2530.786780508796
 20
827.4971216464244
 30
0.0
  0
SPLINE
  5
167
330
15F
100
AcDbEntity
  8
HIDE
 62
     7
420
 16777215
370
    35
100
AcDbSpline
210
0.0
220
0.0
230
1.0
 70
     8
 71
     3
 72
    14
 73
    10
 74
     0
 42
0.0000000001
 43
0.0000000001
 40
0.0
 40
0.0
 40
0.0
 40
0.0
 40
1.0
 40
1.0
 40
1.0
 40
2.0
 40
2.0
 40
2.0
 40
3.0
 40
3.0
 40
3.0
 40
3.0
 10
2530.56629439774
 20
827.6073647019524
 30
0.0
 10
2529.903802535927
 20
827.2766355353684
 30
0.0
 10
2528.910236997981
 20
827.8285398321054
 30
0.0
 10
2528.137157571091
 20
828.2702010733144
 30
0.0
 10
2525.15473840951
 20
829.59552930649
 30
0.0
 10
2526.039094420574
 20
830.5890948444361
 30
0.0
 10
2526.701241772839
 20
833.5708249869199
 30
0.0
 10
2527.363733634652
 20
836.110549378646
 30
0.0
 10
2527.142903014048
 20
839.9756020035478
 30
0.0
 10
2528.247400626619
 20
841.8528345334604
 30
0.0
  0
SPLINE
  5
168
330
15F
100
AcDbEntity
  8
HIDE
 62
     7
420
 16777215
370
    35
100
AcDbSpline
210
0.0
220
0.0
230
1.0
 70
     8
 71
     3
 72
     8
 73
     4
 74
     0
 42
0.0000000001
 43
0.0000000001
 40
0.0
 40
0.0
 40
0.0
 40
0.0
 40
1.0
 40
1.0
 40
1.0
 40
1.0
 10
2529.792870461302
 20
842.4050833397459
 30
0.0
 10
2531.228786259554
 20
843.5092364427686
 30
0.0
 10
2532.55411449273
 20
842.0740096636134
 30
0.0
 10
2533.988996762336
 20
841.9630775889884
 30
0.0
  0
SPLINE
  5
169
330
15F
100
AcDbEntity
  8
HIDE
 62
     7
420
 16777215
370
    35
100
AcDbSpline
210
0.0
220
0.0
230
1.0
 70
     8
 71
     3
 72
     8
 73
     4
 74
     0
 42
0.0000000001
 43
0.0000000001
 40
0.0
 40
0.0
 40
0.0
 40
0.0
 40
1.0
 40
1.0
 40
1.0
 40
1.0
 10
2533.216606354543
 20
842.294840284218
 30
0.0
 10
2536.419167117631
 20
848.8102048659225
 30
0.0
 10
2540.283875232985
 20
855.104394317474
 30
0.0
 10
2545.916606351368
 20
859.1902775629802
 30
0.0
  0
SPLINE
  5
16A
330
15F
100
AcDbEntity
  8
HIDE
 62
     7
420
 16777215
370
    35
100
AcDbSpline
210
0.0
220
0.0
230
1.0
 70
     8
 71
     3
 72
     8
 73
     4
 74
     0
 42
0.0000000001
 43
0.0000000001
 40
0.0
 40
0.0
 40
0.0
 40
0.0
 40
1.0
 40
1.0
 40
1.0
 40
1.0
 10
2536.308924062103
 20
848.47913118979
 30
0.0
 10
2538.84864845383
 20
850.9079235068912
 30
0.0
 10
2540.836468548819
 20
854.3316594001324
 30
0.0
 10
2544.480690553116
 20
855.2146373730019
 30
0.0
  0
SPLINE
  5
16B
330
15F
100
AcDbEntity
  8
HIDE
 62
     7
420
 16777215
370
    35
100
AcDbSpline
210
0.0
220
0.0
230
1.0
 70
     8
 71
     3
 72
    11
 73
     7
 74
     0
 42
0.0000000001
 43
0.0000000001
 40
0.0
 40
0.0
 40
0.0
 40
0.0
 40
1.0
 40
1.0
 40
1.0
 40
2.0
 40
2.0
 40
2.0
 40
2.0
 10
2544.922351794325
 20
855.877473744364
 30
0.0
 10
2543.486435996073
 20
856.3194794951215
 30
0.0
 10
2543.376192940545
 20
858.4178871551873
 30
0.0
 10
2543.817165162657
 20
859.7425263692658
 30
0.0
 10
2545.143526924478
 20
863.4973359386396
 30
0.0
 10
2548.897302965207
 20
860.5156057961559
 30
0.0
 10
2549.560483846117
 20
857.9755368948812
 30
0.0
  0
SPLINE
  5
16C
330
15F
100
AcDbEntity
  8
HIDE
 62
     7
420
 16777215
370
    35
100
AcDbSpline
210
0.0
220
0.0
230
1.0
 70
     8
 71
     3
 72
    11
 73
     7
 74
     0
 42
0.0000000001
 43
0.0000000001
 40
0.0
 40
0.0
 40
0.0
 40
0.0
 40
1.0
 40
1.0
 40
1.0
 40
2.0
 40
2.0
 40
2.0
 40
2.0
 10
2549.008235039832
 20
858.0864689695062
 30
0.0
 10
2550.66463694914
 20
860.1841876104749
 30
0.0
 10
2556.517165159482
 20
861.2890297325945
 30
0.0
 10
2558.947335514777
 20
861.6197588991785
 30
0.0
 10
2562.922286685658
 20
862.2825952705405
 30
0.0
 10
2567.671006302527
 20
863.0553301878821
 30
0.0
 10
2571.425471362352
 20
864.4909014765857
 30
0.0
  0
SPLINE
  5
16D
330
15F
100
AcDbEntity
  8
HIDE
 62
     7
420
 16777215
370
    35
100
AcDbSpline
210
0.0
220
0.0
230
1.0
 70
     8
 71
     3
 72
    14
 73
    10
 74
     0
 42
0.0000000001
 43
0.0000000001
 40
0.0
 40
0.0
 40
0.0
 40
0.0
 40
1.0
 40
1.0
 40
1.0
 40
2.0
 40
2.0
 40
2.0
 40
3.0
 40
3.0
 40
3.0
 40
3.0
 10
2570.431216805309
 20
864.9332517368917
 30
0.0
 10
2570.320973749781
 20
864.7120766067387
 30
0.0
 10
2570.210041675156
 20
864.6018335512107
 30
0.0
 10
2570.210041675156
 20
864.3806584210577
 30
0.0
 10
2570.100487638725
 20
864.2704153655296
 30
0.0
 10
2569.879312508572
 20
864.1601723100017
 30
0.0
 10
2569.768724943495
 20
864.0488957258281
 30
0.0
 10
2570.431216805309
 20
863.9389971798486
 30
0.0
 10
2571.315228306824
 20
863.9389971798486
 30
0.0
 10
2571.867132603561
 20
863.9389971798486
 30
0.0
  0
SPLINE
  5
16E
330
15F
100
AcDbEntity
  8
HIDE
 62
     7
420
 16777215
370
    35
100
AcDbSpline
210
0.0
220
0.0
230
1.0
 70
     8
 71
     3
 72
     8
 73
     4
 74
     0
 42
0.0000000001
 43
0.0000000001
 40
0.0
 40
0.0
 40
0.0
 40
0.0
 40
1.0
 40
1.0
 40
1.0
 40
1.0
 10
2572.088307733714
 20
863.9389971798486
 30
0.0
 10
2573.302703892265
 20
867.4729761286179
 30
0.0
 10
2572.198550789242
 20
872.8838430977513
 30
0.0
 10
2574.187059903328
 20
876.4178220465205
 30
0.0
  0
ENDBLK
  5
162
330
15F
100
AcDbEntity
  8
0
100
AcDbBlockEnd
  0
BLOCK
  5
173
330
171
100
AcDbEntity
  8
0
100
AcDbBlockBegin
  2
block 24
 70
     0
 71
     0
 10
0.0
 20
0.0
 30
0.0
  3
block 24
  1

  0
INSERT
  5
176
330
171
100
AcDbEntity
  8
Layer 16
100
AcDbBlockReference
  2
block 25
 10
0.0
 20
0.0
 30
0.0
  0
ENDBLK
  5
174
330
171
100
AcDbEntity
  8
0
100
AcDbBlockEnd
  0
BLOCK
  5
177
330
175
100
AcDbEntity
  8
0
100
AcDbBlockBegin
  2
block 25
 70
     0
 71
     0
 10
0.0
 20
0.0
 30
0.0
  3
block 25
  1

  0
SPLINE
  5
179
330
175
100
AcDbEntity
  8
Layer 16
370
     0
100
AcDbSpline
210
0.0
220
0.0
230
1.0
 70
    11
 71
     3
 72
    17
 73
    13
 74
     0
 42
0.0000000001
 43
0.0000000001
 40
0.0
 40
0.0
 40
0.0
 40
0.0
 40
1.0
 40
1.0
 40
1.0
 40
2.0
 40
2.0
 40
2.0
 40
3.0
 40
3.0
 40
3.0
 40
4.0
 40
4.0
 40
4.0
 40
4.0
 10
566.459480652656
 20
357.29567590894
 30
0.0
 10
566.459480652656
 20
358.0825357177711
 30
0.0
 10
565.8212767140135
 20
358.7205674016393
 30
0.0
 10
565.0344169051824
 20
358.7205674016393
 30
0.0
 10
564.2475570963513
 20
358.7205674016393
 30
0.0
 10
563.6095254124831
 20
358.0825357177711
 30
0.0
 10
563.6095254124831
 20
357.29567590894
 30
0.0
 10
563.6095254124831
 20
356.5088161001089
 30
0.0
 10
564.2475570963513
 20
355.8707844162407
 30
0.0
 10
565.0344169051824
 20
355.8707844162407
 30
0.0
 10
565.8212767140135
 20
355.8707844162407
 30
0.0
 10
566.459480652656
 20
356.5088161001089
 30
0.0
 10
566.459480652656
 20
357.29567590894
 30
0.0
  0
ENDBLK
  5
178
330
175
100
AcDbEntity
  8
0
100
AcDbBlockEnd
  0
ENDSEC
  0
SECTION
  2
ENTITIES
  0
INSERT
  5
49
330
1F
100
AcDbEntity
  8
Layer 13
100
AcDbBlockReference
  2
block 2
 10
0.0
 20
0.0
 30
0.0
  0
POLYLINE
  5
5C
330
1F
100
AcDbEntity
  8
Layer 14
370
     0
100
AcDb2dPolyline
 66
     1
 10
0.0
 20
0.0
 30
0.0
  0
VERTEX
  5
5D
330
5C
100
AcDbEntity
  8
Layer 14
370
     0
100
AcDbVertex
100
AcDb2dVertex
 10
258.7821369795753
 20
637.5149195454824
 30
0.0
  0
VERTEX
  5
5E
330
5C
100
AcDbEntity
  8
Layer 14
370
     0
100
AcDbVertex
100
AcDb2dVertex
 10
256.8067192283331
 20
637.5149195454824
 30
0.0
  0
SEQEND
  5
5F
330
5C
100
AcDbEntity
  8
Layer 14
370
     0
  0
POLYLINE
  5
60
330
1F
100
AcDbEntity
  8
Layer 14
370
     0
100
AcDb2dPolyline
 66
     1
 10
0.0
 20
0.0
 30
0.0
  0
VERTEX
  5
61
330
60
100
AcDbEntity
  8
Layer 14
370
     0
100
AcDbVertex
100
AcDb2dVertex
 10
256.3554117197653
 20
636.516530873857
 30
0.0
  0
VERTEX
  5
62
330
60
100
AcDbEntity
  8
Layer 14
370
     0
100
AcDbVertex
100
AcDb2dVertex
 10
257.743785200321
 20
639.5375351048726
 30
0.0
  0
VERTEX
  5
63
330
60
100
AcDbEntity
  8
Layer 14
370
     0
100
AcDbVertex
100
AcDb2dVertex
 10
257.8533392367519
 20
639.5375351048726
 30
0.0
  0
VERTEX
  5
64
330
60
100
AcDbEntity
  8
Layer 14
370
     0
100
AcDbVertex
100
AcDb2dVertex
 10
259.2410236982106
 20
636.516530873857
 30
0.0
  0
SEQEND
  5
65
330
60
100
AcDbEntity
  8
Layer 14
370
     0
  0
SPLINE
  5
66
330
1F
100
AcDbEntity
  8
Layer 14
370
     0
100
AcDbSpline
210
0.0
220
0.0
230
1.0
 70
     8
 71
     3
 72
    23
 73
    19
 74
     0
 42
0.0000000001
 43
0.0000000001
 40
0.0
 40
0.0
 40
0.0
 40
0.0
 40
1.0
 40
1.0
 40
1.0
 40
2.0
 40
2.0
 40
2.0
 40
3.0
 40
3.0
 40
3.0
 40
4.0
 40
4.0
 40
4.0
 40
5.0
 40
5.0
 40
5.0
 40
6.0
 40
6.0
 40
6.0
 40
6.0
 10
253.4687662126745
 20
638.6049477570155
 30
0.0
 10
253.4687662126745
 20
638.9267196753378
 30
0.0
 10
253.4773789513876
 20
639.6625920709871
 30
0.0
 10
254.5267550361947
 20
639.6625920709871
 30
0.0
 10
255.364257748659
 20
639.6625920709871
 30
0.0
 10
255.5337564465332
 20
639.1127548315413
 30
0.0
 10
255.5337564465332
 20
638.825089358523
 30
0.0
 10
255.5337564465332
 20
638.3892847796388
 30
0.0
 10
255.2712401705572
 20
638.1398598665068
 30
0.0
 10
254.9074380873148
 20
637.9241968891301
 30
0.0
 10
254.9074380873148
 20
637.9241968891301
 30
0.0
 10
254.17983392083
 20
637.5528155958201
 30
0.0
 10
254.17983392083
 20
637.5528155958201
 30
0.0
 10
253.6382649105488
 20
637.2351777920801
 30
0.0
 10
253.413989194459
 20
637.0608559605265
 30
0.0
 10
253.4053764557459
 20
636.6164386429292
 30
0.0
 10
253.4053764557459
 20
636.6164386429292
 30
0.0
 10
255.6226399100527
 20
636.6164386429292
 30
0.0
 10
255.6226399100527
 20
636.6164386429292
 30
0.0
  0
INSERT
  5
68
330
1F
100
AcDbEntity
  8
Layer 14
100
AcDbBlockReference
  2
block 5
 10
0.0
 20
0.0
 30
0.0
  0
INSERT
  5
73
330
1F
100
AcDbEntity
  8
Layer 14
100
AcDbBlockReference
  2
block 6
 10
0.0
 20
0.0
 30
0.0
  0
SPLINE
  5
77
330
1F
100
AcDbEntity
  8
Layer 14
370
     0
100
AcDbSpline
210
0.0
220
0.0
230
1.0
 70
    11
 71
     3
 72
    17
 73
    13
 74
     0
 42
0.0000000001
 43
0.0000000001
 40
0.0
 40
0.0
 40
0.0
 40
0.0
 40
1.0
 40
1.0
 40
1.0
 40
2.0
 40
2.0
 40
2.0
 40
3.0
 40
3.0
 40
3.0
 40
4.0
 40
4.0
 40
4.0
 40
4.0
 10
278.2672525345999
 20
687.0447128273707
 30
0.0
 10
278.2672525345999
 20
686.2165118727168
 30
0.0
 10
278.9390461542236
 20
685.544718253093
 30
0.0
 10
279.7672471088777
 20
685.544718253093
 30
0.0
 10
280.5954480635317
 20
685.544718253093
 30
0.0
 10
281.2672416831554
 20
686.2165118727168
 30
0.0
 10
281.2672416831554
 20
687.0447128273707
 30
0.0
 10
281.2672416831554
 20
687.8725692724763
 30
0.0
 10
280.5954480635317
 20
688.5453964207456
 30
0.0
 10
279.7672471088777
 20
688.5453964207456
 30
0.0
 10
278.9390461542236
 20
688.5453964207456
 30
0.0
 10
278.2672525345999
 20
687.8725692724763
 30
0.0
 10
278.2672525345999
 20
687.0447128273707
 30
0.0
  0
SPLINE
  5
78
330
1F
100
AcDbEntity
  8
Layer 14
370
     0
100
AcDbSpline
210
0.0
220
0.0
230
1.0
 70
    11
 71
     3
 72
    17
 73
    13
 74
     0
 42
0.0000000001
 43
0.0000000001
 40
0.0
 40
0.0
 40
0.0
 40
0.0
 40
1.0
 40
1.0
 40
1.0
 40
2.0
 40
2.0
 40
2.0
 40
3.0
 40
3.0
 40
3.0
 40
4.0
 40
4.0
 40
4.0
 40
4.0
 10
278.2672525345999
 20
662.0443439100097
 30
0.0
 10
278.2672525345999
 20
661.2147649171616
 30
0.0
 10
278.9390461542236
 20
660.5450383548291
 30
0.0
 10
279.7672471088777
 20
660.5450383548291
 30
0.0
 10
280.5954480635317
 20
660.5450383548291
 30
0.0
 10
281.2672416831554
 20
661.2147649171616
 30
0.0
 10
281.2672416831554
 20
662.0443439100097
 30
0.0
 10
281.2672416831554
 20
662.8728893742124
 30
0.0
 10
280.5954480635317
 20
663.5436494651905
 30
0.0
 10
279.7672471088777
 20
663.5436494651905
 30
0.0
 10
278.9390461542236
 20
663.5436494651905
 30
0.0
 10
278.2672525345999
 20
662.8728893742124
 30
0.0
 10
278.2672525345999
 20
662.0443439100097
 30
0.0
  0
SPLINE
  5
79
330
1F
100
AcDbEntity
  8
Layer 14
370
     0
100
AcDbSpline
210
0.0
220
0.0
230
1.0
 70
    11
 71
     3
 72
    17
 73
    13
 74
     0
 42
0.0000000001
 43
0.0000000001
 40
0.0
 40
0.0
 40
0.0
 40
0.0
 40
1.0
 40
1.0
 40
1.0
 40
2.0
 40
2.0
 40
2.0
 40
3.0
 40
3.0
 40
3.0
 40
4.0
 40
4.0
 40
4.0
 40
4.0
 10
561.7665715826487
 20
687.0447128273707
 30
0.0
 10
561.7665715826487
 20
686.2165118727168
 30
0.0
 10
562.4376761831753
 20
685.544718253093
 30
0.0
 10
563.2665661569264
 20
685.544718253093
 30
0.0
 10
564.0947671115805
 20
685.544718253093
 30
0.0
 10
564.7665607312042
 20
686.2165118727168
 30
0.0
 10
564.7665607312042
 20
687.0447128273707
 30
0.0
 10
564.7665607312042
 20
687.8725692724763
 30
0.0
 10
564.0947671115805
 20
688.5453964207456
 30
0.0
 10
563.2665661569264
 20
688.5453964207456
 30
0.0
 10
562.4376761831753
 20
688.5453964207456
 30
0.0
 10
561.7665715826487
 20
687.8725692724763
 30
0.0
 10
561.7665715826487
 20
687.0447128273707
 30
0.0
  0
SPLINE
  5
7A
330
1F
100
AcDbEntity
  8
Layer 14
370
     0
100
AcDbSpline
210
0.0
220
0.0
230
1.0
 70
    11
 71
     3
 72
    17
 73
    13
 74
     0
 42
0.0000000001
 43
0.0000000001
 40
0.0
 40
0.0
 40
0.0
 40
0.0
 40
1.0
 40
1.0
 40
1.0
 40
2.0
 40
2.0
 40
2.0
 40
3.0
 40
3.0
 40
3.0
 40
4.0
 40
4.0
 40
4.0
 40
4.0
 10
561.7665715826487
 20
662.0443439100097
 30
0.0
 10
561.7665715826487
 20
661.2147649171616
 30
0.0
 10
562.4376761831753
 20
660.5450383548291
 30
0.0
 10
563.2665661569264
 20
660.5450383548291
 30
0.0
 10
564.0947671115805
 20
660.5450383548291
 30
0.0
 10
564.7665607312042
 20
661.2147649171616
 30
0.0
 10
564.7665607312042
 20
662.0443439100097
 30
0.0
 10
564.7665607312042
 20
662.8728893742124
 30
0.0
 10
564.0947671115805
 20
663.5436494651905
 30
0.0
 10
563.2665661569264
 20
663.5436494651905
 30
0.0
 10
562.4376761831753
 20
663.5436494651905
 30
0.0
 10
561.7665715826487
 20
662.8728893742124
 30
0.0
 10
561.7665715826487
 20
662.0443439100097
 30
0.0
  0
SPLINE
  5
7B
330
1F
100
AcDbEntity
  8
Layer 14
370
     0
100
AcDbSpline
210
0.0
220
0.0
230
1.0
 70
    11
 71
     3
 72
    17
 73
    13
 74
     0
 42
0.0000000001
 43
0.0000000001
 40
0.0
 40
0.0
 40
0.0
 40
0.0
 40
1.0
 40
1.0
 40
1.0
 40
2.0
 40
2.0
 40
2.0
 40
3.0
 40
3.0
 40
3.0
 40
4.0
 40
4.0
 40
4.0
 40
4.0
 10
271.8669541421027
 20
674.5445283686903
 30
0.0
 10
271.8669541421027
 20
670.1816594461699
 30
0.0
 10
275.4036891672602
 20
666.6442354019154
 30
0.0
 10
279.7672471088777
 20
666.6442354019154
 30
0.0
 10
284.130116031398
 20
666.6442354019154
 30
0.0
 10
287.6668510565555
 20
670.1816594461699
 30
0.0
 10
287.6668510565555
 20
674.5445283686903
 30
0.0
 10
287.6668510565555
 20
678.9073972912107
 30
0.0
 10
284.130116031398
 20
682.4441323163682
 30
0.0
 10
279.7672471088777
 20
682.4441323163682
 30
0.0
 10
275.4036891672602
 20
682.4441323163682
 30
0.0
 10
271.8669541421027
 20
678.9073972912107
 30
0.0
 10
271.8669541421027
 20
674.5445283686903
 30
0.0
  0
SPLINE
  5
7C
330
1F
100
AcDbEntity
  8
Layer 14
370
     0
100
AcDbSpline
210
0.0
220
0.0
230
1.0
 70
    11
 71
     3
 72
    17
 73
    13
 74
     0
 42
0.0000000001
 43
0.0000000001
 40
0.0
 40
0.0
 40
0.0
 40
0.0
 40
1.0
 40
1.0
 40
1.0
 40
2.0
 40
2.0
 40
2.0
 40
3.0
 40
3.0
 40
3.0
 40
4.0
 40
4.0
 40
4.0
 40
4.0
 10
555.3662731901516
 20
674.5445283686903
 30
0.0
 10
555.3662731901516
 20
670.1816594461699
 30
0.0
 10
558.903008215309
 20
666.6442354019154
 30
0.0
 10
563.2665661569264
 20
666.6442354019154
 30
0.0
 10
567.6294350794468
 20
666.6442354019154
 30
0.0
 10
571.1661701046044
 20
670.1816594461699
 30
0.0
 10
571.1661701046044
 20
674.5445283686903
 30
0.0
 10
571.1661701046044
 20
678.9073972912107
 30
0.0
 10
567.6294350794468
 20
682.4441323163682
 30
0.0
 10
563.2665661569264
 20
682.4441323163682
 30
0.0
 10
558.903008215309
 20
682.4441323163682
 30
0.0
 10
555.3662731901516
 20
678.9073972912107
 30
0.0
 10
555.3662731901516
 20
674.5445283686903
 30
0.0
  0
SPLINE
  5
7D
330
1F
100
AcDbEntity
  8
Layer 14
370
     0
100
AcDbSpline
210
0.0
220
0.0
230
1.0
 70
    11
 71
     3
 72
    23
 73
    19
 74
     0
 42
0.0000000001
 43
0.0000000001
 40
0.0
 40
0.0
 40
0.0
 40
0.0
 40
1.0
 40
1.0
 40
1.0
 40
2.0
 40
2.0
 40
2.0
 40
3.0
 40
3.0
 40
3.0
 40
4.0
 40
4.0
 40
4.0
 40
5.0
 40
5.0
 40
5.0
 40
6.0
 40
6.0
 40
6.0
 40
6.0
 10
332.4611883391938
 20
362.0233804433483
 30
0.0
 10
332.4611883391938
 20
362.8522704170995
 30
0.0
 10
331.7893947195701
 20
363.5233750176261
 30
0.0
 10
330.9611937649159
 20
363.5233750176261
 30
0.0
 10
330.1329928102619
 20
363.5233750176261
 30
0.0
 10
329.4611991906382
 20
362.8522704170995
 30
0.0
 10
329.4611991906382
 20
362.0233804433483
 30
0.0
 10
329.4611991906382
 20
362.0233804433483
 30
0.0
 10
329.4611991906382
 20
359.0233912947928
 30
0.0
 10
329.4611991906382
 20
359.0233912947928
 30
0.0
 10
329.4611991906382
 20
358.1945013210417
 30
0.0
 10
330.1329928102619
 20
357.523396720515
 30
0.0
 10
330.9611937649159
 20
357.523396720515
 30
0.0
 10
331.7893947195701
 20
357.523396720515
 30
0.0
 10
332.4611883391938
 20
358.1945013210417
 30
0.0
 10
332.4611883391938
 20
359.0233912947928
 30
0.0
 10
332.4611883391938
 20
359.0233912947928
 30
0.0
 10
332.4611883391938
 20
362.0233804433483
 30
0.0
 10
332.4611883391938
 20
362.0233804433483
 30
0.0
  0
SPLINE
  5
7E
330
1F
100
AcDbEntity
  8
Layer 14
370
     0
100
AcDbSpline
210
0.0
220
0.0
230
1.0
 70
    11
 71
     3
 72
    23
 73
    19
 74
     0
 42
0.0000000001
 43
0.0000000001
 40
0.0
 40
0.0
 40
0.0
 40
0.0
 40
1.0
 40
1.0
 40
1.0
 40
2.0
 40
2.0
 40
2.0
 40
3.0
 40
3.0
 40
3.0
 40
4.0
 40
4.0
 40
4.0
 40
5.0
 40
5.0
 40
5.0
 40
6.0
 40
6.0
 40
6.0
 40
6.0
 10
342.061291418391
 20
362.0233804433483
 30
0.0
 10
342.061291418391
 20
362.8522704170995
 30
0.0
 10
341.3894977987673
 20
363.5233750176261
 30
0.0
 10
340.5612968441131
 20
363.5233750176261
 30
0.0
 10
339.7324068703621
 20
363.5233750176261
 30
0.0
 10
339.0613022698354
 20
362.8522704170995
 30
0.0
 10
339.0613022698354
 20
362.0233804433483
 30
0.0
 10
339.0613022698354
 20
362.0233804433483
 30
0.0
 10
339.0613022698354
 20
359.0233912947928
 30
0.0
 10
339.0613022698354
 20
359.0233912947928
 30
0.0
 10
339.0613022698354
 20
358.1945013210417
 30
0.0
 10
339.7324068703621
 20
357.523396720515
 30
0.0
 10
340.5612968441131
 20
357.523396720515
 30
0.0
 10
341.3894977987673
 20
357.523396720515
 30
0.0
 10
342.061291418391
 20
358.1945013210417
 30
0.0
 10
342.061291418391
 20
359.0233912947928
 30
0.0
 10
342.061291418391
 20
359.0233912947928
 30
0.0
 10
342.061291418391
 20
362.0233804433483
 30
0.0
 10
342.061291418391
 20
362.0233804433483
 30
0.0
  0
SPLINE
  5
7F
330
1F
100
AcDbEntity
  8
Layer 14
370
     0
100
AcDbSpline
210
0.0
220
0.0
230
1.0
 70
    11
 71
     3
 72
    23
 73
    19
 74
     0
 42
0.0000000001
 43
0.0000000001
 40
0.0
 40
0.0
 40
0.0
 40
0.0
 40
1.0
 40
1.0
 40
1.0
 40
2.0
 40
2.0
 40
2.0
 40
3.0
 40
3.0
 40
3.0
 40
4.0
 40
4.0
 40
4.0
 40
5.0
 40
5.0
 40
5.0
 40
6.0
 40
6.0
 40
6.0
 40
6.0
 10
332.4611883391938
 20
693.6696314455062
 30
0.0
 10
332.4611883391938
 20
694.4985214192574
 30
0.0
 10
331.7893947195701
 20
695.169626019784
 30
0.0
 10
330.9611937649159
 20
695.169626019784
 30
0.0
 10
330.1329928102619
 20
695.169626019784
 30
0.0
 10
329.4611991906382
 20
694.4985214192574
 30
0.0
 10
329.4611991906382
 20
693.6696314455062
 30
0.0
 10
329.4611991906382
 20
693.6696314455062
 30
0.0
 10
329.4611991906382
 20
667.667084251486
 30
0.0
 10
329.4611991906382
 20
667.667084251486
 30
0.0
 10
329.4611991906382
 20
666.838883296832
 30
0.0
 10
330.1329928102619
 20
666.1677786963053
 30
0.0
 10
330.9611937649159
 20
666.1677786963053
 30
0.0
 10
331.7893947195701
 20
666.1677786963053
 30
0.0
 10
332.4611883391938
 20
666.838883296832
 30
0.0
 10
332.4611883391938
 20
667.667084251486
 30
0.0
 10
332.4611883391938
 20
667.667084251486
 30
0.0
 10
332.4611883391938
 20
693.6696314455062
 30
0.0
 10
332.4611883391938
 20
693.6696314455062
 30
0.0
  0
SPLINE
  5
80
330
1F
100
AcDbEntity
  8
Layer 14
370
     0
100
AcDbSpline
210
0.0
220
0.0
230
1.0
 70
    11
 71
     3
 72
    23
 73
    19
 74
     0
 42
0.0000000001
 43
0.0000000001
 40
0.0
 40
0.0
 40
0.0
 40
0.0
 40
1.0
 40
1.0
 40
1.0
 40
2.0
 40
2.0
 40
2.0
 40
3.0
 40
3.0
 40
3.0
 40
4.0
 40
4.0
 40
4.0
 40
5.0
 40
5.0
 40
5.0
 40
6.0
 40
6.0
 40
6.0
 40
6.0
 10
342.061291418391
 20
693.6696314455062
 30
0.0
 10
342.061291418391
 20
694.4985214192574
 30
0.0
 10
341.3894977987673
 20
695.169626019784
 30
0.0
 10
340.5612968441131
 20
695.169626019784
 30
0.0
 10
339.7324068703621
 20
695.169626019784
 30
0.0
 10
339.0613022698354
 20
694.4985214192574
 30
0.0
 10
339.0613022698354
 20
693.6696314455062
 30
0.0
 10
339.0613022698354
 20
693.6696314455062
 30
0.0
 10
339.0613022698354
 20
667.667084251486
 30
0.0
 10
339.0613022698354
 20
667.667084251486
 30
0.0
 10
339.0613022698354
 20
666.838883296832
 30
0.0
 10
339.7324068703621
 20
666.1677786963053
 30
0.0
 10
340.5612968441131
 20
666.1677786963053
 30
0.0
 10
341.3894977987673
 20
666.1677786963053
 30
0.0
 10
342.061291418391
 20
666.838883296832
 30
0.0
 10
342.061291418391
 20
667.667084251486
 30
0.0
 10
342.061291418391
 20
667.667084251486
 30
0.0
 10
342.061291418391
 20
693.6696314455062
 30
0.0
 10
342.061291418391
 20
693.6696314455062
 30
0.0
  0
INSERT
  5
82
330
1F
100
AcDbEntity
  8
Layer 14
100
AcDbBlockReference
  2
block 7
 10
0.0
 20
0.0
 30
0.0
  0
INSERT
  5
8D
330
1F
100
AcDbEntity
  8
Layer 14
100
AcDbBlockReference
  2
block 8
 10
0.0
 20
0.0
 30
0.0
  0
INSERT
  5
92
330
1F
100
AcDbEntity
  8
Layer 14
100
AcDbBlockReference
  2
block 9
 10
0.0
 20
0.0
 30
0.0
  0
INSERT
  5
9D
330
1F
100
AcDbEntity
  8
Layer 14
100
AcDbBlockReference
  2
block 10
 10
0.0
 20
0.0
 30
0.0
  0
INSERT
  5
A2
330
1F
100
AcDbEntity
  8
Layer 14
100
AcDbBlockReference
  2
block 11
 10
0.0
 20
0.0
 30
0.0
  0
INSERT
  5
BC
330
1F
100
AcDbEntity
  8
Layer 14
100
AcDbBlockReference
  2
block 14
 10
0.0
 20
0.0
 30
0.0
  0
POLYLINE
  5
C0
330
1F
100
AcDbEntity
  8
Layer 14
370
     0
100
AcDb2dPolyline
 66
     1
 10
0.0
 20
0.0
 30
0.0
  0
VERTEX
  5
C1
330
C0
100
AcDbEntity
  8
Layer 14
370
     0
100
AcDbVertex
100
AcDb2dVertex
 10
451.4287759288095
 20
371.3223821771347
 30
0.0
  0
VERTEX
  5
C2
330
C0
100
AcDbEntity
  8
Layer 14
370
     0
100
AcDbVertex
100
AcDb2dVertex
 10
441.5795924460288
 20
371.3223821771347
 30
0.0
  0
VERTEX
  5
C3
330
C0
100
AcDbEntity
  8
Layer 14
370
     0
100
AcDbVertex
100
AcDb2dVertex
 10
441.5795924460288
 20
377.5221760123903
 30
0.0
  0
VERTEX
  5
C4
330
C0
100
AcDbEntity
  8
Layer 14
370
     0
100
AcDbVertex
100
AcDb2dVertex
 10
451.4287759288095
 20
377.5221760123903
 30
0.0
  0
VERTEX
  5
C5
330
C0
100
AcDbEntity
  8
Layer 14
370
     0
100
AcDbVertex
100
AcDb2dVertex
 10
451.4287759288095
 20
371.3223821771347
 30
0.0
  0
SEQEND
  5
C6
330
C0
100
AcDbEntity
  8
Layer 14
370
     0
  0
POLYLINE
  5
C7
330
1F
100
AcDbEntity
  8
Layer 14
370
     0
100
AcDb2dPolyline
 66
     1
 10
0.0
 20
0.0
 30
0.0
  0
VERTEX
  5
C8
330
C7
100
AcDbEntity
  8
Layer 14
370
     0
100
AcDbVertex
100
AcDb2dVertex
 10
401.4287271131845
 20
371.3237602153288
 30
0.0
  0
VERTEX
  5
C9
330
C7
100
AcDbEntity
  8
Layer 14
370
     0
100
AcDbVertex
100
AcDb2dVertex
 10
391.5795436304037
 20
371.3237602153288
 30
0.0
  0
VERTEX
  5
CA
330
C7
100
AcDbEntity
  8
Layer 14
370
     0
100
AcDbVertex
100
AcDb2dVertex
 10
391.5795436304037
 20
377.5235540505844
 30
0.0
  0
VERTEX
  5
CB
330
C7
100
AcDbEntity
  8
Layer 14
370
     0
100
AcDbVertex
100
AcDb2dVertex
 10
401.4287271131845
 20
377.5235540505844
 30
0.0
  0
VERTEX
  5
CC
330
C7
100
AcDbEntity
  8
Layer 14
370
     0
100
AcDbVertex
100
AcDb2dVertex
 10
401.4287271131845
 20
371.3237602153288
 30
0.0
  0
SEQEND
  5
CD
330
C7
100
AcDbEntity
  8
Layer 14
370
     0
  0
POLYLINE
  5
CE
330
1F
100
AcDbEntity
  8
Layer 14
370
     0
100
AcDb2dPolyline
 66
     1
 10
0.0
 20
0.0
 30
0.0
  0
VERTEX
  5
CF
330
CE
100
AcDbEntity
  8
Layer 14
370
     0
100
AcDbVertex
100
AcDb2dVertex
 10
401.4287271131845
 20
705.428431355761
 30
0.0
  0
VERTEX
  5
D0
330
CE
100
AcDbEntity
  8
Layer 14
370
     0
100
AcDbVertex
100
AcDb2dVertex
 10
391.5795436304037
 20
705.428431355761
 30
0.0
  0
VERTEX
  5
D1
330
CE
100
AcDbEntity
  8
Layer 14
370
     0
100
AcDbVertex
100
AcDb2dVertex
 10
391.5795436304037
 20
711.6282251910166
 30
0.0
  0
VERTEX
  5
D2
330
CE
100
AcDbEntity
  8
Layer 14
370
     0
100
AcDbVertex
100
AcDb2dVertex
 10
401.4287271131845
 20
711.6282251910166
 30
0.0
  0
VERTEX
  5
D3
330
CE
100
AcDbEntity
  8
Layer 14
370
     0
100
AcDbVertex
100
AcDb2dVertex
 10
401.4287271131845
 20
705.428431355761
 30
0.0
  0
SEQEND
  5
D4
330
CE
100
AcDbEntity
  8
Layer 14
370
     0
  0
POLYLINE
  5
D5
330
1F
100
AcDbEntity
  8
Layer 14
370
     0
100
AcDb2dPolyline
 66
     1
 10
0.0
 20
0.0
 30
0.0
  0
VERTEX
  5
D6
330
D5
100
AcDbEntity
  8
Layer 14
370
     0
100
AcDbVertex
100
AcDb2dVertex
 10
451.4287759288095
 20
705.428431355761
 30
0.0
  0
VERTEX
  5
D7
330
D5
100
AcDbEntity
  8
Layer 14
370
     0
100
AcDbVertex
100
AcDb2dVertex
 10
441.5795924460288
 20
705.428431355761
 30
0.0
  0
VERTEX
  5
D8
330
D5
100
AcDbEntity
  8
Layer 14
370
     0
100
AcDbVertex
100
AcDb2dVertex
 10
441.5795924460288
 20
711.6282251910166
 30
0.0
  0
VERTEX
  5
D9
330
D5
100
AcDbEntity
  8
Layer 14
370
     0
100
AcDbVertex
100
AcDb2dVertex
 10
451.4287759288095
 20
711.6282251910166
 30
0.0
  0
VERTEX
  5
DA
330
D5
100
AcDbEntity
  8
Layer 14
370
     0
100
AcDbVertex
100
AcDb2dVertex
 10
451.4287759288095
 20
705.428431355761
 30
0.0
  0
SEQEND
  5
DB
330
D5
100
AcDbEntity
  8
Layer 14
370
     0
  0
SPLINE
  5
DC
330
1F
100
AcDbEntity
  8
Layer 14
370
     0
100
AcDbSpline
210
0.0
220
0.0
230
1.0
 70
    11
 71
     3
 72
    17
 73
    13
 74
     0
 42
0.0000000001
 43
0.0000000001
 40
0.0
 40
0.0
 40
0.0
 40
0.0
 40
1.0
 40
1.0
 40
1.0
 40
2.0
 40
2.0
 40
2.0
 40
3.0
 40
3.0
 40
3.0
 40
4.0
 40
4.0
 40
4.0
 40
4.0
 10
363.1370075589554
 20
373.0969508615869
 30
0.0
 10
362.3501477501243
 20
373.0969508615869
 30
0.0
 10
361.712116066256
 20
373.7349825454552
 30
0.0
 10
361.712116066256
 20
374.5214978447377
 30
0.0
 10
361.712116066256
 20
375.3087021631173
 30
0.0
 10
362.3501477501243
 20
375.9460448278885
 30
0.0
 10
363.1370075589554
 20
375.9460448278885
 30
0.0
 10
363.9245563868835
 20
375.9460448278885
 30
0.0
 10
364.5618990516547
 20
375.3087021631173
 30
0.0
 10
364.5618990516547
 20
374.5214978447377
 30
0.0
 10
364.5618990516547
 20
373.7349825454552
 30
0.0
 10
363.9245563868835
 20
373.0969508615869
 30
0.0
 10
363.1370075589554
 20
373.0969508615869
 30
0.0
  0
SPLINE
  5
DD
330
1F
100
AcDbEntity
  8
Layer 14
370
     0
100
AcDbSpline
210
0.0
220
0.0
230
1.0
 70
    11
 71
     3
 72
    17
 73
    13
 74
     0
 42
0.0000000001
 43
0.0000000001
 40
0.0
 40
0.0
 40
0.0
 40
0.0
 40
1.0
 40
1.0
 40
1.0
 40
2.0
 40
2.0
 40
2.0
 40
3.0
 40
3.0
 40
3.0
 40
4.0
 40
4.0
 40
4.0
 40
4.0
 10
479.9181652988573
 20
373.0969508615869
 30
0.0
 10
479.1313054900263
 20
373.0969508615869
 30
0.0
 10
478.493273806158
 20
373.7349825454552
 30
0.0
 10
478.493273806158
 20
374.5214978447377
 30
0.0
 10
478.493273806158
 20
375.3087021631173
 30
0.0
 10
479.1313054900263
 20
375.9460448278885
 30
0.0
 10
479.9181652988573
 20
375.9460448278885
 30
0.0
 10
480.7057141267854
 20
375.9460448278885
 30
0.0
 10
481.3430567915566
 20
375.3087021631173
 30
0.0
 10
481.3430567915566
 20
374.5214978447377
 30
0.0
 10
481.3430567915566
 20
373.7349825454552
 30
0.0
 10
480.7057141267854
 20
373.0969508615869
 30
0.0
 10
479.9181652988573
 20
373.0969508615869
 30
0.0
  0
SPLINE
  5
DE
330
1F
100
AcDbEntity
  8
Layer 14
370
     0
100
AcDbSpline
210
0.0
220
0.0
230
1.0
 70
    11
 71
     3
 72
    17
 73
    13
 74
     0
 42
0.0000000001
 43
0.0000000001
 40
0.0
 40
0.0
 40
0.0
 40
0.0
 40
1.0
 40
1.0
 40
1.0
 40
2.0
 40
2.0
 40
2.0
 40
3.0
 40
3.0
 40
3.0
 40
4.0
 40
4.0
 40
4.0
 40
4.0
 10
363.1370075589554
 20
707.2436521669391
 30
0.0
 10
362.3501477501243
 20
707.2436521669391
 30
0.0
 10
361.712116066256
 20
707.8816838508073
 30
0.0
 10
361.712116066256
 20
708.6681991500899
 30
0.0
 10
361.712116066256
 20
709.4554034684695
 30
0.0
 10
362.3501477501243
 20
710.0927461332408
 30
0.0
 10
363.1370075589554
 20
710.0927461332408
 30
0.0
 10
363.9245563868835
 20
710.0927461332408
 30
0.0
 10
364.5618990516547
 20
709.4554034684695
 30
0.0
 10
364.5618990516547
 20
708.6681991500899
 30
0.0
 10
364.5618990516547
 20
707.8816838508073
 30
0.0
 10
363.9245563868835
 20
707.2436521669391
 30
0.0
 10
363.1370075589554
 20
707.2436521669391
 30
0.0
  0
SPLINE
  5
DF
330
1F
100
AcDbEntity
  8
Layer 14
370
     0
100
AcDbSpline
210
0.0
220
0.0
230
1.0
 70
    11
 71
     3
 72
    17
 73
    13
 74
     0
 42
0.0000000001
 43
0.0000000001
 40
0.0
 40
0.0
 40
0.0
 40
0.0
 40
1.0
 40
1.0
 40
1.0
 40
2.0
 40
2.0
 40
2.0
 40
3.0
 40
3.0
 40
3.0
 40
4.0
 40
4.0
 40
4.0
 40
4.0
 10
479.9181652988573
 20
707.2436521669391
 30
0.0
 10
479.1313054900263
 20
707.2436521669391
 30
0.0
 10
478.493273806158
 20
707.8816838508073
 30
0.0
 10
478.493273806158
 20
708.6681991500899
 30
0.0
 10
478.493273806158
 20
709.4554034684695
 30
0.0
 10
479.1313054900263
 20
710.0927461332408
 30
0.0
 10
479.9181652988573
 20
710.0927461332408
 30
0.0
 10
480.7057141267854
 20
710.0927461332408
 30
0.0
 10
481.3430567915566
 20
709.4554034684695
 30
0.0
 10
481.3430567915566
 20
708.6681991500899
 30
0.0
 10
481.3430567915566
 20
707.8816838508073
 30
0.0
 10
480.7057141267854
 20
707.2436521669391
 30
0.0
 10
479.9181652988573
 20
707.2436521669391
 30
0.0
  0
POLYLINE
  5
E0
330
1F
100
AcDbEntity
  8
Layer 14
370
     0
100
AcDb2dPolyline
 66
     1
 10
0.0
 20
0.0
 30
0.0
  0
VERTEX
  5
E1
330
E0
100
AcDbEntity
  8
Layer 14
370
     0
100
AcDbVertex
100
AcDb2dVertex
 10
348.3832138885987
 20
371.3223821771347
 30
0.0
  0
VERTEX
  5
E2
330
E0
100
AcDbEntity
  8
Layer 14
370
     0
100
AcDbVertex
100
AcDb2dVertex
 10
338.5340304058179
 20
371.3223821771347
 30
0.0
  0
VERTEX
  5
E3
330
E0
100
AcDbEntity
  8
Layer 14
370
     0
100
AcDbVertex
100
AcDb2dVertex
 10
338.5340304058179
 20
377.5221760123903
 30
0.0
  0
VERTEX
  5
E4
330
E0
100
AcDbEntity
  8
Layer 14
370
     0
100
AcDbVertex
100
AcDb2dVertex
 10
348.3832138885987
 20
377.5221760123903
 30
0.0
  0
VERTEX
  5
E5
330
E0
100
AcDbEntity
  8
Layer 14
370
     0
100
AcDbVertex
100
AcDb2dVertex
 10
348.3832138885987
 20
371.3223821771347
 30
0.0
  0
SEQEND
  5
E6
330
E0
100
AcDbEntity
  8
Layer 14
370
     0
  0
SPLINE
  5
E7
330
1F
100
AcDbEntity
  8
Layer 14
370
     0
100
AcDbSpline
210
0.0
220
0.0
230
1.0
 70
    11
 71
     3
 72
    23
 73
    19
 74
     0
 42
0.0000000001
 43
0.0000000001
 40
0.0
 40
0.0
 40
0.0
 40
0.0
 40
1.0
 40
1.0
 40
1.0
 40
2.0
 40
2.0
 40
2.0
 40
3.0
 40
3.0
 40
3.0
 40
4.0
 40
4.0
 40
4.0
 40
5.0
 40
5.0
 40
5.0
 40
6.0
 40
6.0
 40
6.0
 40
6.0
 10
573.3095362607525
 20
592.8699271521298
 30
0.0
 10
573.3095362607525
 20
586.8217175182251
 30
0.0
 10
568.406476366145
 20
581.9200356618117
 30
0.0
 10
562.3589557513374
 20
581.9200356618117
 30
0.0
 10
556.3114351365298
 20
581.9200356618117
 30
0.0
 10
551.4090642610192
 20
586.8217175182251
 30
0.0
 10
551.4090642610192
 20
592.8699271521298
 30
0.0
 10
551.4090642610192
 20
592.8699271521298
 30
0.0
 10
551.4090642610192
 20
595.370377455324
 30
0.0
 10
551.4090642610192
 20
595.370377455324
 30
0.0
 10
551.4090642610192
 20
601.4178980701316
 30
0.0
 10
556.3121241556269
 20
606.3209579647393
 30
0.0
 10
562.3589557513374
 20
606.3209579647393
 30
0.0
 10
568.407165385242
 20
606.3209579647393
 30
0.0
 10
573.3095362607525
 20
601.4178980701316
 30
0.0
 10
573.3095362607525
 20
595.370377455324
 30
0.0
 10
573.3095362607525
 20
595.370377455324
 30
0.0
 10
573.3095362607525
 20
592.8699271521298
 30
0.0
 10
573.3095362607525
 20
592.8699271521298
 30
0.0
  0
SPLINE
  5
E8
330
1F
100
AcDbEntity
  8
Layer 14
370
     0
100
AcDbSpline
210
0.0
220
0.0
230
1.0
 70
    11
 71
     3
 72
    23
 73
    19
 74
     0
 42
0.0000000001
 43
0.0000000001
 40
0.0
 40
0.0
 40
0.0
 40
0.0
 40
1.0
 40
1.0
 40
1.0
 40
2.0
 40
2.0
 40
2.0
 40
3.0
 40
3.0
 40
3.0
 40
4.0
 40
4.0
 40
4.0
 40
5.0
 40
5.0
 40
5.0
 40
6.0
 40
6.0
 40
6.0
 40
6.0
 10
548.3587767183791
 20
606.6162026478252
 30
0.0
 10
548.3587767183791
 20
605.7873126740741
 30
0.0
 10
547.6876721178525
 20
605.1162080735473
 30
0.0
 10
546.8587821441013
 20
605.1162080735473
 30
0.0
 10
546.0298921703502
 20
605.1162080735473
 30
0.0
 10
545.3587875698236
 20
605.7873126740741
 30
0.0
 10
545.3587875698236
 20
606.6162026478252
 30
0.0
 10
545.3587875698236
 20
606.6162026478252
 30
0.0
 10
545.3587875698236
 20
611.1254881284686
 30
0.0
 10
545.3587875698236
 20
611.1254881284686
 30
0.0
 10
545.3587875698236
 20
611.9543781022197
 30
0.0
 10
546.0298921703502
 20
612.6254827027465
 30
0.0
 10
546.8587821441013
 20
612.6254827027465
 30
0.0
 10
547.6876721178525
 20
612.6254827027465
 30
0.0
 10
548.3587767183791
 20
611.9543781022197
 30
0.0
 10
548.3587767183791
 20
611.1254881284686
 30
0.0
 10
548.3587767183791
 20
611.1254881284686
 30
0.0
 10
548.3587767183791
 20
606.6162026478252
 30
0.0
 10
548.3587767183791
 20
606.6162026478252
 30
0.0
  0
SPLINE
  5
E9
330
1F
100
AcDbEntity
  8
Layer 14
370
     0
100
AcDbSpline
210
0.0
220
0.0
230
1.0
 70
    11
 71
     3
 72
    23
 73
    19
 74
     0
 42
0.0000000001
 43
0.0000000001
 40
0.0
 40
0.0
 40
0.0
 40
0.0
 40
1.0
 40
1.0
 40
1.0
 40
2.0
 40
2.0
 40
2.0
 40
3.0
 40
3.0
 40
3.0
 40
4.0
 40
4.0
 40
4.0
 40
5.0
 40
5.0
 40
5.0
 40
6.0
 40
6.0
 40
6.0
 40
6.0
 10
579.3591239328512
 20
606.6162026478252
 30
0.0
 10
579.3591239328512
 20
605.7873126740741
 30
0.0
 10
578.6873303132274
 20
605.1162080735473
 30
0.0
 10
577.8584403394764
 20
605.1162080735473
 30
0.0
 10
577.0302393848224
 20
605.1162080735473
 30
0.0
 10
576.3591347842956
 20
605.7873126740741
 30
0.0
 10
576.3591347842956
 20
606.6162026478252
 30
0.0
 10
576.3591347842956
 20
606.6162026478252
 30
0.0
 10
576.3591347842956
 20
611.1254881284686
 30
0.0
 10
576.3591347842956
 20
611.1254881284686
 30
0.0
 10
576.3591347842956
 20
611.9543781022197
 30
0.0
 10
577.0302393848224
 20
612.6254827027465
 30
0.0
 10
577.8584403394764
 20
612.6254827027465
 30
0.0
 10
578.6873303132274
 20
612.6254827027465
 30
0.0
 10
579.3591239328512
 20
611.9543781022197
 30
0.0
 10
579.3591239328512
 20
611.1254881284686
 30
0.0
 10
579.3591239328512
 20
611.1254881284686
 30
0.0
 10
579.3591239328512
 20
606.6162026478252
 30
0.0
 10
579.3591239328512
 20
606.6162026478252
 30
0.0
  0
SPLINE
  5
EA
330
1F
100
AcDbEntity
  8
Layer 14
370
     0
100
AcDbSpline
210
0.0
220
0.0
230
1.0
 70
    11
 71
     3
 72
    23
 73
    19
 74
     0
 42
0.0000000001
 43
0.0000000001
 40
0.0
 40
0.0
 40
0.0
 40
0.0
 40
1.0
 40
1.0
 40
1.0
 40
2.0
 40
2.0
 40
2.0
 40
3.0
 40
3.0
 40
3.0
 40
4.0
 40
4.0
 40
4.0
 40
5.0
 40
5.0
 40
5.0
 40
6.0
 40
6.0
 40
6.0
 40
6.0
 10
548.3587767183791
 20
575.6165444524501
 30
0.0
 10
548.3587767183791
 20
574.788343497796
 30
0.0
 10
547.6876721178525
 20
574.1165498781722
 30
0.0
 10
546.8587821441013
 20
574.1165498781722
 30
0.0
 10
546.0298921703502
 20
574.1165498781722
 30
0.0
 10
545.3587875698236
 20
574.788343497796
 30
0.0
 10
545.3587875698236
 20
575.6165444524501
 30
0.0
 10
545.3587875698236
 20
575.6165444524501
 30
0.0
 10
545.3587875698236
 20
580.1258299330935
 30
0.0
 10
545.3587875698236
 20
580.1258299330935
 30
0.0
 10
545.3587875698236
 20
580.9547199068447
 30
0.0
 10
546.0298921703502
 20
581.6258245073714
 30
0.0
 10
546.8587821441013
 20
581.6258245073714
 30
0.0
 10
547.6876721178525
 20
581.6258245073714
 30
0.0
 10
548.3587767183791
 20
580.9547199068447
 30
0.0
 10
548.3587767183791
 20
580.1258299330935
 30
0.0
 10
548.3587767183791
 20
580.1258299330935
 30
0.0
 10
548.3587767183791
 20
575.6165444524501
 30
0.0
 10
548.3587767183791
 20
575.6165444524501
 30
0.0
  0
SPLINE
  5
EB
330
1F
100
AcDbEntity
  8
Layer 14
370
     0
100
AcDbSpline
210
0.0
220
0.0
230
1.0
 70
    11
 71
     3
 72
    23
 73
    19
 74
     0
 42
0.0000000001
 43
0.0000000001
 40
0.0
 40
0.0
 40
0.0
 40
0.0
 40
1.0
 40
1.0
 40
1.0
 40
2.0
 40
2.0
 40
2.0
 40
3.0
 40
3.0
 40
3.0
 40
4.0
 40
4.0
 40
4.0
 40
5.0
 40
5.0
 40
5.0
 40
6.0
 40
6.0
 40
6.0
 40
6.0
 10
579.3591239328512
 20
575.6165444524501
 30
0.0
 10
579.3591239328512
 20
574.788343497796
 30
0.0
 10
578.6873303132274
 20
574.1165498781722
 30
0.0
 10
577.8584403394764
 20
574.1165498781722
 30
0.0
 10
577.0302393848224
 20
574.1165498781722
 30
0.0
 10
576.3591347842956
 20
574.788343497796
 30
0.0
 10
576.3591347842956
 20
575.6165444524501
 30
0.0
 10
576.3591347842956
 20
575.6165444524501
 30
0.0
 10
576.3591347842956
 20
580.1258299330935
 30
0.0
 10
576.3591347842956
 20
580.1258299330935
 30
0.0
 10
576.3591347842956
 20
580.9547199068447
 30
0.0
 10
577.0302393848224
 20
581.6258245073714
 30
0.0
 10
577.8584403394764
 20
581.6258245073714
 30
0.0
 10
578.6873303132274
 20
581.6258245073714
 30
0.0
 10
579.3591239328512
 20
580.9547199068447
 30
0.0
 10
579.3591239328512
 20
580.1258299330935
 30
0.0
 10
579.3591239328512
 20
580.1258299330935
 30
0.0
 10
579.3591239328512
 20
575.6165444524501
 30
0.0
 10
579.3591239328512
 20
575.6165444524501
 30
0.0
  0
POLYLINE
  5
EC
330
1F
100
AcDbEntity
  8
Layer 14
370
     0
100
AcDb2dPolyline
 66
     1
 10
0.0
 20
0.0
 30
0.0
  0
VERTEX
  5
ED
330
EC
100
AcDbEntity
  8
Layer 14
370
     0
100
AcDbVertex
100
AcDb2dVertex
 10
404.5163939418397
 20
512.3514999804191
 30
0.0
  0
VERTEX
  5
EE
330
EC
100
AcDbEntity
  8
Layer 14
370
     0
100
AcDbVertex
100
AcDb2dVertex
 10
404.5163939418397
 20
533.1509194630664
 30
0.0
  0
VERTEX
  5
EF
330
EC
100
AcDbEntity
  8
Layer 14
370
     0
100
AcDbVertex
100
AcDb2dVertex
 10
412.5164224229126
 20
533.1509194630664
 30
0.0
  0
VERTEX
  5
F0
330
EC
100
AcDbEntity
  8
Layer 14
370
     0
100
AcDbVertex
100
AcDb2dVertex
 10
412.5164224229126
 20
512.3514999804191
 30
0.0
  0
VERTEX
  5
F1
330
EC
100
AcDbEntity
  8
Layer 14
370
     0
100
AcDbVertex
100
AcDb2dVertex
 10
412.5164224229126
 20
504.8639294527771
 30
0.0
  0
VERTEX
  5
F2
330
EC
100
AcDbEntity
  8
Layer 14
370
     0
100
AcDbVertex
100
AcDb2dVertex
 10
412.5164224229126
 20
478.5633814992828
 30
0.0
  0
VERTEX
  5
F3
330
EC
100
AcDbEntity
  8
Layer 14
370
     0
100
AcDbVertex
100
AcDb2dVertex
 10
404.5163939418397
 20
478.5633814992828
 30
0.0
  0
VERTEX
  5
F4
330
EC
100
AcDbEntity
  8
Layer 14
370
     0
100
AcDbVertex
100
AcDb2dVertex
 10
404.5163939418397
 20
504.8639294527771
 30
0.0
  0
VERTEX
  5
F5
330
EC
100
AcDbEntity
  8
Layer 14
370
     0
100
AcDbVertex
100
AcDb2dVertex
 10
404.5163939418397
 20
512.3514999804191
 30
0.0
  0
SEQEND
  5
F6
330
EC
100
AcDbEntity
  8
Layer 14
370
     0
  0
POLYLINE
  5
F7
330
1F
100
AcDbEntity
  8
Layer 14
370
     0
100
AcDb2dPolyline
 66
     1
 10
0.0
 20
0.0
 30
0.0
  0
VERTEX
  5
F8
330
F7
100
AcDbEntity
  8
Layer 14
370
     0
100
AcDbVertex
100
AcDb2dVertex
 10
438.5160412857703
 20
504.8639294527771
 30
0.0
  0
VERTEX
  5
F9
330
F7
100
AcDbEntity
  8
Layer 14
370
     0
100
AcDbVertex
100
AcDb2dVertex
 10
438.5160412857703
 20
478.5633814992828
 30
0.0
  0
VERTEX
  5
FA
330
F7
100
AcDbEntity
  8
Layer 14
370
     0
100
AcDbVertex
100
AcDb2dVertex
 10
430.5161850594717
 20
478.5633814992828
 30
0.0
  0
VERTEX
  5
FB
330
F7
100
AcDbEntity
  8
Layer 14
370
     0
100
AcDbVertex
100
AcDb2dVertex
 10
430.5161850594717
 20
504.8639294527771
 30
0.0
  0
VERTEX
  5
FC
330
F7
100
AcDbEntity
  8
Layer 14
370
     0
100
AcDbVertex
100
AcDb2dVertex
 10
430.5161850594717
 20
512.3514999804191
 30
0.0
  0
VERTEX
  5
FD
330
F7
100
AcDbEntity
  8
Layer 14
370
     0
100
AcDbVertex
100
AcDb2dVertex
 10
430.5161850594717
 20
533.1509194630664
 30
0.0
  0
VERTEX
  5
FE
330
F7
100
AcDbEntity
  8
Layer 14
370
     0
100
AcDbVertex
100
AcDb2dVertex
 10
438.5160412857703
 20
533.1509194630664
 30
0.0
  0
VERTEX
  5
FF
330
F7
100
AcDbEntity
  8
Layer 14
370
     0
100
AcDbVertex
100
AcDb2dVertex
 10
438.5160412857703
 20
512.3514999804191
 30
0.0
  0
VERTEX
  5
100
330
F7
100
AcDbEntity
  8
Layer 14
370
     0
100
AcDbVertex
100
AcDb2dVertex
 10
438.5160412857703
 20
504.8639294527771
 30
0.0
  0
SEQEND
  5
101
330
F7
100
AcDbEntity
  8
Layer 14
370
     0
  0
SPLINE
  5
102
330
1F
100
AcDbEntity
  8
Layer 14
370
     0
100
AcDbSpline
210
0.0
220
0.0
230
1.0
 70
    11
 71
     3
 72
    17
 73
    13
 74
     0
 42
0.0000000001
 43
0.0000000001
 40
0.0
 40
0.0
 40
0.0
 40
0.0
 40
1.0
 40
1.0
 40
1.0
 40
2.0
 40
2.0
 40
2.0
 40
3.0
 40
3.0
 40
3.0
 40
4.0
 40
4.0
 40
4.0
 40
4.0
 10
420.0911538663314
 20
530.9257322891436
 30
0.0
 10
420.0911538663314
 20
530.1388724803126
 30
0.0
 10
420.7293578049739
 20
529.5008407964442
 30
0.0
 10
421.516217613805
 20
529.5008407964442
 30
0.0
 10
422.3030774226361
 20
529.5008407964442
 30
0.0
 10
422.9411091065043
 20
530.1388724803126
 30
0.0
 10
422.9411091065043
 20
530.9257322891436
 30
0.0
 10
422.9411091065043
 20
531.7125920979746
 30
0.0
 10
422.3030774226361
 20
532.350623781843
 30
0.0
 10
421.516217613805
 20
532.350623781843
 30
0.0
 10
420.7293578049739
 20
532.350623781843
 30
0.0
 10
420.0911538663314
 20
531.7125920979746
 30
0.0
 10
420.0911538663314
 20
530.9257322891436
 30
0.0
  0
SPLINE
  5
103
330
1F
100
AcDbEntity
  8
Layer 14
370
     0
100
AcDbSpline
210
0.0
220
0.0
230
1.0
 70
    11
 71
     3
 72
    17
 73
    13
 74
     0
 42
0.0000000001
 43
0.0000000001
 40
0.0
 40
0.0
 40
0.0
 40
0.0
 40
1.0
 40
1.0
 40
1.0
 40
2.0
 40
2.0
 40
2.0
 40
3.0
 40
3.0
 40
3.0
 40
4.0
 40
4.0
 40
4.0
 40
4.0
 10
420.0911538663314
 20
486.288663615407
 30
0.0
 10
420.0911538663314
 20
485.5018038065759
 30
0.0
 10
420.7293578049739
 20
484.8637721227077
 30
0.0
 10
421.516217613805
 20
484.8637721227077
 30
0.0
 10
422.3030774226361
 20
484.8637721227077
 30
0.0
 10
422.9411091065043
 20
485.5018038065759
 30
0.0
 10
422.9411091065043
 20
486.288663615407
 30
0.0
 10
422.9411091065043
 20
487.0755234242381
 30
0.0
 10
422.3030774226361
 20
487.7135551081063
 30
0.0
 10
421.516217613805
 20
487.7135551081063
 30
0.0
 10
420.7293578049739
 20
487.7135551081063
 30
0.0
 10
420.0911538663314
 20
487.0755234242381
 30
0.0
 10
420.0911538663314
 20
486.288663615407
 30
0.0
  0
INSERT
  5
105
330
1F
100
AcDbEntity
  8
Layer 14
100
AcDbBlockReference
  2
block 15
 10
0.0
 20
0.0
 30
0.0
  0
INSERT
  5
110
330
1F
100
AcDbEntity
  8
Layer 14
100
AcDbBlockReference
  2
block 16
 10
0.0
 20
0.0
 30
0.0
  0
INSERT
  5
11B
330
1F
100
AcDbEntity
  8
Layer 14
100
AcDbBlockReference
  2
block 17
 10
0.0
 20
0.0
 30
0.0
  0
INSERT
  5
126
330
1F
100
AcDbEntity
  8
Layer 14
100
AcDbBlockReference
  2
block 18
 10
0.0
 20
0.0
 30
0.0
  0
INSERT
  5
131
330
1F
100
AcDbEntity
  8
Layer 14
100
AcDbBlockReference
  2
block 19
 10
0.0
 20
0.0
 30
0.0
  0
INSERT
  5
13C
330
1F
100
AcDbEntity
  8
Layer 14
100
AcDbBlockReference
  2
block 20
 10
0.0
 20
0.0
 30
0.0
  0
INSERT
  5
147
330
1F
100
AcDbEntity
  8
Layer 14
100
AcDbBlockReference
  2
block 21
 10
0.0
 20
0.0
 30
0.0
  0
INSERT
  5
152
330
1F
100
AcDbEntity
  8
Layer 14
100
AcDbBlockReference
  2
block 22
 10
0.0
 20
0.0
 30
0.0
  0
SPLINE
  5
15C
330
1F
100
AcDbEntity
  8
Layer 14
370
     0
100
AcDbSpline
210
0.0
220
0.0
230
1.0
 70
    11
 71
     3
 72
    23
 73
    19
 74
     0
 42
0.0000000001
 43
0.0000000001
 40
0.0
 40
0.0
 40
0.0
 40
0.0
 40
1.0
 40
1.0
 40
1.0
 40
2.0
 40
2.0
 40
2.0
 40
3.0
 40
3.0
 40
3.0
 40
4.0
 40
4.0
 40
4.0
 40
5.0
 40
5.0
 40
5.0
 40
6.0
 40
6.0
 40
6.0
 40
6.0
 10
541.7509113228956
 20
562.7298202803245
 30
0.0
 10
541.7509113228956
 20
557.6868895090158
 30
0.0
 10
537.662788765324
 20
553.599972734864
 30
0.0
 10
532.620374758338
 20
553.599972734864
 30
0.0
 10
527.5781330061263
 20
553.599972734864
 30
0.0
 10
523.4905272128774
 20
557.6868895090158
 30
0.0
 10
523.4905272128774
 20
562.7298202803245
 30
0.0
 10
523.4905272128774
 20
562.7298202803245
 30
0.0
 10
523.4905272128774
 20
567.742434211363
 30
0.0
 10
523.4905272128774
 20
567.742434211363
 30
0.0
 10
523.4905272128774
 20
572.7846759635747
 30
0.0
 10
527.5786497704491
 20
576.8729707759206
 30
0.0
 10
532.620374758338
 20
576.8729707759206
 30
0.0
 10
537.6633055296467
 20
576.8729707759206
 30
0.0
 10
541.7509113228956
 20
572.7846759635747
 30
0.0
 10
541.7509113228956
 20
567.742434211363
 30
0.0
 10
541.7509113228956
 20
567.742434211363
 30
0.0
 10
541.7509113228956
 20
562.7298202803245
 30
0.0
 10
541.7509113228956
 20
562.7298202803245
 30
0.0
  0
SPLINE
  5
15D
330
1F
100
AcDbEntity
  8
Layer 14
370
     0
100
AcDbSpline
210
0.0
220
0.0
230
1.0
 70
    11
 71
     3
 72
   461
 73
   457
 74
     0
 42
0.0000000001
 43
0.0000000001
 40
0.0
 40
0.0
 40
0.0
 40
0.0
 40
1.0
 40
1.0
 40
1.0
 40
2.0
 40
2.0
 40
2.0
 40
3.0
 40
3.0
 40
3.0
 40
4.0
 40
4.0
 40
4.0
 40
5.0
 40
5.0
 40
5.0
 40
6.0
 40
6.0
 40
6.0
 40
7.0
 40
7.0
 40
7.0
 40
8.0
 40
8.0
 40
8.0
 40
9.0
 40
9.0
 40
9.0
 40
10.0
 40
10.0
 40
10.0
 40
11.0
 40
11.0
 40
11.0
 40
12.0
 40
12.0
 40
12.0
 40
13.0
 40
13.0
 40
13.0
 40
14.0
 40
14.0
 40
14.0
 40
15.0
 40
15.0
 40
15.0
 40
16.0
 40
16.0
 40
16.0
 40
17.0
 40
17.0
 40
17.0
 40
18.0
 40
18.0
 40
18.0
 40
19.0
 40
19.0
 40
19.0
 40
20.0
 40
20.0
 40
20.0
 40
21.0
 40
21.0
 40
21.0
 40
22.0
 40
22.0
 40
22.0
 40
23.0
 40
23.0
 40
23.0
 40
24.0
 40
24.0
 40
24.0
 40
25.0
 40
25.0
 40
25.0
 40
26.0
 40
26.0
 40
26.0
 40
27.0
 40
27.0
 40
27.0
 40
28.0
 40
28.0
 40
28.0
 40
29.0
 40
29.0
 40
29.0
 40
30.0
 40
30.0
 40
30.0
 40
31.0
 40
31.0
 40
31.0
 40
32.0
 40
32.0
 40
32.0
 40
33.0
 40
33.0
 40
33.0
 40
34.0
 40
34.0
 40
34.0
 40
35.0
 40
35.0
 40
35.0
 40
36.0
 40
36.0
 40
36.0
 40
37.0
 40
37.0
 40
37.0
 40
38.0
 40
38.0
 40
38.0
 40
39.0
 40
39.0
 40
39.0
 40
40.0
 40
40.0
 40
40.0
 40
41.0
 40
41.0
 40
41.0
 40
42.0
 40
42.0
 40
42.0
 40
43.0
 40
43.0
 40
43.0
 40
44.0
 40
44.0
 40
44.0
 40
45.0
 40
45.0
 40
45.0
 40
46.0
 40
46.0
 40
46.0
 40
47.0
 40
47.0
 40
47.0
 40
48.0
 40
48.0
 40
48.0
 40
49.0
 40
49.0
 40
49.0
 40
50.0
 40
50.0
 40
50.0
 40
51.0
 40
51.0
 40
51.0
 40
52.0
 40
52.0
 40
52.0
 40
53.0
 40
53.0
 40
53.0
 40
54.0
 40
54.0
 40
54.0
 40
55.0
 40
55.0
 40
55.0
 40
56.0
 40
56.0
 40
56.0
 40
57.0
 40
57.0
 40
57.0
 40
58.0
 40
58.0
 40
58.0
 40
59.0
 40
59.0
 40
59.0
 40
60.0
 40
60.0
 40
60.0
 40
61.0
 40
61.0
 40
61.0
 40
62.0
 40
62.0
 40
62.0
 40
63.0
 40
63.0
 40
63.0
 40
64.0
 40
64.0
 40
64.0
 40
65.0
 40
65.0
 40
65.0
 40
66.0
 40
66.0
 40
66.0
 40
67.0
 40
67.0
 40
67.0
 40
68.0
 40
68.0
 40
68.0
 40
69.0
 40
69.0
 40
69.0
 40
70.0
 40
70.0
 40
70.0
 40
71.0
 40
71.0
 40
71.0
 40
72.0
 40
72.0
 40
72.0
 40
73.0
 40
73.0
 40
73.0
 40
74.0
 40
74.0
 40
74.0
 40
75.0
 40
75.0
 40
75.0
 40
76.0
 40
76.0
 40
76.0
 40
77.0
 40
77.0
 40
77.0
 40
78.0
 40
78.0
 40
78.0
 40
79.0
 40
79.0
 40
79.0
 40
80.0
 40
80.0
 40
80.0
 40
81.0
 40
81.0
 40
81.0
 40
82.0
 40
82.0
 40
82.0
 40
83.0
 40
83.0
 40
83.0
 40
84.0
 40
84.0
 40
84.0
 40
85.0
 40
85.0
 40
85.0
 40
86.0
 40
86.0
 40
86.0
 40
87.0
 40
87.0
 40
87.0
 40
88.0
 40
88.0
 40
88.0
 40
89.0
 40
89.0
 40
89.0
 40
90.0
 40
90.0
 40
90.0
 40
91.0
 40
91.0
 40
91.0
 40
92.0
 40
92.0
 40
92.0
 40
93.0
 40
93.0
 40
93.0
 40
94.0
 40
94.0
 40
94.0
 40
95.0
 40
95.0
 40
95.0
 40
96.0
 40
96.0
 40
96.0
 40
97.0
 40
97.0
 40
97.0
 40
98.0
 40
98.0
 40
98.0
 40
99.0
 40
99.0
 40
99.0
 40
100.0
 40
100.0
 40
100.0
 40
101.0
 40
101.0
 40
101.0
 40
102.0
 40
102.0
 40
102.0
 40
103.0
 40
103.0
 40
103.0
 40
104.0
 40
104.0
 40
104.0
 40
105.0
 40
105.0
 40
105.0
 40
106.0
 40
106.0
 40
106.0
 40
107.0
 40
107.0
 40
107.0
 40
108.0
 40
108.0
 40
108.0
 40
109.0
 40
109.0
 40
109.0
 40
110.0
 40
110.0
 40
110.0
 40
111.0
 40
111.0
 40
111.0
 40
112.0
 40
112.0
 40
112.0
 40
113.0
 40
113.0
 40
113.0
 40
114.0
 40
114.0
 40
114.0
 40
115.0
 40
115.0
 40
115.0
 40
116.0
 40
116.0
 40
116.0
 40
117.0
 40
117.0
 40
117.0
 40
118.0
 40
118.0
 40
118.0
 40
119.0
 40
119.0
 40
119.0
 40
120.0
 40
120.0
 40
120.0
 40
121.0
 40
121.0
 40
121.0
 40
122.0
 40
122.0
 40
122.0
 40
123.0
 40
123.0
 40
123.0
 40
124.0
 40
124.0
 40
124.0
 40
125.0
 40
125.0
 40
125.0
 40
126.0
 40
126.0
 40
126.0
 40
127.0
 40
127.0
 40
127.0
 40
128.0
 40
128.0
 40
128.0
 40
129.0
 40
129.0
 40
129.0
 40
130.0
 40
130.0
 40
130.0
 40
131.0
 40
131.0
 40
131.0
 40
132.0
 40
132.0
 40
132.0
 40
133.0
 40
133.0
 40
133.0
 40
134.0
 40
134.0
 40
134.0
 40
135.0
 40
135.0
 40
135.0
 40
136.0
 40
136.0
 40
136.0
 40
137.0
 40
137.0
 40
137.0
 40
138.0
 40
138.0
 40
138.0
 40
139.0
 40
139.0
 40
139.0
 40
140.0
 40
140.0
 40
140.0
 40
141.0
 40
141.0
 40
141.0
 40
142.0
 40
142.0
 40
142.0
 40
143.0
 40
143.0
 40
143.0
 40
144.0
 40
144.0
 40
144.0
 40
145.0
 40
145.0
 40
145.0
 40
146.0
 40
146.0
 40
146.0
 40
147.0
 40
147.0
 40
147.0
 40
148.0
 40
148.0
 40
148.0
 40
149.0
 40
149.0
 40
149.0
 40
150.0
 40
150.0
 40
150.0
 40
151.0
 40
151.0
 40
151.0
 40
152.0
 40
152.0
 40
152.0
 40
152.0
 10
584.6592310821338
 20
327.5204046490227
 30
0.0
 10
584.6592310821338
 20
327.5204046490227
 30
0.0
 10
584.6592310821338
 20
367.0222139924459
 30
0.0
 10
584.6592310821338
 20
367.0222139924459
 30
0.0
 10
584.6592310821338
 20
367.0222139924459
 30
0.0
 10
590.7487818618614
 20
367.272327924675
 30
0.0
 10
590.7487818618614
 20
367.272327924675
 30
0.0
 10
590.7487818618614
 20
367.272327924675
 30
0.0
 10
590.7487818618614
 20
377.3237385124399
 30
0.0
 10
590.7487818618614
 20
377.3237385124399
 30
0.0
 10
590.7487818618614
 20
377.3237385124399
 30
0.0
 10
584.6592310821338
 20
377.5738524446691
 30
0.0
 10
584.6592310821338
 20
377.5738524446691
 30
0.0
 10
584.6592310821338
 20
377.5738524446691
 30
0.0
 10
584.6592310821338
 20
395.4476968412422
 30
0.0
 10
584.6592310821338
 20
395.4476968412422
 30
0.0
 10
584.6592310821338
 20
395.4476968412422
 30
0.0
 10
584.6592310821338
 20
395.8797118150926
 30
0.0
 10
584.6592310821338
 20
395.8797118150926
 30
0.0
 10
584.6592310821338
 20
395.8797118150926
 30
0.0
 10
577.6408825595829
 20
395.8797118150926
 30
0.0
 10
577.6408825595829
 20
395.8797118150926
 30
0.0
 10
577.6408825595829
 20
395.8797118150926
 30
0.0
 10
577.6408825595829
 20
394.5485269195921
 30
0.0
 10
577.6408825595829
 20
394.5485269195921
 30
0.0
 10
577.6408825595829
 20
394.5485269195921
 30
0.0
 10
575.4408445827023
 20
394.5485269195921
 30
0.0
 10
575.4408445827023
 20
394.5485269195921
 30
0.0
 10
575.4408445827023
 20
394.5485269195921
 30
0.0
 10
575.4408445827023
 20
395.9479247057005
 30
0.0
 10
575.4408445827023
 20
395.9479247057005
 30
0.0
 10
575.4408445827023
 20
395.9479247057005
 30
0.0
 10
573.9980385934797
 20
395.9479247057005
 30
0.0
 10
573.9980385934797
 20
395.9479247057005
 30
0.0
 10
573.9980385934797
 20
395.9479247057005
 30
0.0
 10
573.9980385934797
 20
398.7226046095208
 30
0.0
 10
573.9980385934797
 20
398.7226046095208
 30
0.0
 10
573.9980385934797
 20
398.7226046095208
 30
0.0
 10
575.4408445827023
 20
398.7226046095208
 30
0.0
 10
575.4408445827023
 20
398.7226046095208
 30
0.0
 10
575.4408445827023
 20
398.7226046095208
 30
0.0
 10
575.4408445827023
 20
400.1226914147263
 30
0.0
 10
575.4408445827023
 20
400.1226914147263
 30
0.0
 10
575.4408445827023
 20
400.1226914147263
 30
0.0
 10
577.6408825595829
 20
400.1226914147263
 30
0.0
 10
577.6408825595829
 20
400.1226914147263
 30
0.0
 10
577.6408825595829
 20
400.1226914147263
 30
0.0
 10
577.6408825595829
 20
398.7226046095208
 30
0.0
 10
577.6408825595829
 20
398.7226046095208
 30
0.0
 10
577.6408825595829
 20
398.7226046095208
 30
0.0
 10
584.6592310821338
 20
398.7226046095208
 30
0.0
 10
584.6592310821338
 20
398.7226046095208
 30
0.0
 10
584.6592310821338
 20
398.7226046095208
 30
0.0
 10
584.6592310821338
 20
399.2228324739791
 30
0.0
 10
584.6592310821338
 20
399.2228324739791
 30
0.0
 10
584.6592310821338
 20
399.2228324739791
 30
0.0
 10
584.6592310821338
 20
417.0133055598092
 30
0.0
 10
584.6592310821338
 20
417.0133055598092
 30
0.0
 10
584.6592310821338
 20
417.0133055598092
 30
0.0
 10
590.7487818618614
 20
417.2634194920383
 30
0.0
 10
590.7487818618614
 20
417.2634194920383
 30
0.0
 10
590.7487818618614
 20
417.2634194920383
 30
0.0
 10
590.7487818618614
 20
427.324476347162
 30
0.0
 10
590.7487818618614
 20
427.324476347162
 30
0.0
 10
590.7487818618614
 20
427.324476347162
 30
0.0
 10
584.6592310821338
 20
427.5745902793911
 30
0.0
 10
584.6592310821338
 20
427.5745902793911
 30
0.0
 10
584.6592310821338
 20
427.5745902793911
 30
0.0
 10
584.6592310821338
 20
498.7440618327793
 30
0.0
 10
584.6592310821338
 20
498.7440618327793
 30
0.0
 10
584.6592310821338
 20
498.7440618327793
 30
0.0
 10
590.7487818618614
 20
498.9941757650084
 30
0.0
 10
590.7487818618614
 20
498.9941757650084
 30
0.0
 10
590.7487818618614
 20
498.9941757650084
 30
0.0
 10
590.7487818618614
 20
509.0304279326382
 30
0.0
 10
590.7487818618614
 20
509.0304279326382
 30
0.0
 10
590.7487818618614
 20
509.0304279326382
 30
0.0
 10
584.6592310821338
 20
509.2805418648674
 30
0.0
 10
584.6592310821338
 20
509.2805418648674
 30
0.0
 10
584.6592310821338
 20
509.2805418648674
 30
0.0
 10
584.6592310821338
 20
527.0958196381913
 30
0.0
 10
584.6592310821338
 20
527.0958196381913
 30
0.0
 10
584.6592310821338
 20
527.0958196381913
 30
0.0
 10
584.6592310821338
 20
527.5953584835526
 30
0.0
 10
584.6592310821338
 20
527.5953584835526
 30
0.0
 10
584.6592310821338
 20
527.5953584835526
 30
0.0
 10
577.6408825595829
 20
527.5953584835526
 30
0.0
 10
577.6408825595829
 20
527.5953584835526
 30
0.0
 10
577.6408825595829
 20
527.5953584835526
 30
0.0
 10
577.6408825595829
 20
526.1959606974441
 30
0.0
 10
577.6408825595829
 20
526.1959606974441
 30
0.0
 10
577.6408825595829
 20
526.1959606974441
 30
0.0
 10
575.4408445827023
 20
526.1959606974441
 30
0.0
 10
575.4408445827023
 20
526.1959606974441
 30
0.0
 10
575.4408445827023
 20
526.1959606974441
 30
0.0
 10
575.4408445827023
 20
527.5953584835526
 30
0.0
 10
575.4408445827023
 20
527.5953584835526
 30
0.0
 10
575.4408445827023
 20
527.5953584835526
 30
0.0
 10
573.9980385934797
 20
527.5953584835526
 30
0.0
 10
573.9980385934797
 20
527.5953584835526
 30
0.0
 10
573.9980385934797
 20
527.5953584835526
 30
0.0
 10
573.9980385934797
 20
530.4613334177319
 30
0.0
 10
573.9980385934797
 20
530.4613334177319
 30
0.0
 10
573.9980385934797
 20
530.4613334177319
 30
0.0
 10
575.4408445827023
 20
530.4613334177319
 30
0.0
 10
575.4408445827023
 20
530.4613334177319
 30
0.0
 10
575.4408445827023
 20
530.4613334177319
 30
0.0
 10
575.4408445827023
 20
531.8614202229375
 30
0.0
 10
575.4408445827023
 20
531.8614202229375
 30
0.0
 10
575.4408445827023
 20
531.8614202229375
 30
0.0
 10
577.6408825595829
 20
531.8614202229375
 30
0.0
 10
577.6408825595829
 20
531.8614202229375
 30
0.0
 10
577.6408825595829
 20
531.8614202229375
 30
0.0
 10
577.6408825595829
 20
530.4613334177319
 30
0.0
 10
577.6408825595829
 20
530.4613334177319
 30
0.0
 10
577.6408825595829
 20
530.4613334177319
 30
0.0
 10
584.6592310821338
 20
530.4613334177319
 30
0.0
 10
584.6592310821338
 20
530.4613334177319
 30
0.0
 10
584.6592310821338
 20
530.4613334177319
 30
0.0
 10
584.6592310821338
 20
530.9619057917387
 30
0.0
 10
584.6592310821338
 20
530.9619057917387
 30
0.0
 10
584.6592310821338
 20
530.9619057917387
 30
0.0
 10
584.6592310821338
 20
548.7499673107292
 30
0.0
 10
584.6592310821338
 20
548.7499673107292
 30
0.0
 10
584.6592310821338
 20
548.7499673107292
 30
0.0
 10
590.7487818618614
 20
549.0000812429583
 30
0.0
 10
590.7487818618614
 20
549.0000812429583
 30
0.0
 10
590.7487818618614
 20
549.0000812429583
 30
0.0
 10
590.7487818618614
 20
559.046668697044
 30
0.0
 10
590.7487818618614
 20
559.046668697044
 30
0.0
 10
590.7487818618614
 20
559.046668697044
 30
0.0
 10
584.6592310821338
 20
559.296782629273
 30
0.0
 10
584.6592310821338
 20
559.296782629273
 30
0.0
 10
584.6592310821338
 20
559.296782629273
 30
0.0
 10
584.6592310821338
 20
632.9150280535769
 30
0.0
 10
584.6592310821338
 20
632.9150280535769
 30
0.0
 10
584.6592310821338
 20
632.9150280535769
 30
0.0
 10
590.7487818618614
 20
633.1651419858059
 30
0.0
 10
590.7487818618614
 20
633.1651419858059
 30
0.0
 10
590.7487818618614
 20
633.1651419858059
 30
0.0
 10
590.7487818618614
 20
643.2492809806807
 30
0.0
 10
590.7487818618614
 20
643.2492809806807
 30
0.0
 10
590.7487818618614
 20
643.2492809806807
 30
0.0
 10
584.6592310821338
 20
643.4993949129099
 30
0.0
 10
584.6592310821338
 20
643.4993949129099
 30
0.0
 10
584.6592310821338
 20
643.4993949129099
 30
0.0
 10
584.6592310821338
 20
661.2629962539551
 30
0.0
 10
584.6592310821338
 20
661.2629962539551
 30
0.0
 10
584.6592310821338
 20
661.2629962539551
 30
0.0
 10
584.6592310821338
 20
661.7621905897678
 30
0.0
 10
584.6592310821338
 20
661.7621905897678
 30
0.0
 10
584.6592310821338
 20
661.7621905897678
 30
0.0
 10
577.6408825595829
 20
661.7621905897678
 30
0.0
 10
577.6408825595829
 20
661.7621905897678
 30
0.0
 10
577.6408825595829
 20
661.7621905897678
 30
0.0
 10
577.6408825595829
 20
660.3627928036593
 30
0.0
 10
577.6408825595829
 20
660.3627928036593
 30
0.0
 10
577.6408825595829
 20
660.3627928036593
 30
0.0
 10
575.4408445827023
 20
660.3627928036593
 30
0.0
 10
575.4408445827023
 20
660.3627928036593
 30
0.0
 10
575.4408445827023
 20
660.3627928036593
 30
0.0
 10
575.4408445827023
 20
661.7621905897678
 30
0.0
 10
575.4408445827023
 20
661.7621905897678
 30
0.0
 10
575.4408445827023
 20
661.7621905897678
 30
0.0
 10
573.9980385934797
 20
661.7621905897678
 30
0.0
 10
573.9980385934797
 20
661.7621905897678
 30
0.0
 10
573.9980385934797
 20
661.7621905897678
 30
0.0
 10
573.9980385934797
 20
664.6250649380104
 30
0.0
 10
573.9980385934797
 20
664.6250649380104
 30
0.0
 10
573.9980385934797
 20
664.6250649380104
 30
0.0
 10
575.4408445827023
 20
664.6250649380104
 30
0.0
 10
575.4408445827023
 20
664.6250649380104
 30
0.0
 10
575.4408445827023
 20
664.6250649380104
 30
0.0
 10
575.4408445827023
 20
666.0251517432159
 30
0.0
 10
575.4408445827023
 20
666.0251517432159
 30
0.0
 10
575.4408445827023
 20
666.0251517432159
 30
0.0
 10
577.6408825595829
 20
666.0251517432159
 30
0.0
 10
577.6408825595829
 20
666.0251517432159
 30
0.0
 10
577.6408825595829
 20
666.0251517432159
 30
0.0
 10
577.6408825595829
 20
664.6250649380104
 30
0.0
 10
577.6408825595829
 20
664.6250649380104
 30
0.0
 10
577.6408825595829
 20
664.6250649380104
 30
0.0
 10
584.6592310821338
 20
664.6250649380104
 30
0.0
 10
584.6592310821338
 20
664.6250649380104
 30
0.0
 10
584.6592310821338
 20
664.6250649380104
 30
0.0
 10
584.6592310821338
 20
665.1252928024687
 30
0.0
 10
584.6592310821338
 20
665.1252928024687
 30
0.0
 10
584.6592310821338
 20
665.1252928024687
 30
0.0
 10
584.6592310821338
 20
682.930924308434
 30
0.0
 10
584.6592310821338
 20
682.930924308434
 30
0.0
 10
584.6592310821338
 20
682.930924308434
 30
0.0
 10
590.7487818618614
 20
683.1810382406632
 30
0.0
 10
590.7487818618614
 20
683.1810382406632
 30
0.0
 10
590.7487818618614
 20
683.1810382406632
 30
0.0
 10
590.7487818618614
 20
693.21797942739
 30
0.0
 10
590.7487818618614
 20
693.21797942739
 30
0.0
 10
590.7487818618614
 20
693.21797942739
 30
0.0
 10
584.6592310821338
 20
693.4680933596192
 30
0.0
 10
584.6592310821338
 20
693.4680933596192
 30
0.0
 10
584.6592310821338
 20
693.4680933596192
 30
0.0
 10
584.6592310821338
 20
705.5679577229135
 30
0.0
 10
584.6592310821338
 20
705.5679577229135
 30
0.0
 10
584.6592310821338
 20
705.5679577229135
 30
0.0
 10
561.7968884229189
 20
705.5679577229135
 30
0.0
 10
561.7968884229189
 20
705.5679577229135
 30
0.0
 10
559.8510984928497
 20
705.5679577229135
 30
0.0
 10
557.2355820004481
 20
706.7840764292068
 30
0.0
 10
555.9843233202054
 20
708.2713241501891
 30
0.0
 10
555.9843233202054
 20
708.2713241501891
 30
0.0
 10
552.1209932430462
 20
712.8653589797698
 30
0.0
 10
552.1209932430462
 20
712.8653589797698
 30
0.0
 10
550.8704235819005
 20
714.3515731721066
 30
0.0
 10
548.2549070894988
 20
715.5683808974968
 30
0.0
 10
546.3084281403327
 20
715.5683808974968
 30
0.0
 10
546.3084281403327
 20
715.5683808974968
 30
0.0
 10
296.5607095612765
 20
715.5683808974968
 30
0.0
 10
296.5607095612765
 20
715.5683808974968
 30
0.0
 10
294.6142306121104
 20
715.5683808974968
 30
0.0
 10
291.9994031388057
 20
714.3515731721066
 30
0.0
 10
290.74883347766
 20
712.8653589797698
 30
0.0
 10
290.74883347766
 20
712.8653589797698
 30
0.0
 10
286.8855034005009
 20
708.2713241501891
 30
0.0
 10
286.8855034005009
 20
708.2713241501891
 30
0.0
 10
285.6335557011611
 20
706.7840764292068
 30
0.0
 10
283.0180392087594
 20
705.5679577229135
 30
0.0
 10
281.0729382977873
 20
705.5679577229135
 30
0.0
 10
281.0729382977873
 20
705.5679577229135
 30
0.0
 10
258.3732041454762
 20
705.5679577229135
 30
0.0
 10
258.3732041454762
 20
705.5679577229135
 30
0.0
 10
258.3732041454762
 20
705.5679577229135
 30
0.0
 10
258.3732041454762
 20
693.4680933596192
 30
0.0
 10
258.3732041454762
 20
693.4680933596192
 30
0.0
 10
258.3732041454762
 20
693.4680933596192
 30
0.0
 10
252.2836533657485
 20
693.21797942739
 30
0.0
 10
252.2836533657485
 20
693.21797942739
 30
0.0
 10
252.2836533657485
 20
693.21797942739
 30
0.0
 10
252.2836533657485
 20
683.1810382406632
 30
0.0
 10
252.2836533657485
 20
683.1810382406632
 30
0.0
 10
252.2836533657485
 20
683.1810382406632
 30
0.0
 10
258.3732041454762
 20
682.930924308434
 30
0.0
 10
258.3732041454762
 20
682.930924308434
 30
0.0
 10
258.3732041454762
 20
682.930924308434
 30
0.0
 10
258.3732041454762
 20
665.1252928024687
 30
0.0
 10
258.3732041454762
 20
665.1252928024687
 30
0.0
 10
258.3732041454762
 20
665.1252928024687
 30
0.0
 10
258.3732041454762
 20
664.6250649380104
 30
0.0
 10
258.3732041454762
 20
664.6250649380104
 30
0.0
 10
258.3732041454762
 20
664.6250649380104
 30
0.0
 10
265.3915526680271
 20
664.6250649380104
 30
0.0
 10
265.3915526680271
 20
664.6250649380104
 30
0.0
 10
265.3915526680271
 20
664.6250649380104
 30
0.0
 10
265.3915526680271
 20
666.0251517432159
 30
0.0
 10
265.3915526680271
 20
666.0251517432159
 30
0.0
 10
265.3915526680271
 20
666.0251517432159
 30
0.0
 10
267.5915906449077
 20
666.0251517432159
 30
0.0
 10
267.5915906449077
 20
666.0251517432159
 30
0.0
 10
267.5915906449077
 20
666.0251517432159
 30
0.0
 10
267.5915906449077
 20
664.6250649380104
 30
0.0
 10
267.5915906449077
 20
664.6250649380104
 30
0.0
 10
267.5915906449077
 20
664.6250649380104
 30
0.0
 10
269.0343966341303
 20
664.6250649380104
 30
0.0
 10
269.0343966341303
 20
664.6250649380104
 30
0.0
 10
269.0343966341303
 20
664.6250649380104
 30
0.0
 10
269.0343966341303
 20
661.7621905897678
 30
0.0
 10
269.0343966341303
 20
661.7621905897678
 30
0.0
 10
269.0343966341303
 20
661.7621905897678
 30
0.0
 10
267.5915906449077
 20
661.7621905897678
 30
0.0
 10
267.5915906449077
 20
661.7621905897678
 30
0.0
 10
267.5915906449077
 20
661.7621905897678
 30
0.0
 10
267.5915906449077
 20
660.3627928036593
 30
0.0
 10
267.5915906449077
 20
660.3627928036593
 30
0.0
 10
267.5915906449077
 20
660.3627928036593
 30
0.0
 10
265.3915526680271
 20
660.3627928036593
 30
0.0
 10
265.3915526680271
 20
660.3627928036593
 30
0.0
 10
265.3915526680271
 20
660.3627928036593
 30
0.0
 10
265.3915526680271
 20
661.7621905897678
 30
0.0
 10
265.3915526680271
 20
661.7621905897678
 30
0.0
 10
265.3915526680271
 20
661.7621905897678
 30
0.0
 10
258.3732041454762
 20
661.7621905897678
 30
0.0
 10
258.3732041454762
 20
661.7621905897678
 30
0.0
 10
258.3732041454762
 20
661.7621905897678
 30
0.0
 10
258.3732041454762
 20
661.2629962539551
 30
0.0
 10
258.3732041454762
 20
661.2629962539551
 30
0.0
 10
258.3732041454762
 20
661.2629962539551
 30
0.0
 10
258.3732041454762
 20
643.4993949129099
 30
0.0
 10
258.3732041454762
 20
643.4993949129099
 30
0.0
 10
258.3732041454762
 20
643.4993949129099
 30
0.0
 10
252.2836533657485
 20
643.2492809806807
 30
0.0
 10
252.2836533657485
 20
643.2492809806807
 30
0.0
 10
252.2836533657485
 20
643.2492809806807
 30
0.0
 10
252.2836533657485
 20
633.1651419858059
 30
0.0
 10
252.2836533657485
 20
633.1651419858059
 30
0.0
 10
252.2836533657485
 20
633.1651419858059
 30
0.0
 10
258.3732041454762
 20
632.9150280535769
 30
0.0
 10
258.3732041454762
 20
632.9150280535769
 30
0.0
 10
258.3732041454762
 20
632.9150280535769
 30
0.0
 10
258.3732041454762
 20
559.296782629273
 30
0.0
 10
258.3732041454762
 20
559.296782629273
 30
0.0
 10
258.3732041454762
 20
559.296782629273
 30
0.0
 10
252.2836533657485
 20
559.046668697044
 30
0.0
 10
252.2836533657485
 20
559.046668697044
 30
0.0
 10
252.2836533657485
 20
559.046668697044
 30
0.0
 10
252.2836533657485
 20
549.0000812429583
 30
0.0
 10
252.2836533657485
 20
549.0000812429583
 30
0.0
 10
252.2836533657485
 20
549.0000812429583
 30
0.0
 10
258.3732041454762
 20
548.7499673107292
 30
0.0
 10
258.3732041454762
 20
548.7499673107292
 30
0.0
 10
258.3732041454762
 20
548.7499673107292
 30
0.0
 10
258.3732041454762
 20
530.9619057917387
 30
0.0
 10
258.3732041454762
 20
530.9619057917387
 30
0.0
 10
258.3732041454762
 20
530.9619057917387
 30
0.0
 10
258.3732041454762
 20
530.4613334177319
 30
0.0
 10
258.3732041454762
 20
530.4613334177319
 30
0.0
 10
258.3732041454762
 20
530.4613334177319
 30
0.0
 10
265.3915526680271
 20
530.4613334177319
 30
0.0
 10
265.3915526680271
 20
530.4613334177319
 30
0.0
 10
265.3915526680271
 20
530.4613334177319
 30
0.0
 10
265.3915526680271
 20
531.8614202229375
 30
0.0
 10
265.3915526680271
 20
531.8614202229375
 30
0.0
 10
265.3915526680271
 20
531.8614202229375
 30
0.0
 10
267.5915906449077
 20
531.8614202229375
 30
0.0
 10
267.5915906449077
 20
531.8614202229375
 30
0.0
 10
267.5915906449077
 20
531.8614202229375
 30
0.0
 10
267.5915906449077
 20
530.4613334177319
 30
0.0
 10
267.5915906449077
 20
530.4613334177319
 30
0.0
 10
267.5915906449077
 20
530.4613334177319
 30
0.0
 10
269.0343966341303
 20
530.4613334177319
 30
0.0
 10
269.0343966341303
 20
530.4613334177319
 30
0.0
 10
269.0343966341303
 20
530.4613334177319
 30
0.0
 10
269.0343966341303
 20
527.5953584835526
 30
0.0
 10
269.0343966341303
 20
527.5953584835526
 30
0.0
 10
269.0343966341303
 20
527.5953584835526
 30
0.0
 10
267.5915906449077
 20
527.5953584835526
 30
0.0
 10
267.5915906449077
 20
527.5953584835526
 30
0.0
 10
267.5915906449077
 20
527.5953584835526
 30
0.0
 10
267.5915906449077
 20
526.1959606974441
 30
0.0
 10
267.5915906449077
 20
526.1959606974441
 30
0.0
 10
267.5915906449077
 20
526.1959606974441
 30
0.0
 10
265.3915526680271
 20
526.1959606974441
 30
0.0
 10
265.3915526680271
 20
526.1959606974441
 30
0.0
 10
265.3915526680271
 20
526.1959606974441
 30
0.0
 10
265.3915526680271
 20
527.5953584835526
 30
0.0
 10
265.3915526680271
 20
527.5953584835526
 30
0.0
 10
265.3915526680271
 20
527.5953584835526
 30
0.0
 10
258.3732041454762
 20
527.5953584835526
 30
0.0
 10
258.3732041454762
 20
527.5953584835526
 30
0.0
 10
258.3732041454762
 20
527.5953584835526
 30
0.0
 10
258.3732041454762
 20
527.0958196381913
 30
0.0
 10
258.3732041454762
 20
527.0958196381913
 30
0.0
 10
258.3732041454762
 20
527.0958196381913
 30
0.0
 10
258.3732041454762
 20
509.2805418648674
 30
0.0
 10
258.3732041454762
 20
509.2805418648674
 30
0.0
 10
258.3732041454762
 20
509.2805418648674
 30
0.0
 10
252.2836533657485
 20
509.0304279326382
 30
0.0
 10
252.2836533657485
 20
509.0304279326382
 30
0.0
 10
252.2836533657485
 20
509.0304279326382
 30
0.0
 10
252.2836533657485
 20
498.9938312554599
 30
0.0
 10
252.2836533657485
 20
498.9938312554599
 30
0.0
 10
252.2836533657485
 20
498.9938312554599
 30
0.0
 10
258.3732041454762
 20
498.7437173232308
 30
0.0
 10
258.3732041454762
 20
498.7437173232308
 30
0.0
 10
258.3732041454762
 20
498.7437173232308
 30
0.0
 10
258.3732041454762
 20
427.5745902793911
 30
0.0
 10
258.3732041454762
 20
427.5745902793911
 30
0.0
 10
258.3732041454762
 20
427.5745902793911
 30
0.0
 10
252.2836533657485
 20
427.324476347162
 30
0.0
 10
252.2836533657485
 20
427.324476347162
 30
0.0
 10
252.2836533657485
 20
427.324476347162
 30
0.0
 10
252.2836533657485
 20
417.2637640015869
 30
0.0
 10
252.2836533657485
 20
417.2637640015869
 30
0.0
 10
252.2836533657485
 20
417.2637640015869
 30
0.0
 10
258.3732041454762
 20
417.0136500693577
 30
0.0
 10
258.3732041454762
 20
417.0136500693577
 30
0.0
 10
258.3732041454762
 20
417.0136500693577
 30
0.0
 10
258.3732041454762
 20
399.2231769835275
 30
0.0
 10
258.3732041454762
 20
399.2231769835275
 30
0.0
 10
258.3732041454762
 20
399.2231769835275
 30
0.0
 10
258.3732041454762
 20
398.7229491190693
 30
0.0
 10
258.3732041454762
 20
398.7229491190693
 30
0.0
 10
258.3732041454762
 20
398.7229491190693
 30
0.0
 10
265.3915526680271
 20
398.7229491190693
 30
0.0
 10
265.3915526680271
 20
398.7229491190693
 30
0.0
 10
265.3915526680271
 20
398.7229491190693
 30
0.0
 10
265.3915526680271
 20
400.1230359242748
 30
0.0
 10
265.3915526680271
 20
400.1230359242748
 30
0.0
 10
265.3915526680271
 20
400.1230359242748
 30
0.0
 10
267.5915906449077
 20
400.1230359242748
 30
0.0
 10
267.5915906449077
 20
400.1230359242748
 30
0.0
 10
267.5915906449077
 20
400.1230359242748
 30
0.0
 10
267.5915906449077
 20
398.7229491190693
 30
0.0
 10
267.5915906449077
 20
398.7229491190693
 30
0.0
 10
267.5915906449077
 20
398.7229491190693
 30
0.0
 10
269.0343966341303
 20
398.7229491190693
 30
0.0
 10
269.0343966341303
 20
398.7229491190693
 30
0.0
 10
269.0343966341303
 20
398.7229491190693
 30
0.0
 10
269.0343966341303
 20
395.9479247057005
 30
0.0
 10
269.0343966341303
 20
395.9479247057005
 30
0.0
 10
269.0343966341303
 20
395.9479247057005
 30
0.0
 10
267.5915906449077
 20
395.9479247057005
 30
0.0
 10
267.5915906449077
 20
395.9479247057005
 30
0.0
 10
267.5915906449077
 20
395.9479247057005
 30
0.0
 10
267.5915906449077
 20
394.5485269195921
 30
0.0
 10
267.5915906449077
 20
394.5485269195921
 30
0.0
 10
267.5915906449077
 20
394.5485269195921
 30
0.0
 10
265.3915526680271
 20
394.5485269195921
 30
0.0
 10
265.3915526680271
 20
394.5485269195921
 30
0.0
 10
265.3915526680271
 20
394.5485269195921
 30
0.0
 10
265.3915526680271
 20
395.8800563246411
 30
0.0
 10
265.3915526680271
 20
395.8800563246411
 30
0.0
 10
265.3915526680271
 20
395.8800563246411
 30
0.0
 10
258.3732041454762
 20
395.8800563246411
 30
0.0
 10
258.3732041454762
 20
395.8800563246411
 30
0.0
 10
258.3732041454762
 20
395.8800563246411
 30
0.0
 10
258.3732041454762
 20
395.4480413507908
 30
0.0
 10
258.3732041454762
 20
395.4480413507908
 30
0.0
 10
258.3732041454762
 20
395.4480413507908
 30
0.0
 10
258.3732041454762
 20
377.5738524446691
 30
0.0
 10
258.3732041454762
 20
377.5738524446691
 30
0.0
 10
258.3732041454762
 20
377.5738524446691
 30
0.0
 10
252.2836533657485
 20
377.3237385124399
 30
0.0
 10
252.2836533657485
 20
377.3237385124399
 30
0.0
 10
252.2836533657485
 20
377.3237385124399
 30
0.0
 10
252.2836533657485
 20
367.272327924675
 30
0.0
 10
252.2836533657485
 20
367.272327924675
 30
0.0
 10
252.2836533657485
 20
367.272327924675
 30
0.0
 10
258.3732041454762
 20
367.0222139924459
 30
0.0
 10
258.3732041454762
 20
367.0222139924459
 30
0.0
 10
258.3732041454762
 20
367.0222139924459
 30
0.0
 10
258.3732041454762
 20
327.5204046490227
 30
0.0
 10
258.3732041454762
 20
327.5204046490227
 30
0.0
 10
258.3732041454762
 20
327.5204046490227
 30
0.0
 10
281.0364202856437
 20
327.5204046490227
 30
0.0
 10
281.0364202856437
 20
327.5204046490227
 30
0.0
 10
282.9815211966157
 20
327.5204046490227
 30
0.0
 10
285.5977267081145
 20
328.7365233553159
 30
0.0
 10
286.8482963692601
 20
330.2237710762982
 30
0.0
 10
286.8482963692601
 20
330.2237710762982
 30
0.0
 10
290.7116264464193
 20
334.8178059058789
 30
0.0
 10
290.7116264464193
 20
334.8178059058789
 30
0.0
 10
291.962196107565
 20
336.3040200982157
 30
0.0
 10
294.5784016190638
 20
337.5208278236059
 30
0.0
 10
296.5248805682299
 20
337.5208278236059
 30
0.0
 10
296.5248805682299
 20
337.5208278236059
 30
0.0
 10
546.5550969770766
 20
337.5208278236059
 30
0.0
 10
546.5550969770766
 20
337.5208278236059
 30
0.0
 10
548.5008869071456
 20
337.5208278236059
 30
0.0
 10
551.1170924186443
 20
336.3040200982157
 30
0.0
 10
552.3676620797901
 20
334.8178059058789
 30
0.0
 10
552.3676620797901
 20
334.8178059058789
 30
0.0
 10
556.2309921569492
 20
330.2237710762982
 30
0.0
 10
556.2309921569492
 20
330.2237710762982
 30
0.0
 10
557.4822508371919
 20
328.7365233553159
 30
0.0
 10
560.0977673295937
 20
327.5204046490227
 30
0.0
 10
562.0435572596627
 20
327.5204046490227
 30
0.0
 10
562.0435572596627
 20
327.5204046490227
 30
0.0
 10
584.6592310821338
 20
327.5204046490227
 30
0.0
 10
584.6592310821338
 20
327.5204046490227
 30
0.0
  0
INSERT
  5
160
330
1F
100
AcDbEntity
  8
HIDE
100
AcDbBlockReference
  2
block 23
 10
0.0
 20
0.0
 30
0.0
  0
INSERT
  5
172
330
1F
100
AcDbEntity
  8
Layer 16
100
AcDbBlockReference
  2
block 24
 10
0.0
 20
0.0
 30
0.0
  0
ENDSEC
  0
SECTION
  2
OBJECTS
  0
DICTIONARY
  5
C
330
0
100
AcDbDictionary
281
     1
  3
ACAD_GROUP
350
D
  3
ACAD_LAYOUT
350
1A
  3
ACAD_MLINESTYLE
350
17
  3
ACAD_PLOTSETTINGS
350
19
  3
ACAD_PLOTSTYLENAME
350
E
  3
ACAD_TABLESTYLE
350
17C
  3
ACAD_VISUALSTYLE
350
2A
  0
DICTIONARY
  5
D
102
{ACAD_REACTORS
330
C
102
}
330
C
100
AcDbDictionary
281
     1
  0
DICTIONARY
  5
1A
102
{ACAD_REACTORS
330
C
102
}
330
C
100
AcDbDictionary
281
     1
  3
Layout1
350
1E
  3
Layout2
350
26
  3
Model
350
22
  0
DICTIONARY
  5
17
102
{ACAD_REACTORS
330
C
102
}
330
C
100
AcDbDictionary
281
     1
  3
Standard
350
18
  0
DICTIONARY
  5
19
102
{ACAD_REACTORS
330
C
102
}
330
C
100
AcDbDictionary
281
     1
  0
ACDBDICTIONARYWDFLT
  5
E
102
{ACAD_REACTORS
330
C
102
}
330
C
100
AcDbDictionary
281
     1
  3
Normal
350
F
100
AcDbDictionaryWithDefault
340
F
  0
DICTIONARY
  5
17C
102
{ACAD_REACTORS
330
C
102
}
330
C
100
AcDbDictionary
281
     1
  0
DICTIONARY
  5
2A
102
{ACAD_REACTORS
330
C
102
}
330
C
100
AcDbDictionary
281
     1
  3
2dWireframe
350
2F
  3
3D Hidden
350
31
  3
3dWireframe
350
30
  3
Basic
350
32
  3
Brighten
350
36
  3
ColorChange
350
3A
  3
Conceptual
350
34
  3
Dim
350
35
  3
Facepattern
350
39
  3
Flat
350
2B
  3
FlatWithEdges
350
2C
  3
Gouraud
350
2D
  3
GouraudWithEdges
350
2E
  3
Linepattern
350
38
  3
Realistic
350
33
  3
Thicken
350
37
  0
LAYOUT
  5
1E
102
{ACAD_REACTORS
330
1A
102
}
330
1A
100
AcDbPlotSettings
  1

  2
none_device
  4

  6

 40
0.0
 41
0.0
 42
0.0
 43
0.0
 44
0.0
 45
0.0
 46
0.0
 47
0.0
 48
0.0
 49
0.0
140
0.0
141
0.0
142
1.0
143
1.0
 70
   688
 72
     0
 73
     0
 74
     5
  7

 75
    16
 76
     0
 77
     2
 78
   300
147
1.0
148
0.0
149
0.0
100
AcDbLayout
  1
Layout1
 70
     1
 71
     1
 10
0.0
 20
0.0
 11
12.0
 21
9.0
 12
0.0
 22
0.0
 32
0.0
 14
1.000000000000000E+20
 24
1.000000000000000E+20
 34
1.000000000000000E+20
 15
-1.000000000000000E+20
 25
-1.000000000000000E+20
 35
-1.000000000000000E+20
146
0.0
 13
0.0
 23
0.0
 33
0.0
 16
1.0
 26
0.0
 36
0.0
 17
0.0
 27
1.0
 37
0.0
 76
     0
330
1B
  0
LAYOUT
  5
26
102
{ACAD_REACTORS
330
1A
102
}
330
1A
100
AcDbPlotSettings
  1

  2
none_device
  4

  6

 40
0.0
 41
0.0
 42
0.0
 43
0.0
 44
0.0
 45
0.0
 46
0.0
 47
0.0
 48
0.0
 49
0.0
140
0.0
141
0.0
142
1.0
143
1.0
 70
   688
 72
     0
 73
     0
 74
     5
  7

 75
    16
 76
     0
 77
     2
 78
   300
147
1.0
148
0.0
149
0.0
100
AcDbLayout
  1
Layout2
 70
     1
 71
     2
 10
0.0
 20
0.0
 11
0.0
 21
0.0
 12
0.0
 22
0.0
 32
0.0
 14
0.0
 24
0.0
 34
0.0
 15
0.0
 25
0.0
 35
0.0
146
0.0
 13
0.0
 23
0.0
 33
0.0
 16
1.0
 26
0.0
 36
0.0
 17
0.0
 27
1.0
 37
0.0
 76
     0
330
23
  0
LAYOUT
  5
22
102
{ACAD_REACTORS
330
1A
102
}
330
1A
100
AcDbPlotSettings
  1

  2
none_device
  4

  6

 40
0.0
 41
0.0
 42
0.0
 43
0.0
 44
0.0
 45
0.0
 46
0.0
 47
0.0
 48
0.0
 49
0.0
140
0.0
141
0.0
142
1.0
143
1.0
 70
  1712
 72
     0
 73
     0
 74
     0
  7

 75
     0
 76
     0
 77
     2
 78
   300
147
1.0
148
0.0
149
0.0
100
AcDbLayout
  1
Model
 70
     1
 71
     0
 10
0.0
 20
0.0
 11
12.0
 21
9.0
 12
0.0
 22
0.0
 32
0.0
 14
1.000000000000000E+20
 24
1.000000000000000E+20
 34
1.000000000000000E+20
 15
-1.000000000000000E+20
 25
-1.000000000000000E+20
 35
-1.000000000000000E+20
146
0.0
 13
0.0
 23
0.0
 33
0.0
 16
1.0
 26
0.0
 36
0.0
 17
0.0
 27
1.0
 37
0.0
 76
     0
330
1F
331
29
  0
MLINESTYLE
  5
18
102
{ACAD_REACTORS
330
17
102
}
330
17
100
AcDbMlineStyle
  2
Standard
 70
     0
  3

 62
   256
 51
90.0
 52
90.0
 71
     2
 49
0.5
 62
   256
  6
BYLAYER
 49
-0.5
 62
   256
  6
BYLAYER
  0
ACDBPLACEHOLDER
  5
F
102
{ACAD_REACTORS
330
E
102
}
330
E
  0
VISUALSTYLE
  5
2F
102
{ACAD_REACTORS
330
2A
102
}
330
2A
100
AcDbVisualStyle
  2
2dWireframe
 70
     4
 71
     0
 72
     2
 73
     0
 90
        0
 40
-0.6
 41
-30.0
 62
     5
 63
     7
421
 16777215
 74
     1
 91
        4
 64
     7
 65
   257
 75
     1
175
     1
 42
1.0
 92
        0
 66
   257
 43
1.0
 76
     1
 77
     6
 78
     2
 67
     7
 79
     5
170
     0
171
     0
290
     0
174
     0
 93
        1
 44
0.0
173
     0
291
     0
 45
0.0
1001
ACAD
1000
AcDbSavedByObjectVersion
1070
     0
  0
VISUALSTYLE
  5
31
102
{ACAD_REACTORS
330
2A
102
}
330
2A
100
AcDbVisualStyle
  2
3D Hidden
 70
     6
 71
     1
 72
     2
 73
     2
 90
        0
 40
-0.6
 41
-30.0
 62
     5
 63
     7
421
 16777215
 74
     2
 91
        2
 64
     7
 65
   257
 75
     2
175
     1
 42
40.0
 92
        0
 66
   257
 43
1.0
 76
     1
 77
     6
 78
     2
 67
     7
 79
     3
170
     0
171
     0
290
     0
174
     0
 93
        1
 44
0.0
173
     0
291
     0
 45
0.0
1001
ACAD
1000
AcDbSavedByObjectVersion
1070
     0
  0
VISUALSTYLE
  5
30
102
{ACAD_REACTORS
330
2A
102
}
330
2A
100
AcDbVisualStyle
  2
3dWireframe
 70
     5
 71
     0
 72
     2
 73
     0
 90
        0
 40
-0.6
 41
-30.0
 62
     5
 63
     7
421
 16777215
 74
     1
 91
        4
 64
     7
 65
   257
 75
     1
175
     1
 42
1.0
 92
        0
 66
   257
 43
1.0
 76
     1
 77
     6
 78
     2
 67
     7
 79
     5
170
     0
171
     0
290
     0
174
     0
 93
        1
 44
0.0
173
     0
291
     0
 45
0.0
1001
ACAD
1000
AcDbSavedByObjectVersion
1070
     0
  0
VISUALSTYLE
  5
32
102
{ACAD_REACTORS
330
2A
102
}
330
2A
100
AcDbVisualStyle
  2
Basic
 70
     7
 71
     1
 72
     0
 73
     1
 90
        0
 40
-0.6
 41
-30.0
 62
     5
 63
     7
421
 16777215
 74
     0
 91
        4
 64
     7
 65
   257
 75
     1
175
     1
 42
1.0
 92
        8
 66
     7
 43
1.0
 76
     1
 77
     6
 78
     2
 67
     7
 79
     5
170
     0
171
     0
290
     0
174
     0
 93
        1
 44
0.0
173
     0
291
     1
 45
0.0
1001
ACAD
1000
AcDbSavedByObjectVersion
1070
     0
  0
VISUALSTYLE
  5
36
102
{ACAD_REACTORS
330
2A
102
}
330
2A
100
AcDbVisualStyle
  2
Brighten
 70
    12
 71
     2
 72
     2
 73
     0
 90
        0
 40
-0.6
 41
-30.0
 62
     5
 63
     7
421
 16777215
 74
     1
 91
        4
 64
     7
 65
   257
 75
     1
175
     1
 42
1.0
 92
        8
 66
     7
 43
1.0
 76
     1
 77
     6
 78
     2
 67
     7
 79
     5
170
     0
171
     0
290
     0
174
     0
 93
        1
 44
50.0
173
     0
291
     1
 45
0.0
1001
ACAD
1000
AcDbSavedByObjectVersion
1070
     0
  0
VISUALSTYLE
  5
3A
102
{ACAD_REACTORS
330
2A
102
}
330
2A
100
AcDbVisualStyle
  2
ColorChange
 70
    16
 71
     2
 72
     2
 73
     3
 90
        0
 40
-0.6
 41
-30.0
 62
     5
 63
     8
421
  8421504
 74
     1
 91
        4
 64
     7
 65
   257
 75
     1
175
     1
 42
1.0
 92
        8
 66
     8
424
  8421504
 43
1.0
 76
     1
 77
     6
 78
     2
 67
     7
 79
     5
170
     0
171
     0
290
     0
174
     0
 93
        1
 44
0.0
173
     0
291
     1
 45
0.0
1001
ACAD
1000
AcDbSavedByObjectVersion
1070
     0
  0
VISUALSTYLE
  5
34
102
{ACAD_REACTORS
330
2A
102
}
330
2A
100
AcDbVisualStyle
  2
Conceptual
 70
     9
 71
     3
 72
     2
 73
     0
 90
        0
 40
-0.6
 41
-30.0
 62
     5
 63
     7
421
 16777215
 74
     2
 91
        2
 64
     7
 65
   257
 75
     1
175
     1
 42
40.0
 92
        8
 66
     7
 43
1.0
 76
     1
 77
     6
 78
     2
 67
     7
 79
     3
170
     0
171
     0
290
     0
174
     0
 93
        1
 44
0.0
173
     0
291
     0
 45
0.0
1001
ACAD
1000
AcDbSavedByObjectVersion
1070
     0
  0
VISUALSTYLE
  5
35
102
{ACAD_REACTORS
330
2A
102
}
330
2A
100
AcDbVisualStyle
  2
Dim
 70
    11
 71
     2
 72
     2
 73
     0
 90
        0
 40
-0.6
 41
-30.0
 62
     5
 63
     7
421
 16777215
 74
     1
 91
        4
 64
     7
 65
   257
 75
     1
175
     1
 42
1.0
 92
        8
 66
     7
 43
1.0
 76
     1
 77
     6
 78
     2
 67
     7
 79
     5
170
     0
171
     0
290
     0
174
     0
 93
        1
 44
-50.0
173
     0
291
     1
 45
0.0
1001
ACAD
1000
AcDbSavedByObjectVersion
1070
     0
  0
VISUALSTYLE
  5
39
102
{ACAD_REACTORS
330
2A
102
}
330
2A
100
AcDbVisualStyle
  2
Facepattern
 70
    15
 71
     2
 72
     2
 73
     0
 90
        0
 40
-0.6
 41
-30.0
 62
     5
 63
     7
421
 16777215
 74
     1
 91
        4
 64
     7
 65
   257
 75
     1
175
     1
 42
1.0
 92
        8
 66
     7
 43
1.0
 76
     1
 77
     6
 78
     2
 67
     7
 79
     5
170
     0
171
     0
290
     0
174
     0
 93
        1
 44
0.0
173
     0
291
     1
 45
0.0
1001
ACAD
1000
AcDbSavedByObjectVersion
1070
     0
  0
VISUALSTYLE
  5
2B
102
{ACAD_REACTORS
330
2A
102
}
330
2A
100
AcDbVisualStyle
  2
Flat
 70
     0
 71
     2
 72
     1
 73
     1
 90
        2
 40
-0.6
 41
30.0
 62
     5
 63
     7
421
 16777215
 74
     0
 91
        4
 64
     7
 65
   257
 75
     1
175
     1
 42
1.0
 92
        8
 66
     7
 43
1.0
 76
     1
 77
     6
 78
     2
 67
     7
 79
     5
170
     0
171
     0
290
     0
174
     0
 93
       13
 44
0.0
173
     0
291
     1
 45
0.0
1001
ACAD
1000
AcDbSavedByObjectVersion
1070
     0
  0
VISUALSTYLE
  5
2C
102
{ACAD_REACTORS
330
2A
102
}
330
2A
100
AcDbVisualStyle
  2
FlatWithEdges
 70
     1
 71
     2
 72
     1
 73
     1
 90
        2
 40
-0.6
 41
30.0
 62
     5
 63
     7
421
 16777215
 74
     1
 91
        4
 64
     7
 65
   257
 75
     1
175
     1
 42
1.0
 92
        0
 66
   257
 43
1.0
 76
     1
 77
     6
 78
     2
 67
     7
 79
     5
170
     0
171
     0
290
     0
174
     0
 93
       13
 44
0.0
173
     0
291
     1
 45
0.0
1001
ACAD
1000
AcDbSavedByObjectVersion
1070
     0
  0
VISUALSTYLE
  5
2D
102
{ACAD_REACTORS
330
2A
102
}
330
2A
100
AcDbVisualStyle
  2
Gouraud
 70
     2
 71
     2
 72
     2
 73
     1
 90
        2
 40
-0.6
 41
30.0
 62
     5
 63
     7
421
 16777215
 74
     0
 91
        4
 64
     7
 65
   257
 75
     1
175
     1
 42
1.0
 92
        0
 66
     7
 43
1.0
 76
     1
 77
     6
 78
     2
 67
     7
 79
     5
170
     0
171
     0
290
     0
174
     0
 93
       13
 44
0.0
173
     0
291
     1
 45
0.0
1001
ACAD
1000
AcDbSavedByObjectVersion
1070
     0
  0
VISUALSTYLE
  5
2E
102
{ACAD_REACTORS
330
2A
102
}
330
2A
100
AcDbVisualStyle
  2
GouraudWithEdges
 70
     3
 71
     2
 72
     2
 73
     1
 90
        2
 40
-0.6
 41
30.0
 62
     5
 63
     7
421
 16777215
 74
     1
 91
        4
 64
     7
 65
   257
 75
     1
175
     1
 42
1.0
 92
        0
 66
   257
 43
1.0
 76
     1
 77
     6
 78
     2
 67
     7
 79
     5
170
     0
171
     0
290
     0
174
     0
 93
       13
 44
0.0
173
     0
291
     1
 45
0.0
1001
ACAD
1000
AcDbSavedByObjectVersion
1070
     0
  0
VISUALSTYLE
  5
38
102
{ACAD_REACTORS
330
2A
102
}
330
2A
100
AcDbVisualStyle
  2
Linepattern
 70
    14
 71
     2
 72
     2
 73
     0
 90
        0
 40
-0.6
 41
-30.0
 62
     5
 63
     7
421
 16777215
 74
     1
 91
        4
 64
     7
 65
   257
 75
     7
175
     7
 42
1.0
 92
        8
 66
     7
 43
1.0
 76
     1
 77
     6
 78
     2
 67
     7
 79
     5
170
     0
171
     0
290
     0
174
     0
 93
        1
 44
0.0
173
     0
291
     1
 45
0.0
1001
ACAD
1000
AcDbSavedByObjectVersion
1070
     0
  0
VISUALSTYLE
  5
33
102
{ACAD_REACTORS
330
2A
102
}
330
2A
100
AcDbVisualStyle
  2
Realistic
 70
     8
 71
     2
 72
     2
 73
     0
 90
        0
 40
-0.6
 41
-30.0
 62
     5
 63
     7
421
 16777215
 74
     1
 91
        0
 64
     7
 65
   257
 75
     1
175
     1
 42
1.0
 92
        8
 66
     8
424
  7895160
 43
1.0
 76
     1
 77
     6
 78
     2
 67
     7
 79
     5
170
     0
171
     0
290
     0
174
     0
 93
       13
 44
0.0
173
     0
291
     0
 45
0.0
1001
ACAD
1000
AcDbSavedByObjectVersion
1070
     0
  0
VISUALSTYLE
  5
37
102
{ACAD_REACTORS
330
2A
102
}
330
2A
100
AcDbVisualStyle
  2
Thicken
 70
    13
 71
     2
 72
     2
 73
     0
 90
        0
 40
-0.6
 41
-30.0
 62
     5
 63
     7
421
 16777215
 74
     1
 91
        4
 64
     7
 65
   257
 75
     1
175
     1
 42
1.0
 92
       12
 66
     7
 43
1.0
 76
     1
 77
     6
 78
     2
 67
     7
 79
     5
170
     0
171
     0
290
     0
174
     0
 93
        1
 44
0.0
173
     0
291
     1
 45
0.0
1001
ACAD
1000
AcDbSavedByObjectVersion
1070
     0
  0
ENDSEC
  0
EOF
