  0
SECTION
  2
HEADER
  9
$ACADVER
  1
AC1018
  9
$ACADMAINTVER
 70
     0
  9
$DWGCODEPAGE
  3
ANSI_1252
  9
$INSBASE
 10
0.0
 20
0.0
 30
0.0
  9
$EXTMIN
 10
1.000000000000000E+20
 20
1.000000000000000E+20
 30
1.000000000000000E+20
  9
$EXTMAX
 10
-1.000000000000000E+20
 20
-1.000000000000000E+20
 30
-1.000000000000000E+20
  9
$LIMMIN
 10
0.0
 20
0.0
  9
$LIMMAX
 10
12.0
 20
9.0
  9
$ORTHOMODE
 70
     0
  9
$REGENMODE
 70
     1
  9
$FILLMODE
 70
     1
  9
$QTEXTMODE
 70
     0
  9
$MIRRTEXT
 70
     1
  9
$LTSCALE
 40
1.0
  9
$ATTMODE
 70
     1
  9
$TEXTSIZE
 40
0.2
  9
$TRACEWID
 40
0.05
  9
$TEXTSTYLE
  7
Standard
  9
$CLAYER
  8
0
  9
$CELTYPE
  6
ByLayer
  9
$CECOLOR
 62
   256
  9
$CELTSCALE
 40
1.0
  9
$DISPSILH
 70
     0
  9
$DIMSCALE
 40
1.0
  9
$DIMASZ
 40
0.18
  9
$DIMEXO
 40
0.0625
  9
$DIMDLI
 40
0.38
  9
$DIMRND
 40
0.0
  9
$DIMDLE
 40
0.0
  9
$DIMEXE
 40
0.18
  9
$DIMTP
 40
0.0
  9
$DIMTM
 40
0.0
  9
$DIMTXT
 40
0.18
  9
$DIMCEN
 40
0.09
  9
$DIMTSZ
 40
0.0
  9
$DIMTOL
 70
     0
  9
$DIMLIM
 70
     0
  9
$DIMTIH
 70
     1
  9
$DIMTOH
 70
     1
  9
$DIMSE1
 70
     0
  9
$DIMSE2
 70
     0
  9
$DIMTAD
 70
     0
  9
$DIMZIN
 70
     0
  9
$DIMBLK
  1

  9
$DIMASO
 70
     1
  9
$DIMSHO
 70
     1
  9
$DIMPOST
  1

  9
$DIMAPOST
  1

  9
$DIMALT
 70
     0
  9
$DIMALTD
 70
     2
  9
$DIMALTF
 40
25.4
  9
$DIMLFAC
 40
1.0
  9
$DIMTOFL
 70
     0
  9
$DIMTVP
 40
0.0
  9
$DIMTIX
 70
     0
  9
$DIMSOXD
 70
     0
  9
$DIMSAH
 70
     0
  9
$DIMBLK1
  1

  9
$DIMBLK2
  1

  9
$DIMSTYLE
  2
Standard
  9
$DIMCLRD
 70
     0
  9
$DIMCLRE
 70
     0
  9
$DIMCLRT
 70
     0
  9
$DIMTFAC
 40
1.0
  9
$DIMGAP
 40
0.09
  9
$DIMJUST
 70
     0
  9
$DIMSD1
 70
     0
  9
$DIMSD2
 70
     0
  9
$DIMTOLJ
 70
     1
  9
$DIMTZIN
 70
     0
  9
$DIMALTZ
 70
     0
  9
$DIMALTTZ
 70
     0
  9
$DIMUPT
 70
     0
  9
$DIMDEC
 70
     4
  9
$DIMTDEC
 70
     4
  9
$DIMALTU
 70
     2
  9
$DIMALTTD
 70
     2
  9
$DIMTXSTY
  7
Standard
  9
$DIMAUNIT
 70
     0
  9
$DIMADEC
 70
     0
  9
$DIMALTRND
 40
0.0
  9
$DIMAZIN
 70
     0
  9
$DIMDSEP
 70
    46
  9
$DIMATFIT
 70
     3
  9
$DIMFRAC
 70
     0
  9
$DIMLDRBLK
  1

  9
$DIMLUNIT
 70
     2
  9
$DIMLWD
 70
    -2
  9
$DIMLWE
 70
    -2
  9
$DIMTMOVE
 70
     0
  9
$LUNITS
 70
     2
  9
$LUPREC
 70
     4
  9
$SKETCHINC
 40
0.1
  9
$FILLETRAD
 40
0.5
  9
$AUNITS
 70
     0
  9
$AUPREC
 70
     0
  9
$MENU
  1
.
  9
$ELEVATION
 40
0.0
  9
$PELEVATION
 40
0.0
  9
$THICKNESS
 40
0.0
  9
$LIMCHECK
 70
     0
  9
$CHAMFERA
 40
0.5
  9
$CHAMFERB
 40
0.5
  9
$CHAMFERC
 40
1.0
  9
$CHAMFERD
 40
0.0
  9
$SKPOLY
 70
     0
  9
$TDCREATE
 40
2456821.951090995
  9
$TDUCREATE
 40
2456821.867757662
  9
$TDUPDATE
 40
2456821.951091007
  9
$TDUUPDATE
 40
2456821.867757674
  9
$TDINDWG
 40
0.0000000116
  9
$TDUSRTIMER
 40
0.0000000116
  9
$USRTIMER
 70
     1
  9
$ANGBASE
 50
0.0
  9
$ANGDIR
 70
     0
  9
$PDMODE
 70
     0
  9
$PDSIZE
 40
0.0
  9
$PLINEWID
 40
0.0
  9
$SPLFRAME
 70
     0
  9
$SPLINETYPE
 70
     6
  9
$SPLINESEGS
 70
     8
  9
$HANDSEED
  5
91
  9
$SURFTAB1
 70
     6
  9
$SURFTAB2
 70
     6
  9
$SURFTYPE
 70
     6
  9
$SURFU
 70
     6
  9
$SURFV
 70
     6
  9
$UCSBASE
  2

  9
$UCSNAME
  2

  9
$UCSORG
 10
0.0
 20
0.0
 30
0.0
  9
$UCSXDIR
 10
1.0
 20
0.0
 30
0.0
  9
$UCSYDIR
 10
0.0
 20
1.0
 30
0.0
  9
$UCSORTHOREF
  2

  9
$UCSORTHOVIEW
 70
     0
  9
$UCSORGTOP
 10
0.0
 20
0.0
 30
0.0
  9
$UCSORGBOTTOM
 10
0.0
 20
0.0
 30
0.0
  9
$UCSORGLEFT
 10
0.0
 20
0.0
 30
0.0
  9
$UCSORGRIGHT
 10
0.0
 20
0.0
 30
0.0
  9
$UCSORGFRONT
 10
0.0
 20
0.0
 30
0.0
  9
$UCSORGBACK
 10
0.0
 20
0.0
 30
0.0
  9
$PUCSBASE
  2

  9
$PUCSNAME
  2

  9
$PUCSORG
 10
0.0
 20
0.0
 30
0.0
  9
$PUCSXDIR
 10
1.0
 20
0.0
 30
0.0
  9
$PUCSYDIR
 10
0.0
 20
1.0
 30
0.0
  9
$PUCSORTHOREF
  2

  9
$PUCSORTHOVIEW
 70
     0
  9
$PUCSORGTOP
 10
0.0
 20
0.0
 30
0.0
  9
$PUCSORGBOTTOM
 10
0.0
 20
0.0
 30
0.0
  9
$PUCSORGLEFT
 10
0.0
 20
0.0
 30
0.0
  9
$PUCSORGRIGHT
 10
0.0
 20
0.0
 30
0.0
  9
$PUCSORGFRONT
 10
0.0
 20
0.0
 30
0.0
  9
$PUCSORGBACK
 10
0.0
 20
0.0
 30
0.0
  9
$USERI1
 70
     0
  9
$USERI2
 70
     0
  9
$USERI3
 70
     0
  9
$USERI4
 70
     0
  9
$USERI5
 70
     0
  9
$USERR1
 40
0.0
  9
$USERR2
 40
0.0
  9
$USERR3
 40
0.0
  9
$USERR4
 40
0.0
  9
$USERR5
 40
0.0
  9
$WORLDVIEW
 70
     1
  9
$SHADEDGE
 70
     3
  9
$SHADEDIF
 70
    70
  9
$TILEMODE
 70
     1
  9
$MAXACTVP
 70
    64
  9
$PINSBASE
 10
0.0
 20
0.0
 30
0.0
  9
$PLIMCHECK
 70
     0
  9
$PEXTMIN
 10
1.000000000000000E+20
 20
1.000000000000000E+20
 30
1.000000000000000E+20
  9
$PEXTMAX
 10
-1.000000000000000E+20
 20
-1.000000000000000E+20
 30
-1.000000000000000E+20
  9
$PLIMMIN
 10
0.0
 20
0.0
  9
$PLIMMAX
 10
12.0
 20
9.0
  9
$UNITMODE
 70
     0
  9
$VISRETAIN
 70
     1
  9
$PLINEGEN
 70
     0
  9
$PSLTSCALE
 70
     1
  9
$TREEDEPTH
 70
  3020
  9
$CMLSTYLE
  2
Standard
  9
$CMLJUST
 70
     0
  9
$CMLSCALE
 40
1.0
  9
$PROXYGRAPHICS
 70
     1
  9
$MEASUREMENT
 70
     0
  9
$CELWEIGHT
370
    -1
  9
$ENDCAPS
280
     0
  9
$JOINSTYLE
280
     0
  9
$LWDISPLAY
290
     1
  9
$INSUNITS
 70
     1
  9
$HYPERLINKBASE
  1

  9
$STYLESHEET
  1

  9
$XEDIT
290
     1
  9
$CEPSNTYPE
380
     0
  9
$PSTYLEMODE
290
     1
  9
$FINGERPRINTGUID
  2
{F459C68A-C62A-4069-9C6D-680245B21CE9}
  9
$VERSIONGUID
  2
{FAEB1C32-E019-11D5-929B-00C0DF256EC4}
  9
$EXTNAMES
290
     1
  9
$PSVPSCALE
 40
0.0
  9
$OLESTARTUP
290
     0
  9
$SORTENTS
280
   127
  9
$INDEXCTL
280
     0
  9
$HIDETEXT
280
     1
  9
$XCLIPFRAME
290
     0
  9
$HALOGAP
280
     0
  9
$OBSCOLOR
 70
   257
  9
$OBSLTYPE
280
     0
  9
$INTERSECTIONDISPLAY
280
     0
  9
$INTERSECTIONCOLOR
 70
   257
  9
$DIMASSOC
280
     2
  9
$PROJECTNAME
  1

  0
ENDSEC
  0
SECTION
  2
CLASSES
  0
CLASS
  1
ACDBDICTIONARYWDFLT
  2
AcDbDictionaryWithDefault
  3
ObjectDBX Classes
 90
        0
 91
        3
280
     0
281
     0
  0
CLASS
  1
VISUALSTYLE
  2
AcDbVisualStyle
  3
ObjectDBX Classes
 90
     4095
 91
        3
280
     0
281
     0
  0
ENDSEC
  0
SECTION
  2
TABLES
  0
TABLE
  2
VPORT
  5
8
330
0
100
AcDbSymbolTable
 70
     1
  0
VPORT
  5
29
330
8
100
AcDbSymbolTableRecord
100
AcDbViewportTableRecord
  2
*Active
 70
     0
 10
0.0
 20
0.0
 11
1.0
 21
1.0
 12
0.0
 22
0.0
 13
0.0
 23
0.0
 14
0.5
 24
0.5
 15
0.5
 25
0.5
 16
0.0
 26
0.0
 36
1.0
 17
1079.100368653836
 27
1017.396296946172
 37
0.0
 40
1682.827858737279
 41
1.453020918761539
 42
50.0
 43
0.0
 44
0.0
 50
0.0
 51
0.0
 71
     0
 72
   100
 73
     1
 74
     3
 75
     0
 76
     0
 77
     0
 78
     0
281
     0
 65
     1
110
0.0
120
0.0
130
0.0
111
1.0
121
0.0
131
0.0
112
0.0
122
1.0
132
0.0
 79
     0
146
0.0
  0
ENDTAB
  0
TABLE
  2
LTYPE
  5
5
330
0
100
AcDbSymbolTable
 70
     1
  0
LTYPE
  5
14
330
5
100
AcDbSymbolTableRecord
100
AcDbLinetypeTableRecord
  2
ByBlock
 70
     0
  3

 72
    65
 73
     0
 40
0.0
  0
LTYPE
  5
15
330
5
100
AcDbSymbolTableRecord
100
AcDbLinetypeTableRecord
  2
ByLayer
 70
     0
  3

 72
    65
 73
     0
 40
0.0
  0
LTYPE
  5
16
330
5
100
AcDbSymbolTableRecord
100
AcDbLinetypeTableRecord
  2
Continuous
 70
     0
  3
Solid line
 72
    65
 73
     0
 40
0.0
  0
ENDTAB
  0
TABLE
  2
LAYER
  5
2
330
0
100
AcDbSymbolTable
 70
    20
  0
LAYER
  5
10
330
2
100
AcDbSymbolTableRecord
100
AcDbLayerTableRecord
  2
0
 70
     0
 62
     7
  6
Continuous
370
    -3
390
F
  0
LAYER
  5
3B
330
2
100
AcDbSymbolTableRecord
100
AcDbLayerTableRecord
  2
Layer 1
 70
     0
 62
     7
  6
Continuous
370
    -3
390
F
  0
LAYER
  5
57
330
2
100
AcDbSymbolTableRecord
100
AcDbLayerTableRecord
  2
Layer 12
 70
     0
 62
     7
  6
Continuous
370
    -3
390
F
  0
LAYER
  5
58
330
2
100
AcDbSymbolTableRecord
100
AcDbLayerTableRecord
  2
SYMBOLS
 70
     0
 62
     7
  6
Continuous
370
    -3
390
F
  0
LAYER
  5
59
330
2
100
AcDbSymbolTableRecord
100
AcDbLayerTableRecord
  2
Layer 5
 70
     0
 62
     7
  6
Continuous
370
    -3
390
F
  0
LAYER
  5
5A
330
2
100
AcDbSymbolTableRecord
100
AcDbLayerTableRecord
  2
Layer 8
 70
     0
 62
     7
  6
Continuous
370
    -3
390
F
  0
LAYER
  5
5B
330
2
100
AcDbSymbolTableRecord
100
AcDbLayerTableRecord
  2
ELECTRONICS
 70
     0
 62
     7
  6
Continuous
370
    -3
390
F
  0
LAYER
  5
5C
330
2
100
AcDbSymbolTableRecord
100
AcDbLayerTableRecord
  2
Layer 11
 70
     0
 62
     7
  6
Continuous
370
    -3
390
F
  0
LAYER
  5
5D
330
2
100
AcDbSymbolTableRecord
100
AcDbLayerTableRecord
  2
Layer 10
 70
     0
 62
     7
  6
Continuous
370
    -3
390
F
  0
LAYER
  5
5E
330
2
100
AcDbSymbolTableRecord
100
AcDbLayerTableRecord
  2
Layer 6
 70
     0
 62
     7
  6
Continuous
370
    -3
390
F
  0
LAYER
  5
5F
330
2
100
AcDbSymbolTableRecord
100
AcDbLayerTableRecord
  2
ULTIMAKER LOGO
 70
     0
 62
     7
  6
Continuous
370
    -3
390
F
  0
LAYER
  5
60
330
2
100
AcDbSymbolTableRecord
100
AcDbLayerTableRecord
  2
Layer 7
 70
     0
 62
     7
  6
Continuous
370
    -3
390
F
  0
LAYER
  5
61
330
2
100
AcDbSymbolTableRecord
100
AcDbLayerTableRecord
  2
Layer 9
 70
     0
 62
     7
  6
Continuous
370
    -3
390
F
  0
LAYER
  5
62
330
2
100
AcDbSymbolTableRecord
100
AcDbLayerTableRecord
  2
Layer 13
 70
     1
 62
     7
  6
Continuous
370
    -3
390
F
  0
LAYER
  5
76
330
2
100
AcDbSymbolTableRecord
100
AcDbLayerTableRecord
  2
Layer 14
 70
     0
 62
     7
  6
Continuous
370
    -3
390
F
  0
LAYER
  5
77
330
2
100
AcDbSymbolTableRecord
100
AcDbLayerTableRecord
  2
HIDE
 70
     1
 62
     7
  6
Continuous
370
    -3
390
F
  0
LAYER
  5
88
330
2
100
AcDbSymbolTableRecord
100
AcDbLayerTableRecord
  2
Layer 15
 70
     0
 62
     7
  6
Continuous
370
    -3
390
F
  0
LAYER
  5
89
330
2
100
AcDbSymbolTableRecord
100
AcDbLayerTableRecord
  2
Layer 16
 70
     0
 62
     7
  6
Continuous
370
    -3
390
F
  0
LAYER
  5
8A
330
2
100
AcDbSymbolTableRecord
100
AcDbLayerTableRecord
  2
Layer 18
 70
     0
 62
     7
  6
Continuous
370
    -3
390
F
  0
LAYER
  5
8B
330
2
100
AcDbSymbolTableRecord
100
AcDbLayerTableRecord
  2
Layer 19
 70
     0
 62
     7
  6
Continuous
370
    -3
390
F
  0
ENDTAB
  0
TABLE
  2
STYLE
  5
3
330
0
100
AcDbSymbolTable
 70
     1
  0
STYLE
  5
11
330
3
100
AcDbSymbolTableRecord
100
AcDbTextStyleTableRecord
  2
Standard
 70
     0
 40
0.0
 41
1.0
 50
0.0
 71
     0
 42
0.2
  3
txt
  4

  0
ENDTAB
  0
TABLE
  2
VIEW
  5
6
330
0
100
AcDbSymbolTable
 70
     0
  0
ENDTAB
  0
TABLE
  2
UCS
  5
7
330
0
100
AcDbSymbolTable
 70
     0
  0
ENDTAB
  0
TABLE
  2
APPID
  5
9
330
0
100
AcDbSymbolTable
 70
     1
  0
APPID
  5
12
330
9
100
AcDbSymbolTableRecord
100
AcDbRegAppTableRecord
  2
ACAD
 70
     0
  0
ENDTAB
  0
TABLE
  2
DIMSTYLE
  5
A
330
0
100
AcDbSymbolTable
 70
     1
100
AcDbDimStyleTable
  0
DIMSTYLE
105
27
330
A
100
AcDbSymbolTableRecord
100
AcDbDimStyleTableRecord
  2
Standard
 70
     0
340
11
  0
ENDTAB
  0
TABLE
  2
BLOCK_RECORD
  5
1
330
0
100
AcDbSymbolTable
 70
     5
  0
BLOCK_RECORD
  5
1F
330
1
100
AcDbSymbolTableRecord
100
AcDbBlockTableRecord
  2
*Model_Space
340
22
  0
BLOCK_RECORD
  5
1B
330
1
100
AcDbSymbolTableRecord
100
AcDbBlockTableRecord
  2
*Paper_Space
340
1E
  0
BLOCK_RECORD
  5
23
330
1
100
AcDbSymbolTableRecord
100
AcDbBlockTableRecord
  2
*Paper_Space0
340
26
  0
BLOCK_RECORD
  5
63
330
1
100
AcDbSymbolTableRecord
100
AcDbBlockTableRecord
  2
block 2
340
0
102
{BLKREFS
331
64
102
}
  0
BLOCK_RECORD
  5
67
330
1
100
AcDbSymbolTableRecord
100
AcDbBlockTableRecord
  2
block 3
340
0
102
{BLKREFS
331
68
102
}
  0
BLOCK_RECORD
  5
6E
330
1
100
AcDbSymbolTableRecord
100
AcDbBlockTableRecord
  2
block 4
340
0
102
{BLKREFS
331
6F
102
}
  0
BLOCK_RECORD
  5
78
330
1
100
AcDbSymbolTableRecord
100
AcDbBlockTableRecord
  2
block 5
340
0
102
{BLKREFS
331
79
102
}
  0
ENDTAB
  0
ENDSEC
  0
SECTION
  2
BLOCKS
  0
BLOCK
  5
20
330
1F
100
AcDbEntity
  8
0
100
AcDbBlockBegin
  2
*Model_Space
 70
     0
 71
     0
 10
0.0
 20
0.0
 30
0.0
  3
*Model_Space
  1

  0
ENDBLK
  5
21
330
1F
100
AcDbEntity
  8
0
100
AcDbBlockEnd
  0
BLOCK
  5
1C
330
1B
100
AcDbEntity
 67
     1
  8
0
100
AcDbBlockBegin
  2
*Paper_Space
 70
     0
 71
     0
 10
0.0
 20
0.0
 30
0.0
  3
*Paper_Space
  1

  0
ENDBLK
  5
1D
330
1B
100
AcDbEntity
 67
     1
  8
0
100
AcDbBlockEnd
  0
BLOCK
  5
24
330
23
100
AcDbEntity
  8
0
100
AcDbBlockBegin
  2
*Paper_Space0
 70
     0
 71
     0
 10
0.0
 20
0.0
 30
0.0
  3
*Paper_Space0
  1

  0
ENDBLK
  5
25
330
23
100
AcDbEntity
  8
0
100
AcDbBlockEnd
  0
BLOCK
  5
65
330
63
100
AcDbEntity
  8
0
100
AcDbBlockBegin
  2
block 2
 70
     0
 71
     0
 10
0.0
 20
0.0
 30
0.0
  3
block 2
  1

  0
INSERT
  5
68
330
63
100
AcDbEntity
  8
Layer 13
100
AcDbBlockReference
  2
block 3
 10
0.0
 20
0.0
 30
0.0
  0
INSERT
  5
6F
330
63
100
AcDbEntity
  8
Layer 13
100
AcDbBlockReference
  2
block 4
 10
0.0
 20
0.0
 30
0.0
  0
SPLINE
  5
75
330
63
100
AcDbEntity
  8
Layer 13
370
     0
100
AcDbSpline
210
0.0
220
0.0
230
1.0
 70
    11
 71
     3
 72
    41
 73
    37
 74
     0
 42
0.0000000001
 43
0.0000000001
 40
0.0
 40
0.0
 40
0.0
 40
0.0
 40
1.0
 40
1.0
 40
1.0
 40
2.0
 40
2.0
 40
2.0
 40
3.0
 40
3.0
 40
3.0
 40
4.0
 40
4.0
 40
4.0
 40
5.0
 40
5.0
 40
5.0
 40
6.0
 40
6.0
 40
6.0
 40
7.0
 40
7.0
 40
7.0
 40
8.0
 40
8.0
 40
8.0
 40
9.0
 40
9.0
 40
9.0
 40
10.0
 40
10.0
 40
10.0
 40
11.0
 40
11.0
 40
11.0
 40
12.0
 40
12.0
 40
12.0
 40
12.0
 10
936.9622746138498
 20
749.3213594046836
 30
0.0
 10
936.9622746138498
 20
749.3213594046836
 30
0.0
 10
936.9622746138498
 20
758.3213268503503
 30
0.0
 10
936.9622746138498
 20
758.3213268503503
 30
0.0
 10
936.9622746138498
 20
759.9780732692069
 30
0.0
 10
938.3056895983229
 20
761.3213159989058
 30
0.0
 10
939.9624360171796
 20
761.3213159989058
 30
0.0
 10
939.9624360171796
 20
761.3213159989058
 30
0.0
 10
957.9632321823842
 20
761.3213159989058
 30
0.0
 10
957.9632321823842
 20
761.3213159989058
 30
0.0
 10
959.6199786012409
 20
761.3213159989058
 30
0.0
 10
960.9632213309397
 20
759.9780732692069
 30
0.0
 10
960.9632213309397
 20
758.3213268503503
 30
0.0
 10
960.9632213309397
 20
758.3213268503503
 30
0.0
 10
960.9632213309397
 20
749.3213594046836
 30
0.0
 10
960.9632213309397
 20
749.3213594046836
 30
0.0
 10
960.9632213309397
 20
749.3213594046836
 30
0.0
 10
960.9632213309397
 20
743.3213811075725
 30
0.0
 10
960.9632213309397
 20
743.3213811075725
 30
0.0
 10
960.9632213309397
 20
743.3213811075725
 30
0.0
 10
960.9632213309397
 20
734.3214136619058
 30
0.0
 10
960.9632213309397
 20
734.3214136619058
 30
0.0
 10
960.9632213309397
 20
732.6646672430492
 30
0.0
 10
959.6199786012409
 20
731.3214245133503
 30
0.0
 10
957.9632321823842
 20
731.3214245133503
 30
0.0
 10
957.9632321823842
 20
731.3214245133503
 30
0.0
 10
939.9624360171796
 20
731.3214245133503
 30
0.0
 10
939.9624360171796
 20
731.3214245133503
 30
0.0
 10
938.3056895983229
 20
731.3214245133503
 30
0.0
 10
936.9622746138498
 20
732.6646672430492
 30
0.0
 10
936.9622746138498
 20
734.3214136619058
 30
0.0
 10
936.9622746138498
 20
734.3214136619058
 30
0.0
 10
936.9622746138498
 20
743.3213811075725
 30
0.0
 10
936.9622746138498
 20
743.3213811075725
 30
0.0
 10
936.9622746138498
 20
743.3213811075725
 30
0.0
 10
936.9622746138498
 20
749.3213594046836
 30
0.0
 10
936.9622746138498
 20
749.3213594046836
 30
0.0
  0
ENDBLK
  5
66
330
63
100
AcDbEntity
  8
0
100
AcDbBlockEnd
  0
BLOCK
  5
69
330
67
100
AcDbEntity
  8
0
100
AcDbBlockBegin
  2
block 3
 70
     0
 71
     0
 10
0.0
 20
0.0
 30
0.0
  3
block 3
  1

  0
SPLINE
  5
6B
330
67
100
AcDbEntity
  8
Layer 13
370
     0
100
AcDbSpline
210
0.0
220
0.0
230
1.0
 70
    11
 71
     3
 72
    17
 73
    13
 74
     0
 42
0.0000000001
 43
0.0000000001
 40
0.0
 40
0.0
 40
0.0
 40
0.0
 40
1.0
 40
1.0
 40
1.0
 40
2.0
 40
2.0
 40
2.0
 40
3.0
 40
3.0
 40
3.0
 40
4.0
 40
4.0
 40
4.0
 40
4.0
 10
941.1091360494449
 20
758.5745413685161
 30
0.0
 10
941.1091360494449
 20
759.4027423231702
 30
0.0
 10
940.4380314489183
 20
760.0745359427939
 30
0.0
 10
939.6091414751672
 20
760.0745359427939
 30
0.0
 10
938.7809405205131
 20
760.0745359427939
 30
0.0
 10
938.1091469008894
 20
759.4027423231702
 30
0.0
 10
938.1091469008894
 20
758.5745413685161
 30
0.0
 10
938.1091469008894
 20
757.7463404138621
 30
0.0
 10
938.7809405205131
 20
757.0745467942384
 30
0.0
 10
939.6091414751672
 20
757.0745467942384
 30
0.0
 10
940.4380314489183
 20
757.0745467942384
 30
0.0
 10
941.1091360494449
 20
757.7463404138621
 30
0.0
 10
941.1091360494449
 20
758.5745413685161
 30
0.0
  0
SPLINE
  5
6C
330
67
100
AcDbEntity
  8
Layer 13
370
     0
100
AcDbSpline
210
0.0
220
0.0
230
1.0
 70
    11
 71
     3
 72
    17
 73
    13
 74
     0
 42
0.0000000001
 43
0.0000000001
 40
0.0
 40
0.0
 40
0.0
 40
0.0
 40
1.0
 40
1.0
 40
1.0
 40
2.0
 40
2.0
 40
2.0
 40
3.0
 40
3.0
 40
3.0
 40
4.0
 40
4.0
 40
4.0
 40
4.0
 10
959.6051646906543
 20
749.0743460583911
 30
0.0
 10
959.6051646906543
 20
749.9032360321423
 30
0.0
 10
958.9344045996762
 20
750.574340632669
 30
0.0
 10
958.1075816832162
 20
750.574340632669
 30
0.0
 10
957.2807587667562
 20
750.574340632669
 30
0.0
 10
956.609309656681
 20
749.9032360321423
 30
0.0
 10
956.609309656681
 20
749.0743460583911
 30
0.0
 10
956.609309656681
 20
748.2461451037371
 30
0.0
 10
957.2807587667562
 20
747.5743514841134
 30
0.0
 10
958.1075816832162
 20
747.5743514841134
 30
0.0
 10
958.9344045996762
 20
747.5743514841134
 30
0.0
 10
959.6051646906543
 20
748.2461451037371
 30
0.0
 10
959.6051646906543
 20
749.0743460583911
 30
0.0
  0
SPLINE
  5
6D
330
67
100
AcDbEntity
  8
Layer 13
370
     0
100
AcDbSpline
210
0.0
220
0.0
230
1.0
 70
    11
 71
     3
 72
    41
 73
    37
 74
     0
 42
0.0000000001
 43
0.0000000001
 40
0.0
 40
0.0
 40
0.0
 40
0.0
 40
1.0
 40
1.0
 40
1.0
 40
2.0
 40
2.0
 40
2.0
 40
3.0
 40
3.0
 40
3.0
 40
4.0
 40
4.0
 40
4.0
 40
5.0
 40
5.0
 40
5.0
 40
6.0
 40
6.0
 40
6.0
 40
7.0
 40
7.0
 40
7.0
 40
8.0
 40
8.0
 40
8.0
 40
9.0
 40
9.0
 40
9.0
 40
10.0
 40
10.0
 40
10.0
 40
11.0
 40
11.0
 40
11.0
 40
12.0
 40
12.0
 40
12.0
 40
12.0
 10
942.6973250681451
 20
748.0738903294746
 30
0.0
 10
940.76462650092
 20
748.0738903294746
 30
0.0
 10
939.1977970742283
 20
749.6414087752632
 30
0.0
 10
939.1977970742283
 20
751.5741073424884
 30
0.0
 10
939.1977970742283
 20
751.5741073424884
 30
0.0
 10
939.1599010238906
 20
755.8239771330926
 30
0.0
 10
939.1599010238906
 20
755.8239771330926
 30
0.0
 10
939.1599010238906
 20
755.8239771330926
 30
0.0
 10
939.6091414751672
 20
755.8170869421222
 30
0.0
 10
939.6091414751672
 20
755.8170869421222
 30
0.0
 10
941.1325626987447
 20
755.8170869421222
 30
0.0
 10
942.3672849206582
 20
757.0511201449386
 30
0.0
 10
942.3672849206582
 20
758.5745413685161
 30
0.0
 10
942.3672849206582
 20
758.5745413685161
 30
0.0
 10
942.3597057105907
 20
759.5749970974326
 30
0.0
 10
942.3597057105907
 20
759.5749970974326
 30
0.0
 10
942.3597057105907
 20
759.5749970974326
 30
0.0
 10
955.4596812932532
 20
759.5749970974326
 30
0.0
 10
955.4596812932532
 20
759.5749970974326
 30
0.0
 10
957.3910018222842
 20
759.5749970974326
 30
0.0
 10
958.9550751725876
 20
758.008167670741
 30
0.0
 10
958.9550751725876
 20
756.0754691035158
 30
0.0
 10
958.9550751725876
 20
756.0754691035158
 30
0.0
 10
958.9550751725876
 20
751.8249102938147
 30
0.0
 10
958.9550751725876
 20
751.8249102938147
 30
0.0
 10
958.9550751725876
 20
751.8249102938147
 30
0.0
 10
958.1075816832162
 20
751.8207761792323
 30
0.0
 10
958.1075816832162
 20
751.8207761792323
 30
0.0
 10
956.5920841792548
 20
751.8207761792323
 30
0.0
 10
955.3628741101177
 20
750.5915661100952
 30
0.0
 10
955.3628741101177
 20
749.0743460583911
 30
0.0
 10
955.3628741101177
 20
749.0743460583911
 30
0.0
 10
955.3587399955353
 20
748.0738903294746
 30
0.0
 10
955.3587399955353
 20
748.0738903294746
 30
0.0
 10
955.3587399955353
 20
748.0738903294746
 30
0.0
 10
942.6973250681451
 20
748.0738903294746
 30
0.0
 10
942.6973250681451
 20
748.0738903294746
 30
0.0
  0
ENDBLK
  5
6A
330
67
100
AcDbEntity
  8
0
100
AcDbBlockEnd
  0
BLOCK
  5
70
330
6E
100
AcDbEntity
  8
0
100
AcDbBlockBegin
  2
block 4
 70
     0
 71
     0
 10
0.0
 20
0.0
 30
0.0
  3
block 4
  1

  0
SPLINE
  5
72
330
6E
100
AcDbEntity
  8
Layer 13
370
     0
100
AcDbSpline
210
0.0
220
0.0
230
1.0
 70
    11
 71
     3
 72
    17
 73
    13
 74
     0
 42
0.0000000001
 43
0.0000000001
 40
0.0
 40
0.0
 40
0.0
 40
0.0
 40
1.0
 40
1.0
 40
1.0
 40
2.0
 40
2.0
 40
2.0
 40
3.0
 40
3.0
 40
3.0
 40
4.0
 40
4.0
 40
4.0
 40
4.0
 10
941.1091360494449
 20
743.5745956257383
 30
0.0
 10
941.1091360494449
 20
744.4027965803924
 30
0.0
 10
940.4380314489183
 20
745.0745902000161
 30
0.0
 10
939.6091414751672
 20
745.0745902000161
 30
0.0
 10
938.7809405205131
 20
745.0745902000161
 30
0.0
 10
938.1091469008894
 20
744.4027965803924
 30
0.0
 10
938.1091469008894
 20
743.5745956257383
 30
0.0
 10
938.1091469008894
 20
742.7463946710843
 30
0.0
 10
938.7809405205131
 20
742.0746010514606
 30
0.0
 10
939.6091414751672
 20
742.0746010514606
 30
0.0
 10
940.4380314489183
 20
742.0746010514606
 30
0.0
 10
941.1091360494449
 20
742.7463946710843
 30
0.0
 10
941.1091360494449
 20
743.5745956257383
 30
0.0
  0
SPLINE
  5
73
330
6E
100
AcDbEntity
  8
Layer 13
370
     0
100
AcDbSpline
210
0.0
220
0.0
230
1.0
 70
    11
 71
     3
 72
    17
 73
    13
 74
     0
 42
0.0000000001
 43
0.0000000001
 40
0.0
 40
0.0
 40
0.0
 40
0.0
 40
1.0
 40
1.0
 40
1.0
 40
2.0
 40
2.0
 40
2.0
 40
3.0
 40
3.0
 40
3.0
 40
4.0
 40
4.0
 40
4.0
 40
4.0
 10
959.6051646906543
 20
734.0744003156134
 30
0.0
 10
959.6051646906543
 20
734.9032902893645
 30
0.0
 10
958.9344045996762
 20
735.5743948898912
 30
0.0
 10
958.1075816832162
 20
735.5743948898912
 30
0.0
 10
957.2807587667562
 20
735.5743948898912
 30
0.0
 10
956.609309656681
 20
734.9032902893645
 30
0.0
 10
956.609309656681
 20
734.0744003156134
 30
0.0
 10
956.609309656681
 20
733.2461993609593
 30
0.0
 10
957.2807587667562
 20
732.5744057413356
 30
0.0
 10
958.1075816832162
 20
732.5744057413356
 30
0.0
 10
958.9344045996762
 20
732.5744057413356
 30
0.0
 10
959.6051646906543
 20
733.2461993609593
 30
0.0
 10
959.6051646906543
 20
734.0744003156134
 30
0.0
  0
SPLINE
  5
74
330
6E
100
AcDbEntity
  8
Layer 13
370
     0
100
AcDbSpline
210
0.0
220
0.0
230
1.0
 70
    11
 71
     3
 72
    41
 73
    37
 74
     0
 42
0.0000000001
 43
0.0000000001
 40
0.0
 40
0.0
 40
0.0
 40
0.0
 40
1.0
 40
1.0
 40
1.0
 40
2.0
 40
2.0
 40
2.0
 40
3.0
 40
3.0
 40
3.0
 40
4.0
 40
4.0
 40
4.0
 40
5.0
 40
5.0
 40
5.0
 40
6.0
 40
6.0
 40
6.0
 40
7.0
 40
7.0
 40
7.0
 40
8.0
 40
8.0
 40
8.0
 40
9.0
 40
9.0
 40
9.0
 40
10.0
 40
10.0
 40
10.0
 40
11.0
 40
11.0
 40
11.0
 40
12.0
 40
12.0
 40
12.0
 40
12.0
 10
942.6973250681451
 20
733.0739445866968
 30
0.0
 10
940.76462650092
 20
733.0739445866968
 30
0.0
 10
939.1977970742283
 20
734.6414630324855
 30
0.0
 10
939.1977970742283
 20
736.5741615997107
 30
0.0
 10
939.1977970742283
 20
736.5741615997107
 30
0.0
 10
939.1599010238906
 20
740.8240313903149
 30
0.0
 10
939.1599010238906
 20
740.8240313903149
 30
0.0
 10
939.1599010238906
 20
740.8240313903149
 30
0.0
 10
939.6091414751672
 20
740.8171411993444
 30
0.0
 10
939.6091414751672
 20
740.8171411993444
 30
0.0
 10
941.1325626987447
 20
740.8171411993444
 30
0.0
 10
942.3672849206582
 20
742.0511744021609
 30
0.0
 10
942.3672849206582
 20
743.5745956257383
 30
0.0
 10
942.3672849206582
 20
743.5745956257383
 30
0.0
 10
942.3597057105907
 20
744.5750513546549
 30
0.0
 10
942.3597057105907
 20
744.5750513546549
 30
0.0
 10
942.3597057105907
 20
744.5750513546549
 30
0.0
 10
955.4596812932532
 20
744.5750513546549
 30
0.0
 10
955.4596812932532
 20
744.5750513546549
 30
0.0
 10
957.3910018222842
 20
744.5750513546549
 30
0.0
 10
958.9550751725876
 20
743.0082219279633
 30
0.0
 10
958.9550751725876
 20
741.0755233607381
 30
0.0
 10
958.9550751725876
 20
741.0755233607381
 30
0.0
 10
958.9550751725876
 20
736.8249645510368
 30
0.0
 10
958.9550751725876
 20
736.8249645510368
 30
0.0
 10
958.9550751725876
 20
736.8249645510368
 30
0.0
 10
958.1075816832162
 20
736.8208304364546
 30
0.0
 10
958.1075816832162
 20
736.8208304364546
 30
0.0
 10
956.5920841792548
 20
736.8208304364546
 30
0.0
 10
955.3628741101177
 20
735.5916203673174
 30
0.0
 10
955.3628741101177
 20
734.0744003156134
 30
0.0
 10
955.3628741101177
 20
734.0744003156134
 30
0.0
 10
955.3587399955353
 20
733.0739445866968
 30
0.0
 10
955.3587399955353
 20
733.0739445866968
 30
0.0
 10
955.3587399955353
 20
733.0739445866968
 30
0.0
 10
942.6973250681451
 20
733.0739445866968
 30
0.0
 10
942.6973250681451
 20
733.0739445866968
 30
0.0
  0
ENDBLK
  5
71
330
6E
100
AcDbEntity
  8
0
100
AcDbBlockEnd
  0
BLOCK
  5
7A
330
78
100
AcDbEntity
  8
0
100
AcDbBlockBegin
  2
block 5
 70
     0
 71
     0
 10
0.0
 20
0.0
 30
0.0
  3
block 5
  1

  0
SPLINE
  5
7C
330
78
100
AcDbEntity
  8
HIDE
 62
     7
420
 16777215
370
    35
100
AcDbSpline
210
0.0
220
0.0
230
1.0
 70
     8
 71
     3
 72
     8
 73
     4
 74
     0
 42
0.0000000001
 43
0.0000000001
 40
0.0
 40
0.0
 40
0.0
 40
0.0
 40
1.0
 40
1.0
 40
1.0
 40
1.0
 10
2571.867132603561
 20
863.6075789941676
 30
0.0
 10
2574.075438809606
 20
866.5893091366513
 30
0.0
 10
2573.413291457341
 20
872.0005206153332
 30
0.0
 10
2574.738275180968
 20
875.6447426196305
 30
0.0
  0
SPLINE
  5
7D
330
78
100
AcDbEntity
  8
HIDE
 62
     7
420
 16777215
370
    35
100
AcDbSpline
210
0.0
220
0.0
230
1.0
 70
     8
 71
     3
 72
    17
 73
    13
 74
     0
 42
0.0000000001
 43
0.0000000001
 40
0.0
 40
0.0
 40
0.0
 40
0.0
 40
1.0
 40
1.0
 40
1.0
 40
2.0
 40
2.0
 40
2.0
 40
3.0
 40
3.0
 40
3.0
 40
4.0
 40
4.0
 40
4.0
 40
4.0
 10
2574.738275180968
 20
876.4178220465205
 30
0.0
 10
2576.726095275958
 20
875.423911999026
 30
0.0
 10
2579.486994797837
 20
875.5344995641025
 30
0.0
 10
2581.695990022979
 20
875.313668943498
 30
0.0
 10
2584.12478234008
 20
875.0921493037964
 30
0.0
 10
2586.553574657181
 20
874.872007702289
 30
0.0
 10
2588.984434031574
 20
874.6504880625874
 30
0.0
 10
2593.952950740401
 20
874.0985837658504
 30
0.0
 10
2599.033433052499
 20
873.2152612834324
 30
0.0
 10
2604.112881835951
 20
872.5527694216188
 30
0.0
 10
2607.315098089491
 20
872.2213512359377
 30
0.0
 10
2610.517658852579
 20
872.1111081804098
 30
0.0
 10
2613.720219615667
 20
871.8899330502567
 30
0.0
  0
SPLINE
  5
7E
330
78
100
AcDbEntity
  8
HIDE
 62
     7
420
 16777215
370
    35
100
AcDbSpline
210
0.0
220
0.0
230
1.0
 70
     8
 71
     3
 72
    38
 73
    34
 74
     0
 42
0.0000000001
 43
0.0000000001
 40
0.0
 40
0.0
 40
0.0
 40
0.0
 40
1.0
 40
1.0
 40
1.0
 40
2.0
 40
2.0
 40
2.0
 40
3.0
 40
3.0
 40
3.0
 40
4.0
 40
4.0
 40
4.0
 40
5.0
 40
5.0
 40
5.0
 40
6.0
 40
6.0
 40
6.0
 40
7.0
 40
7.0
 40
7.0
 40
8.0
 40
8.0
 40
8.0
 40
9.0
 40
9.0
 40
9.0
 40
10.0
 40
10.0
 40
10.0
 40
11.0
 40
11.0
 40
11.0
 40
11.0
 10
2614.051637801349
 20
872.3319388010143
 30
0.0
 10
2614.383055987029
 20
873.1050182279043
 30
0.0
 10
2614.162569875974
 20
871.1171981329152
 30
0.0
 10
2614.162569875974
 20
870.8960230027621
 30
0.0
 10
2614.162569875974
 20
869.7918698997396
 30
0.0
 10
2613.94139474582
 20
868.6873722871685
 30
0.0
 10
2613.831151690292
 20
867.583219184146
 30
0.0
 10
2613.499733504611
 20
865.1537378479477
 30
0.0
 10
2613.168659828479
 20
862.834844076826
 30
0.0
 10
2612.947829207874
 20
860.4050182310793
 30
0.0
 10
2612.726654077721
 20
857.8652938393532
 30
0.0
 10
2612.616411022193
 20
855.325569447627
 30
0.0
 10
2612.505478947568
 20
852.7855005463523
 30
0.0
 10
2612.284992836512
 20
849.6935273483406
 30
0.0
 10
2611.179806204844
 20
846.7117972058568
 30
0.0
 10
2611.070252168413
 20
843.6194794982965
 30
0.0
 10
2610.84907703826
 20
838.6506182799208
 30
0.0
 10
2609.966443574939
 20
833.4602374218433
 30
0.0
 10
2609.524093314633
 20
828.4903426748219
 30
0.0
 10
2609.082432073424
 20
823.300306326293
 30
0.0
 10
2607.426030164116
 20
818.0000269222361
 30
0.0
 10
2604.996548827918
 20
813.4724824355208
 30
0.0
 10
2603.560633029665
 20
810.8218259691696
 30
0.0
 10
2602.236338325135
 20
808.3926891425199
 30
0.0
 10
2600.358072266577
 20
806.1833494078292
 30
0.0
 10
2600.358072266577
 20
806.1833494078292
 30
0.0
 10
2600.358072266577
 20
806.1833494078292
 30
0.0
 10
2600.358072266577
 20
806.1833494078292
 30
0.0
 10
2601.462569879148
 20
804.6378795731462
 30
0.0
 10
2605.327967013598
 20
802.318641292476
 30
0.0
 10
2602.345892361566
 20
800.4414087625632
 30
0.0
 10
2600.026654080896
 20
799.0058374738597
 30
0.0
 10
2597.928590930379
 20
801.7663924861904
 30
0.0
 10
2596.824093317808
 20
802.7606470432335
 30
0.0
  0
SPLINE
  5
7F
330
78
100
AcDbEntity
  8
HIDE
 62
     7
420
 16777215
370
    35
100
AcDbSpline
210
0.0
220
0.0
230
1.0
 70
     8
 71
     3
 72
    26
 73
    22
 74
     0
 42
0.0000000001
 43
0.0000000001
 40
0.0
 40
0.0
 40
0.0
 40
0.0
 40
1.0
 40
1.0
 40
1.0
 40
2.0
 40
2.0
 40
2.0
 40
3.0
 40
3.0
 40
3.0
 40
4.0
 40
4.0
 40
4.0
 40
5.0
 40
5.0
 40
5.0
 40
6.0
 40
6.0
 40
6.0
 40
7.0
 40
7.0
 40
7.0
 40
7.0
 10
2595.830183270313
 20
801.987912125892
 30
0.0
 10
2595.830183270313
 20
801.1045896434739
 30
0.0
 10
2594.174125870554
 20
800.7728269482443
 30
0.0
 10
2593.401046443664
 20
800.3308211974868
 30
0.0
 10
2591.081808162994
 20
799.0058374738597
 30
0.0
 10
2588.321597660211
 20
798.1225149914417
 30
0.0
 10
2585.892116324013
 20
797.0180173788706
 30
0.0
 10
2580.701735465936
 20
794.5885360426723
 30
0.0
 10
2575.290868496802
 20
792.9321341333642
 30
0.0
 10
2569.658826397516
 20
793.1526202444202
 30
0.0
 10
2558.50532976402
 20
793.4840384301012
 30
0.0
 10
2546.910171889314
 20
797.4596786200796
 30
0.0
 10
2539.069134564886
 20
805.8526202412452
 30
0.0
 10
2537.633907785731
 20
807.3987790950254
 30
0.0
 10
2536.528721154062
 20
809.3865991900145
 30
0.0
 10
2535.093838884456
 20
811.1532441548507
 30
0.0
 10
2533.547335521127
 20
813.0304766847632
 30
0.0
 10
2532.55411449273
 20
815.0179522702039
 30
0.0
 10
2532.001865686444
 20
817.4477781159505
 30
0.0
 10
2531.339029315082
 20
820.8711694996433
 30
0.0
 10
2530.897712583422
 20
824.4048039388641
 30
0.0
 10
2530.786780508796
 20
827.4971216464244
 30
0.0
  0
SPLINE
  5
80
330
78
100
AcDbEntity
  8
HIDE
 62
     7
420
 16777215
370
    35
100
AcDbSpline
210
0.0
220
0.0
230
1.0
 70
     8
 71
     3
 72
    14
 73
    10
 74
     0
 42
0.0000000001
 43
0.0000000001
 40
0.0
 40
0.0
 40
0.0
 40
0.0
 40
1.0
 40
1.0
 40
1.0
 40
2.0
 40
2.0
 40
2.0
 40
3.0
 40
3.0
 40
3.0
 40
3.0
 10
2530.56629439774
 20
827.6073647019524
 30
0.0
 10
2529.903802535927
 20
827.2766355353684
 30
0.0
 10
2528.910236997981
 20
827.8285398321054
 30
0.0
 10
2528.137157571091
 20
828.2702010733144
 30
0.0
 10
2525.15473840951
 20
829.59552930649
 30
0.0
 10
2526.039094420574
 20
830.5890948444361
 30
0.0
 10
2526.701241772839
 20
833.5708249869199
 30
0.0
 10
2527.363733634652
 20
836.110549378646
 30
0.0
 10
2527.142903014048
 20
839.9756020035478
 30
0.0
 10
2528.247400626619
 20
841.8528345334604
 30
0.0
  0
SPLINE
  5
81
330
78
100
AcDbEntity
  8
HIDE
 62
     7
420
 16777215
370
    35
100
AcDbSpline
210
0.0
220
0.0
230
1.0
 70
     8
 71
     3
 72
     8
 73
     4
 74
     0
 42
0.0000000001
 43
0.0000000001
 40
0.0
 40
0.0
 40
0.0
 40
0.0
 40
1.0
 40
1.0
 40
1.0
 40
1.0
 10
2529.792870461302
 20
842.4050833397459
 30
0.0
 10
2531.228786259554
 20
843.5092364427686
 30
0.0
 10
2532.55411449273
 20
842.0740096636134
 30
0.0
 10
2533.988996762336
 20
841.9630775889884
 30
0.0
  0
SPLINE
  5
82
330
78
100
AcDbEntity
  8
HIDE
 62
     7
420
 16777215
370
    35
100
AcDbSpline
210
0.0
220
0.0
230
1.0
 70
     8
 71
     3
 72
     8
 73
     4
 74
     0
 42
0.0000000001
 43
0.0000000001
 40
0.0
 40
0.0
 40
0.0
 40
0.0
 40
1.0
 40
1.0
 40
1.0
 40
1.0
 10
2533.216606354543
 20
842.294840284218
 30
0.0
 10
2536.419167117631
 20
848.8102048659225
 30
0.0
 10
2540.283875232985
 20
855.104394317474
 30
0.0
 10
2545.916606351368
 20
859.1902775629802
 30
0.0
  0
SPLINE
  5
83
330
78
100
AcDbEntity
  8
HIDE
 62
     7
420
 16777215
370
    35
100
AcDbSpline
210
0.0
220
0.0
230
1.0
 70
     8
 71
     3
 72
     8
 73
     4
 74
     0
 42
0.0000000001
 43
0.0000000001
 40
0.0
 40
0.0
 40
0.0
 40
0.0
 40
1.0
 40
1.0
 40
1.0
 40
1.0
 10
2536.308924062103
 20
848.47913118979
 30
0.0
 10
2538.84864845383
 20
850.9079235068912
 30
0.0
 10
2540.836468548819
 20
854.3316594001324
 30
0.0
 10
2544.480690553116
 20
855.2146373730019
 30
0.0
  0
SPLINE
  5
84
330
78
100
AcDbEntity
  8
HIDE
 62
     7
420
 16777215
370
    35
100
AcDbSpline
210
0.0
220
0.0
230
1.0
 70
     8
 71
     3
 72
    11
 73
     7
 74
     0
 42
0.0000000001
 43
0.0000000001
 40
0.0
 40
0.0
 40
0.0
 40
0.0
 40
1.0
 40
1.0
 40
1.0
 40
2.0
 40
2.0
 40
2.0
 40
2.0
 10
2544.922351794325
 20
855.877473744364
 30
0.0
 10
2543.486435996073
 20
856.3194794951215
 30
0.0
 10
2543.376192940545
 20
858.4178871551873
 30
0.0
 10
2543.817165162657
 20
859.7425263692658
 30
0.0
 10
2545.143526924478
 20
863.4973359386396
 30
0.0
 10
2548.897302965207
 20
860.5156057961559
 30
0.0
 10
2549.560483846117
 20
857.9755368948812
 30
0.0
  0
SPLINE
  5
85
330
78
100
AcDbEntity
  8
HIDE
 62
     7
420
 16777215
370
    35
100
AcDbSpline
210
0.0
220
0.0
230
1.0
 70
     8
 71
     3
 72
    11
 73
     7
 74
     0
 42
0.0000000001
 43
0.0000000001
 40
0.0
 40
0.0
 40
0.0
 40
0.0
 40
1.0
 40
1.0
 40
1.0
 40
2.0
 40
2.0
 40
2.0
 40
2.0
 10
2549.008235039832
 20
858.0864689695062
 30
0.0
 10
2550.66463694914
 20
860.1841876104749
 30
0.0
 10
2556.517165159482
 20
861.2890297325945
 30
0.0
 10
2558.947335514777
 20
861.6197588991785
 30
0.0
 10
2562.922286685658
 20
862.2825952705405
 30
0.0
 10
2567.671006302527
 20
863.0553301878821
 30
0.0
 10
2571.425471362352
 20
864.4909014765857
 30
0.0
  0
SPLINE
  5
86
330
78
100
AcDbEntity
  8
HIDE
 62
     7
420
 16777215
370
    35
100
AcDbSpline
210
0.0
220
0.0
230
1.0
 70
     8
 71
     3
 72
    14
 73
    10
 74
     0
 42
0.0000000001
 43
0.0000000001
 40
0.0
 40
0.0
 40
0.0
 40
0.0
 40
1.0
 40
1.0
 40
1.0
 40
2.0
 40
2.0
 40
2.0
 40
3.0
 40
3.0
 40
3.0
 40
3.0
 10
2570.431216805309
 20
864.9332517368917
 30
0.0
 10
2570.320973749781
 20
864.7120766067387
 30
0.0
 10
2570.210041675156
 20
864.6018335512107
 30
0.0
 10
2570.210041675156
 20
864.3806584210577
 30
0.0
 10
2570.100487638725
 20
864.2704153655296
 30
0.0
 10
2569.879312508572
 20
864.1601723100017
 30
0.0
 10
2569.768724943495
 20
864.0488957258281
 30
0.0
 10
2570.431216805309
 20
863.9389971798486
 30
0.0
 10
2571.315228306824
 20
863.9389971798486
 30
0.0
 10
2571.867132603561
 20
863.9389971798486
 30
0.0
  0
SPLINE
  5
87
330
78
100
AcDbEntity
  8
HIDE
 62
     7
420
 16777215
370
    35
100
AcDbSpline
210
0.0
220
0.0
230
1.0
 70
     8
 71
     3
 72
     8
 73
     4
 74
     0
 42
0.0000000001
 43
0.0000000001
 40
0.0
 40
0.0
 40
0.0
 40
0.0
 40
1.0
 40
1.0
 40
1.0
 40
1.0
 10
2572.088307733714
 20
863.9389971798486
 30
0.0
 10
2573.302703892265
 20
867.4729761286179
 30
0.0
 10
2572.198550789242
 20
872.8838430977513
 30
0.0
 10
2574.187059903328
 20
876.4178220465205
 30
0.0
  0
ENDBLK
  5
7B
330
78
100
AcDbEntity
  8
0
100
AcDbBlockEnd
  0
ENDSEC
  0
SECTION
  2
ENTITIES
  0
SPLINE
  5
3C
330
1F
100
AcDbEntity
  8
Layer 1
370
     0
100
AcDbSpline
210
0.0
220
0.0
230
1.0
 70
    11
 71
     3
 72
    17
 73
    13
 74
     0
 42
0.0000000001
 43
0.0000000001
 40
0.0
 40
0.0
 40
0.0
 40
0.0
 40
1.0
 40
1.0
 40
1.0
 40
2.0
 40
2.0
 40
2.0
 40
3.0
 40
3.0
 40
3.0
 40
4.0
 40
4.0
 40
4.0
 40
4.0
 10
551.3759913443608
 20
1350.542887032156
 30
0.0
 10
551.3759913443608
 20
1349.714341567953
 30
0.0
 10
552.0484739830816
 20
1349.042892457878
 30
0.0
 10
552.8766749377357
 20
1349.042892457878
 30
0.0
 10
553.7048758923897
 20
1349.042892457878
 30
0.0
 10
554.3766695120135
 20
1349.714341567953
 30
0.0
 10
554.3766695120135
 20
1350.542887032156
 30
0.0
 10
554.3766695120135
 20
1351.370743477262
 30
0.0
 10
553.7048758923897
 20
1352.043226115982
 30
0.0
 10
552.8766749377357
 20
1352.043226115982
 30
0.0
 10
552.0484739830816
 20
1352.043226115982
 30
0.0
 10
551.3759913443608
 20
1351.370743477262
 30
0.0
 10
551.3759913443608
 20
1350.542887032156
 30
0.0
  0
SPLINE
  5
3D
330
1F
100
AcDbEntity
  8
Layer 1
370
     0
100
AcDbSpline
210
0.0
220
0.0
230
1.0
 70
    11
 71
     3
 72
    17
 73
    13
 74
     0
 42
0.0000000001
 43
0.0000000001
 40
0.0
 40
0.0
 40
0.0
 40
0.0
 40
1.0
 40
1.0
 40
1.0
 40
2.0
 40
2.0
 40
2.0
 40
3.0
 40
3.0
 40
3.0
 40
4.0
 40
4.0
 40
4.0
 40
4.0
 10
551.3759913443608
 20
1381.54288973708
 30
0.0
 10
551.3759913443608
 20
1380.714344272877
 30
0.0
 10
552.0484739830816
 20
1380.042895162802
 30
0.0
 10
552.8766749377357
 20
1380.042895162802
 30
0.0
 10
553.7048758923897
 20
1380.042895162802
 30
0.0
 10
554.3766695120135
 20
1380.714344272877
 30
0.0
 10
554.3766695120135
 20
1381.54288973708
 30
0.0
 10
554.3766695120135
 20
1382.370746182185
 30
0.0
 10
553.7048758923897
 20
1383.043228820906
 30
0.0
 10
552.8766749377357
 20
1383.043228820906
 30
0.0
 10
552.0484739830816
 20
1383.043228820906
 30
0.0
 10
551.3759913443608
 20
1382.370746182185
 30
0.0
 10
551.3759913443608
 20
1381.54288973708
 30
0.0
  0
SPLINE
  5
3E
330
1F
100
AcDbEntity
  8
Layer 1
370
     0
100
AcDbSpline
210
0.0
220
0.0
230
1.0
 70
    11
 71
     3
 72
    17
 73
    13
 74
     0
 42
0.0000000001
 43
0.0000000001
 40
0.0
 40
0.0
 40
0.0
 40
0.0
 40
1.0
 40
1.0
 40
1.0
 40
2.0
 40
2.0
 40
2.0
 40
3.0
 40
3.0
 40
3.0
 40
4.0
 40
4.0
 40
4.0
 40
4.0
 10
582.376338558833
 20
1350.542542522607
 30
0.0
 10
582.376338558833
 20
1349.713997058405
 30
0.0
 10
583.0474431593597
 20
1349.04254794833
 30
0.0
 10
583.8763331331108
 20
1349.04254794833
 30
0.0
 10
584.7052231068619
 20
1349.04254794833
 30
0.0
 10
585.3773612360342
 20
1349.713997058405
 30
0.0
 10
585.3773612360342
 20
1350.542542522607
 30
0.0
 10
585.3773612360342
 20
1351.370398967713
 30
0.0
 10
584.7052231068619
 20
1352.043226115982
 30
0.0
 10
583.8763331331108
 20
1352.043226115982
 30
0.0
 10
583.0474431593597
 20
1352.043226115982
 30
0.0
 10
582.376338558833
 20
1351.370398967713
 30
0.0
 10
582.376338558833
 20
1350.542542522607
 30
0.0
  0
SPLINE
  5
3F
330
1F
100
AcDbEntity
  8
Layer 1
370
     0
100
AcDbSpline
210
0.0
220
0.0
230
1.0
 70
    11
 71
     3
 72
    17
 73
    13
 74
     0
 42
0.0000000001
 43
0.0000000001
 40
0.0
 40
0.0
 40
0.0
 40
0.0
 40
1.0
 40
1.0
 40
1.0
 40
2.0
 40
2.0
 40
2.0
 40
3.0
 40
3.0
 40
3.0
 40
4.0
 40
4.0
 40
4.0
 40
4.0
 10
582.376338558833
 20
1381.542545227531
 30
0.0
 10
582.376338558833
 20
1380.713999763329
 30
0.0
 10
583.0474431593597
 20
1380.042550653253
 30
0.0
 10
583.8763331331108
 20
1380.042550653253
 30
0.0
 10
584.7052231068619
 20
1380.042550653253
 30
0.0
 10
585.3773612360342
 20
1380.713999763329
 30
0.0
 10
585.3773612360342
 20
1381.542545227531
 30
0.0
 10
585.3773612360342
 20
1382.370573927411
 30
0.0
 10
584.7052231068619
 20
1383.043228820906
 30
0.0
 10
583.8763331331108
 20
1383.043228820906
 30
0.0
 10
583.0474431593597
 20
1383.043228820906
 30
0.0
 10
582.376338558833
 20
1382.370573927411
 30
0.0
 10
582.376338558833
 20
1381.542545227531
 30
0.0
  0
SPLINE
  5
40
330
1F
100
AcDbEntity
  8
Layer 1
370
     0
100
AcDbSpline
210
0.0
220
0.0
230
1.0
 70
    11
 71
     3
 72
    17
 73
    13
 74
     0
 42
0.0000000001
 43
0.0000000001
 40
0.0
 40
0.0
 40
0.0
 40
0.0
 40
1.0
 40
1.0
 40
1.0
 40
2.0
 40
2.0
 40
2.0
 40
3.0
 40
3.0
 40
3.0
 40
4.0
 40
4.0
 40
4.0
 40
4.0
 10
557.3761418962463
 20
1366.043060639392
 30
0.0
 10
557.3761418962463
 20
1359.967979260703
 30
0.0
 10
562.3019394210564
 20
1355.042870754989
 30
0.0
 10
568.3768485449718
 20
1355.042870754989
 30
0.0
 10
574.4521021784357
 20
1355.042698500215
 30
0.0
 10
579.3772106841487
 20
1359.967979260703
 30
0.0
 10
579.3772106841487
 20
1366.042888384618
 30
0.0
 10
579.3772106841487
 20
1372.117797508533
 30
0.0
 10
574.4521021784357
 20
1377.042561504698
 30
0.0
 10
568.3768485449718
 20
1377.04307826902
 30
0.0
 10
562.3019394210564
 20
1377.04307826902
 30
0.0
 10
557.3761418962463
 20
1372.118142018082
 30
0.0
 10
557.3761418962463
 20
1366.043060639392
 30
0.0
  0
SPLINE
  5
41
330
1F
100
AcDbEntity
  8
Layer 1
370
     0
100
AcDbSpline
210
0.0
220
0.0
230
1.0
 70
    11
 71
     3
 72
    17
 73
    13
 74
     0
 42
0.0000000001
 43
0.0000000001
 40
0.0
 40
0.0
 40
0.0
 40
0.0
 40
1.0
 40
1.0
 40
1.0
 40
2.0
 40
2.0
 40
2.0
 40
3.0
 40
3.0
 40
3.0
 40
4.0
 40
4.0
 40
4.0
 40
4.0
 10
568.3771930545203
 20
1452.030232384388
 30
0.0
 10
565.1177882159254
 20
1452.030232384388
 30
0.0
 10
562.4771225264815
 20
1449.389566694944
 30
0.0
 10
562.47746703603
 20
1446.130506365898
 30
0.0
 10
562.47746703603
 20
1442.872135055949
 30
0.0
 10
565.118132725474
 20
1440.230780347408
 30
0.0
 10
568.3771930545203
 20
1440.230780347408
 30
0.0
 10
571.635219854921
 20
1440.230780347408
 30
0.0
 10
574.2772635825592
 20
1442.871962801175
 30
0.0
 10
574.2772635825592
 20
1446.130334111124
 30
0.0
 10
574.2772635825592
 20
1449.389566694944
 30
0.0
 10
571.635219854921
 20
1452.030232384388
 30
0.0
 10
568.3771930545203
 20
1452.030232384388
 30
0.0
  0
SPLINE
  5
42
330
1F
100
AcDbEntity
  8
Layer 1
370
     0
100
AcDbSpline
210
0.0
220
0.0
230
1.0
 70
    11
 71
     3
 72
    17
 73
    13
 74
     0
 42
0.0000000001
 43
0.0000000001
 40
0.0
 40
0.0
 40
0.0
 40
0.0
 40
1.0
 40
1.0
 40
1.0
 40
2.0
 40
2.0
 40
2.0
 40
3.0
 40
3.0
 40
3.0
 40
4.0
 40
4.0
 40
4.0
 40
4.0
 10
568.3768485449718
 20
1429.555462967264
 30
0.0
 10
567.5899887361408
 20
1429.555462967264
 30
0.0
 10
566.9519570522724
 20
1428.917431283396
 30
0.0
 10
566.9519570522724
 20
1428.130571474565
 30
0.0
 10
566.9519570522724
 20
1427.343711665734
 30
0.0
 10
567.5899887361408
 20
1426.706024491414
 30
0.0
 10
568.3768485449718
 20
1426.706024491414
 30
0.0
 10
569.1643973728999
 20
1426.706024491414
 30
0.0
 10
569.8017400376712
 20
1427.343711665734
 30
0.0
 10
569.8017400376712
 20
1428.130571474565
 30
0.0
 10
569.8017400376712
 20
1428.917431283396
 30
0.0
 10
569.1643973728999
 20
1429.555462967264
 30
0.0
 10
568.3768485449718
 20
1429.555462967264
 30
0.0
  0
SPLINE
  5
43
330
1F
100
AcDbEntity
  8
Layer 1
370
     0
100
AcDbSpline
210
0.0
220
0.0
230
1.0
 70
    11
 71
     3
 72
    17
 73
    13
 74
     0
 42
0.0000000001
 43
0.0000000001
 40
0.0
 40
0.0
 40
0.0
 40
0.0
 40
1.0
 40
1.0
 40
1.0
 40
2.0
 40
2.0
 40
2.0
 40
3.0
 40
3.0
 40
3.0
 40
4.0
 40
4.0
 40
4.0
 40
4.0
 10
568.3768485449718
 20
1465.555332749931
 30
0.0
 10
567.5899887361408
 20
1465.555332749931
 30
0.0
 10
566.9519570522724
 20
1464.917301066062
 30
0.0
 10
566.9519570522724
 20
1464.130441257231
 30
0.0
 10
566.9519570522724
 20
1463.343409193626
 30
0.0
 10
567.5899887361408
 20
1462.70589427408
 30
0.0
 10
568.3768485449718
 20
1462.70589427408
 30
0.0
 10
569.1643973728999
 20
1462.70589427408
 30
0.0
 10
569.8017400376712
 20
1463.343409193626
 30
0.0
 10
569.8017400376712
 20
1464.130441257231
 30
0.0
 10
569.8017400376712
 20
1464.917301066062
 30
0.0
 10
569.1643973728999
 20
1465.555332749931
 30
0.0
 10
568.3768485449718
 20
1465.555332749931
 30
0.0
  0
SPLINE
  5
44
330
1F
100
AcDbEntity
  8
Layer 1
370
     0
100
AcDbSpline
210
0.0
220
0.0
230
1.0
 70
    11
 71
     3
 72
    17
 73
    13
 74
     0
 42
0.0000000001
 43
0.0000000001
 40
0.0
 40
0.0
 40
0.0
 40
0.0
 40
1.0
 40
1.0
 40
1.0
 40
2.0
 40
2.0
 40
2.0
 40
3.0
 40
3.0
 40
3.0
 40
4.0
 40
4.0
 40
4.0
 40
4.0
 10
292.2205782689588
 20
1485.72843387336
 30
0.0
 10
291.4337184601277
 20
1485.72843387336
 30
0.0
 10
290.7956867762594
 20
1485.090402189491
 30
0.0
 10
290.7956867762594
 20
1484.303370125886
 30
0.0
 10
290.7956867762594
 20
1483.516510317055
 30
0.0
 10
291.4337184601277
 20
1482.878995397509
 30
0.0
 10
292.2205782689588
 20
1482.878995397509
 30
0.0
 10
293.0081270968869
 20
1482.878995397509
 30
0.0
 10
293.6454697616581
 20
1483.516510317055
 30
0.0
 10
293.6454697616581
 20
1484.303370125886
 30
0.0
 10
293.6454697616581
 20
1485.090402189491
 30
0.0
 10
293.0081270968869
 20
1485.72843387336
 30
0.0
 10
292.2205782689588
 20
1485.72843387336
 30
0.0
  0
SPLINE
  5
45
330
1F
100
AcDbEntity
  8
Layer 1
370
     0
100
AcDbSpline
210
0.0
220
0.0
230
1.0
 70
    11
 71
     3
 72
    17
 73
    13
 74
     0
 42
0.0000000001
 43
0.0000000001
 40
0.0
 40
0.0
 40
0.0
 40
0.0
 40
1.0
 40
1.0
 40
1.0
 40
2.0
 40
2.0
 40
2.0
 40
3.0
 40
3.0
 40
3.0
 40
4.0
 40
4.0
 40
4.0
 40
4.0
 10
292.2205782689588
 20
1250.504204331471
 30
0.0
 10
291.4337184601277
 20
1250.504204331471
 30
0.0
 10
290.7956867762594
 20
1249.866172647603
 30
0.0
 10
290.7956867762594
 20
1249.079312838772
 30
0.0
 10
290.7956867762594
 20
1248.292453029941
 30
0.0
 10
291.4337184601277
 20
1247.654765855621
 30
0.0
 10
292.2205782689588
 20
1247.654765855621
 30
0.0
 10
293.0081270968869
 20
1247.654765855621
 30
0.0
 10
293.6454697616581
 20
1248.292453029941
 30
0.0
 10
293.6454697616581
 20
1249.079312838772
 30
0.0
 10
293.6454697616581
 20
1249.866172647603
 30
0.0
 10
293.0081270968869
 20
1250.504204331471
 30
0.0
 10
292.2205782689588
 20
1250.504204331471
 30
0.0
  0
SPLINE
  5
46
330
1F
100
AcDbEntity
  8
Layer 1
370
     0
100
AcDbSpline
210
0.0
220
0.0
230
1.0
 70
    11
 71
     3
 72
    17
 73
    13
 74
     0
 42
0.0000000001
 43
0.0000000001
 40
0.0
 40
0.0
 40
0.0
 40
0.0
 40
1.0
 40
1.0
 40
1.0
 40
2.0
 40
2.0
 40
2.0
 40
3.0
 40
3.0
 40
3.0
 40
4.0
 40
4.0
 40
4.0
 40
4.0
 10
417.2064031617575
 20
1250.504204331471
 30
0.0
 10
416.4195433529264
 20
1250.504204331471
 30
0.0
 10
415.7815116690581
 20
1249.866172647603
 30
0.0
 10
415.7815116690581
 20
1249.079312838772
 30
0.0
 10
415.7815116690581
 20
1248.292453029941
 30
0.0
 10
416.4195433529264
 20
1247.654765855621
 30
0.0
 10
417.2064031617575
 20
1247.654765855621
 30
0.0
 10
417.9939519896856
 20
1247.654765855621
 30
0.0
 10
418.6312946544568
 20
1248.292453029941
 30
0.0
 10
418.6312946544568
 20
1249.079312838772
 30
0.0
 10
418.6312946544568
 20
1249.866172647603
 30
0.0
 10
417.9939519896856
 20
1250.504204331471
 30
0.0
 10
417.2064031617575
 20
1250.504204331471
 30
0.0
  0
SPLINE
  5
47
330
1F
100
AcDbEntity
  8
Layer 1
370
     0
100
AcDbSpline
210
0.0
220
0.0
230
1.0
 70
    11
 71
     3
 72
    23
 73
    19
 74
     0
 42
0.0000000001
 43
0.0000000001
 40
0.0
 40
0.0
 40
0.0
 40
0.0
 40
1.0
 40
1.0
 40
1.0
 40
2.0
 40
2.0
 40
2.0
 40
3.0
 40
3.0
 40
3.0
 40
4.0
 40
4.0
 40
4.0
 40
5.0
 40
5.0
 40
5.0
 40
6.0
 40
6.0
 40
6.0
 40
6.0
 10
384.3308904746638
 20
1501.852169763426
 30
0.0
 10
384.3308904746638
 20
1501.023968808772
 30
0.0
 10
383.6594413645886
 20
1500.352175189148
 30
0.0
 10
382.8308959003861
 20
1500.352175189148
 30
0.0
 10
382.002694945732
 20
1500.352175189148
 30
0.0
 10
381.3312458356568
 20
1501.023968808772
 30
0.0
 10
381.3312458356568
 20
1501.852169763426
 30
0.0
 10
381.3312458356568
 20
1501.852169763426
 30
0.0
 10
381.3312458356568
 20
1506.852725860266
 30
0.0
 10
381.3312458356568
 20
1506.852725860266
 30
0.0
 10
381.3312458356568
 20
1507.68092681492
 30
0.0
 10
382.002694945732
 20
1508.352720434544
 30
0.0
 10
382.8308959003861
 20
1508.352720434544
 30
0.0
 10
383.6594413645886
 20
1508.352720434544
 30
0.0
 10
384.3308904746638
 20
1507.68092681492
 30
0.0
 10
384.3308904746638
 20
1506.852725860266
 30
0.0
 10
384.3308904746638
 20
1506.852725860266
 30
0.0
 10
384.3308904746638
 20
1501.852169763426
 30
0.0
 10
384.3308904746638
 20
1501.852169763426
 30
0.0
  0
SPLINE
  5
48
330
1F
100
AcDbEntity
  8
Layer 1
370
     0
100
AcDbSpline
210
0.0
220
0.0
230
1.0
 70
    11
 71
     3
 72
    23
 73
    19
 74
     0
 42
0.0000000001
 43
0.0000000001
 40
0.0
 40
0.0
 40
0.0
 40
0.0
 40
1.0
 40
1.0
 40
1.0
 40
2.0
 40
2.0
 40
2.0
 40
3.0
 40
3.0
 40
3.0
 40
4.0
 40
4.0
 40
4.0
 40
5.0
 40
5.0
 40
5.0
 40
6.0
 40
6.0
 40
6.0
 40
6.0
 10
454.2294663035433
 20
1501.852169763426
 30
0.0
 10
454.2294663035433
 20
1501.023968808772
 30
0.0
 10
453.5580171934682
 20
1500.352175189148
 30
0.0
 10
452.7294717292656
 20
1500.352175189148
 30
0.0
 10
451.9012707746115
 20
1500.352175189148
 30
0.0
 10
451.2298216645363
 20
1501.023968808772
 30
0.0
 10
451.2298216645363
 20
1501.852169763426
 30
0.0
 10
451.2298216645363
 20
1501.852169763426
 30
0.0
 10
451.2298216645363
 20
1506.852725860266
 30
0.0
 10
451.2298216645363
 20
1506.852725860266
 30
0.0
 10
451.2298216645363
 20
1507.68092681492
 30
0.0
 10
451.9012707746115
 20
1508.352720434544
 30
0.0
 10
452.7294717292656
 20
1508.352720434544
 30
0.0
 10
453.5580171934682
 20
1508.352720434544
 30
0.0
 10
454.2294663035433
 20
1507.68092681492
 30
0.0
 10
454.2294663035433
 20
1506.852725860266
 30
0.0
 10
454.2294663035433
 20
1506.852725860266
 30
0.0
 10
454.2294663035433
 20
1501.852169763426
 30
0.0
 10
454.2294663035433
 20
1501.852169763426
 30
0.0
  0
SPLINE
  5
49
330
1F
100
AcDbEntity
  8
Layer 1
370
     0
100
AcDbSpline
210
0.0
220
0.0
230
1.0
 70
    11
 71
     3
 72
    23
 73
    19
 74
     0
 42
0.0000000001
 43
0.0000000001
 40
0.0
 40
0.0
 40
0.0
 40
0.0
 40
1.0
 40
1.0
 40
1.0
 40
2.0
 40
2.0
 40
2.0
 40
3.0
 40
3.0
 40
3.0
 40
4.0
 40
4.0
 40
4.0
 40
5.0
 40
5.0
 40
5.0
 40
6.0
 40
6.0
 40
6.0
 40
6.0
 10
454.7917058867361
 20
1423.70569083331
 30
0.0
 10
454.7917058867361
 20
1422.877489878656
 30
0.0
 10
454.1202567766609
 20
1422.205696259032
 30
0.0
 10
453.2917113124583
 20
1422.205696259032
 30
0.0
 10
452.4635103578043
 20
1422.205696259032
 30
0.0
 10
451.7920612477291
 20
1422.877489878656
 30
0.0
 10
451.7920612477291
 20
1423.70569083331
 30
0.0
 10
451.7920612477291
 20
1423.70569083331
 30
0.0
 10
451.7920612477291
 20
1428.70624693015
 30
0.0
 10
451.7920612477291
 20
1428.70624693015
 30
0.0
 10
451.7920612477291
 20
1429.534447884804
 30
0.0
 10
452.4635103578043
 20
1430.206241504428
 30
0.0
 10
453.2917113124583
 20
1430.206241504428
 30
0.0
 10
454.1202567766609
 20
1430.206241504428
 30
0.0
 10
454.7917058867361
 20
1429.534447884804
 30
0.0
 10
454.7917058867361
 20
1428.70624693015
 30
0.0
 10
454.7917058867361
 20
1428.70624693015
 30
0.0
 10
454.7917058867361
 20
1423.70569083331
 30
0.0
 10
454.7917058867361
 20
1423.70569083331
 30
0.0
  0
SPLINE
  5
4A
330
1F
100
AcDbEntity
  8
Layer 1
370
     0
100
AcDbSpline
210
0.0
220
0.0
230
1.0
 70
    11
 71
     3
 72
    23
 73
    19
 74
     0
 42
0.0000000001
 43
0.0000000001
 40
0.0
 40
0.0
 40
0.0
 40
0.0
 40
1.0
 40
1.0
 40
1.0
 40
2.0
 40
2.0
 40
2.0
 40
3.0
 40
3.0
 40
3.0
 40
4.0
 40
4.0
 40
4.0
 40
5.0
 40
5.0
 40
5.0
 40
6.0
 40
6.0
 40
6.0
 40
6.0
 10
384.8683253703628
 20
1353.853623793481
 30
0.0
 10
384.8683253703628
 20
1353.025422838827
 30
0.0
 10
384.1968762602876
 20
1352.353629219203
 30
0.0
 10
383.368330796085
 20
1352.353629219203
 30
0.0
 10
382.5401298414309
 20
1352.353629219203
 30
0.0
 10
381.8686807313558
 20
1353.025422838827
 30
0.0
 10
381.8686807313558
 20
1353.853623793481
 30
0.0
 10
381.8686807313558
 20
1353.853623793481
 30
0.0
 10
381.8686807313558
 20
1358.854179890321
 30
0.0
 10
381.8686807313558
 20
1358.854179890321
 30
0.0
 10
381.8686807313558
 20
1359.682380844975
 30
0.0
 10
382.5401298414309
 20
1360.354174464599
 30
0.0
 10
383.368330796085
 20
1360.354174464599
 30
0.0
 10
384.1968762602876
 20
1360.354174464599
 30
0.0
 10
384.8683253703628
 20
1359.682380844975
 30
0.0
 10
384.8683253703628
 20
1358.854179890321
 30
0.0
 10
384.8683253703628
 20
1358.854179890321
 30
0.0
 10
384.8683253703628
 20
1353.853623793481
 30
0.0
 10
384.8683253703628
 20
1353.853623793481
 30
0.0
  0
SPLINE
  5
4B
330
1F
100
AcDbEntity
  8
Layer 1
370
     0
100
AcDbSpline
210
0.0
220
0.0
230
1.0
 70
    11
 71
     3
 72
    17
 73
    13
 74
     0
 42
0.0000000001
 43
0.0000000001
 40
0.0
 40
0.0
 40
0.0
 40
0.0
 40
1.0
 40
1.0
 40
1.0
 40
2.0
 40
2.0
 40
2.0
 40
3.0
 40
3.0
 40
3.0
 40
4.0
 40
4.0
 40
4.0
 40
4.0
 10
568.3771930545203
 20
1291.855685440925
 30
0.0
 10
565.1177882159254
 20
1291.855685440925
 30
0.0
 10
562.4771225264815
 20
1289.215019751481
 30
0.0
 10
562.47746703603
 20
1285.955959422435
 30
0.0
 10
562.47746703603
 20
1282.697588112485
 30
0.0
 10
565.118132725474
 20
1280.056233403944
 30
0.0
 10
568.3771930545203
 20
1280.056233403944
 30
0.0
 10
571.635219854921
 20
1280.056233403944
 30
0.0
 10
574.2772635825592
 20
1282.697415857711
 30
0.0
 10
574.2772635825592
 20
1285.955959422435
 30
0.0
 10
574.2772635825592
 20
1289.214675241933
 30
0.0
 10
571.635219854921
 20
1291.855685440925
 30
0.0
 10
568.3771930545203
 20
1291.855685440925
 30
0.0
  0
SPLINE
  5
4C
330
1F
100
AcDbEntity
  8
Layer 1
370
     0
100
AcDbSpline
210
0.0
220
0.0
230
1.0
 70
    11
 71
     3
 72
    17
 73
    13
 74
     0
 42
0.0000000001
 43
0.0000000001
 40
0.0
 40
0.0
 40
0.0
 40
0.0
 40
1.0
 40
1.0
 40
1.0
 40
2.0
 40
2.0
 40
2.0
 40
3.0
 40
3.0
 40
3.0
 40
4.0
 40
4.0
 40
4.0
 40
4.0
 10
568.3768485449718
 20
1269.380571514252
 30
0.0
 10
567.5899887361408
 20
1269.380571514252
 30
0.0
 10
566.9519570522724
 20
1268.742539830384
 30
0.0
 10
566.9519570522724
 20
1267.955680021553
 30
0.0
 10
566.9519570522724
 20
1267.168820212722
 30
0.0
 10
567.5899887361408
 20
1266.531133038402
 30
0.0
 10
568.3768485449718
 20
1266.531133038402
 30
0.0
 10
569.1643973728999
 20
1266.531133038402
 30
0.0
 10
569.8017400376712
 20
1267.168820212722
 30
0.0
 10
569.8017400376712
 20
1267.955680021553
 30
0.0
 10
569.8017400376712
 20
1268.742539830384
 30
0.0
 10
569.1643973728999
 20
1269.380571514252
 30
0.0
 10
568.3768485449718
 20
1269.380571514252
 30
0.0
  0
SPLINE
  5
4D
330
1F
100
AcDbEntity
  8
Layer 1
370
     0
100
AcDbSpline
210
0.0
220
0.0
230
1.0
 70
    11
 71
     3
 72
    17
 73
    13
 74
     0
 42
0.0000000001
 43
0.0000000001
 40
0.0
 40
0.0
 40
0.0
 40
0.0
 40
1.0
 40
1.0
 40
1.0
 40
2.0
 40
2.0
 40
2.0
 40
3.0
 40
3.0
 40
3.0
 40
4.0
 40
4.0
 40
4.0
 40
4.0
 10
568.3768485449718
 20
1305.380441296919
 30
0.0
 10
567.5899887361408
 20
1305.380441296919
 30
0.0
 10
566.9519570522724
 20
1304.742409613051
 30
0.0
 10
566.9519570522724
 20
1303.955894313768
 30
0.0
 10
566.9519570522724
 20
1303.169034504937
 30
0.0
 10
567.5899887361408
 20
1302.531002821069
 30
0.0
 10
568.3768485449718
 20
1302.531002821069
 30
0.0
 10
569.1643973728999
 20
1302.531002821069
 30
0.0
 10
569.8017400376712
 20
1303.169034504937
 30
0.0
 10
569.8017400376712
 20
1303.955894313768
 30
0.0
 10
569.8017400376712
 20
1304.742409613051
 30
0.0
 10
569.1643973728999
 20
1305.380441296919
 30
0.0
 10
568.3768485449718
 20
1305.380441296919
 30
0.0
  0
SPLINE
  5
4E
330
1F
100
AcDbEntity
  8
Layer 1
370
     0
100
AcDbSpline
210
0.0
220
0.0
230
1.0
 70
    11
 71
     3
 72
    23
 73
    19
 74
     0
 42
0.0000000001
 43
0.0000000001
 40
0.0
 40
0.0
 40
0.0
 40
0.0
 40
1.0
 40
1.0
 40
1.0
 40
2.0
 40
2.0
 40
2.0
 40
3.0
 40
3.0
 40
3.0
 40
4.0
 40
4.0
 40
4.0
 40
5.0
 40
5.0
 40
5.0
 40
6.0
 40
6.0
 40
6.0
 40
6.0
 10
293.7204005884623
 20
1360.103716022821
 30
0.0
 10
293.7204005884623
 20
1359.275515068167
 30
0.0
 10
293.0489514783871
 20
1358.603721448544
 30
0.0
 10
292.2204060141845
 20
1358.603721448544
 30
0.0
 10
291.3922050595305
 20
1358.603721448544
 30
0.0
 10
290.7207559494552
 20
1359.275515068167
 30
0.0
 10
290.7207559494552
 20
1360.103716022821
 30
0.0
 10
290.7207559494552
 20
1360.103716022821
 30
0.0
 10
290.7207559494552
 20
1372.103672617044
 30
0.0
 10
290.7207559494552
 20
1372.103672617044
 30
0.0
 10
290.7207559494552
 20
1372.932045826472
 30
0.0
 10
291.3922050595305
 20
1373.603667191321
 30
0.0
 10
292.2204060141845
 20
1373.603667191321
 30
0.0
 10
293.0489514783871
 20
1373.603667191321
 30
0.0
 10
293.7204005884623
 20
1372.932045826472
 30
0.0
 10
293.7204005884623
 20
1372.103672617044
 30
0.0
 10
293.7204005884623
 20
1372.103672617044
 30
0.0
 10
293.7204005884623
 20
1360.103716022821
 30
0.0
 10
293.7204005884623
 20
1360.103716022821
 30
0.0
  0
SPLINE
  5
4F
330
1F
100
AcDbEntity
  8
Layer 1
370
     0
100
AcDbSpline
210
0.0
220
0.0
230
1.0
 70
    11
 71
     3
 72
    23
 73
    19
 74
     0
 42
0.0000000001
 43
0.0000000001
 40
0.0
 40
0.0
 40
0.0
 40
0.0
 40
1.0
 40
1.0
 40
1.0
 40
2.0
 40
2.0
 40
2.0
 40
3.0
 40
3.0
 40
3.0
 40
4.0
 40
4.0
 40
4.0
 40
5.0
 40
5.0
 40
5.0
 40
6.0
 40
6.0
 40
6.0
 40
6.0
 10
546.9178655316733
 20
1243.079334541661
 30
0.0
 10
546.9178655316733
 20
1242.251305841781
 30
0.0
 10
546.2464164215982
 20
1241.579684476932
 30
0.0
 10
545.4178709573955
 20
1241.579684476932
 30
0.0
 10
544.5896700027415
 20
1241.579684476932
 30
0.0
 10
543.9182208926663
 20
1242.251305841781
 30
0.0
 10
543.9182208926663
 20
1243.079334541661
 30
0.0
 10
543.9182208926663
 20
1243.079334541661
 30
0.0
 10
543.9182208926663
 20
1255.079635645432
 30
0.0
 10
543.9182208926663
 20
1255.079635645432
 30
0.0
 10
543.9182208926663
 20
1255.907836600086
 30
0.0
 10
544.5896700027415
 20
1256.579630219709
 30
0.0
 10
545.4178709573955
 20
1256.579630219709
 30
0.0
 10
546.2464164215982
 20
1256.579630219709
 30
0.0
 10
546.9178655316733
 20
1255.907836600086
 30
0.0
 10
546.9178655316733
 20
1255.079635645432
 30
0.0
 10
546.9178655316733
 20
1255.079635645432
 30
0.0
 10
546.9178655316733
 20
1243.079334541661
 30
0.0
 10
546.9178655316733
 20
1243.079334541661
 30
0.0
  0
SPLINE
  5
50
330
1F
100
AcDbEntity
  8
Layer 1
370
     0
100
AcDbSpline
210
0.0
220
0.0
230
1.0
 70
    11
 71
     3
 72
    23
 73
    19
 74
     0
 42
0.0000000001
 43
0.0000000001
 40
0.0
 40
0.0
 40
0.0
 40
0.0
 40
1.0
 40
1.0
 40
1.0
 40
2.0
 40
2.0
 40
2.0
 40
3.0
 40
3.0
 40
3.0
 40
4.0
 40
4.0
 40
4.0
 40
5.0
 40
5.0
 40
5.0
 40
6.0
 40
6.0
 40
6.0
 40
6.0
 10
524.1778237621847
 20
1360.373466999316
 30
0.0
 10
524.1778237621847
 20
1359.545438299437
 30
0.0
 10
523.5063746521096
 20
1358.873472425039
 30
0.0
 10
522.6778291879069
 20
1358.873472425039
 30
0.0
 10
521.8496282332529
 20
1358.873472425039
 30
0.0
 10
521.1781791231778
 20
1359.545438299437
 30
0.0
 10
521.1781791231778
 20
1360.373466999316
 30
0.0
 10
521.1781791231778
 20
1360.373466999316
 30
0.0
 10
521.1781791231778
 20
1372.373768103087
 30
0.0
 10
521.1781791231778
 20
1372.373768103087
 30
0.0
 10
521.1781791231778
 20
1373.201969057741
 30
0.0
 10
521.8496282332529
 20
1373.873762677365
 30
0.0
 10
522.6778291879069
 20
1373.873762677365
 30
0.0
 10
523.5063746521096
 20
1373.873762677365
 30
0.0
 10
524.1778237621847
 20
1373.201969057741
 30
0.0
 10
524.1778237621847
 20
1372.373768103087
 30
0.0
 10
524.1778237621847
 20
1372.373768103087
 30
0.0
 10
524.1778237621847
 20
1360.373466999316
 30
0.0
 10
524.1778237621847
 20
1360.373466999316
 30
0.0
  0
SPLINE
  5
51
330
1F
100
AcDbEntity
  8
Layer 1
370
     0
100
AcDbSpline
210
0.0
220
0.0
230
1.0
 70
    11
 71
     3
 72
    23
 73
    19
 74
     0
 42
0.0000000001
 43
0.0000000001
 40
0.0
 40
0.0
 40
0.0
 40
0.0
 40
1.0
 40
1.0
 40
1.0
 40
2.0
 40
2.0
 40
2.0
 40
3.0
 40
3.0
 40
3.0
 40
4.0
 40
4.0
 40
4.0
 40
5.0
 40
5.0
 40
5.0
 40
6.0
 40
6.0
 40
6.0
 40
6.0
 10
546.9178655316733
 20
1478.450841915544
 30
0.0
 10
546.9178655316733
 20
1477.62264096089
 30
0.0
 10
546.2464164215982
 20
1476.950847341266
 30
0.0
 10
545.4178709573955
 20
1476.950847341266
 30
0.0
 10
544.5896700027415
 20
1476.950847341266
 30
0.0
 10
543.9182208926663
 20
1477.62264096089
 30
0.0
 10
543.9182208926663
 20
1478.450841915544
 30
0.0
 10
543.9182208926663
 20
1478.450841915544
 30
0.0
 10
543.9182208926663
 20
1490.45097076454
 30
0.0
 10
543.9182208926663
 20
1490.45097076454
 30
0.0
 10
543.9182208926663
 20
1491.279171719194
 30
0.0
 10
544.5896700027415
 20
1491.950965338818
 30
0.0
 10
545.4178709573955
 20
1491.950965338818
 30
0.0
 10
546.2464164215982
 20
1491.950965338818
 30
0.0
 10
546.9178655316733
 20
1491.279171719194
 30
0.0
 10
546.9178655316733
 20
1490.45097076454
 30
0.0
 10
546.9178655316733
 20
1490.45097076454
 30
0.0
 10
546.9178655316733
 20
1478.450841915544
 30
0.0
 10
546.9178655316733
 20
1478.450841915544
 30
0.0
  0
SPLINE
  5
52
330
1F
100
AcDbEntity
  8
Layer 1
370
     0
100
AcDbSpline
210
0.0
220
0.0
230
1.0
 70
    11
 71
     3
 72
    23
 73
    19
 74
     0
 42
0.0000000001
 43
0.0000000001
 40
0.0
 40
0.0
 40
0.0
 40
0.0
 40
1.0
 40
1.0
 40
1.0
 40
2.0
 40
2.0
 40
2.0
 40
3.0
 40
3.0
 40
3.0
 40
4.0
 40
4.0
 40
4.0
 40
5.0
 40
5.0
 40
5.0
 40
6.0
 40
6.0
 40
6.0
 40
6.0
 10
300.7203178501671
 20
1360.103716022821
 30
0.0
 10
300.7203178501671
 20
1359.275515068167
 30
0.0
 10
300.048868740092
 20
1358.603721448544
 30
0.0
 10
299.2203232758894
 20
1358.603721448544
 30
0.0
 10
298.3921223212353
 20
1358.603721448544
 30
0.0
 10
297.7206732111601
 20
1359.275515068167
 30
0.0
 10
297.7206732111601
 20
1360.103716022821
 30
0.0
 10
297.7206732111601
 20
1360.103716022821
 30
0.0
 10
297.7206732111601
 20
1372.103672617044
 30
0.0
 10
297.7206732111601
 20
1372.103672617044
 30
0.0
 10
297.7206732111601
 20
1372.932045826472
 30
0.0
 10
298.3921223212353
 20
1373.603667191321
 30
0.0
 10
299.2203232758894
 20
1373.603667191321
 30
0.0
 10
300.048868740092
 20
1373.603667191321
 30
0.0
 10
300.7203178501671
 20
1372.932045826472
 30
0.0
 10
300.7203178501671
 20
1372.103672617044
 30
0.0
 10
300.7203178501671
 20
1372.103672617044
 30
0.0
 10
300.7203178501671
 20
1360.103716022821
 30
0.0
 10
300.7203178501671
 20
1360.103716022821
 30
0.0
  0
SPLINE
  5
53
330
1F
100
AcDbEntity
  8
Layer 1
370
     0
100
AcDbSpline
210
0.0
220
0.0
230
1.0
 70
    11
 71
     3
 72
    23
 73
    19
 74
     0
 42
0.0000000001
 43
0.0000000001
 40
0.0
 40
0.0
 40
0.0
 40
0.0
 40
1.0
 40
1.0
 40
1.0
 40
2.0
 40
2.0
 40
2.0
 40
3.0
 40
3.0
 40
3.0
 40
4.0
 40
4.0
 40
4.0
 40
5.0
 40
5.0
 40
5.0
 40
6.0
 40
6.0
 40
6.0
 40
6.0
 10
553.9177827933783
 20
1243.079334541661
 30
0.0
 10
553.9177827933783
 20
1242.251305841781
 30
0.0
 10
553.2463336833031
 20
1241.579684476932
 30
0.0
 10
552.4177882191004
 20
1241.579684476932
 30
0.0
 10
551.5895872644463
 20
1241.579684476932
 30
0.0
 10
550.9181381543711
 20
1242.251305841781
 30
0.0
 10
550.9181381543711
 20
1243.079334541661
 30
0.0
 10
550.9181381543711
 20
1243.079334541661
 30
0.0
 10
550.9181381543711
 20
1255.079635645432
 30
0.0
 10
550.9181381543711
 20
1255.079635645432
 30
0.0
 10
550.9181381543711
 20
1255.907836600086
 30
0.0
 10
551.5895872644463
 20
1256.579630219709
 30
0.0
 10
552.4177882191004
 20
1256.579630219709
 30
0.0
 10
553.2463336833031
 20
1256.579630219709
 30
0.0
 10
553.9177827933783
 20
1255.907836600086
 30
0.0
 10
553.9177827933783
 20
1255.079635645432
 30
0.0
 10
553.9177827933783
 20
1255.079635645432
 30
0.0
 10
553.9177827933783
 20
1243.079334541661
 30
0.0
 10
553.9177827933783
 20
1243.079334541661
 30
0.0
  0
SPLINE
  5
54
330
1F
100
AcDbEntity
  8
Layer 1
370
     0
100
AcDbSpline
210
0.0
220
0.0
230
1.0
 70
    11
 71
     3
 72
    23
 73
    19
 74
     0
 42
0.0000000001
 43
0.0000000001
 40
0.0
 40
0.0
 40
0.0
 40
0.0
 40
1.0
 40
1.0
 40
1.0
 40
2.0
 40
2.0
 40
2.0
 40
3.0
 40
3.0
 40
3.0
 40
4.0
 40
4.0
 40
4.0
 40
5.0
 40
5.0
 40
5.0
 40
6.0
 40
6.0
 40
6.0
 40
6.0
 10
531.1777410238897
 20
1360.373466999316
 30
0.0
 10
531.1777410238897
 20
1359.545438299437
 30
0.0
 10
530.5062919138144
 20
1358.873472425039
 30
0.0
 10
529.6777464496118
 20
1358.873472425039
 30
0.0
 10
528.8495454949577
 20
1358.873472425039
 30
0.0
 10
528.1780963848826
 20
1359.545438299437
 30
0.0
 10
528.1780963848826
 20
1360.373466999316
 30
0.0
 10
528.1780963848826
 20
1360.373466999316
 30
0.0
 10
528.1780963848826
 20
1372.373768103087
 30
0.0
 10
528.1780963848826
 20
1372.373768103087
 30
0.0
 10
528.1780963848826
 20
1373.201969057741
 30
0.0
 10
528.8495454949577
 20
1373.873762677365
 30
0.0
 10
529.6777464496118
 20
1373.873762677365
 30
0.0
 10
530.5062919138144
 20
1373.873762677365
 30
0.0
 10
531.1777410238897
 20
1373.201969057741
 30
0.0
 10
531.1777410238897
 20
1372.373768103087
 30
0.0
 10
531.1777410238897
 20
1372.373768103087
 30
0.0
 10
531.1777410238897
 20
1360.373466999316
 30
0.0
 10
531.1777410238897
 20
1360.373466999316
 30
0.0
  0
SPLINE
  5
55
330
1F
100
AcDbEntity
  8
Layer 1
370
     0
100
AcDbSpline
210
0.0
220
0.0
230
1.0
 70
    11
 71
     3
 72
    23
 73
    19
 74
     0
 42
0.0000000001
 43
0.0000000001
 40
0.0
 40
0.0
 40
0.0
 40
0.0
 40
1.0
 40
1.0
 40
1.0
 40
2.0
 40
2.0
 40
2.0
 40
3.0
 40
3.0
 40
3.0
 40
4.0
 40
4.0
 40
4.0
 40
5.0
 40
5.0
 40
5.0
 40
6.0
 40
6.0
 40
6.0
 40
6.0
 10
553.9177827933783
 20
1478.450841915544
 30
0.0
 10
553.9177827933783
 20
1477.62264096089
 30
0.0
 10
553.2463336833031
 20
1476.950847341266
 30
0.0
 10
552.4177882191004
 20
1476.950847341266
 30
0.0
 10
551.5895872644463
 20
1476.950847341266
 30
0.0
 10
550.9181381543711
 20
1477.62264096089
 30
0.0
 10
550.9181381543711
 20
1478.450841915544
 30
0.0
 10
550.9181381543711
 20
1478.450841915544
 30
0.0
 10
550.9181381543711
 20
1490.45097076454
 30
0.0
 10
550.9181381543711
 20
1490.45097076454
 30
0.0
 10
550.9181381543711
 20
1491.279171719194
 30
0.0
 10
551.5895872644463
 20
1491.950965338818
 30
0.0
 10
552.4177882191004
 20
1491.950965338818
 30
0.0
 10
553.2463336833031
 20
1491.950965338818
 30
0.0
 10
553.9177827933783
 20
1491.279171719194
 30
0.0
 10
553.9177827933783
 20
1490.45097076454
 30
0.0
 10
553.9177827933783
 20
1490.45097076454
 30
0.0
 10
553.9177827933783
 20
1478.450841915544
 30
0.0
 10
553.9177827933783
 20
1478.450841915544
 30
0.0
  0
SPLINE
  5
56
330
1F
100
AcDbEntity
  8
Layer 1
370
     0
100
AcDbSpline
210
0.0
220
0.0
230
1.0
 70
    11
 71
     3
 72
   860
 73
   856
 74
     0
 42
0.0000000001
 43
0.0000000001
 40
0.0
 40
0.0
 40
0.0
 40
0.0
 40
1.0
 40
1.0
 40
1.0
 40
2.0
 40
2.0
 40
2.0
 40
3.0
 40
3.0
 40
3.0
 40
4.0
 40
4.0
 40
4.0
 40
5.0
 40
5.0
 40
5.0
 40
6.0
 40
6.0
 40
6.0
 40
7.0
 40
7.0
 40
7.0
 40
8.0
 40
8.0
 40
8.0
 40
9.0
 40
9.0
 40
9.0
 40
10.0
 40
10.0
 40
10.0
 40
11.0
 40
11.0
 40
11.0
 40
12.0
 40
12.0
 40
12.0
 40
13.0
 40
13.0
 40
13.0
 40
14.0
 40
14.0
 40
14.0
 40
15.0
 40
15.0
 40
15.0
 40
16.0
 40
16.0
 40
16.0
 40
17.0
 40
17.0
 40
17.0
 40
18.0
 40
18.0
 40
18.0
 40
19.0
 40
19.0
 40
19.0
 40
20.0
 40
20.0
 40
20.0
 40
21.0
 40
21.0
 40
21.0
 40
22.0
 40
22.0
 40
22.0
 40
23.0
 40
23.0
 40
23.0
 40
24.0
 40
24.0
 40
24.0
 40
25.0
 40
25.0
 40
25.0
 40
26.0
 40
26.0
 40
26.0
 40
27.0
 40
27.0
 40
27.0
 40
28.0
 40
28.0
 40
28.0
 40
29.0
 40
29.0
 40
29.0
 40
30.0
 40
30.0
 40
30.0
 40
31.0
 40
31.0
 40
31.0
 40
32.0
 40
32.0
 40
32.0
 40
33.0
 40
33.0
 40
33.0
 40
34.0
 40
34.0
 40
34.0
 40
35.0
 40
35.0
 40
35.0
 40
36.0
 40
36.0
 40
36.0
 40
37.0
 40
37.0
 40
37.0
 40
38.0
 40
38.0
 40
38.0
 40
39.0
 40
39.0
 40
39.0
 40
40.0
 40
40.0
 40
40.0
 40
41.0
 40
41.0
 40
41.0
 40
42.0
 40
42.0
 40
42.0
 40
43.0
 40
43.0
 40
43.0
 40
44.0
 40
44.0
 40
44.0
 40
45.0
 40
45.0
 40
45.0
 40
46.0
 40
46.0
 40
46.0
 40
47.0
 40
47.0
 40
47.0
 40
48.0
 40
48.0
 40
48.0
 40
49.0
 40
49.0
 40
49.0
 40
50.0
 40
50.0
 40
50.0
 40
51.0
 40
51.0
 40
51.0
 40
52.0
 40
52.0
 40
52.0
 40
53.0
 40
53.0
 40
53.0
 40
54.0
 40
54.0
 40
54.0
 40
55.0
 40
55.0
 40
55.0
 40
56.0
 40
56.0
 40
56.0
 40
57.0
 40
57.0
 40
57.0
 40
58.0
 40
58.0
 40
58.0
 40
59.0
 40
59.0
 40
59.0
 40
60.0
 40
60.0
 40
60.0
 40
61.0
 40
61.0
 40
61.0
 40
62.0
 40
62.0
 40
62.0
 40
63.0
 40
63.0
 40
63.0
 40
64.0
 40
64.0
 40
64.0
 40
65.0
 40
65.0
 40
65.0
 40
66.0
 40
66.0
 40
66.0
 40
67.0
 40
67.0
 40
67.0
 40
68.0
 40
68.0
 40
68.0
 40
69.0
 40
69.0
 40
69.0
 40
70.0
 40
70.0
 40
70.0
 40
71.0
 40
71.0
 40
71.0
 40
72.0
 40
72.0
 40
72.0
 40
73.0
 40
73.0
 40
73.0
 40
74.0
 40
74.0
 40
74.0
 40
75.0
 40
75.0
 40
75.0
 40
76.0
 40
76.0
 40
76.0
 40
77.0
 40
77.0
 40
77.0
 40
78.0
 40
78.0
 40
78.0
 40
79.0
 40
79.0
 40
79.0
 40
80.0
 40
80.0
 40
80.0
 40
81.0
 40
81.0
 40
81.0
 40
82.0
 40
82.0
 40
82.0
 40
83.0
 40
83.0
 40
83.0
 40
84.0
 40
84.0
 40
84.0
 40
85.0
 40
85.0
 40
85.0
 40
86.0
 40
86.0
 40
86.0
 40
87.0
 40
87.0
 40
87.0
 40
88.0
 40
88.0
 40
88.0
 40
89.0
 40
89.0
 40
89.0
 40
90.0
 40
90.0
 40
90.0
 40
91.0
 40
91.0
 40
91.0
 40
92.0
 40
92.0
 40
92.0
 40
93.0
 40
93.0
 40
93.0
 40
94.0
 40
94.0
 40
94.0
 40
95.0
 40
95.0
 40
95.0
 40
96.0
 40
96.0
 40
96.0
 40
97.0
 40
97.0
 40
97.0
 40
98.0
 40
98.0
 40
98.0
 40
99.0
 40
99.0
 40
99.0
 40
100.0
 40
100.0
 40
100.0
 40
101.0
 40
101.0
 40
101.0
 40
102.0
 40
102.0
 40
102.0
 40
103.0
 40
103.0
 40
103.0
 40
104.0
 40
104.0
 40
104.0
 40
105.0
 40
105.0
 40
105.0
 40
106.0
 40
106.0
 40
106.0
 40
107.0
 40
107.0
 40
107.0
 40
108.0
 40
108.0
 40
108.0
 40
109.0
 40
109.0
 40
109.0
 40
110.0
 40
110.0
 40
110.0
 40
111.0
 40
111.0
 40
111.0
 40
112.0
 40
112.0
 40
112.0
 40
113.0
 40
113.0
 40
113.0
 40
114.0
 40
114.0
 40
114.0
 40
115.0
 40
115.0
 40
115.0
 40
116.0
 40
116.0
 40
116.0
 40
117.0
 40
117.0
 40
117.0
 40
118.0
 40
118.0
 40
118.0
 40
119.0
 40
119.0
 40
119.0
 40
120.0
 40
120.0
 40
120.0
 40
121.0
 40
121.0
 40
121.0
 40
122.0
 40
122.0
 40
122.0
 40
123.0
 40
123.0
 40
123.0
 40
124.0
 40
124.0
 40
124.0
 40
125.0
 40
125.0
 40
125.0
 40
126.0
 40
126.0
 40
126.0
 40
127.0
 40
127.0
 40
127.0
 40
128.0
 40
128.0
 40
128.0
 40
129.0
 40
129.0
 40
129.0
 40
130.0
 40
130.0
 40
130.0
 40
131.0
 40
131.0
 40
131.0
 40
132.0
 40
132.0
 40
132.0
 40
133.0
 40
133.0
 40
133.0
 40
134.0
 40
134.0
 40
134.0
 40
135.0
 40
135.0
 40
135.0
 40
136.0
 40
136.0
 40
136.0
 40
137.0
 40
137.0
 40
137.0
 40
138.0
 40
138.0
 40
138.0
 40
139.0
 40
139.0
 40
139.0
 40
140.0
 40
140.0
 40
140.0
 40
141.0
 40
141.0
 40
141.0
 40
142.0
 40
142.0
 40
142.0
 40
143.0
 40
143.0
 40
143.0
 40
144.0
 40
144.0
 40
144.0
 40
145.0
 40
145.0
 40
145.0
 40
146.0
 40
146.0
 40
146.0
 40
147.0
 40
147.0
 40
147.0
 40
148.0
 40
148.0
 40
148.0
 40
149.0
 40
149.0
 40
149.0
 40
150.0
 40
150.0
 40
150.0
 40
151.0
 40
151.0
 40
151.0
 40
152.0
 40
152.0
 40
152.0
 40
153.0
 40
153.0
 40
153.0
 40
154.0
 40
154.0
 40
154.0
 40
155.0
 40
155.0
 40
155.0
 40
156.0
 40
156.0
 40
156.0
 40
157.0
 40
157.0
 40
157.0
 40
158.0
 40
158.0
 40
158.0
 40
159.0
 40
159.0
 40
159.0
 40
160.0
 40
160.0
 40
160.0
 40
161.0
 40
161.0
 40
161.0
 40
162.0
 40
162.0
 40
162.0
 40
163.0
 40
163.0
 40
163.0
 40
164.0
 40
164.0
 40
164.0
 40
165.0
 40
165.0
 40
165.0
 40
166.0
 40
166.0
 40
166.0
 40
167.0
 40
167.0
 40
167.0
 40
168.0
 40
168.0
 40
168.0
 40
169.0
 40
169.0
 40
169.0
 40
170.0
 40
170.0
 40
170.0
 40
171.0
 40
171.0
 40
171.0
 40
172.0
 40
172.0
 40
172.0
 40
173.0
 40
173.0
 40
173.0
 40
174.0
 40
174.0
 40
174.0
 40
175.0
 40
175.0
 40
175.0
 40
176.0
 40
176.0
 40
176.0
 40
177.0
 40
177.0
 40
177.0
 40
178.0
 40
178.0
 40
178.0
 40
179.0
 40
179.0
 40
179.0
 40
180.0
 40
180.0
 40
180.0
 40
181.0
 40
181.0
 40
181.0
 40
182.0
 40
182.0
 40
182.0
 40
183.0
 40
183.0
 40
183.0
 40
184.0
 40
184.0
 40
184.0
 40
185.0
 40
185.0
 40
185.0
 40
186.0
 40
186.0
 40
186.0
 40
187.0
 40
187.0
 40
187.0
 40
188.0
 40
188.0
 40
188.0
 40
189.0
 40
189.0
 40
189.0
 40
190.0
 40
190.0
 40
190.0
 40
191.0
 40
191.0
 40
191.0
 40
192.0
 40
192.0
 40
192.0
 40
193.0
 40
193.0
 40
193.0
 40
194.0
 40
194.0
 40
194.0
 40
195.0
 40
195.0
 40
195.0
 40
196.0
 40
196.0
 40
196.0
 40
197.0
 40
197.0
 40
197.0
 40
198.0
 40
198.0
 40
198.0
 40
199.0
 40
199.0
 40
199.0
 40
200.0
 40
200.0
 40
200.0
 40
201.0
 40
201.0
 40
201.0
 40
202.0
 40
202.0
 40
202.0
 40
203.0
 40
203.0
 40
203.0
 40
204.0
 40
204.0
 40
204.0
 40
205.0
 40
205.0
 40
205.0
 40
206.0
 40
206.0
 40
206.0
 40
207.0
 40
207.0
 40
207.0
 40
208.0
 40
208.0
 40
208.0
 40
209.0
 40
209.0
 40
209.0
 40
210.0
 40
210.0
 40
210.0
 40
211.0
 40
211.0
 40
211.0
 40
212.0
 40
212.0
 40
212.0
 40
213.0
 40
213.0
 40
213.0
 40
214.0
 40
214.0
 40
214.0
 40
215.0
 40
215.0
 40
215.0
 40
216.0
 40
216.0
 40
216.0
 40
217.0
 40
217.0
 40
217.0
 40
218.0
 40
218.0
 40
218.0
 40
219.0
 40
219.0
 40
219.0
 40
220.0
 40
220.0
 40
220.0
 40
221.0
 40
221.0
 40
221.0
 40
222.0
 40
222.0
 40
222.0
 40
223.0
 40
223.0
 40
223.0
 40
224.0
 40
224.0
 40
224.0
 40
225.0
 40
225.0
 40
225.0
 40
226.0
 40
226.0
 40
226.0
 40
227.0
 40
227.0
 40
227.0
 40
228.0
 40
228.0
 40
228.0
 40
229.0
 40
229.0
 40
229.0
 40
230.0
 40
230.0
 40
230.0
 40
231.0
 40
231.0
 40
231.0
 40
232.0
 40
232.0
 40
232.0
 40
233.0
 40
233.0
 40
233.0
 40
234.0
 40
234.0
 40
234.0
 40
235.0
 40
235.0
 40
235.0
 40
236.0
 40
236.0
 40
236.0
 40
237.0
 40
237.0
 40
237.0
 40
238.0
 40
238.0
 40
238.0
 40
239.0
 40
239.0
 40
239.0
 40
240.0
 40
240.0
 40
240.0
 40
241.0
 40
241.0
 40
241.0
 40
242.0
 40
242.0
 40
242.0
 40
243.0
 40
243.0
 40
243.0
 40
244.0
 40
244.0
 40
244.0
 40
245.0
 40
245.0
 40
245.0
 40
246.0
 40
246.0
 40
246.0
 40
247.0
 40
247.0
 40
247.0
 40
248.0
 40
248.0
 40
248.0
 40
249.0
 40
249.0
 40
249.0
 40
250.0
 40
250.0
 40
250.0
 40
251.0
 40
251.0
 40
251.0
 40
252.0
 40
252.0
 40
252.0
 40
253.0
 40
253.0
 40
253.0
 40
254.0
 40
254.0
 40
254.0
 40
255.0
 40
255.0
 40
255.0
 40
256.0
 40
256.0
 40
256.0
 40
257.0
 40
257.0
 40
257.0
 40
258.0
 40
258.0
 40
258.0
 40
259.0
 40
259.0
 40
259.0
 40
260.0
 40
260.0
 40
260.0
 40
261.0
 40
261.0
 40
261.0
 40
262.0
 40
262.0
 40
262.0
 40
263.0
 40
263.0
 40
263.0
 40
264.0
 40
264.0
 40
264.0
 40
265.0
 40
265.0
 40
265.0
 40
266.0
 40
266.0
 40
266.0
 40
267.0
 40
267.0
 40
267.0
 40
268.0
 40
268.0
 40
268.0
 40
269.0
 40
269.0
 40
269.0
 40
270.0
 40
270.0
 40
270.0
 40
271.0
 40
271.0
 40
271.0
 40
272.0
 40
272.0
 40
272.0
 40
273.0
 40
273.0
 40
273.0
 40
274.0
 40
274.0
 40
274.0
 40
275.0
 40
275.0
 40
275.0
 40
276.0
 40
276.0
 40
276.0
 40
277.0
 40
277.0
 40
277.0
 40
278.0
 40
278.0
 40
278.0
 40
279.0
 40
279.0
 40
279.0
 40
280.0
 40
280.0
 40
280.0
 40
281.0
 40
281.0
 40
281.0
 40
282.0
 40
282.0
 40
282.0
 40
283.0
 40
283.0
 40
283.0
 40
284.0
 40
284.0
 40
284.0
 40
285.0
 40
285.0
 40
285.0
 40
285.0
 10
251.6766275412475
 20
1332.098879332774
 30
0.0
 10
251.6766275412475
 20
1332.098879332774
 30
0.0
 10
251.6766275412475
 20
1279.309336702742
 30
0.0
 10
251.6766275412475
 20
1279.309336702742
 30
0.0
 10
251.6766275412475
 20
1279.309336702742
 30
0.0
 10
245.5863877424229
 20
1279.059222770513
 30
0.0
 10
245.5863877424229
 20
1279.059222770513
 30
0.0
 10
245.5863877424229
 20
1279.059222770513
 30
0.0
 10
245.5863877424229
 20
1269.459808710413
 30
0.0
 10
245.5863877424229
 20
1269.459808710413
 30
0.0
 10
245.5863877424229
 20
1269.459808710413
 30
0.0
 10
251.6766275412475
 20
1269.209694778184
 30
0.0
 10
251.6766275412475
 20
1269.209694778184
 30
0.0
 10
251.6766275412475
 20
1269.209694778184
 30
0.0
 10
251.6766275412475
 20
1251.177720498838
 30
0.0
 10
251.6766275412475
 20
1251.177720498838
 30
0.0
 10
251.6766275412475
 20
1251.177720498838
 30
0.0
 10
251.6766275412475
 20
1250.68197125851
 30
0.0
 10
251.6766275412475
 20
1250.68197125851
 30
0.0
 10
251.6766275412475
 20
1250.68197125851
 30
0.0
 10
258.6942870447015
 20
1250.68197125851
 30
0.0
 10
258.6942870447015
 20
1250.68197125851
 30
0.0
 10
258.6942870447015
 20
1250.68197125851
 30
0.0
 10
258.6942870447015
 20
1252.081369044619
 30
0.0
 10
258.6942870447015
 20
1252.081369044619
 30
0.0
 10
258.6942870447015
 20
1252.081369044619
 30
0.0
 10
260.894325021582
 20
1252.081369044619
 30
0.0
 10
260.894325021582
 20
1252.081369044619
 30
0.0
 10
260.894325021582
 20
1252.081369044619
 30
0.0
 10
260.894325021582
 20
1250.68197125851
 30
0.0
 10
260.894325021582
 20
1250.68197125851
 30
0.0
 10
260.894325021582
 20
1250.68197125851
 30
0.0
 10
262.3371310108046
 20
1250.68197125851
 30
0.0
 10
262.3371310108046
 20
1250.68197125851
 30
0.0
 10
262.3371310108046
 20
1250.68197125851
 30
0.0
 10
262.3371310108046
 20
1247.881108629002
 30
0.0
 10
262.3371310108046
 20
1247.881108629002
 30
0.0
 10
262.3371310108046
 20
1247.881108629002
 30
0.0
 10
260.894325021582
 20
1247.881108629002
 30
0.0
 10
260.894325021582
 20
1247.881108629002
 30
0.0
 10
260.894325021582
 20
1247.881108629002
 30
0.0
 10
260.894325021582
 20
1246.481021823796
 30
0.0
 10
260.894325021582
 20
1246.481021823796
 30
0.0
 10
260.894325021582
 20
1246.481021823796
 30
0.0
 10
258.6942870447015
 20
1246.481021823796
 30
0.0
 10
258.6942870447015
 20
1246.481021823796
 30
0.0
 10
258.6942870447015
 20
1246.481021823796
 30
0.0
 10
258.6942870447015
 20
1247.881108629002
 30
0.0
 10
258.6942870447015
 20
1247.881108629002
 30
0.0
 10
258.6942870447015
 20
1247.881108629002
 30
0.0
 10
251.6766275412475
 20
1247.881108629002
 30
0.0
 10
251.6766275412475
 20
1247.881108629002
 30
0.0
 10
251.6766275412475
 20
1247.881108629002
 30
0.0
 10
251.6766275412475
 20
1247.37709115951
 30
0.0
 10
251.6766275412475
 20
1247.37709115951
 30
0.0
 10
251.6766275412475
 20
1247.37709115951
 30
0.0
 10
251.6766275412475
 20
1229.307909848923
 30
0.0
 10
251.6766275412475
 20
1229.307909848923
 30
0.0
 10
251.6766275412475
 20
1229.307909848923
 30
0.0
 10
245.5863877424229
 20
1229.057795916694
 30
0.0
 10
245.5863877424229
 20
1229.057795916694
 30
0.0
 10
245.5863877424229
 20
1229.057795916694
 30
0.0
 10
245.5863877424229
 20
1219.459070875691
 30
0.0
 10
245.5863877424229
 20
1219.459070875691
 30
0.0
 10
245.5863877424229
 20
1219.459070875691
 30
0.0
 10
251.6766275412475
 20
1219.208956943462
 30
0.0
 10
251.6766275412475
 20
1219.208956943462
 30
0.0
 10
251.6766275412475
 20
1219.208956943462
 30
0.0
 10
251.682828713121
 20
1219.208956943462
 30
0.0
 10
251.682828713121
 20
1219.208956943462
 30
0.0
 10
251.682828713121
 20
1219.208956943462
 30
0.0
 10
251.682828713121
 20
1215.457247960025
 30
0.0
 10
251.682828713121
 20
1215.457247960025
 30
0.0
 10
251.682828713121
 20
1215.457247960025
 30
0.0
 10
261.2822427732211
 20
1215.457247960025
 30
0.0
 10
261.2822427732211
 20
1215.457247960025
 30
0.0
 10
262.9386446825292
 20
1215.457247960025
 30
0.0
 10
264.2822319217767
 20
1214.114005230326
 30
0.0
 10
264.2822319217767
 20
1212.457258811469
 30
0.0
 10
264.2822319217767
 20
1212.457258811469
 30
0.0
 10
264.2822319217767
 20
1202.877137286086
 30
0.0
 10
264.2822319217767
 20
1202.877137286086
 30
0.0
 10
264.2822319217767
 20
1202.877137286086
 30
0.0
 10
264.2822319217767
 20
1202.877137286086
 30
0.0
 10
264.2822319217767
 20
1202.877137286086
 30
0.0
 10
264.2822319217767
 20
1202.877137286086
 30
0.0
 10
264.5323458540058
 20
1196.786897487262
 30
0.0
 10
264.5323458540058
 20
1196.786897487262
 30
0.0
 10
264.5323458540058
 20
1196.786897487262
 30
0.0
 10
274.1317599141059
 20
1196.786897487262
 30
0.0
 10
274.1317599141059
 20
1196.786897487262
 30
0.0
 10
274.1317599141059
 20
1196.786897487262
 30
0.0
 10
274.3818738463351
 20
1202.877137286086
 30
0.0
 10
274.3818738463351
 20
1202.877137286086
 30
0.0
 10
274.3818738463351
 20
1202.877137286086
 30
0.0
 10
292.4706922011879
 20
1202.877137286086
 30
0.0
 10
292.4706922011879
 20
1202.877137286086
 30
0.0
 10
292.4706922011879
 20
1202.877137286086
 30
0.0
 10
292.9709200656462
 20
1202.877137286086
 30
0.0
 10
292.9709200656462
 20
1202.877137286086
 30
0.0
 10
292.9709200656462
 20
1202.877137286086
 30
0.0
 10
292.9709200656462
 20
1209.894452279992
 30
0.0
 10
292.9709200656462
 20
1209.894452279992
 30
0.0
 10
292.9709200656462
 20
1209.894452279992
 30
0.0
 10
291.5708332604406
 20
1209.894452279992
 30
0.0
 10
291.5708332604406
 20
1209.894452279992
 30
0.0
 10
291.5708332604406
 20
1209.894452279992
 30
0.0
 10
291.5708332604406
 20
1212.094490256872
 30
0.0
 10
291.5708332604406
 20
1212.094490256872
 30
0.0
 10
291.5708332604406
 20
1212.094490256872
 30
0.0
 10
292.9709200656462
 20
1212.094490256872
 30
0.0
 10
292.9709200656462
 20
1212.094490256872
 30
0.0
 10
292.9709200656462
 20
1212.094490256872
 30
0.0
 10
292.9709200656462
 20
1213.537640755643
 30
0.0
 10
292.9709200656462
 20
1213.537640755643
 30
0.0
 10
292.9709200656462
 20
1213.537640755643
 30
0.0
 10
295.7717826951543
 20
1213.537640755643
 30
0.0
 10
295.7717826951543
 20
1213.537640755643
 30
0.0
 10
295.7717826951543
 20
1213.537640755643
 30
0.0
 10
295.7717826951543
 20
1212.094490256872
 30
0.0
 10
295.7717826951543
 20
1212.094490256872
 30
0.0
 10
295.7717826951543
 20
1212.094490256872
 30
0.0
 10
297.1711804812628
 20
1212.094490256872
 30
0.0
 10
297.1711804812628
 20
1212.094490256872
 30
0.0
 10
297.1711804812628
 20
1212.094490256872
 30
0.0
 10
297.1711804812628
 20
1209.894452279992
 30
0.0
 10
297.1711804812628
 20
1209.894452279992
 30
0.0
 10
297.1711804812628
 20
1209.894452279992
 30
0.0
 10
295.7717826951543
 20
1209.894452279992
 30
0.0
 10
295.7717826951543
 20
1209.894452279992
 30
0.0
 10
295.7717826951543
 20
1209.894452279992
 30
0.0
 10
295.7717826951543
 20
1202.877137286086
 30
0.0
 10
295.7717826951543
 20
1202.877137286086
 30
0.0
 10
295.7717826951543
 20
1202.877137286086
 30
0.0
 10
296.2720105596126
 20
1202.877137286086
 30
0.0
 10
296.2720105596126
 20
1202.877137286086
 30
0.0
 10
296.2720105596126
 20
1202.877137286086
 30
0.0
 10
314.2891709283722
 20
1202.877137286086
 30
0.0
 10
314.2891709283722
 20
1202.877137286086
 30
0.0
 10
314.2891709283722
 20
1202.877137286086
 30
0.0
 10
314.5392848606013
 20
1196.786897487262
 30
0.0
 10
314.5392848606013
 20
1196.786897487262
 30
0.0
 10
314.5392848606013
 20
1196.786897487262
 30
0.0
 10
324.1386989207015
 20
1196.786897487262
 30
0.0
 10
324.1386989207015
 20
1196.786897487262
 30
0.0
 10
324.1386989207015
 20
1196.786897487262
 30
0.0
 10
324.3888128529306
 20
1202.877137286086
 30
0.0
 10
324.3888128529306
 20
1202.877137286086
 30
0.0
 10
324.3888128529306
 20
1202.877137286086
 30
0.0
 10
390.3770330512773
 20
1202.876965031312
 30
0.0
 10
390.3770330512773
 20
1202.876965031312
 30
0.0
 10
390.3770330512773
 20
1202.876965031312
 30
0.0
 10
390.6271469835064
 20
1196.786725232487
 30
0.0
 10
390.6271469835064
 20
1196.786725232487
 30
0.0
 10
390.6271469835064
 20
1196.786725232487
 30
0.0
 10
400.2279390818007
 20
1196.786725232487
 30
0.0
 10
400.2279390818007
 20
1196.786725232487
 30
0.0
 10
400.2279390818007
 20
1196.786725232487
 30
0.0
 10
400.4780530140298
 20
1202.876965031312
 30
0.0
 10
400.4780530140298
 20
1202.876965031312
 30
0.0
 10
400.4780530140298
 20
1202.876965031312
 30
0.0
 10
418.5468898150681
 20
1202.876965031312
 30
0.0
 10
418.5468898150681
 20
1202.876965031312
 30
0.0
 10
418.5468898150681
 20
1202.876965031312
 30
0.0
 10
419.0467731699779
 20
1202.876965031312
 30
0.0
 10
419.0467731699779
 20
1202.876965031312
 30
0.0
 10
419.0467731699779
 20
1202.876965031312
 30
0.0
 10
419.0467731699779
 20
1209.894280025218
 30
0.0
 10
419.0467731699779
 20
1209.894280025218
 30
0.0
 10
419.0467731699779
 20
1209.894280025218
 30
0.0
 10
417.6473753838694
 20
1209.894280025218
 30
0.0
 10
417.6473753838694
 20
1209.894280025218
 30
0.0
 10
417.6473753838694
 20
1209.894280025218
 30
0.0
 10
417.6473753838694
 20
1212.094318002098
 30
0.0
 10
417.6473753838694
 20
1212.094318002098
 30
0.0
 10
417.6473753838694
 20
1212.094318002098
 30
0.0
 10
419.0467731699779
 20
1212.094318002098
 30
0.0
 10
419.0467731699779
 20
1212.094318002098
 30
0.0
 10
419.0467731699779
 20
1212.094318002098
 30
0.0
 10
419.0467731699779
 20
1213.537468500869
 30
0.0
 10
419.0467731699779
 20
1213.537468500869
 30
0.0
 10
419.0467731699779
 20
1213.537468500869
 30
0.0
 10
421.847635799486
 20
1213.537468500869
 30
0.0
 10
421.847635799486
 20
1213.537468500869
 30
0.0
 10
421.847635799486
 20
1213.537468500869
 30
0.0
 10
421.847635799486
 20
1212.094318002098
 30
0.0
 10
421.847635799486
 20
1212.094318002098
 30
0.0
 10
421.847635799486
 20
1212.094318002098
 30
0.0
 10
423.2477226046915
 20
1212.094318002098
 30
0.0
 10
423.2477226046915
 20
1212.094318002098
 30
0.0
 10
423.2477226046915
 20
1212.094318002098
 30
0.0
 10
423.2477226046915
 20
1209.894280025218
 30
0.0
 10
423.2477226046915
 20
1209.894280025218
 30
0.0
 10
423.2477226046915
 20
1209.894280025218
 30
0.0
 10
421.847635799486
 20
1209.894280025218
 30
0.0
 10
421.847635799486
 20
1209.894280025218
 30
0.0
 10
421.847635799486
 20
1209.894280025218
 30
0.0
 10
421.847635799486
 20
1202.876965031312
 30
0.0
 10
421.847635799486
 20
1202.876965031312
 30
0.0
 10
421.847635799486
 20
1202.876965031312
 30
0.0
 10
422.3482081734928
 20
1202.876965031312
 30
0.0
 10
422.3482081734928
 20
1202.876965031312
 30
0.0
 10
422.3482081734928
 20
1202.876965031312
 30
0.0
 10
440.3815604910331
 20
1202.876965031312
 30
0.0
 10
440.3815604910331
 20
1202.876965031312
 30
0.0
 10
440.3815604910331
 20
1202.876965031312
 30
0.0
 10
440.6316744232623
 20
1196.786725232487
 30
0.0
 10
440.6316744232623
 20
1196.786725232487
 30
0.0
 10
440.6316744232623
 20
1196.786725232487
 30
0.0
 10
450.2307439738138
 20
1196.786725232487
 30
0.0
 10
450.2307439738138
 20
1196.786725232487
 30
0.0
 10
450.2307439738138
 20
1196.786725232487
 30
0.0
 10
450.480857906043
 20
1202.876965031312
 30
0.0
 10
450.480857906043
 20
1202.876965031312
 30
0.0
 10
450.480857906043
 20
1202.876965031312
 30
0.0
 10
516.4716619260037
 20
1202.876965031312
 30
0.0
 10
516.4716619260037
 20
1202.876965031312
 30
0.0
 10
516.4716619260037
 20
1202.876965031312
 30
0.0
 10
516.7217758582327
 20
1196.786725232487
 30
0.0
 10
516.7217758582327
 20
1196.786725232487
 30
0.0
 10
516.7217758582327
 20
1196.786725232487
 30
0.0
 10
526.3218789374299
 20
1196.786725232487
 30
0.0
 10
526.3218789374299
 20
1196.786725232487
 30
0.0
 10
526.3218789374299
 20
1196.786725232487
 30
0.0
 10
526.5719928696591
 20
1202.876965031312
 30
0.0
 10
526.5719928696591
 20
1202.876965031312
 30
0.0
 10
526.5719928696591
 20
1202.876965031312
 30
0.0
 10
544.6229151741742
 20
1202.876965031312
 30
0.0
 10
544.6229151741742
 20
1202.876965031312
 30
0.0
 10
544.6229151741742
 20
1202.876965031312
 30
0.0
 10
545.123487548181
 20
1202.876965031312
 30
0.0
 10
545.123487548181
 20
1202.876965031312
 30
0.0
 10
545.123487548181
 20
1202.876965031312
 30
0.0
 10
545.123487548181
 20
1209.894280025218
 30
0.0
 10
545.123487548181
 20
1209.894280025218
 30
0.0
 10
545.123487548181
 20
1209.894280025218
 30
0.0
 10
543.7240897620725
 20
1209.894280025218
 30
0.0
 10
543.7240897620725
 20
1209.894280025218
 30
0.0
 10
543.7240897620725
 20
1209.894280025218
 30
0.0
 10
543.7240897620725
 20
1212.094318002098
 30
0.0
 10
543.7240897620725
 20
1212.094318002098
 30
0.0
 10
543.7240897620725
 20
1212.094318002098
 30
0.0
 10
545.123487548181
 20
1212.094318002098
 30
0.0
 10
545.123487548181
 20
1212.094318002098
 30
0.0
 10
545.123487548181
 20
1212.094318002098
 30
0.0
 10
545.123487548181
 20
1213.537468500869
 30
0.0
 10
545.123487548181
 20
1213.537468500869
 30
0.0
 10
545.123487548181
 20
1213.537468500869
 30
0.0
 10
547.9243501776891
 20
1213.537468500869
 30
0.0
 10
547.9243501776891
 20
1213.537468500869
 30
0.0
 10
547.9243501776891
 20
1213.537468500869
 30
0.0
 10
547.9243501776891
 20
1212.094318002098
 30
0.0
 10
547.9243501776891
 20
1212.094318002098
 30
0.0
 10
547.9243501776891
 20
1212.094318002098
 30
0.0
 10
549.3244369828946
 20
1212.094318002098
 30
0.0
 10
549.3244369828946
 20
1212.094318002098
 30
0.0
 10
549.3244369828946
 20
1212.094318002098
 30
0.0
 10
549.3244369828946
 20
1209.894280025218
 30
0.0
 10
549.3244369828946
 20
1209.894280025218
 30
0.0
 10
549.3244369828946
 20
1209.894280025218
 30
0.0
 10
547.9243501776891
 20
1209.894280025218
 30
0.0
 10
547.9243501776891
 20
1209.894280025218
 30
0.0
 10
547.9243501776891
 20
1209.894280025218
 30
0.0
 10
547.9243501776891
 20
1202.876965031312
 30
0.0
 10
547.9243501776891
 20
1202.876965031312
 30
0.0
 10
547.9243501776891
 20
1202.876965031312
 30
0.0
 10
548.4242335325988
 20
1202.876965031312
 30
0.0
 10
548.4242335325988
 20
1202.876965031312
 30
0.0
 10
548.4242335325988
 20
1202.876965031312
 30
0.0
 10
566.4761893657594
 20
1202.876965031312
 30
0.0
 10
566.4761893657594
 20
1202.876965031312
 30
0.0
 10
566.4761893657594
 20
1202.876965031312
 30
0.0
 10
566.7263032979886
 20
1196.786725232487
 30
0.0
 10
566.7263032979886
 20
1196.786725232487
 30
0.0
 10
566.7263032979886
 20
1196.786725232487
 30
0.0
 10
576.3253728485402
 20
1196.786725232487
 30
0.0
 10
576.3253728485402
 20
1196.786725232487
 30
0.0
 10
576.3253728485402
 20
1196.786725232487
 30
0.0
 10
576.5458589595962
 20
1202.155562036701
 30
0.0
 10
576.5458589595962
 20
1202.155562036701
 30
0.0
 10
573.5193425758042
 20
1205.895902205036
 30
0.0
 10
573.7443073109911
 20
1211.394274599495
 30
0.0
 10
577.2224757128993
 20
1214.872098491855
 30
0.0
 10
579.1320921403733
 20
1216.782231683652
 30
0.0
 10
581.6511459591879
 20
1217.703105706859
 30
0.0
 10
584.1536633196735
 20
1217.65142927458
 30
0.0
 10
584.1536633196735
 20
1217.65142927458
 30
0.0
 10
589.2169201543451
 20
1217.65142927458
 30
0.0
 10
589.2169201543451
 20
1217.65142927458
 30
0.0
 10
589.2169201543451
 20
1217.65142927458
 30
0.0
 10
589.2169201543451
 20
1219.210334981656
 30
0.0
 10
589.2169201543451
 20
1219.210334981656
 30
0.0
 10
589.2169201543451
 20
1219.210334981656
 30
0.0
 10
595.3071599531697
 20
1219.460621168659
 30
0.0
 10
595.3071599531697
 20
1219.460621168659
 30
0.0
 10
595.3071599531697
 20
1219.460621168659
 30
0.0
 10
595.3071599531697
 20
1229.060551993082
 30
0.0
 10
595.3071599531697
 20
1229.060551993082
 30
0.0
 10
595.3071599531697
 20
1229.060551993082
 30
0.0
 10
589.2169201543451
 20
1229.310665925311
 30
0.0
 10
589.2169201543451
 20
1229.310665925311
 30
0.0
 10
589.2169201543451
 20
1229.310665925311
 30
0.0
 10
589.2169201543451
 20
1247.336955797107
 30
0.0
 10
589.2169201543451
 20
1247.336955797107
 30
0.0
 10
589.2169201543451
 20
1247.336955797107
 30
0.0
 10
589.2169201543451
 20
1247.831154744466
 30
0.0
 10
589.2169201543451
 20
1247.831154744466
 30
0.0
 10
589.2169201543451
 20
1247.831154744466
 30
0.0
 10
582.1999496699882
 20
1247.831154744466
 30
0.0
 10
582.1999496699882
 20
1247.831154744466
 30
0.0
 10
582.1999496699882
 20
1247.831154744466
 30
0.0
 10
582.1999496699882
 20
1246.431756958357
 30
0.0
 10
582.1999496699882
 20
1246.431756958357
 30
0.0
 10
582.1999496699882
 20
1246.431756958357
 30
0.0
 10
579.9999116931077
 20
1246.431756958357
 30
0.0
 10
579.9999116931077
 20
1246.431756958357
 30
0.0
 10
579.9999116931077
 20
1246.431756958357
 30
0.0
 10
579.9999116931077
 20
1247.831154744466
 30
0.0
 10
579.9999116931077
 20
1247.831154744466
 30
0.0
 10
579.9999116931077
 20
1247.831154744466
 30
0.0
 10
578.5567611943366
 20
1247.831154744466
 30
0.0
 10
578.5567611943366
 20
1247.831154744466
 30
0.0
 10
578.5567611943366
 20
1247.831154744466
 30
0.0
 10
578.5567611943366
 20
1250.632189628748
 30
0.0
 10
578.5567611943366
 20
1250.632189628748
 30
0.0
 10
578.5567611943366
 20
1250.632189628748
 30
0.0
 10
579.9999116931077
 20
1250.632189628748
 30
0.0
 10
579.9999116931077
 20
1250.632189628748
 30
0.0
 10
579.9999116931077
 20
1250.632189628748
 30
0.0
 10
579.9999116931077
 20
1252.032276433954
 30
0.0
 10
579.9999116931077
 20
1252.032276433954
 30
0.0
 10
579.9999116931077
 20
1252.032276433954
 30
0.0
 10
582.1999496699882
 20
1252.032276433954
 30
0.0
 10
582.1999496699882
 20
1252.032276433954
 30
0.0
 10
582.1999496699882
 20
1252.032276433954
 30
0.0
 10
582.1999496699882
 20
1250.632189628748
 30
0.0
 10
582.1999496699882
 20
1250.632189628748
 30
0.0
 10
582.1999496699882
 20
1250.632189628748
 30
0.0
 10
589.2169201543451
 20
1250.632189628748
 30
0.0
 10
589.2169201543451
 20
1250.632189628748
 30
0.0
 10
589.2169201543451
 20
1250.632189628748
 30
0.0
 10
589.2169201543451
 20
1251.13741288166
 30
0.0
 10
589.2169201543451
 20
1251.13741288166
 30
0.0
 10
589.2169201543451
 20
1251.13741288166
 30
0.0
 10
589.2169201543451
 20
1268.977495342478
 30
0.0
 10
589.2169201543451
 20
1268.977495342478
 30
0.0
 10
589.2169201543451
 20
1268.977495342478
 30
0.0
 10
579.82421182336
 20
1268.977495342478
 30
0.0
 10
579.82421182336
 20
1268.977495342478
 30
0.0
 10
579.82421182336
 20
1268.977495342478
 30
0.0
 10
579.82421182336
 20
1282.877077587267
 30
0.0
 10
579.82421182336
 20
1282.877077587267
 30
0.0
 10
579.82421182336
 20
1282.877077587267
 30
0.0
 10
589.2169201543451
 20
1282.877077587267
 30
0.0
 10
589.2169201543451
 20
1282.877077587267
 30
0.0
 10
589.2169201543451
 20
1282.877077587267
 30
0.0
 10
589.2169201543451
 20
1282.928409509997
 30
0.0
 10
589.2169201543451
 20
1282.928409509997
 30
0.0
 10
589.2169201543451
 20
1282.928409509997
 30
0.0
 10
595.3071599531697
 20
1283.178523442226
 30
0.0
 10
595.3071599531697
 20
1283.178523442226
 30
0.0
 10
595.3071599531697
 20
1283.178523442226
 30
0.0
 10
595.3071599531697
 20
1292.777592992778
 30
0.0
 10
595.3071599531697
 20
1292.777592992778
 30
0.0
 10
595.3071599531697
 20
1292.777592992778
 30
0.0
 10
589.2169201543451
 20
1293.027879179781
 30
0.0
 10
589.2169201543451
 20
1293.027879179781
 30
0.0
 10
589.2169201543451
 20
1293.027879179781
 30
0.0
 10
589.2169201543451
 20
1305.727879176606
 30
0.0
 10
589.2169201543451
 20
1305.727879176606
 30
0.0
 10
589.2169201543451
 20
1305.727879176606
 30
0.0
 10
589.2169201543451
 20
1306.221905869191
 30
0.0
 10
589.2169201543451
 20
1306.221905869191
 30
0.0
 10
589.2169201543451
 20
1306.221905869191
 30
0.0
 10
582.1999496699882
 20
1306.221905869191
 30
0.0
 10
582.1999496699882
 20
1306.221905869191
 30
0.0
 10
582.1999496699882
 20
1306.221905869191
 30
0.0
 10
582.1999496699882
 20
1304.822508083083
 30
0.0
 10
582.1999496699882
 20
1304.822508083083
 30
0.0
 10
582.1999496699882
 20
1304.822508083083
 30
0.0
 10
579.9999116931077
 20
1304.822508083083
 30
0.0
 10
579.9999116931077
 20
1304.822508083083
 30
0.0
 10
579.9999116931077
 20
1304.822508083083
 30
0.0
 10
579.9999116931077
 20
1306.221905869191
 30
0.0
 10
579.9999116931077
 20
1306.221905869191
 30
0.0
 10
579.9999116931077
 20
1306.221905869191
 30
0.0
 10
578.5567611943366
 20
1306.221905869191
 30
0.0
 10
578.5567611943366
 20
1306.221905869191
 30
0.0
 10
578.5567611943366
 20
1306.221905869191
 30
0.0
 10
578.5567611943366
 20
1309.022596243925
 30
0.0
 10
578.5567611943366
 20
1309.022596243925
 30
0.0
 10
578.5567611943366
 20
1309.022596243925
 30
0.0
 10
579.9999116931077
 20
1309.022596243925
 30
0.0
 10
579.9999116931077
 20
1309.022596243925
 30
0.0
 10
579.9999116931077
 20
1309.022596243925
 30
0.0
 10
579.9999116931077
 20
1310.42268304913
 30
0.0
 10
579.9999116931077
 20
1310.42268304913
 30
0.0
 10
579.9999116931077
 20
1310.42268304913
 30
0.0
 10
582.1999496699882
 20
1310.42268304913
 30
0.0
 10
582.1999496699882
 20
1310.42268304913
 30
0.0
 10
582.1999496699882
 20
1310.42268304913
 30
0.0
 10
582.1999496699882
 20
1309.022596243925
 30
0.0
 10
582.1999496699882
 20
1309.022596243925
 30
0.0
 10
582.1999496699882
 20
1309.022596243925
 30
0.0
 10
589.2172646638936
 20
1309.022596243925
 30
0.0
 10
589.2172646638936
 20
1309.022596243925
 30
0.0
 10
589.2172646638936
 20
1309.022596243925
 30
0.0
 10
589.2172646638936
 20
1309.52833626116
 30
0.0
 10
589.2172646638936
 20
1309.52833626116
 30
0.0
 10
589.2172646638936
 20
1309.52833626116
 30
0.0
 10
589.2172646638936
 20
1336.003206046208
 30
0.0
 10
589.2172646638936
 20
1336.003206046208
 30
0.0
 10
589.2172646638936
 20
1336.003206046208
 30
0.0
 10
595.3075044627183
 20
1336.253492233211
 30
0.0
 10
595.3075044627183
 20
1336.253492233211
 30
0.0
 10
595.3075044627183
 20
1336.253492233211
 30
0.0
 10
595.3075044627183
 20
1345.853423057634
 30
0.0
 10
595.3075044627183
 20
1345.853423057634
 30
0.0
 10
595.3075044627183
 20
1345.853423057634
 30
0.0
 10
589.2172646638936
 20
1346.103709244637
 30
0.0
 10
589.2172646638936
 20
1346.103709244637
 30
0.0
 10
589.2172646638936
 20
1346.103709244637
 30
0.0
 10
589.2172646638936
 20
1386.003771626155
 30
0.0
 10
589.2172646638936
 20
1386.003771626155
 30
0.0
 10
589.2172646638936
 20
1386.003771626155
 30
0.0
 10
595.3075044627183
 20
1386.25371330361
 30
0.0
 10
595.3075044627183
 20
1386.25371330361
 30
0.0
 10
595.3075044627183
 20
1386.25371330361
 30
0.0
 10
595.3075044627183
 20
1395.852782854162
 30
0.0
 10
595.3075044627183
 20
1395.852782854162
 30
0.0
 10
595.3075044627183
 20
1395.852782854162
 30
0.0
 10
589.2172646638936
 20
1396.103069041165
 30
0.0
 10
589.2172646638936
 20
1396.103069041165
 30
0.0
 10
589.2172646638936
 20
1396.103069041165
 30
0.0
 10
589.2172646638936
 20
1422.513343285865
 30
0.0
 10
589.2172646638936
 20
1422.513343285865
 30
0.0
 10
589.2172646638936
 20
1422.513343285865
 30
0.0
 10
589.2172646638936
 20
1423.007714487998
 30
0.0
 10
589.2172646638936
 20
1423.007714487998
 30
0.0
 10
589.2172646638936
 20
1423.007714487998
 30
0.0
 10
582.1999496699882
 20
1423.007714487998
 30
0.0
 10
582.1999496699882
 20
1423.007714487998
 30
0.0
 10
582.1999496699882
 20
1423.007714487998
 30
0.0
 10
582.1999496699882
 20
1421.607972192341
 30
0.0
 10
582.1999496699882
 20
1421.607972192341
 30
0.0
 10
582.1999496699882
 20
1421.607972192341
 30
0.0
 10
579.9999116931077
 20
1421.607972192341
 30
0.0
 10
579.9999116931077
 20
1421.607972192341
 30
0.0
 10
579.9999116931077
 20
1421.607972192341
 30
0.0
 10
579.9999116931077
 20
1423.007714487998
 30
0.0
 10
579.9999116931077
 20
1423.007714487998
 30
0.0
 10
579.9999116931077
 20
1423.007714487998
 30
0.0
 10
578.5567611943366
 20
1423.007714487998
 30
0.0
 10
578.5567611943366
 20
1423.007714487998
 30
0.0
 10
578.5567611943366
 20
1423.007714487998
 30
0.0
 10
578.5567611943366
 20
1425.808232607958
 30
0.0
 10
578.5567611943366
 20
1425.808232607958
 30
0.0
 10
578.5567611943366
 20
1425.808232607958
 30
0.0
 10
579.9999116931077
 20
1425.808232607958
 30
0.0
 10
579.9999116931077
 20
1425.808232607958
 30
0.0
 10
579.9999116931077
 20
1425.808232607958
 30
0.0
 10
579.9999116931077
 20
1427.208491667938
 30
0.0
 10
579.9999116931077
 20
1427.208491667938
 30
0.0
 10
579.9999116931077
 20
1427.208491667938
 30
0.0
 10
582.1999496699882
 20
1427.208491667938
 30
0.0
 10
582.1999496699882
 20
1427.208491667938
 30
0.0
 10
582.1999496699882
 20
1427.208491667938
 30
0.0
 10
582.1999496699882
 20
1425.808232607958
 30
0.0
 10
582.1999496699882
 20
1425.808232607958
 30
0.0
 10
582.1999496699882
 20
1425.808232607958
 30
0.0
 10
589.2172646638936
 20
1425.808232607958
 30
0.0
 10
589.2172646638936
 20
1425.808232607958
 30
0.0
 10
589.2172646638936
 20
1425.808232607958
 30
0.0
 10
589.2172646638936
 20
1426.314144879967
 30
0.0
 10
589.2172646638936
 20
1426.314144879967
 30
0.0
 10
589.2172646638936
 20
1426.314144879967
 30
0.0
 10
589.2176091734422
 20
1452.772133697137
 30
0.0
 10
589.2176091734422
 20
1452.772133697137
 30
0.0
 10
589.2176091734422
 20
1452.772133697137
 30
0.0
 10
595.3078489722668
 20
1453.022075374592
 30
0.0
 10
595.3078489722668
 20
1453.022075374592
 30
0.0
 10
595.3078489722668
 20
1453.022075374592
 30
0.0
 10
595.3078489722668
 20
1462.621661689466
 30
0.0
 10
595.3078489722668
 20
1462.621661689466
 30
0.0
 10
595.3078489722668
 20
1462.621661689466
 30
0.0
 10
589.2176091734422
 20
1462.871775621695
 30
0.0
 10
589.2176091734422
 20
1462.871775621695
 30
0.0
 10
589.2176091734422
 20
1462.871775621695
 30
0.0
 10
589.2176091734422
 20
1480.908573034721
 30
0.0
 10
589.2176091734422
 20
1480.908573034721
 30
0.0
 10
589.2176091734422
 20
1480.908573034721
 30
0.0
 10
589.2176091734422
 20
1481.403805510726
 30
0.0
 10
589.2176091734422
 20
1481.403805510726
 30
0.0
 10
589.2176091734422
 20
1481.403805510726
 30
0.0
 10
582.1999496699882
 20
1481.403805510726
 30
0.0
 10
582.1999496699882
 20
1481.403805510726
 30
0.0
 10
582.1999496699882
 20
1481.403805510726
 30
0.0
 10
582.1999496699882
 20
1480.004579979391
 30
0.0
 10
582.1999496699882
 20
1480.004579979391
 30
0.0
 10
582.1999496699882
 20
1480.004579979391
 30
0.0
 10
579.9999116931077
 20
1480.004579979391
 30
0.0
 10
579.9999116931077
 20
1480.004579979391
 30
0.0
 10
579.9999116931077
 20
1480.004579979391
 30
0.0
 10
579.9999116931077
 20
1481.403805510726
 30
0.0
 10
579.9999116931077
 20
1481.403805510726
 30
0.0
 10
579.9999116931077
 20
1481.403805510726
 30
0.0
 10
578.5567611943366
 20
1481.403805510726
 30
0.0
 10
578.5567611943366
 20
1481.403805510726
 30
0.0
 10
578.5567611943366
 20
1481.403805510726
 30
0.0
 10
578.5567611943366
 20
1484.204840395008
 30
0.0
 10
578.5567611943366
 20
1484.204840395008
 30
0.0
 10
578.5567611943366
 20
1484.204840395008
 30
0.0
 10
579.9999116931077
 20
1484.204840395008
 30
0.0
 10
579.9999116931077
 20
1484.204840395008
 30
0.0
 10
579.9999116931077
 20
1484.204840395008
 30
0.0
 10
579.9999116931077
 20
1485.604927200214
 30
0.0
 10
579.9999116931077
 20
1485.604927200214
 30
0.0
 10
579.9999116931077
 20
1485.604927200214
 30
0.0
 10
582.1999496699882
 20
1485.604927200214
 30
0.0
 10
582.1999496699882
 20
1485.604927200214
 30
0.0
 10
582.1999496699882
 20
1485.604927200214
 30
0.0
 10
582.1999496699882
 20
1484.204840395008
 30
0.0
 10
582.1999496699882
 20
1484.204840395008
 30
0.0
 10
582.1999496699882
 20
1484.204840395008
 30
0.0
 10
589.2176091734422
 20
1484.204840395008
 30
0.0
 10
589.2176091734422
 20
1484.204840395008
 30
0.0
 10
589.2176091734422
 20
1484.204840395008
 30
0.0
 10
589.2176091734422
 20
1484.709202374049
 30
0.0
 10
589.2176091734422
 20
1484.709202374049
 30
0.0
 10
589.2176091734422
 20
1484.709202374049
 30
0.0
 10
589.2176091734422
 20
1502.75874664037
 30
0.0
 10
589.2176091734422
 20
1502.75874664037
 30
0.0
 10
589.2176091734422
 20
1502.75874664037
 30
0.0
 10
595.3078489722668
 20
1503.008860572598
 30
0.0
 10
595.3078489722668
 20
1503.008860572598
 30
0.0
 10
595.3078489722668
 20
1503.008860572598
 30
0.0
 10
595.3078489722668
 20
1512.608963651796
 30
0.0
 10
595.3078489722668
 20
1512.608963651796
 30
0.0
 10
595.3078489722668
 20
1512.608963651796
 30
0.0
 10
589.2176091734422
 20
1512.858733074476
 30
0.0
 10
589.2176091734422
 20
1512.858733074476
 30
0.0
 10
589.2176091734422
 20
1512.858733074476
 30
0.0
 10
589.2176091734422
 20
1514.334611980357
 30
0.0
 10
589.2176091734422
 20
1514.334611980357
 30
0.0
 10
589.2176091734422
 20
1514.334611980357
 30
0.0
 10
583.8597966747816
 20
1514.334611980357
 30
0.0
 10
583.8597966747816
 20
1514.334611980357
 30
0.0
 10
583.8597966747816
 20
1514.334611980357
 30
0.0
 10
583.7430079378316
 20
1514.334611980357
 30
0.0
 10
583.7430079378316
 20
1514.334611980357
 30
0.0
 10
583.7430079378316
 20
1514.334611980357
 30
0.0
 10
583.6785846522574
 20
1514.334611980357
 30
0.0
 10
583.6785846522574
 20
1514.334611980357
 30
0.0
 10
583.6785846522574
 20
1514.334611980357
 30
0.0
 10
583.7430079378316
 20
1514.334611980357
 30
0.0
 10
583.7430079378316
 20
1514.334611980357
 30
0.0
 10
581.3248954167348
 20
1514.348736871847
 30
0.0
 10
578.9116060293172
 20
1515.275123047831
 30
0.0
 10
577.066757396966
 20
1517.12031618973
 30
0.0
 10
573.5320894290996
 20
1520.654639648048
 30
0.0
 10
573.3591456357401
 20
1526.275312932233
 30
0.0
 10
576.5424138641109
 20
1530.01772015786
 30
0.0
 10
576.5424138641109
 20
1530.01772015786
 30
0.0
 10
576.3257173580887
 20
1535.299051536748
 30
0.0
 10
576.3257173580887
 20
1535.299051536748
 30
0.0
 10
576.3257173580887
 20
1535.299051536748
 30
0.0
 10
566.725269769343
 20
1535.299223791523
 30
0.0
 10
566.725269769343
 20
1535.299223791523
 30
0.0
 10
566.725269769343
 20
1535.299223791523
 30
0.0
 10
566.4751558371139
 20
1529.208983992698
 30
0.0
 10
566.4751558371139
 20
1529.208983992698
 30
0.0
 10
566.4751558371139
 20
1529.208983992698
 30
0.0
 10
548.4235445135017
 20
1529.208983992698
 30
0.0
 10
548.4235445135017
 20
1529.208983992698
 30
0.0
 10
548.4235445135017
 20
1529.208983992698
 30
0.0
 10
547.9243501776891
 20
1529.208983992698
 30
0.0
 10
547.9243501776891
 20
1529.208983992698
 30
0.0
 10
547.9243501776891
 20
1529.208983992698
 30
0.0
 10
547.9243501776891
 20
1522.191668998792
 30
0.0
 10
547.9243501776891
 20
1522.191668998792
 30
0.0
 10
547.9243501776891
 20
1522.191668998792
 30
0.0
 10
549.3237479637976
 20
1522.191668998792
 30
0.0
 10
549.3237479637976
 20
1522.191668998792
 30
0.0
 10
549.3237479637976
 20
1522.191668998792
 30
0.0
 10
549.3237479637976
 20
1519.991631021912
 30
0.0
 10
549.3237479637976
 20
1519.991631021912
 30
0.0
 10
549.3237479637976
 20
1519.991631021912
 30
0.0
 10
547.9243501776891
 20
1519.991631021912
 30
0.0
 10
547.9243501776891
 20
1519.991631021912
 30
0.0
 10
547.9243501776891
 20
1519.991631021912
 30
0.0
 10
547.9243501776891
 20
1518.548480523141
 30
0.0
 10
547.9243501776891
 20
1518.548480523141
 30
0.0
 10
547.9243501776891
 20
1518.548480523141
 30
0.0
 10
545.1231430386324
 20
1518.548480523141
 30
0.0
 10
545.1231430386324
 20
1518.548480523141
 30
0.0
 10
545.1231430386324
 20
1518.548480523141
 30
0.0
 10
545.1231430386324
 20
1519.991631021912
 30
0.0
 10
545.1231430386324
 20
1519.991631021912
 30
0.0
 10
545.1231430386324
 20
1519.991631021912
 30
0.0
 10
543.7230562334269
 20
1519.991631021912
 30
0.0
 10
543.7230562334269
 20
1519.991631021912
 30
0.0
 10
543.7230562334269
 20
1519.991631021912
 30
0.0
 10
543.7230562334269
 20
1522.191668998792
 30
0.0
 10
543.7230562334269
 20
1522.191668998792
 30
0.0
 10
543.7230562334269
 20
1522.191668998792
 30
0.0
 10
545.1231430386324
 20
1522.191668998792
 30
0.0
 10
545.1231430386324
 20
1522.191668998792
 30
0.0
 10
545.1231430386324
 20
1522.191668998792
 30
0.0
 10
545.1231430386324
 20
1529.208983992698
 30
0.0
 10
545.1231430386324
 20
1529.208983992698
 30
0.0
 10
545.1231430386324
 20
1529.208983992698
 30
0.0
 10
544.6232596837227
 20
1529.208983992698
 30
0.0
 10
544.6232596837227
 20
1529.208983992698
 30
0.0
 10
544.6232596837227
 20
1529.208983992698
 30
0.0
 10
526.571303850562
 20
1529.208983992698
 30
0.0
 10
526.571303850562
 20
1529.208983992698
 30
0.0
 10
526.571303850562
 20
1529.208983992698
 30
0.0
 10
526.321189918333
 20
1535.299223791523
 30
0.0
 10
526.321189918333
 20
1535.299223791523
 30
0.0
 10
526.321189918333
 20
1535.299223791523
 30
0.0
 10
516.7217758582327
 20
1535.299223791523
 30
0.0
 10
516.7217758582327
 20
1535.299223791523
 30
0.0
 10
516.7217758582327
 20
1535.299223791523
 30
0.0
 10
516.4716619260037
 20
1529.208983992698
 30
0.0
 10
516.4716619260037
 20
1529.208983992698
 30
0.0
 10
516.4716619260037
 20
1529.208983992698
 30
0.0
 10
450.4812024155916
 20
1529.208983992698
 30
0.0
 10
450.4812024155916
 20
1529.208983992698
 30
0.0
 10
450.4812024155916
 20
1529.208983992698
 30
0.0
 10
450.2310884833624
 20
1535.299223791523
 30
0.0
 10
450.2310884833624
 20
1535.299223791523
 30
0.0
 10
450.2310884833624
 20
1535.299223791523
 30
0.0
 10
440.6306408946166
 20
1535.299223791523
 30
0.0
 10
440.6306408946166
 20
1535.299223791523
 30
0.0
 10
440.6306408946166
 20
1535.299223791523
 30
0.0
 10
440.3805269623875
 20
1529.208983992698
 30
0.0
 10
440.3805269623875
 20
1529.208983992698
 30
0.0
 10
440.3805269623875
 20
1529.208983992698
 30
0.0
 10
422.3475191543958
 20
1529.208983992698
 30
0.0
 10
422.3475191543958
 20
1529.208983992698
 30
0.0
 10
422.3475191543958
 20
1529.208983992698
 30
0.0
 10
421.8486693281316
 20
1529.208983992698
 30
0.0
 10
421.8486693281316
 20
1529.208983992698
 30
0.0
 10
421.8486693281316
 20
1529.208983992698
 30
0.0
 10
421.8486693281316
 20
1522.191668998792
 30
0.0
 10
421.8486693281316
 20
1522.191668998792
 30
0.0
 10
421.8486693281316
 20
1522.191668998792
 30
0.0
 10
423.2480671142401
 20
1522.191668998792
 30
0.0
 10
423.2480671142401
 20
1522.191668998792
 30
0.0
 10
423.2480671142401
 20
1522.191668998792
 30
0.0
 10
423.2480671142401
 20
1519.991631021912
 30
0.0
 10
423.2480671142401
 20
1519.991631021912
 30
0.0
 10
423.2480671142401
 20
1519.991631021912
 30
0.0
 10
421.8486693281316
 20
1519.991631021912
 30
0.0
 10
421.8486693281316
 20
1519.991631021912
 30
0.0
 10
421.8486693281316
 20
1519.991631021912
 30
0.0
 10
421.8486693281316
 20
1518.548480523141
 30
0.0
 10
421.8486693281316
 20
1518.548480523141
 30
0.0
 10
421.8486693281316
 20
1518.548480523141
 30
0.0
 10
419.0478066986235
 20
1518.548480523141
 30
0.0
 10
419.0478066986235
 20
1518.548480523141
 30
0.0
 10
419.0478066986235
 20
1518.548480523141
 30
0.0
 10
419.0478066986235
 20
1519.991631021912
 30
0.0
 10
419.0478066986235
 20
1519.991631021912
 30
0.0
 10
419.0478066986235
 20
1519.991631021912
 30
0.0
 10
417.647719893418
 20
1519.991631021912
 30
0.0
 10
417.647719893418
 20
1519.991631021912
 30
0.0
 10
417.647719893418
 20
1519.991631021912
 30
0.0
 10
417.647719893418
 20
1522.191668998792
 30
0.0
 10
417.647719893418
 20
1522.191668998792
 30
0.0
 10
417.647719893418
 20
1522.191668998792
 30
0.0
 10
419.0478066986235
 20
1522.191668998792
 30
0.0
 10
419.0478066986235
 20
1522.191668998792
 30
0.0
 10
419.0478066986235
 20
1522.191668998792
 30
0.0
 10
419.0478066986235
 20
1529.208983992698
 30
0.0
 10
419.0478066986235
 20
1529.208983992698
 30
0.0
 10
419.0478066986235
 20
1529.208983992698
 30
0.0
 10
418.5468898150681
 20
1529.208983992698
 30
0.0
 10
418.5468898150681
 20
1529.208983992698
 30
0.0
 10
418.5468898150681
 20
1529.208983992698
 30
0.0
 10
400.4821871286121
 20
1529.208983992698
 30
0.0
 10
400.4821871286121
 20
1529.208983992698
 30
0.0
 10
400.4821871286121
 20
1529.208983992698
 30
0.0
 10
400.232073196383
 20
1535.299223791523
 30
0.0
 10
400.232073196383
 20
1535.299223791523
 30
0.0
 10
400.232073196383
 20
1535.299223791523
 30
0.0
 10
390.6326591362828
 20
1535.299223791523
 30
0.0
 10
390.6326591362828
 20
1535.299223791523
 30
0.0
 10
390.6326591362828
 20
1535.299223791523
 30
0.0
 10
390.3825452040537
 20
1529.208983992698
 30
0.0
 10
390.3825452040537
 20
1529.208983992698
 30
0.0
 10
390.3825452040537
 20
1529.208983992698
 30
0.0
 10
324.3860567765424
 20
1529.208983992698
 30
0.0
 10
324.3860567765424
 20
1529.208983992698
 30
0.0
 10
324.3860567765424
 20
1529.208983992698
 30
0.0
 10
324.1359428443133
 20
1535.299223791523
 30
0.0
 10
324.1359428443133
 20
1535.299223791523
 30
0.0
 10
324.1359428443133
 20
1535.299223791523
 30
0.0
 10
314.5358397651161
 20
1535.299223791523
 30
0.0
 10
314.5358397651161
 20
1535.299223791523
 30
0.0
 10
314.5358397651161
 20
1535.299223791523
 30
0.0
 10
314.2857258328869
 20
1529.208983992698
 30
0.0
 10
314.2857258328869
 20
1529.208983992698
 30
0.0
 10
314.2857258328869
 20
1529.208983992698
 30
0.0
 10
296.2706325214185
 20
1529.208983992698
 30
0.0
 10
296.2706325214185
 20
1529.208983992698
 30
0.0
 10
296.2706325214185
 20
1529.208983992698
 30
0.0
 10
295.7710936760573
 20
1529.208983992698
 30
0.0
 10
295.7710936760573
 20
1529.208983992698
 30
0.0
 10
295.7710936760573
 20
1529.208983992698
 30
0.0
 10
295.7710936760573
 20
1522.191668998792
 30
0.0
 10
295.7710936760573
 20
1522.191668998792
 30
0.0
 10
295.7710936760573
 20
1522.191668998792
 30
0.0
 10
297.1704914621657
 20
1522.191668998792
 30
0.0
 10
297.1704914621657
 20
1522.191668998792
 30
0.0
 10
297.1704914621657
 20
1522.191668998792
 30
0.0
 10
297.1704914621657
 20
1519.991631021912
 30
0.0
 10
297.1704914621657
 20
1519.991631021912
 30
0.0
 10
297.1704914621657
 20
1519.991631021912
 30
0.0
 10
295.7710936760573
 20
1519.991631021912
 30
0.0
 10
295.7710936760573
 20
1519.991631021912
 30
0.0
 10
295.7710936760573
 20
1519.991631021912
 30
0.0
 10
295.7710936760573
 20
1518.548480523141
 30
0.0
 10
295.7710936760573
 20
1518.548480523141
 30
0.0
 10
295.7710936760573
 20
1518.548480523141
 30
0.0
 10
292.9702310465491
 20
1518.548480523141
 30
0.0
 10
292.9702310465491
 20
1518.548480523141
 30
0.0
 10
292.9702310465491
 20
1518.548480523141
 30
0.0
 10
292.9702310465491
 20
1519.991631021912
 30
0.0
 10
292.9702310465491
 20
1519.991631021912
 30
0.0
 10
292.9702310465491
 20
1519.991631021912
 30
0.0
 10
291.5701442413436
 20
1519.991631021912
 30
0.0
 10
291.5701442413436
 20
1519.991631021912
 30
0.0
 10
291.5701442413436
 20
1519.991631021912
 30
0.0
 10
291.5701442413436
 20
1522.191668998792
 30
0.0
 10
291.5701442413436
 20
1522.191668998792
 30
0.0
 10
291.5701442413436
 20
1522.191668998792
 30
0.0
 10
292.9702310465491
 20
1522.191668998792
 30
0.0
 10
292.9702310465491
 20
1522.191668998792
 30
0.0
 10
292.9702310465491
 20
1522.191668998792
 30
0.0
 10
292.9702310465491
 20
1529.208983992698
 30
0.0
 10
292.9702310465491
 20
1529.208983992698
 30
0.0
 10
292.9702310465491
 20
1529.208983992698
 30
0.0
 10
292.4700031820909
 20
1529.208983992698
 30
0.0
 10
292.4700031820909
 20
1529.208983992698
 30
0.0
 10
292.4700031820909
 20
1529.208983992698
 30
0.0
 10
274.3715385598794
 20
1529.208983992698
 30
0.0
 10
274.3715385598794
 20
1529.208983992698
 30
0.0
 10
274.3715385598794
 20
1529.208983992698
 30
0.0
 10
274.1214246276502
 20
1535.299223791523
 30
0.0
 10
274.1214246276502
 20
1535.299223791523
 30
0.0
 10
274.1214246276502
 20
1535.299223791523
 30
0.0
 10
264.5226995866471
 20
1535.299223791523
 30
0.0
 10
264.5226995866471
 20
1535.299223791523
 30
0.0
 10
264.5226995866471
 20
1535.299223791523
 30
0.0
 10
264.272585654418
 20
1529.208983992698
 30
0.0
 10
264.272585654418
 20
1529.208983992698
 30
0.0
 10
264.272585654418
 20
1529.208983992698
 30
0.0
 10
264.2629393870593
 20
1529.208983992698
 30
0.0
 10
264.2629393870593
 20
1529.208983992698
 30
0.0
 10
264.2629393870593
 20
1529.208983992698
 30
0.0
 10
264.2629393870593
 20
1519.628862467315
 30
0.0
 10
264.2629393870593
 20
1519.628862467315
 30
0.0
 10
264.2629393870593
 20
1517.972116048458
 30
0.0
 10
262.9200411669089
 20
1516.62887331876
 30
0.0
 10
261.2629502385037
 20
1516.62887331876
 30
0.0
 10
261.2629502385037
 20
1516.62887331876
 30
0.0
 10
251.6945420377708
 20
1516.62887331876
 30
0.0
 10
251.6945420377708
 20
1516.62887331876
 30
0.0
 10
251.6945420377708
 20
1516.62887331876
 30
0.0
 10
251.6945420377708
 20
1516.358777832716
 30
0.0
 10
251.6945420377708
 20
1516.358777832716
 30
0.0
 10
251.6945420377708
 20
1516.358777832716
 30
0.0
 10
251.697298114159
 20
1512.877164335323
 30
0.0
 10
251.697298114159
 20
1512.877164335323
 30
0.0
 10
251.697298114159
 20
1512.877164335323
 30
0.0
 10
245.5863877424229
 20
1512.627050403093
 30
0.0
 10
245.5863877424229
 20
1512.627050403093
 30
0.0
 10
245.5863877424229
 20
1512.627050403093
 30
0.0
 10
245.5863877424229
 20
1503.026947323896
 30
0.0
 10
245.5863877424229
 20
1503.026947323896
 30
0.0
 10
245.5863877424229
 20
1503.026947323896
 30
0.0
 10
251.6766275412475
 20
1502.776833391667
 30
0.0
 10
251.6766275412475
 20
1502.776833391667
 30
0.0
 10
251.6766275412475
 20
1502.776833391667
 30
0.0
 10
251.6766275412475
 20
1484.749337736452
 30
0.0
 10
251.6766275412475
 20
1484.749337736452
 30
0.0
 10
251.6766275412475
 20
1484.749337736452
 30
0.0
 10
251.6766275412475
 20
1484.253243986576
 30
0.0
 10
251.6766275412475
 20
1484.253243986576
 30
0.0
 10
251.6766275412475
 20
1484.253243986576
 30
0.0
 10
258.6942870447015
 20
1484.253243986576
 30
0.0
 10
258.6942870447015
 20
1484.253243986576
 30
0.0
 10
258.6942870447015
 20
1484.253243986576
 30
0.0
 10
258.6942870447015
 20
1485.652641772684
 30
0.0
 10
258.6942870447015
 20
1485.652641772684
 30
0.0
 10
258.6942870447015
 20
1485.652641772684
 30
0.0
 10
260.894325021582
 20
1485.652641772684
 30
0.0
 10
260.894325021582
 20
1485.652641772684
 30
0.0
 10
260.894325021582
 20
1485.652641772684
 30
0.0
 10
260.894325021582
 20
1484.253243986576
 30
0.0
 10
260.894325021582
 20
1484.253243986576
 30
0.0
 10
260.894325021582
 20
1484.253243986576
 30
0.0
 10
262.3371310108046
 20
1484.253243986576
 30
0.0
 10
262.3371310108046
 20
1484.253243986576
 30
0.0
 10
262.3371310108046
 20
1484.253243986576
 30
0.0
 10
262.3371310108046
 20
1481.452381357067
 30
0.0
 10
262.3371310108046
 20
1481.452381357067
 30
0.0
 10
262.3371310108046
 20
1481.452381357067
 30
0.0
 10
260.894325021582
 20
1481.452381357067
 30
0.0
 10
260.894325021582
 20
1481.452381357067
 30
0.0
 10
260.894325021582
 20
1481.452381357067
 30
0.0
 10
260.894325021582
 20
1480.052294551862
 30
0.0
 10
260.894325021582
 20
1480.052294551862
 30
0.0
 10
260.894325021582
 20
1480.052294551862
 30
0.0
 10
258.6942870447015
 20
1480.052294551862
 30
0.0
 10
258.6942870447015
 20
1480.052294551862
 30
0.0
 10
258.6942870447015
 20
1480.052294551862
 30
0.0
 10
258.6942870447015
 20
1481.452381357067
 30
0.0
 10
258.6942870447015
 20
1481.452381357067
 30
0.0
 10
258.6942870447015
 20
1481.452381357067
 30
0.0
 10
251.6766275412475
 20
1481.452381357067
 30
0.0
 10
251.6766275412475
 20
1481.452381357067
 30
0.0
 10
251.6766275412475
 20
1481.452381357067
 30
0.0
 10
251.6766275412475
 20
1480.948708397124
 30
0.0
 10
251.6766275412475
 20
1480.948708397124
 30
0.0
 10
251.6766275412475
 20
1480.948708397124
 30
0.0
 10
251.6766275412475
 20
1462.872636895567
 30
0.0
 10
251.6766275412475
 20
1462.872636895567
 30
0.0
 10
251.6766275412475
 20
1462.872636895567
 30
0.0
 10
245.5863877424229
 20
1462.622522963338
 30
0.0
 10
245.5863877424229
 20
1462.622522963338
 30
0.0
 10
245.5863877424229
 20
1462.622522963338
 30
0.0
 10
245.5863877424229
 20
1453.023281158012
 30
0.0
 10
245.5863877424229
 20
1453.023281158012
 30
0.0
 10
245.5863877424229
 20
1453.023281158012
 30
0.0
 10
251.6766275412475
 20
1452.773339480557
 30
0.0
 10
251.6766275412475
 20
1452.773339480557
 30
0.0
 10
251.6766275412475
 20
1452.773339480557
 30
0.0
 10
251.6766275412475
 20
1400.158807701176
 30
0.0
 10
251.6766275412475
 20
1400.158807701176
 30
0.0
 10
251.6766275412475
 20
1400.158807701176
 30
0.0
 10
251.5806816319833
 20
1400.158807701176
 30
0.0
 10
251.5806816319833
 20
1400.158807701176
 30
0.0
 10
258.2081840717327
 20
1400.158807701176
 30
0.0
 10
263.5806382262056
 20
1394.786181291928
 30
0.0
 10
263.5806382262056
 20
1388.158851106953
 30
0.0
 10
263.5806382262056
 20
1388.158851106953
 30
0.0
 10
263.5806382262056
 20
1344.098835926996
 30
0.0
 10
263.5806382262056
 20
1344.098835926996
 30
0.0
 10
263.5806382262056
 20
1337.471505742021
 30
0.0
 10
258.2081840717327
 20
1332.098879332774
 30
0.0
 10
251.5806816319833
 20
1332.098879332774
 30
0.0
 10
251.5806816319833
 20
1332.098879332774
 30
0.0
 10
251.6766275412475
 20
1332.098879332774
 30
0.0
 10
251.6766275412475
 20
1332.098879332774
 30
0.0
  0
INSERT
  5
64
330
1F
100
AcDbEntity
  8
Layer 13
100
AcDbBlockReference
  2
block 2
 10
0.0
 20
0.0
 30
0.0
  0
INSERT
  5
79
330
1F
100
AcDbEntity
  8
HIDE
100
AcDbBlockReference
  2
block 5
 10
0.0
 20
0.0
 30
0.0
  0
POLYLINE
  5
8C
330
1F
100
AcDbEntity
  8
Layer 19
370
     0
100
AcDb2dPolyline
 66
     1
 10
0.0
 20
0.0
 30
0.0
  0
VERTEX
  5
8D
330
8C
100
AcDbEntity
  8
Layer 19
370
     0
100
AcDbVertex
100
AcDb2dVertex
 10
242.4499728126514
 20
1272.19797060209
 30
0.0
  0
VERTEX
  5
8E
330
8C
100
AcDbEntity
  8
Layer 19
370
     0
100
AcDbVertex
100
AcDb2dVertex
 10
242.4499728126514
 20
1273.154673618343
 30
0.0
  0
SEQEND
  5
8F
330
8C
100
AcDbEntity
  8
Layer 19
370
     0
  0
ENDSEC
  0
SECTION
  2
OBJECTS
  0
DICTIONARY
  5
C
330
0
100
AcDbDictionary
281
     1
  3
ACAD_GROUP
350
D
  3
ACAD_LAYOUT
350
1A
  3
ACAD_MLINESTYLE
350
17
  3
ACAD_PLOTSETTINGS
350
19
  3
ACAD_PLOTSTYLENAME
350
E
  3
ACAD_TABLESTYLE
350
90
  3
ACAD_VISUALSTYLE
350
2A
  0
DICTIONARY
  5
D
102
{ACAD_REACTORS
330
C
102
}
330
C
100
AcDbDictionary
281
     1
  0
DICTIONARY
  5
1A
102
{ACAD_REACTORS
330
C
102
}
330
C
100
AcDbDictionary
281
     1
  3
Layout1
350
1E
  3
Layout2
350
26
  3
Model
350
22
  0
DICTIONARY
  5
17
102
{ACAD_REACTORS
330
C
102
}
330
C
100
AcDbDictionary
281
     1
  3
Standard
350
18
  0
DICTIONARY
  5
19
102
{ACAD_REACTORS
330
C
102
}
330
C
100
AcDbDictionary
281
     1
  0
ACDBDICTIONARYWDFLT
  5
E
102
{ACAD_REACTORS
330
C
102
}
330
C
100
AcDbDictionary
281
     1
  3
Normal
350
F
100
AcDbDictionaryWithDefault
340
F
  0
DICTIONARY
  5
90
102
{ACAD_REACTORS
330
C
102
}
330
C
100
AcDbDictionary
281
     1
  0
DICTIONARY
  5
2A
102
{ACAD_REACTORS
330
C
102
}
330
C
100
AcDbDictionary
281
     1
  3
2dWireframe
350
2F
  3
3D Hidden
350
31
  3
3dWireframe
350
30
  3
Basic
350
32
  3
Brighten
350
36
  3
ColorChange
350
3A
  3
Conceptual
350
34
  3
Dim
350
35
  3
Facepattern
350
39
  3
Flat
350
2B
  3
FlatWithEdges
350
2C
  3
Gouraud
350
2D
  3
GouraudWithEdges
350
2E
  3
Linepattern
350
38
  3
Realistic
350
33
  3
Thicken
350
37
  0
LAYOUT
  5
1E
102
{ACAD_REACTORS
330
1A
102
}
330
1A
100
AcDbPlotSettings
  1

  2
none_device
  4

  6

 40
0.0
 41
0.0
 42
0.0
 43
0.0
 44
0.0
 45
0.0
 46
0.0
 47
0.0
 48
0.0
 49
0.0
140
0.0
141
0.0
142
1.0
143
1.0
 70
   688
 72
     0
 73
     0
 74
     5
  7

 75
    16
 76
     0
 77
     2
 78
   300
147
1.0
148
0.0
149
0.0
100
AcDbLayout
  1
Layout1
 70
     1
 71
     1
 10
0.0
 20
0.0
 11
12.0
 21
9.0
 12
0.0
 22
0.0
 32
0.0
 14
1.000000000000000E+20
 24
1.000000000000000E+20
 34
1.000000000000000E+20
 15
-1.000000000000000E+20
 25
-1.000000000000000E+20
 35
-1.000000000000000E+20
146
0.0
 13
0.0
 23
0.0
 33
0.0
 16
1.0
 26
0.0
 36
0.0
 17
0.0
 27
1.0
 37
0.0
 76
     0
330
1B
  0
LAYOUT
  5
26
102
{ACAD_REACTORS
330
1A
102
}
330
1A
100
AcDbPlotSettings
  1

  2
none_device
  4

  6

 40
0.0
 41
0.0
 42
0.0
 43
0.0
 44
0.0
 45
0.0
 46
0.0
 47
0.0
 48
0.0
 49
0.0
140
0.0
141
0.0
142
1.0
143
1.0
 70
   688
 72
     0
 73
     0
 74
     5
  7

 75
    16
 76
     0
 77
     2
 78
   300
147
1.0
148
0.0
149
0.0
100
AcDbLayout
  1
Layout2
 70
     1
 71
     2
 10
0.0
 20
0.0
 11
0.0
 21
0.0
 12
0.0
 22
0.0
 32
0.0
 14
0.0
 24
0.0
 34
0.0
 15
0.0
 25
0.0
 35
0.0
146
0.0
 13
0.0
 23
0.0
 33
0.0
 16
1.0
 26
0.0
 36
0.0
 17
0.0
 27
1.0
 37
0.0
 76
     0
330
23
  0
LAYOUT
  5
22
102
{ACAD_REACTORS
330
1A
102
}
330
1A
100
AcDbPlotSettings
  1

  2
none_device
  4

  6

 40
0.0
 41
0.0
 42
0.0
 43
0.0
 44
0.0
 45
0.0
 46
0.0
 47
0.0
 48
0.0
 49
0.0
140
0.0
141
0.0
142
1.0
143
1.0
 70
  1712
 72
     0
 73
     0
 74
     0
  7

 75
     0
 76
     0
 77
     2
 78
   300
147
1.0
148
0.0
149
0.0
100
AcDbLayout
  1
Model
 70
     1
 71
     0
 10
0.0
 20
0.0
 11
12.0
 21
9.0
 12
0.0
 22
0.0
 32
0.0
 14
1.000000000000000E+20
 24
1.000000000000000E+20
 34
1.000000000000000E+20
 15
-1.000000000000000E+20
 25
-1.000000000000000E+20
 35
-1.000000000000000E+20
146
0.0
 13
0.0
 23
0.0
 33
0.0
 16
1.0
 26
0.0
 36
0.0
 17
0.0
 27
1.0
 37
0.0
 76
     0
330
1F
331
29
  0
MLINESTYLE
  5
18
102
{ACAD_REACTORS
330
17
102
}
330
17
100
AcDbMlineStyle
  2
Standard
 70
     0
  3

 62
   256
 51
90.0
 52
90.0
 71
     2
 49
0.5
 62
   256
  6
BYLAYER
 49
-0.5
 62
   256
  6
BYLAYER
  0
ACDBPLACEHOLDER
  5
F
102
{ACAD_REACTORS
330
E
102
}
330
E
  0
VISUALSTYLE
  5
2F
102
{ACAD_REACTORS
330
2A
102
}
330
2A
100
AcDbVisualStyle
  2
2dWireframe
 70
     4
 71
     0
 72
     2
 73
     0
 90
        0
 40
-0.6
 41
-30.0
 62
     5
 63
     7
421
 16777215
 74
     1
 91
        4
 64
     7
 65
   257
 75
     1
175
     1
 42
1.0
 92
        0
 66
   257
 43
1.0
 76
     1
 77
     6
 78
     2
 67
     7
 79
     5
170
     0
171
     0
290
     0
174
     0
 93
        1
 44
0.0
173
     0
291
     0
 45
0.0
1001
ACAD
1000
AcDbSavedByObjectVersion
1070
     0
  0
VISUALSTYLE
  5
31
102
{ACAD_REACTORS
330
2A
102
}
330
2A
100
AcDbVisualStyle
  2
3D Hidden
 70
     6
 71
     1
 72
     2
 73
     2
 90
        0
 40
-0.6
 41
-30.0
 62
     5
 63
     7
421
 16777215
 74
     2
 91
        2
 64
     7
 65
   257
 75
     2
175
     1
 42
40.0
 92
        0
 66
   257
 43
1.0
 76
     1
 77
     6
 78
     2
 67
     7
 79
     3
170
     0
171
     0
290
     0
174
     0
 93
        1
 44
0.0
173
     0
291
     0
 45
0.0
1001
ACAD
1000
AcDbSavedByObjectVersion
1070
     0
  0
VISUALSTYLE
  5
30
102
{ACAD_REACTORS
330
2A
102
}
330
2A
100
AcDbVisualStyle
  2
3dWireframe
 70
     5
 71
     0
 72
     2
 73
     0
 90
        0
 40
-0.6
 41
-30.0
 62
     5
 63
     7
421
 16777215
 74
     1
 91
        4
 64
     7
 65
   257
 75
     1
175
     1
 42
1.0
 92
        0
 66
   257
 43
1.0
 76
     1
 77
     6
 78
     2
 67
     7
 79
     5
170
     0
171
     0
290
     0
174
     0
 93
        1
 44
0.0
173
     0
291
     0
 45
0.0
1001
ACAD
1000
AcDbSavedByObjectVersion
1070
     0
  0
VISUALSTYLE
  5
32
102
{ACAD_REACTORS
330
2A
102
}
330
2A
100
AcDbVisualStyle
  2
Basic
 70
     7
 71
     1
 72
     0
 73
     1
 90
        0
 40
-0.6
 41
-30.0
 62
     5
 63
     7
421
 16777215
 74
     0
 91
        4
 64
     7
 65
   257
 75
     1
175
     1
 42
1.0
 92
        8
 66
     7
 43
1.0
 76
     1
 77
     6
 78
     2
 67
     7
 79
     5
170
     0
171
     0
290
     0
174
     0
 93
        1
 44
0.0
173
     0
291
     1
 45
0.0
1001
ACAD
1000
AcDbSavedByObjectVersion
1070
     0
  0
VISUALSTYLE
  5
36
102
{ACAD_REACTORS
330
2A
102
}
330
2A
100
AcDbVisualStyle
  2
Brighten
 70
    12
 71
     2
 72
     2
 73
     0
 90
        0
 40
-0.6
 41
-30.0
 62
     5
 63
     7
421
 16777215
 74
     1
 91
        4
 64
     7
 65
   257
 75
     1
175
     1
 42
1.0
 92
        8
 66
     7
 43
1.0
 76
     1
 77
     6
 78
     2
 67
     7
 79
     5
170
     0
171
     0
290
     0
174
     0
 93
        1
 44
50.0
173
     0
291
     1
 45
0.0
1001
ACAD
1000
AcDbSavedByObjectVersion
1070
     0
  0
VISUALSTYLE
  5
3A
102
{ACAD_REACTORS
330
2A
102
}
330
2A
100
AcDbVisualStyle
  2
ColorChange
 70
    16
 71
     2
 72
     2
 73
     3
 90
        0
 40
-0.6
 41
-30.0
 62
     5
 63
     8
421
  8421504
 74
     1
 91
        4
 64
     7
 65
   257
 75
     1
175
     1
 42
1.0
 92
        8
 66
     8
424
  8421504
 43
1.0
 76
     1
 77
     6
 78
     2
 67
     7
 79
     5
170
     0
171
     0
290
     0
174
     0
 93
        1
 44
0.0
173
     0
291
     1
 45
0.0
1001
ACAD
1000
AcDbSavedByObjectVersion
1070
     0
  0
VISUALSTYLE
  5
34
102
{ACAD_REACTORS
330
2A
102
}
330
2A
100
AcDbVisualStyle
  2
Conceptual
 70
     9
 71
     3
 72
     2
 73
     0
 90
        0
 40
-0.6
 41
-30.0
 62
     5
 63
     7
421
 16777215
 74
     2
 91
        2
 64
     7
 65
   257
 75
     1
175
     1
 42
40.0
 92
        8
 66
     7
 43
1.0
 76
     1
 77
     6
 78
     2
 67
     7
 79
     3
170
     0
171
     0
290
     0
174
     0
 93
        1
 44
0.0
173
     0
291
     0
 45
0.0
1001
ACAD
1000
AcDbSavedByObjectVersion
1070
     0
  0
VISUALSTYLE
  5
35
102
{ACAD_REACTORS
330
2A
102
}
330
2A
100
AcDbVisualStyle
  2
Dim
 70
    11
 71
     2
 72
     2
 73
     0
 90
        0
 40
-0.6
 41
-30.0
 62
     5
 63
     7
421
 16777215
 74
     1
 91
        4
 64
     7
 65
   257
 75
     1
175
     1
 42
1.0
 92
        8
 66
     7
 43
1.0
 76
     1
 77
     6
 78
     2
 67
     7
 79
     5
170
     0
171
     0
290
     0
174
     0
 93
        1
 44
-50.0
173
     0
291
     1
 45
0.0
1001
ACAD
1000
AcDbSavedByObjectVersion
1070
     0
  0
VISUALSTYLE
  5
39
102
{ACAD_REACTORS
330
2A
102
}
330
2A
100
AcDbVisualStyle
  2
Facepattern
 70
    15
 71
     2
 72
     2
 73
     0
 90
        0
 40
-0.6
 41
-30.0
 62
     5
 63
     7
421
 16777215
 74
     1
 91
        4
 64
     7
 65
   257
 75
     1
175
     1
 42
1.0
 92
        8
 66
     7
 43
1.0
 76
     1
 77
     6
 78
     2
 67
     7
 79
     5
170
     0
171
     0
290
     0
174
     0
 93
        1
 44
0.0
173
     0
291
     1
 45
0.0
1001
ACAD
1000
AcDbSavedByObjectVersion
1070
     0
  0
VISUALSTYLE
  5
2B
102
{ACAD_REACTORS
330
2A
102
}
330
2A
100
AcDbVisualStyle
  2
Flat
 70
     0
 71
     2
 72
     1
 73
     1
 90
        2
 40
-0.6
 41
30.0
 62
     5
 63
     7
421
 16777215
 74
     0
 91
        4
 64
     7
 65
   257
 75
     1
175
     1
 42
1.0
 92
        8
 66
     7
 43
1.0
 76
     1
 77
     6
 78
     2
 67
     7
 79
     5
170
     0
171
     0
290
     0
174
     0
 93
       13
 44
0.0
173
     0
291
     1
 45
0.0
1001
ACAD
1000
AcDbSavedByObjectVersion
1070
     0
  0
VISUALSTYLE
  5
2C
102
{ACAD_REACTORS
330
2A
102
}
330
2A
100
AcDbVisualStyle
  2
FlatWithEdges
 70
     1
 71
     2
 72
     1
 73
     1
 90
        2
 40
-0.6
 41
30.0
 62
     5
 63
     7
421
 16777215
 74
     1
 91
        4
 64
     7
 65
   257
 75
     1
175
     1
 42
1.0
 92
        0
 66
   257
 43
1.0
 76
     1
 77
     6
 78
     2
 67
     7
 79
     5
170
     0
171
     0
290
     0
174
     0
 93
       13
 44
0.0
173
     0
291
     1
 45
0.0
1001
ACAD
1000
AcDbSavedByObjectVersion
1070
     0
  0
VISUALSTYLE
  5
2D
102
{ACAD_REACTORS
330
2A
102
}
330
2A
100
AcDbVisualStyle
  2
Gouraud
 70
     2
 71
     2
 72
     2
 73
     1
 90
        2
 40
-0.6
 41
30.0
 62
     5
 63
     7
421
 16777215
 74
     0
 91
        4
 64
     7
 65
   257
 75
     1
175
     1
 42
1.0
 92
        0
 66
     7
 43
1.0
 76
     1
 77
     6
 78
     2
 67
     7
 79
     5
170
     0
171
     0
290
     0
174
     0
 93
       13
 44
0.0
173
     0
291
     1
 45
0.0
1001
ACAD
1000
AcDbSavedByObjectVersion
1070
     0
  0
VISUALSTYLE
  5
2E
102
{ACAD_REACTORS
330
2A
102
}
330
2A
100
AcDbVisualStyle
  2
GouraudWithEdges
 70
     3
 71
     2
 72
     2
 73
     1
 90
        2
 40
-0.6
 41
30.0
 62
     5
 63
     7
421
 16777215
 74
     1
 91
        4
 64
     7
 65
   257
 75
     1
175
     1
 42
1.0
 92
        0
 66
   257
 43
1.0
 76
     1
 77
     6
 78
     2
 67
     7
 79
     5
170
     0
171
     0
290
     0
174
     0
 93
       13
 44
0.0
173
     0
291
     1
 45
0.0
1001
ACAD
1000
AcDbSavedByObjectVersion
1070
     0
  0
VISUALSTYLE
  5
38
102
{ACAD_REACTORS
330
2A
102
}
330
2A
100
AcDbVisualStyle
  2
Linepattern
 70
    14
 71
     2
 72
     2
 73
     0
 90
        0
 40
-0.6
 41
-30.0
 62
     5
 63
     7
421
 16777215
 74
     1
 91
        4
 64
     7
 65
   257
 75
     7
175
     7
 42
1.0
 92
        8
 66
     7
 43
1.0
 76
     1
 77
     6
 78
     2
 67
     7
 79
     5
170
     0
171
     0
290
     0
174
     0
 93
        1
 44
0.0
173
     0
291
     1
 45
0.0
1001
ACAD
1000
AcDbSavedByObjectVersion
1070
     0
  0
VISUALSTYLE
  5
33
102
{ACAD_REACTORS
330
2A
102
}
330
2A
100
AcDbVisualStyle
  2
Realistic
 70
     8
 71
     2
 72
     2
 73
     0
 90
        0
 40
-0.6
 41
-30.0
 62
     5
 63
     7
421
 16777215
 74
     1
 91
        0
 64
     7
 65
   257
 75
     1
175
     1
 42
1.0
 92
        8
 66
     8
424
  7895160
 43
1.0
 76
     1
 77
     6
 78
     2
 67
     7
 79
     5
170
     0
171
     0
290
     0
174
     0
 93
       13
 44
0.0
173
     0
291
     0
 45
0.0
1001
ACAD
1000
AcDbSavedByObjectVersion
1070
     0
  0
VISUALSTYLE
  5
37
102
{ACAD_REACTORS
330
2A
102
}
330
2A
100
AcDbVisualStyle
  2
Thicken
 70
    13
 71
     2
 72
     2
 73
     0
 90
        0
 40
-0.6
 41
-30.0
 62
     5
 63
     7
421
 16777215
 74
     1
 91
        4
 64
     7
 65
   257
 75
     1
175
     1
 42
1.0
 92
       12
 66
     7
 43
1.0
 76
     1
 77
     6
 78
     2
 67
     7
 79
     5
170
     0
171
     0
290
     0
174
     0
 93
        1
 44
0.0
173
     0
291
     1
 45
0.0
1001
ACAD
1000
AcDbSavedByObjectVersion
1070
     0
  0
ENDSEC
  0
EOF
