  0
SECTION
  2
HEADER
  9
$ACADVER
  1
AC1018
  9
$ACADMAINTVER
 70
     0
  9
$DWGCODEPAGE
  3
ANSI_1252
  9
$INSBASE
 10
0.0
 20
0.0
 30
0.0
  9
$EXTMIN
 10
1.000000000000000E+20
 20
1.000000000000000E+20
 30
1.000000000000000E+20
  9
$EXTMAX
 10
-1.000000000000000E+20
 20
-1.000000000000000E+20
 30
-1.000000000000000E+20
  9
$LIMMIN
 10
0.0
 20
0.0
  9
$LIMMAX
 10
12.0
 20
9.0
  9
$ORTHOMODE
 70
     0
  9
$REGENMODE
 70
     1
  9
$FILLMODE
 70
     1
  9
$QTEXTMODE
 70
     0
  9
$MIRRTEXT
 70
     1
  9
$LTSCALE
 40
1.0
  9
$ATTMODE
 70
     1
  9
$TEXTSIZE
 40
0.2
  9
$TRACEWID
 40
0.05
  9
$TEXTSTYLE
  7
Standard
  9
$CLAYER
  8
0
  9
$CELTYPE
  6
ByLayer
  9
$CECOLOR
 62
   256
  9
$CELTSCALE
 40
1.0
  9
$DISPSILH
 70
     0
  9
$DIMSCALE
 40
1.0
  9
$DIMASZ
 40
0.18
  9
$DIMEXO
 40
0.0625
  9
$DIMDLI
 40
0.38
  9
$DIMRND
 40
0.0
  9
$DIMDLE
 40
0.0
  9
$DIMEXE
 40
0.18
  9
$DIMTP
 40
0.0
  9
$DIMTM
 40
0.0
  9
$DIMTXT
 40
0.18
  9
$DIMCEN
 40
0.09
  9
$DIMTSZ
 40
0.0
  9
$DIMTOL
 70
     0
  9
$DIMLIM
 70
     0
  9
$DIMTIH
 70
     1
  9
$DIMTOH
 70
     1
  9
$DIMSE1
 70
     0
  9
$DIMSE2
 70
     0
  9
$DIMTAD
 70
     0
  9
$DIMZIN
 70
     0
  9
$DIMBLK
  1

  9
$DIMASO
 70
     1
  9
$DIMSHO
 70
     1
  9
$DIMPOST
  1

  9
$DIMAPOST
  1

  9
$DIMALT
 70
     0
  9
$DIMALTD
 70
     2
  9
$DIMALTF
 40
25.4
  9
$DIMLFAC
 40
1.0
  9
$DIMTOFL
 70
     0
  9
$DIMTVP
 40
0.0
  9
$DIMTIX
 70
     0
  9
$DIMSOXD
 70
     0
  9
$DIMSAH
 70
     0
  9
$DIMBLK1
  1

  9
$DIMBLK2
  1

  9
$DIMSTYLE
  2
Standard
  9
$DIMCLRD
 70
     0
  9
$DIMCLRE
 70
     0
  9
$DIMCLRT
 70
     0
  9
$DIMTFAC
 40
1.0
  9
$DIMGAP
 40
0.09
  9
$DIMJUST
 70
     0
  9
$DIMSD1
 70
     0
  9
$DIMSD2
 70
     0
  9
$DIMTOLJ
 70
     1
  9
$DIMTZIN
 70
     0
  9
$DIMALTZ
 70
     0
  9
$DIMALTTZ
 70
     0
  9
$DIMUPT
 70
     0
  9
$DIMDEC
 70
     4
  9
$DIMTDEC
 70
     4
  9
$DIMALTU
 70
     2
  9
$DIMALTTD
 70
     2
  9
$DIMTXSTY
  7
Standard
  9
$DIMAUNIT
 70
     0
  9
$DIMADEC
 70
     0
  9
$DIMALTRND
 40
0.0
  9
$DIMAZIN
 70
     0
  9
$DIMDSEP
 70
    46
  9
$DIMATFIT
 70
     3
  9
$DIMFRAC
 70
     0
  9
$DIMLDRBLK
  1

  9
$DIMLUNIT
 70
     2
  9
$DIMLWD
 70
    -2
  9
$DIMLWE
 70
    -2
  9
$DIMTMOVE
 70
     0
  9
$LUNITS
 70
     2
  9
$LUPREC
 70
     4
  9
$SKETCHINC
 40
0.1
  9
$FILLETRAD
 40
0.5
  9
$AUNITS
 70
     0
  9
$AUPREC
 70
     0
  9
$MENU
  1
.
  9
$ELEVATION
 40
0.0
  9
$PELEVATION
 40
0.0
  9
$THICKNESS
 40
0.0
  9
$LIMCHECK
 70
     0
  9
$CHAMFERA
 40
0.5
  9
$CHAMFERB
 40
0.5
  9
$CHAMFERC
 40
1.0
  9
$CHAMFERD
 40
0.0
  9
$SKPOLY
 70
     0
  9
$TDCREATE
 40
2456821.960827963
  9
$TDUCREATE
 40
2456821.877494629
  9
$TDUPDATE
 40
2456821.960827975
  9
$TDUUPDATE
 40
2456821.877494641
  9
$TDINDWG
 40
0.0000000116
  9
$TDUSRTIMER
 40
0.0000000116
  9
$USRTIMER
 70
     1
  9
$ANGBASE
 50
0.0
  9
$ANGDIR
 70
     0
  9
$PDMODE
 70
     0
  9
$PDSIZE
 40
0.0
  9
$PLINEWID
 40
0.0
  9
$SPLFRAME
 70
     0
  9
$SPLINETYPE
 70
     6
  9
$SPLINESEGS
 70
     8
  9
$HANDSEED
  5
D1
  9
$SURFTAB1
 70
     6
  9
$SURFTAB2
 70
     6
  9
$SURFTYPE
 70
     6
  9
$SURFU
 70
     6
  9
$SURFV
 70
     6
  9
$UCSBASE
  2

  9
$UCSNAME
  2

  9
$UCSORG
 10
0.0
 20
0.0
 30
0.0
  9
$UCSXDIR
 10
1.0
 20
0.0
 30
0.0
  9
$UCSYDIR
 10
0.0
 20
1.0
 30
0.0
  9
$UCSORTHOREF
  2

  9
$UCSORTHOVIEW
 70
     0
  9
$UCSORGTOP
 10
0.0
 20
0.0
 30
0.0
  9
$UCSORGBOTTOM
 10
0.0
 20
0.0
 30
0.0
  9
$UCSORGLEFT
 10
0.0
 20
0.0
 30
0.0
  9
$UCSORGRIGHT
 10
0.0
 20
0.0
 30
0.0
  9
$UCSORGFRONT
 10
0.0
 20
0.0
 30
0.0
  9
$UCSORGBACK
 10
0.0
 20
0.0
 30
0.0
  9
$PUCSBASE
  2

  9
$PUCSNAME
  2

  9
$PUCSORG
 10
0.0
 20
0.0
 30
0.0
  9
$PUCSXDIR
 10
1.0
 20
0.0
 30
0.0
  9
$PUCSYDIR
 10
0.0
 20
1.0
 30
0.0
  9
$PUCSORTHOREF
  2

  9
$PUCSORTHOVIEW
 70
     0
  9
$PUCSORGTOP
 10
0.0
 20
0.0
 30
0.0
  9
$PUCSORGBOTTOM
 10
0.0
 20
0.0
 30
0.0
  9
$PUCSORGLEFT
 10
0.0
 20
0.0
 30
0.0
  9
$PUCSORGRIGHT
 10
0.0
 20
0.0
 30
0.0
  9
$PUCSORGFRONT
 10
0.0
 20
0.0
 30
0.0
  9
$PUCSORGBACK
 10
0.0
 20
0.0
 30
0.0
  9
$USERI1
 70
     0
  9
$USERI2
 70
     0
  9
$USERI3
 70
     0
  9
$USERI4
 70
     0
  9
$USERI5
 70
     0
  9
$USERR1
 40
0.0
  9
$USERR2
 40
0.0
  9
$USERR3
 40
0.0
  9
$USERR4
 40
0.0
  9
$USERR5
 40
0.0
  9
$WORLDVIEW
 70
     1
  9
$SHADEDGE
 70
     3
  9
$SHADEDIF
 70
    70
  9
$TILEMODE
 70
     1
  9
$MAXACTVP
 70
    64
  9
$PINSBASE
 10
0.0
 20
0.0
 30
0.0
  9
$PLIMCHECK
 70
     0
  9
$PEXTMIN
 10
1.000000000000000E+20
 20
1.000000000000000E+20
 30
1.000000000000000E+20
  9
$PEXTMAX
 10
-1.000000000000000E+20
 20
-1.000000000000000E+20
 30
-1.000000000000000E+20
  9
$PLIMMIN
 10
0.0
 20
0.0
  9
$PLIMMAX
 10
12.0
 20
9.0
  9
$UNITMODE
 70
     0
  9
$VISRETAIN
 70
     1
  9
$PLINEGEN
 70
     0
  9
$PSLTSCALE
 70
     1
  9
$TREEDEPTH
 70
  3020
  9
$CMLSTYLE
  2
Standard
  9
$CMLJUST
 70
     0
  9
$CMLSCALE
 40
1.0
  9
$PROXYGRAPHICS
 70
     1
  9
$MEASUREMENT
 70
     0
  9
$CELWEIGHT
370
    -1
  9
$ENDCAPS
280
     0
  9
$JOINSTYLE
280
     0
  9
$LWDISPLAY
290
     1
  9
$INSUNITS
 70
     1
  9
$HYPERLINKBASE
  1

  9
$STYLESHEET
  1

  9
$XEDIT
290
     1
  9
$CEPSNTYPE
380
     0
  9
$PSTYLEMODE
290
     1
  9
$FINGERPRINTGUID
  2
{91F89CB6-AF8C-475D-825D-36F7B9176C85}
  9
$VERSIONGUID
  2
{FAEB1C32-E019-11D5-929B-00C0DF256EC4}
  9
$EXTNAMES
290
     1
  9
$PSVPSCALE
 40
0.0
  9
$OLESTARTUP
290
     0
  9
$SORTENTS
280
   127
  9
$INDEXCTL
280
     0
  9
$HIDETEXT
280
     1
  9
$XCLIPFRAME
290
     0
  9
$HALOGAP
280
     0
  9
$OBSCOLOR
 70
   257
  9
$OBSLTYPE
280
     0
  9
$INTERSECTIONDISPLAY
280
     0
  9
$INTERSECTIONCOLOR
 70
   257
  9
$DIMASSOC
280
     2
  9
$PROJECTNAME
  1

  0
ENDSEC
  0
SECTION
  2
CLASSES
  0
CLASS
  1
ACDBDICTIONARYWDFLT
  2
AcDbDictionaryWithDefault
  3
ObjectDBX Classes
 90
        0
 91
        3
280
     0
281
     0
  0
CLASS
  1
VISUALSTYLE
  2
AcDbVisualStyle
  3
ObjectDBX Classes
 90
     4095
 91
        3
280
     0
281
     0
  0
ENDSEC
  0
SECTION
  2
TABLES
  0
TABLE
  2
VPORT
  5
8
330
0
100
AcDbSymbolTable
 70
     1
  0
VPORT
  5
29
330
8
100
AcDbSymbolTableRecord
100
AcDbViewportTableRecord
  2
*Active
 70
     0
 10
0.0
 20
0.0
 11
1.0
 21
1.0
 12
0.0
 22
0.0
 13
0.0
 23
0.0
 14
0.5
 24
0.5
 15
0.5
 25
0.5
 16
0.0
 26
0.0
 36
1.0
 17
1079.100368653836
 27
1017.396296946172
 37
0.0
 40
1682.827858737279
 41
1.453020918761539
 42
50.0
 43
0.0
 44
0.0
 50
0.0
 51
0.0
 71
     0
 72
   100
 73
     1
 74
     3
 75
     0
 76
     0
 77
     0
 78
     0
281
     0
 65
     1
110
0.0
120
0.0
130
0.0
111
1.0
121
0.0
131
0.0
112
0.0
122
1.0
132
0.0
 79
     0
146
0.0
  0
ENDTAB
  0
TABLE
  2
LTYPE
  5
5
330
0
100
AcDbSymbolTable
 70
     1
  0
LTYPE
  5
14
330
5
100
AcDbSymbolTableRecord
100
AcDbLinetypeTableRecord
  2
ByBlock
 70
     0
  3

 72
    65
 73
     0
 40
0.0
  0
LTYPE
  5
15
330
5
100
AcDbSymbolTableRecord
100
AcDbLinetypeTableRecord
  2
ByLayer
 70
     0
  3

 72
    65
 73
     0
 40
0.0
  0
LTYPE
  5
16
330
5
100
AcDbSymbolTableRecord
100
AcDbLinetypeTableRecord
  2
Continuous
 70
     0
  3
Solid line
 72
    65
 73
     0
 40
0.0
  0
ENDTAB
  0
TABLE
  2
LAYER
  5
2
330
0
100
AcDbSymbolTable
 70
    20
  0
LAYER
  5
10
330
2
100
AcDbSymbolTableRecord
100
AcDbLayerTableRecord
  2
0
 70
     0
 62
     7
  6
Continuous
370
    -3
390
F
  0
LAYER
  5
3B
330
2
100
AcDbSymbolTableRecord
100
AcDbLayerTableRecord
  2
Layer 1
 70
     0
 62
     7
  6
Continuous
370
    -3
390
F
  0
LAYER
  5
3C
330
2
100
AcDbSymbolTableRecord
100
AcDbLayerTableRecord
  2
Layer 12
 70
     0
 62
     7
  6
Continuous
370
    -3
390
F
  0
LAYER
  5
3D
330
2
100
AcDbSymbolTableRecord
100
AcDbLayerTableRecord
  2
SYMBOLS
 70
     0
 62
     7
  6
Continuous
370
    -3
390
F
  0
LAYER
  5
3E
330
2
100
AcDbSymbolTableRecord
100
AcDbLayerTableRecord
  2
Layer 5
 70
     0
 62
     7
  6
Continuous
370
    -3
390
F
  0
LAYER
  5
3F
330
2
100
AcDbSymbolTableRecord
100
AcDbLayerTableRecord
  2
Layer 8
 70
     0
 62
     7
  6
Continuous
370
    -3
390
F
  0
LAYER
  5
40
330
2
100
AcDbSymbolTableRecord
100
AcDbLayerTableRecord
  2
ELECTRONICS
 70
     0
 62
     7
  6
Continuous
370
    -3
390
F
  0
LAYER
  5
41
330
2
100
AcDbSymbolTableRecord
100
AcDbLayerTableRecord
  2
Layer 11
 70
     0
 62
     7
  6
Continuous
370
    -3
390
F
  0
LAYER
  5
42
330
2
100
AcDbSymbolTableRecord
100
AcDbLayerTableRecord
  2
Layer 10
 70
     0
 62
     7
  6
Continuous
370
    -3
390
F
  0
LAYER
  5
43
330
2
100
AcDbSymbolTableRecord
100
AcDbLayerTableRecord
  2
Layer 6
 70
     0
 62
     7
  6
Continuous
370
    -3
390
F
  0
LAYER
  5
44
330
2
100
AcDbSymbolTableRecord
100
AcDbLayerTableRecord
  2
ULTIMAKER LOGO
 70
     0
 62
     7
  6
Continuous
370
    -3
390
F
  0
LAYER
  5
45
330
2
100
AcDbSymbolTableRecord
100
AcDbLayerTableRecord
  2
Layer 7
 70
     0
 62
     7
  6
Continuous
370
    -3
390
F
  0
LAYER
  5
46
330
2
100
AcDbSymbolTableRecord
100
AcDbLayerTableRecord
  2
Layer 9
 70
     0
 62
     7
  6
Continuous
370
    -3
390
F
  0
LAYER
  5
47
330
2
100
AcDbSymbolTableRecord
100
AcDbLayerTableRecord
  2
Layer 13
 70
     1
 62
     7
  6
Continuous
370
    -3
390
F
  0
LAYER
  5
5B
330
2
100
AcDbSymbolTableRecord
100
AcDbLayerTableRecord
  2
Layer 14
 70
     0
 62
     7
  6
Continuous
370
    -3
390
F
  0
LAYER
  5
5C
330
2
100
AcDbSymbolTableRecord
100
AcDbLayerTableRecord
  2
HIDE
 70
     1
 62
     7
  6
Continuous
370
    -3
390
F
  0
LAYER
  5
6D
330
2
100
AcDbSymbolTableRecord
100
AcDbLayerTableRecord
  2
Layer 15
 70
     0
 62
     7
  6
Continuous
370
    -3
390
F
  0
LAYER
  5
6E
330
2
100
AcDbSymbolTableRecord
100
AcDbLayerTableRecord
  2
Layer 16
 70
     0
 62
     7
  6
Continuous
370
    -3
390
F
  0
LAYER
  5
6F
330
2
100
AcDbSymbolTableRecord
100
AcDbLayerTableRecord
  2
Layer 18
 70
     0
 62
     7
  6
Continuous
370
    -3
390
F
  0
LAYER
  5
70
330
2
100
AcDbSymbolTableRecord
100
AcDbLayerTableRecord
  2
Layer 19
 70
     0
 62
     7
  6
Continuous
370
    -3
390
F
  0
ENDTAB
  0
TABLE
  2
STYLE
  5
3
330
0
100
AcDbSymbolTable
 70
     1
  0
STYLE
  5
11
330
3
100
AcDbSymbolTableRecord
100
AcDbTextStyleTableRecord
  2
Standard
 70
     0
 40
0.0
 41
1.0
 50
0.0
 71
     0
 42
0.2
  3
txt
  4

  0
ENDTAB
  0
TABLE
  2
VIEW
  5
6
330
0
100
AcDbSymbolTable
 70
     0
  0
ENDTAB
  0
TABLE
  2
UCS
  5
7
330
0
100
AcDbSymbolTable
 70
     0
  0
ENDTAB
  0
TABLE
  2
APPID
  5
9
330
0
100
AcDbSymbolTable
 70
     1
  0
APPID
  5
12
330
9
100
AcDbSymbolTableRecord
100
AcDbRegAppTableRecord
  2
ACAD
 70
     0
  0
ENDTAB
  0
TABLE
  2
DIMSTYLE
  5
A
330
0
100
AcDbSymbolTable
 70
     1
100
AcDbDimStyleTable
  0
DIMSTYLE
105
27
330
A
100
AcDbSymbolTableRecord
100
AcDbDimStyleTableRecord
  2
Standard
 70
     0
340
11
  0
ENDTAB
  0
TABLE
  2
BLOCK_RECORD
  5
1
330
0
100
AcDbSymbolTable
 70
     7
  0
BLOCK_RECORD
  5
1F
330
1
100
AcDbSymbolTableRecord
100
AcDbBlockTableRecord
  2
*Model_Space
340
22
  0
BLOCK_RECORD
  5
1B
330
1
100
AcDbSymbolTableRecord
100
AcDbBlockTableRecord
  2
*Paper_Space
340
1E
  0
BLOCK_RECORD
  5
23
330
1
100
AcDbSymbolTableRecord
100
AcDbBlockTableRecord
  2
*Paper_Space0
340
26
  0
BLOCK_RECORD
  5
48
330
1
100
AcDbSymbolTableRecord
100
AcDbBlockTableRecord
  2
block 2
340
0
102
{BLKREFS
331
49
102
}
  0
BLOCK_RECORD
  5
4C
330
1
100
AcDbSymbolTableRecord
100
AcDbBlockTableRecord
  2
block 3
340
0
102
{BLKREFS
331
4D
102
}
  0
BLOCK_RECORD
  5
53
330
1
100
AcDbSymbolTableRecord
100
AcDbBlockTableRecord
  2
block 4
340
0
102
{BLKREFS
331
54
102
}
  0
BLOCK_RECORD
  5
5D
330
1
100
AcDbSymbolTableRecord
100
AcDbBlockTableRecord
  2
block 5
340
0
102
{BLKREFS
331
5E
102
}
  0
BLOCK_RECORD
  5
71
330
1
100
AcDbSymbolTableRecord
100
AcDbBlockTableRecord
  2
block 6
340
0
102
{BLKREFS
331
72
102
}
  0
BLOCK_RECORD
  5
76
330
1
100
AcDbSymbolTableRecord
100
AcDbBlockTableRecord
  2
block 7
340
0
102
{BLKREFS
331
77
102
}
  0
ENDTAB
  0
ENDSEC
  0
SECTION
  2
BLOCKS
  0
BLOCK
  5
20
330
1F
100
AcDbEntity
  8
0
100
AcDbBlockBegin
  2
*Model_Space
 70
     0
 71
     0
 10
0.0
 20
0.0
 30
0.0
  3
*Model_Space
  1

  0
ENDBLK
  5
21
330
1F
100
AcDbEntity
  8
0
100
AcDbBlockEnd
  0
BLOCK
  5
1C
330
1B
100
AcDbEntity
 67
     1
  8
0
100
AcDbBlockBegin
  2
*Paper_Space
 70
     0
 71
     0
 10
0.0
 20
0.0
 30
0.0
  3
*Paper_Space
  1

  0
ENDBLK
  5
1D
330
1B
100
AcDbEntity
 67
     1
  8
0
100
AcDbBlockEnd
  0
BLOCK
  5
24
330
23
100
AcDbEntity
  8
0
100
AcDbBlockBegin
  2
*Paper_Space0
 70
     0
 71
     0
 10
0.0
 20
0.0
 30
0.0
  3
*Paper_Space0
  1

  0
ENDBLK
  5
25
330
23
100
AcDbEntity
  8
0
100
AcDbBlockEnd
  0
BLOCK
  5
4A
330
48
100
AcDbEntity
  8
0
100
AcDbBlockBegin
  2
block 2
 70
     0
 71
     0
 10
0.0
 20
0.0
 30
0.0
  3
block 2
  1

  0
INSERT
  5
4D
330
48
100
AcDbEntity
  8
Layer 13
100
AcDbBlockReference
  2
block 3
 10
0.0
 20
0.0
 30
0.0
  0
INSERT
  5
54
330
48
100
AcDbEntity
  8
Layer 13
100
AcDbBlockReference
  2
block 4
 10
0.0
 20
0.0
 30
0.0
  0
SPLINE
  5
5A
330
48
100
AcDbEntity
  8
Layer 13
370
     0
100
AcDbSpline
210
0.0
220
0.0
230
1.0
 70
    11
 71
     3
 72
    41
 73
    37
 74
     0
 42
0.0000000001
 43
0.0000000001
 40
0.0
 40
0.0
 40
0.0
 40
0.0
 40
1.0
 40
1.0
 40
1.0
 40
2.0
 40
2.0
 40
2.0
 40
3.0
 40
3.0
 40
3.0
 40
4.0
 40
4.0
 40
4.0
 40
5.0
 40
5.0
 40
5.0
 40
6.0
 40
6.0
 40
6.0
 40
7.0
 40
7.0
 40
7.0
 40
8.0
 40
8.0
 40
8.0
 40
9.0
 40
9.0
 40
9.0
 40
10.0
 40
10.0
 40
10.0
 40
11.0
 40
11.0
 40
11.0
 40
12.0
 40
12.0
 40
12.0
 40
12.0
 10
936.9622746138498
 20
749.3213594046836
 30
0.0
 10
936.9622746138498
 20
749.3213594046836
 30
0.0
 10
936.9622746138498
 20
758.3213268503503
 30
0.0
 10
936.9622746138498
 20
758.3213268503503
 30
0.0
 10
936.9622746138498
 20
759.9780732692069
 30
0.0
 10
938.3056895983229
 20
761.3213159989058
 30
0.0
 10
939.9624360171796
 20
761.3213159989058
 30
0.0
 10
939.9624360171796
 20
761.3213159989058
 30
0.0
 10
957.9632321823842
 20
761.3213159989058
 30
0.0
 10
957.9632321823842
 20
761.3213159989058
 30
0.0
 10
959.6199786012409
 20
761.3213159989058
 30
0.0
 10
960.9632213309397
 20
759.9780732692069
 30
0.0
 10
960.9632213309397
 20
758.3213268503503
 30
0.0
 10
960.9632213309397
 20
758.3213268503503
 30
0.0
 10
960.9632213309397
 20
749.3213594046836
 30
0.0
 10
960.9632213309397
 20
749.3213594046836
 30
0.0
 10
960.9632213309397
 20
749.3213594046836
 30
0.0
 10
960.9632213309397
 20
743.3213811075725
 30
0.0
 10
960.9632213309397
 20
743.3213811075725
 30
0.0
 10
960.9632213309397
 20
743.3213811075725
 30
0.0
 10
960.9632213309397
 20
734.3214136619058
 30
0.0
 10
960.9632213309397
 20
734.3214136619058
 30
0.0
 10
960.9632213309397
 20
732.6646672430492
 30
0.0
 10
959.6199786012409
 20
731.3214245133503
 30
0.0
 10
957.9632321823842
 20
731.3214245133503
 30
0.0
 10
957.9632321823842
 20
731.3214245133503
 30
0.0
 10
939.9624360171796
 20
731.3214245133503
 30
0.0
 10
939.9624360171796
 20
731.3214245133503
 30
0.0
 10
938.3056895983229
 20
731.3214245133503
 30
0.0
 10
936.9622746138498
 20
732.6646672430492
 30
0.0
 10
936.9622746138498
 20
734.3214136619058
 30
0.0
 10
936.9622746138498
 20
734.3214136619058
 30
0.0
 10
936.9622746138498
 20
743.3213811075725
 30
0.0
 10
936.9622746138498
 20
743.3213811075725
 30
0.0
 10
936.9622746138498
 20
743.3213811075725
 30
0.0
 10
936.9622746138498
 20
749.3213594046836
 30
0.0
 10
936.9622746138498
 20
749.3213594046836
 30
0.0
  0
ENDBLK
  5
4B
330
48
100
AcDbEntity
  8
0
100
AcDbBlockEnd
  0
BLOCK
  5
4E
330
4C
100
AcDbEntity
  8
0
100
AcDbBlockBegin
  2
block 3
 70
     0
 71
     0
 10
0.0
 20
0.0
 30
0.0
  3
block 3
  1

  0
SPLINE
  5
50
330
4C
100
AcDbEntity
  8
Layer 13
370
     0
100
AcDbSpline
210
0.0
220
0.0
230
1.0
 70
    11
 71
     3
 72
    17
 73
    13
 74
     0
 42
0.0000000001
 43
0.0000000001
 40
0.0
 40
0.0
 40
0.0
 40
0.0
 40
1.0
 40
1.0
 40
1.0
 40
2.0
 40
2.0
 40
2.0
 40
3.0
 40
3.0
 40
3.0
 40
4.0
 40
4.0
 40
4.0
 40
4.0
 10
941.1091360494449
 20
758.5745413685161
 30
0.0
 10
941.1091360494449
 20
759.4027423231702
 30
0.0
 10
940.4380314489183
 20
760.0745359427939
 30
0.0
 10
939.6091414751672
 20
760.0745359427939
 30
0.0
 10
938.7809405205131
 20
760.0745359427939
 30
0.0
 10
938.1091469008894
 20
759.4027423231702
 30
0.0
 10
938.1091469008894
 20
758.5745413685161
 30
0.0
 10
938.1091469008894
 20
757.7463404138621
 30
0.0
 10
938.7809405205131
 20
757.0745467942384
 30
0.0
 10
939.6091414751672
 20
757.0745467942384
 30
0.0
 10
940.4380314489183
 20
757.0745467942384
 30
0.0
 10
941.1091360494449
 20
757.7463404138621
 30
0.0
 10
941.1091360494449
 20
758.5745413685161
 30
0.0
  0
SPLINE
  5
51
330
4C
100
AcDbEntity
  8
Layer 13
370
     0
100
AcDbSpline
210
0.0
220
0.0
230
1.0
 70
    11
 71
     3
 72
    17
 73
    13
 74
     0
 42
0.0000000001
 43
0.0000000001
 40
0.0
 40
0.0
 40
0.0
 40
0.0
 40
1.0
 40
1.0
 40
1.0
 40
2.0
 40
2.0
 40
2.0
 40
3.0
 40
3.0
 40
3.0
 40
4.0
 40
4.0
 40
4.0
 40
4.0
 10
959.6051646906543
 20
749.0743460583911
 30
0.0
 10
959.6051646906543
 20
749.9032360321423
 30
0.0
 10
958.9344045996762
 20
750.574340632669
 30
0.0
 10
958.1075816832162
 20
750.574340632669
 30
0.0
 10
957.2807587667562
 20
750.574340632669
 30
0.0
 10
956.609309656681
 20
749.9032360321423
 30
0.0
 10
956.609309656681
 20
749.0743460583911
 30
0.0
 10
956.609309656681
 20
748.2461451037371
 30
0.0
 10
957.2807587667562
 20
747.5743514841134
 30
0.0
 10
958.1075816832162
 20
747.5743514841134
 30
0.0
 10
958.9344045996762
 20
747.5743514841134
 30
0.0
 10
959.6051646906543
 20
748.2461451037371
 30
0.0
 10
959.6051646906543
 20
749.0743460583911
 30
0.0
  0
SPLINE
  5
52
330
4C
100
AcDbEntity
  8
Layer 13
370
     0
100
AcDbSpline
210
0.0
220
0.0
230
1.0
 70
    11
 71
     3
 72
    41
 73
    37
 74
     0
 42
0.0000000001
 43
0.0000000001
 40
0.0
 40
0.0
 40
0.0
 40
0.0
 40
1.0
 40
1.0
 40
1.0
 40
2.0
 40
2.0
 40
2.0
 40
3.0
 40
3.0
 40
3.0
 40
4.0
 40
4.0
 40
4.0
 40
5.0
 40
5.0
 40
5.0
 40
6.0
 40
6.0
 40
6.0
 40
7.0
 40
7.0
 40
7.0
 40
8.0
 40
8.0
 40
8.0
 40
9.0
 40
9.0
 40
9.0
 40
10.0
 40
10.0
 40
10.0
 40
11.0
 40
11.0
 40
11.0
 40
12.0
 40
12.0
 40
12.0
 40
12.0
 10
942.6973250681451
 20
748.0738903294746
 30
0.0
 10
940.76462650092
 20
748.0738903294746
 30
0.0
 10
939.1977970742283
 20
749.6414087752632
 30
0.0
 10
939.1977970742283
 20
751.5741073424884
 30
0.0
 10
939.1977970742283
 20
751.5741073424884
 30
0.0
 10
939.1599010238906
 20
755.8239771330926
 30
0.0
 10
939.1599010238906
 20
755.8239771330926
 30
0.0
 10
939.1599010238906
 20
755.8239771330926
 30
0.0
 10
939.6091414751672
 20
755.8170869421222
 30
0.0
 10
939.6091414751672
 20
755.8170869421222
 30
0.0
 10
941.1325626987447
 20
755.8170869421222
 30
0.0
 10
942.3672849206582
 20
757.0511201449386
 30
0.0
 10
942.3672849206582
 20
758.5745413685161
 30
0.0
 10
942.3672849206582
 20
758.5745413685161
 30
0.0
 10
942.3597057105907
 20
759.5749970974326
 30
0.0
 10
942.3597057105907
 20
759.5749970974326
 30
0.0
 10
942.3597057105907
 20
759.5749970974326
 30
0.0
 10
955.4596812932532
 20
759.5749970974326
 30
0.0
 10
955.4596812932532
 20
759.5749970974326
 30
0.0
 10
957.3910018222842
 20
759.5749970974326
 30
0.0
 10
958.9550751725876
 20
758.008167670741
 30
0.0
 10
958.9550751725876
 20
756.0754691035158
 30
0.0
 10
958.9550751725876
 20
756.0754691035158
 30
0.0
 10
958.9550751725876
 20
751.8249102938147
 30
0.0
 10
958.9550751725876
 20
751.8249102938147
 30
0.0
 10
958.9550751725876
 20
751.8249102938147
 30
0.0
 10
958.1075816832162
 20
751.8207761792323
 30
0.0
 10
958.1075816832162
 20
751.8207761792323
 30
0.0
 10
956.5920841792548
 20
751.8207761792323
 30
0.0
 10
955.3628741101177
 20
750.5915661100952
 30
0.0
 10
955.3628741101177
 20
749.0743460583911
 30
0.0
 10
955.3628741101177
 20
749.0743460583911
 30
0.0
 10
955.3587399955353
 20
748.0738903294746
 30
0.0
 10
955.3587399955353
 20
748.0738903294746
 30
0.0
 10
955.3587399955353
 20
748.0738903294746
 30
0.0
 10
942.6973250681451
 20
748.0738903294746
 30
0.0
 10
942.6973250681451
 20
748.0738903294746
 30
0.0
  0
ENDBLK
  5
4F
330
4C
100
AcDbEntity
  8
0
100
AcDbBlockEnd
  0
BLOCK
  5
55
330
53
100
AcDbEntity
  8
0
100
AcDbBlockBegin
  2
block 4
 70
     0
 71
     0
 10
0.0
 20
0.0
 30
0.0
  3
block 4
  1

  0
SPLINE
  5
57
330
53
100
AcDbEntity
  8
Layer 13
370
     0
100
AcDbSpline
210
0.0
220
0.0
230
1.0
 70
    11
 71
     3
 72
    17
 73
    13
 74
     0
 42
0.0000000001
 43
0.0000000001
 40
0.0
 40
0.0
 40
0.0
 40
0.0
 40
1.0
 40
1.0
 40
1.0
 40
2.0
 40
2.0
 40
2.0
 40
3.0
 40
3.0
 40
3.0
 40
4.0
 40
4.0
 40
4.0
 40
4.0
 10
941.1091360494449
 20
743.5745956257383
 30
0.0
 10
941.1091360494449
 20
744.4027965803924
 30
0.0
 10
940.4380314489183
 20
745.0745902000161
 30
0.0
 10
939.6091414751672
 20
745.0745902000161
 30
0.0
 10
938.7809405205131
 20
745.0745902000161
 30
0.0
 10
938.1091469008894
 20
744.4027965803924
 30
0.0
 10
938.1091469008894
 20
743.5745956257383
 30
0.0
 10
938.1091469008894
 20
742.7463946710843
 30
0.0
 10
938.7809405205131
 20
742.0746010514606
 30
0.0
 10
939.6091414751672
 20
742.0746010514606
 30
0.0
 10
940.4380314489183
 20
742.0746010514606
 30
0.0
 10
941.1091360494449
 20
742.7463946710843
 30
0.0
 10
941.1091360494449
 20
743.5745956257383
 30
0.0
  0
SPLINE
  5
58
330
53
100
AcDbEntity
  8
Layer 13
370
     0
100
AcDbSpline
210
0.0
220
0.0
230
1.0
 70
    11
 71
     3
 72
    17
 73
    13
 74
     0
 42
0.0000000001
 43
0.0000000001
 40
0.0
 40
0.0
 40
0.0
 40
0.0
 40
1.0
 40
1.0
 40
1.0
 40
2.0
 40
2.0
 40
2.0
 40
3.0
 40
3.0
 40
3.0
 40
4.0
 40
4.0
 40
4.0
 40
4.0
 10
959.6051646906543
 20
734.0744003156134
 30
0.0
 10
959.6051646906543
 20
734.9032902893645
 30
0.0
 10
958.9344045996762
 20
735.5743948898912
 30
0.0
 10
958.1075816832162
 20
735.5743948898912
 30
0.0
 10
957.2807587667562
 20
735.5743948898912
 30
0.0
 10
956.609309656681
 20
734.9032902893645
 30
0.0
 10
956.609309656681
 20
734.0744003156134
 30
0.0
 10
956.609309656681
 20
733.2461993609593
 30
0.0
 10
957.2807587667562
 20
732.5744057413356
 30
0.0
 10
958.1075816832162
 20
732.5744057413356
 30
0.0
 10
958.9344045996762
 20
732.5744057413356
 30
0.0
 10
959.6051646906543
 20
733.2461993609593
 30
0.0
 10
959.6051646906543
 20
734.0744003156134
 30
0.0
  0
SPLINE
  5
59
330
53
100
AcDbEntity
  8
Layer 13
370
     0
100
AcDbSpline
210
0.0
220
0.0
230
1.0
 70
    11
 71
     3
 72
    41
 73
    37
 74
     0
 42
0.0000000001
 43
0.0000000001
 40
0.0
 40
0.0
 40
0.0
 40
0.0
 40
1.0
 40
1.0
 40
1.0
 40
2.0
 40
2.0
 40
2.0
 40
3.0
 40
3.0
 40
3.0
 40
4.0
 40
4.0
 40
4.0
 40
5.0
 40
5.0
 40
5.0
 40
6.0
 40
6.0
 40
6.0
 40
7.0
 40
7.0
 40
7.0
 40
8.0
 40
8.0
 40
8.0
 40
9.0
 40
9.0
 40
9.0
 40
10.0
 40
10.0
 40
10.0
 40
11.0
 40
11.0
 40
11.0
 40
12.0
 40
12.0
 40
12.0
 40
12.0
 10
942.6973250681451
 20
733.0739445866968
 30
0.0
 10
940.76462650092
 20
733.0739445866968
 30
0.0
 10
939.1977970742283
 20
734.6414630324855
 30
0.0
 10
939.1977970742283
 20
736.5741615997107
 30
0.0
 10
939.1977970742283
 20
736.5741615997107
 30
0.0
 10
939.1599010238906
 20
740.8240313903149
 30
0.0
 10
939.1599010238906
 20
740.8240313903149
 30
0.0
 10
939.1599010238906
 20
740.8240313903149
 30
0.0
 10
939.6091414751672
 20
740.8171411993444
 30
0.0
 10
939.6091414751672
 20
740.8171411993444
 30
0.0
 10
941.1325626987447
 20
740.8171411993444
 30
0.0
 10
942.3672849206582
 20
742.0511744021609
 30
0.0
 10
942.3672849206582
 20
743.5745956257383
 30
0.0
 10
942.3672849206582
 20
743.5745956257383
 30
0.0
 10
942.3597057105907
 20
744.5750513546549
 30
0.0
 10
942.3597057105907
 20
744.5750513546549
 30
0.0
 10
942.3597057105907
 20
744.5750513546549
 30
0.0
 10
955.4596812932532
 20
744.5750513546549
 30
0.0
 10
955.4596812932532
 20
744.5750513546549
 30
0.0
 10
957.3910018222842
 20
744.5750513546549
 30
0.0
 10
958.9550751725876
 20
743.0082219279633
 30
0.0
 10
958.9550751725876
 20
741.0755233607381
 30
0.0
 10
958.9550751725876
 20
741.0755233607381
 30
0.0
 10
958.9550751725876
 20
736.8249645510368
 30
0.0
 10
958.9550751725876
 20
736.8249645510368
 30
0.0
 10
958.9550751725876
 20
736.8249645510368
 30
0.0
 10
958.1075816832162
 20
736.8208304364546
 30
0.0
 10
958.1075816832162
 20
736.8208304364546
 30
0.0
 10
956.5920841792548
 20
736.8208304364546
 30
0.0
 10
955.3628741101177
 20
735.5916203673174
 30
0.0
 10
955.3628741101177
 20
734.0744003156134
 30
0.0
 10
955.3628741101177
 20
734.0744003156134
 30
0.0
 10
955.3587399955353
 20
733.0739445866968
 30
0.0
 10
955.3587399955353
 20
733.0739445866968
 30
0.0
 10
955.3587399955353
 20
733.0739445866968
 30
0.0
 10
942.6973250681451
 20
733.0739445866968
 30
0.0
 10
942.6973250681451
 20
733.0739445866968
 30
0.0
  0
ENDBLK
  5
56
330
53
100
AcDbEntity
  8
0
100
AcDbBlockEnd
  0
BLOCK
  5
5F
330
5D
100
AcDbEntity
  8
0
100
AcDbBlockBegin
  2
block 5
 70
     0
 71
     0
 10
0.0
 20
0.0
 30
0.0
  3
block 5
  1

  0
SPLINE
  5
61
330
5D
100
AcDbEntity
  8
HIDE
 62
     7
420
 16777215
370
    35
100
AcDbSpline
210
0.0
220
0.0
230
1.0
 70
     8
 71
     3
 72
     8
 73
     4
 74
     0
 42
0.0000000001
 43
0.0000000001
 40
0.0
 40
0.0
 40
0.0
 40
0.0
 40
1.0
 40
1.0
 40
1.0
 40
1.0
 10
2571.867132603561
 20
863.6075789941676
 30
0.0
 10
2574.075438809606
 20
866.5893091366513
 30
0.0
 10
2573.413291457341
 20
872.0005206153332
 30
0.0
 10
2574.738275180968
 20
875.6447426196305
 30
0.0
  0
SPLINE
  5
62
330
5D
100
AcDbEntity
  8
HIDE
 62
     7
420
 16777215
370
    35
100
AcDbSpline
210
0.0
220
0.0
230
1.0
 70
     8
 71
     3
 72
    17
 73
    13
 74
     0
 42
0.0000000001
 43
0.0000000001
 40
0.0
 40
0.0
 40
0.0
 40
0.0
 40
1.0
 40
1.0
 40
1.0
 40
2.0
 40
2.0
 40
2.0
 40
3.0
 40
3.0
 40
3.0
 40
4.0
 40
4.0
 40
4.0
 40
4.0
 10
2574.738275180968
 20
876.4178220465205
 30
0.0
 10
2576.726095275958
 20
875.423911999026
 30
0.0
 10
2579.486994797837
 20
875.5344995641025
 30
0.0
 10
2581.695990022979
 20
875.313668943498
 30
0.0
 10
2584.12478234008
 20
875.0921493037964
 30
0.0
 10
2586.553574657181
 20
874.872007702289
 30
0.0
 10
2588.984434031574
 20
874.6504880625874
 30
0.0
 10
2593.952950740401
 20
874.0985837658504
 30
0.0
 10
2599.033433052499
 20
873.2152612834324
 30
0.0
 10
2604.112881835951
 20
872.5527694216188
 30
0.0
 10
2607.315098089491
 20
872.2213512359377
 30
0.0
 10
2610.517658852579
 20
872.1111081804098
 30
0.0
 10
2613.720219615667
 20
871.8899330502567
 30
0.0
  0
SPLINE
  5
63
330
5D
100
AcDbEntity
  8
HIDE
 62
     7
420
 16777215
370
    35
100
AcDbSpline
210
0.0
220
0.0
230
1.0
 70
     8
 71
     3
 72
    38
 73
    34
 74
     0
 42
0.0000000001
 43
0.0000000001
 40
0.0
 40
0.0
 40
0.0
 40
0.0
 40
1.0
 40
1.0
 40
1.0
 40
2.0
 40
2.0
 40
2.0
 40
3.0
 40
3.0
 40
3.0
 40
4.0
 40
4.0
 40
4.0
 40
5.0
 40
5.0
 40
5.0
 40
6.0
 40
6.0
 40
6.0
 40
7.0
 40
7.0
 40
7.0
 40
8.0
 40
8.0
 40
8.0
 40
9.0
 40
9.0
 40
9.0
 40
10.0
 40
10.0
 40
10.0
 40
11.0
 40
11.0
 40
11.0
 40
11.0
 10
2614.051637801349
 20
872.3319388010143
 30
0.0
 10
2614.383055987029
 20
873.1050182279043
 30
0.0
 10
2614.162569875974
 20
871.1171981329152
 30
0.0
 10
2614.162569875974
 20
870.8960230027621
 30
0.0
 10
2614.162569875974
 20
869.7918698997396
 30
0.0
 10
2613.94139474582
 20
868.6873722871685
 30
0.0
 10
2613.831151690292
 20
867.583219184146
 30
0.0
 10
2613.499733504611
 20
865.1537378479477
 30
0.0
 10
2613.168659828479
 20
862.834844076826
 30
0.0
 10
2612.947829207874
 20
860.4050182310793
 30
0.0
 10
2612.726654077721
 20
857.8652938393532
 30
0.0
 10
2612.616411022193
 20
855.325569447627
 30
0.0
 10
2612.505478947568
 20
852.7855005463523
 30
0.0
 10
2612.284992836512
 20
849.6935273483406
 30
0.0
 10
2611.179806204844
 20
846.7117972058568
 30
0.0
 10
2611.070252168413
 20
843.6194794982965
 30
0.0
 10
2610.84907703826
 20
838.6506182799208
 30
0.0
 10
2609.966443574939
 20
833.4602374218433
 30
0.0
 10
2609.524093314633
 20
828.4903426748219
 30
0.0
 10
2609.082432073424
 20
823.300306326293
 30
0.0
 10
2607.426030164116
 20
818.0000269222361
 30
0.0
 10
2604.996548827918
 20
813.4724824355208
 30
0.0
 10
2603.560633029665
 20
810.8218259691696
 30
0.0
 10
2602.236338325135
 20
808.3926891425199
 30
0.0
 10
2600.358072266577
 20
806.1833494078292
 30
0.0
 10
2600.358072266577
 20
806.1833494078292
 30
0.0
 10
2600.358072266577
 20
806.1833494078292
 30
0.0
 10
2600.358072266577
 20
806.1833494078292
 30
0.0
 10
2601.462569879148
 20
804.6378795731462
 30
0.0
 10
2605.327967013598
 20
802.318641292476
 30
0.0
 10
2602.345892361566
 20
800.4414087625632
 30
0.0
 10
2600.026654080896
 20
799.0058374738597
 30
0.0
 10
2597.928590930379
 20
801.7663924861904
 30
0.0
 10
2596.824093317808
 20
802.7606470432335
 30
0.0
  0
SPLINE
  5
64
330
5D
100
AcDbEntity
  8
HIDE
 62
     7
420
 16777215
370
    35
100
AcDbSpline
210
0.0
220
0.0
230
1.0
 70
     8
 71
     3
 72
    26
 73
    22
 74
     0
 42
0.0000000001
 43
0.0000000001
 40
0.0
 40
0.0
 40
0.0
 40
0.0
 40
1.0
 40
1.0
 40
1.0
 40
2.0
 40
2.0
 40
2.0
 40
3.0
 40
3.0
 40
3.0
 40
4.0
 40
4.0
 40
4.0
 40
5.0
 40
5.0
 40
5.0
 40
6.0
 40
6.0
 40
6.0
 40
7.0
 40
7.0
 40
7.0
 40
7.0
 10
2595.830183270313
 20
801.987912125892
 30
0.0
 10
2595.830183270313
 20
801.1045896434739
 30
0.0
 10
2594.174125870554
 20
800.7728269482443
 30
0.0
 10
2593.401046443664
 20
800.3308211974868
 30
0.0
 10
2591.081808162994
 20
799.0058374738597
 30
0.0
 10
2588.321597660211
 20
798.1225149914417
 30
0.0
 10
2585.892116324013
 20
797.0180173788706
 30
0.0
 10
2580.701735465936
 20
794.5885360426723
 30
0.0
 10
2575.290868496802
 20
792.9321341333642
 30
0.0
 10
2569.658826397516
 20
793.1526202444202
 30
0.0
 10
2558.50532976402
 20
793.4840384301012
 30
0.0
 10
2546.910171889314
 20
797.4596786200796
 30
0.0
 10
2539.069134564886
 20
805.8526202412452
 30
0.0
 10
2537.633907785731
 20
807.3987790950254
 30
0.0
 10
2536.528721154062
 20
809.3865991900145
 30
0.0
 10
2535.093838884456
 20
811.1532441548507
 30
0.0
 10
2533.547335521127
 20
813.0304766847632
 30
0.0
 10
2532.55411449273
 20
815.0179522702039
 30
0.0
 10
2532.001865686444
 20
817.4477781159505
 30
0.0
 10
2531.339029315082
 20
820.8711694996433
 30
0.0
 10
2530.897712583422
 20
824.4048039388641
 30
0.0
 10
2530.786780508796
 20
827.4971216464244
 30
0.0
  0
SPLINE
  5
65
330
5D
100
AcDbEntity
  8
HIDE
 62
     7
420
 16777215
370
    35
100
AcDbSpline
210
0.0
220
0.0
230
1.0
 70
     8
 71
     3
 72
    14
 73
    10
 74
     0
 42
0.0000000001
 43
0.0000000001
 40
0.0
 40
0.0
 40
0.0
 40
0.0
 40
1.0
 40
1.0
 40
1.0
 40
2.0
 40
2.0
 40
2.0
 40
3.0
 40
3.0
 40
3.0
 40
3.0
 10
2530.56629439774
 20
827.6073647019524
 30
0.0
 10
2529.903802535927
 20
827.2766355353684
 30
0.0
 10
2528.910236997981
 20
827.8285398321054
 30
0.0
 10
2528.137157571091
 20
828.2702010733144
 30
0.0
 10
2525.15473840951
 20
829.59552930649
 30
0.0
 10
2526.039094420574
 20
830.5890948444361
 30
0.0
 10
2526.701241772839
 20
833.5708249869199
 30
0.0
 10
2527.363733634652
 20
836.110549378646
 30
0.0
 10
2527.142903014048
 20
839.9756020035478
 30
0.0
 10
2528.247400626619
 20
841.8528345334604
 30
0.0
  0
SPLINE
  5
66
330
5D
100
AcDbEntity
  8
HIDE
 62
     7
420
 16777215
370
    35
100
AcDbSpline
210
0.0
220
0.0
230
1.0
 70
     8
 71
     3
 72
     8
 73
     4
 74
     0
 42
0.0000000001
 43
0.0000000001
 40
0.0
 40
0.0
 40
0.0
 40
0.0
 40
1.0
 40
1.0
 40
1.0
 40
1.0
 10
2529.792870461302
 20
842.4050833397459
 30
0.0
 10
2531.228786259554
 20
843.5092364427686
 30
0.0
 10
2532.55411449273
 20
842.0740096636134
 30
0.0
 10
2533.988996762336
 20
841.9630775889884
 30
0.0
  0
SPLINE
  5
67
330
5D
100
AcDbEntity
  8
HIDE
 62
     7
420
 16777215
370
    35
100
AcDbSpline
210
0.0
220
0.0
230
1.0
 70
     8
 71
     3
 72
     8
 73
     4
 74
     0
 42
0.0000000001
 43
0.0000000001
 40
0.0
 40
0.0
 40
0.0
 40
0.0
 40
1.0
 40
1.0
 40
1.0
 40
1.0
 10
2533.216606354543
 20
842.294840284218
 30
0.0
 10
2536.419167117631
 20
848.8102048659225
 30
0.0
 10
2540.283875232985
 20
855.104394317474
 30
0.0
 10
2545.916606351368
 20
859.1902775629802
 30
0.0
  0
SPLINE
  5
68
330
5D
100
AcDbEntity
  8
HIDE
 62
     7
420
 16777215
370
    35
100
AcDbSpline
210
0.0
220
0.0
230
1.0
 70
     8
 71
     3
 72
     8
 73
     4
 74
     0
 42
0.0000000001
 43
0.0000000001
 40
0.0
 40
0.0
 40
0.0
 40
0.0
 40
1.0
 40
1.0
 40
1.0
 40
1.0
 10
2536.308924062103
 20
848.47913118979
 30
0.0
 10
2538.84864845383
 20
850.9079235068912
 30
0.0
 10
2540.836468548819
 20
854.3316594001324
 30
0.0
 10
2544.480690553116
 20
855.2146373730019
 30
0.0
  0
SPLINE
  5
69
330
5D
100
AcDbEntity
  8
HIDE
 62
     7
420
 16777215
370
    35
100
AcDbSpline
210
0.0
220
0.0
230
1.0
 70
     8
 71
     3
 72
    11
 73
     7
 74
     0
 42
0.0000000001
 43
0.0000000001
 40
0.0
 40
0.0
 40
0.0
 40
0.0
 40
1.0
 40
1.0
 40
1.0
 40
2.0
 40
2.0
 40
2.0
 40
2.0
 10
2544.922351794325
 20
855.877473744364
 30
0.0
 10
2543.486435996073
 20
856.3194794951215
 30
0.0
 10
2543.376192940545
 20
858.4178871551873
 30
0.0
 10
2543.817165162657
 20
859.7425263692658
 30
0.0
 10
2545.143526924478
 20
863.4973359386396
 30
0.0
 10
2548.897302965207
 20
860.5156057961559
 30
0.0
 10
2549.560483846117
 20
857.9755368948812
 30
0.0
  0
SPLINE
  5
6A
330
5D
100
AcDbEntity
  8
HIDE
 62
     7
420
 16777215
370
    35
100
AcDbSpline
210
0.0
220
0.0
230
1.0
 70
     8
 71
     3
 72
    11
 73
     7
 74
     0
 42
0.0000000001
 43
0.0000000001
 40
0.0
 40
0.0
 40
0.0
 40
0.0
 40
1.0
 40
1.0
 40
1.0
 40
2.0
 40
2.0
 40
2.0
 40
2.0
 10
2549.008235039832
 20
858.0864689695062
 30
0.0
 10
2550.66463694914
 20
860.1841876104749
 30
0.0
 10
2556.517165159482
 20
861.2890297325945
 30
0.0
 10
2558.947335514777
 20
861.6197588991785
 30
0.0
 10
2562.922286685658
 20
862.2825952705405
 30
0.0
 10
2567.671006302527
 20
863.0553301878821
 30
0.0
 10
2571.425471362352
 20
864.4909014765857
 30
0.0
  0
SPLINE
  5
6B
330
5D
100
AcDbEntity
  8
HIDE
 62
     7
420
 16777215
370
    35
100
AcDbSpline
210
0.0
220
0.0
230
1.0
 70
     8
 71
     3
 72
    14
 73
    10
 74
     0
 42
0.0000000001
 43
0.0000000001
 40
0.0
 40
0.0
 40
0.0
 40
0.0
 40
1.0
 40
1.0
 40
1.0
 40
2.0
 40
2.0
 40
2.0
 40
3.0
 40
3.0
 40
3.0
 40
3.0
 10
2570.431216805309
 20
864.9332517368917
 30
0.0
 10
2570.320973749781
 20
864.7120766067387
 30
0.0
 10
2570.210041675156
 20
864.6018335512107
 30
0.0
 10
2570.210041675156
 20
864.3806584210577
 30
0.0
 10
2570.100487638725
 20
864.2704153655296
 30
0.0
 10
2569.879312508572
 20
864.1601723100017
 30
0.0
 10
2569.768724943495
 20
864.0488957258281
 30
0.0
 10
2570.431216805309
 20
863.9389971798486
 30
0.0
 10
2571.315228306824
 20
863.9389971798486
 30
0.0
 10
2571.867132603561
 20
863.9389971798486
 30
0.0
  0
SPLINE
  5
6C
330
5D
100
AcDbEntity
  8
HIDE
 62
     7
420
 16777215
370
    35
100
AcDbSpline
210
0.0
220
0.0
230
1.0
 70
     8
 71
     3
 72
     8
 73
     4
 74
     0
 42
0.0000000001
 43
0.0000000001
 40
0.0
 40
0.0
 40
0.0
 40
0.0
 40
1.0
 40
1.0
 40
1.0
 40
1.0
 10
2572.088307733714
 20
863.9389971798486
 30
0.0
 10
2573.302703892265
 20
867.4729761286179
 30
0.0
 10
2572.198550789242
 20
872.8838430977513
 30
0.0
 10
2574.187059903328
 20
876.4178220465205
 30
0.0
  0
ENDBLK
  5
60
330
5D
100
AcDbEntity
  8
0
100
AcDbBlockEnd
  0
BLOCK
  5
73
330
71
100
AcDbEntity
  8
0
100
AcDbBlockBegin
  2
block 6
 70
     0
 71
     0
 10
0.0
 20
0.0
 30
0.0
  3
block 6
  1

  0
SPLINE
  5
75
330
71
100
AcDbEntity
  8
Layer 19
370
     0
100
AcDbSpline
210
0.0
220
0.0
230
1.0
 70
    11
 71
     3
 72
    17
 73
    13
 74
     0
 42
0.0000000001
 43
0.0000000001
 40
0.0
 40
0.0
 40
0.0
 40
0.0
 40
1.0
 40
1.0
 40
1.0
 40
2.0
 40
2.0
 40
2.0
 40
3.0
 40
3.0
 40
3.0
 40
4.0
 40
4.0
 40
4.0
 40
4.0
 10
1247.680948581309
 20
1023.113432903944
 30
0.0
 10
1247.680948581309
 20
1022.326573095113
 30
0.0
 10
1248.318980265177
 20
1021.688885920793
 30
0.0
 10
1249.105840074008
 20
1021.688885920793
 30
0.0
 10
1249.892699882839
 20
1021.688885920793
 30
0.0
 10
1250.531420585805
 20
1022.326573095113
 30
0.0
 10
1250.531420585805
 20
1023.113432903944
 30
0.0
 10
1250.531420585805
 20
1023.900981731872
 30
0.0
 10
1249.892699882839
 20
1024.53901341574
 30
0.0
 10
1249.105840074008
 20
1024.53901341574
 30
0.0
 10
1248.318980265177
 20
1024.53901341574
 30
0.0
 10
1247.680948581309
 20
1023.900981731872
 30
0.0
 10
1247.680948581309
 20
1023.113432903944
 30
0.0
  0
ENDBLK
  5
74
330
71
100
AcDbEntity
  8
0
100
AcDbBlockEnd
  0
BLOCK
  5
78
330
76
100
AcDbEntity
  8
0
100
AcDbBlockBegin
  2
block 7
 70
     0
 71
     0
 10
0.0
 20
0.0
 30
0.0
  3
block 7
  1

  0
SPLINE
  5
7A
330
76
100
AcDbEntity
  8
Layer 19
370
     0
100
AcDbSpline
210
0.0
220
0.0
230
1.0
 70
    11
 71
     3
 72
    17
 73
    13
 74
     0
 42
0.0000000001
 43
0.0000000001
 40
0.0
 40
0.0
 40
0.0
 40
0.0
 40
1.0
 40
1.0
 40
1.0
 40
2.0
 40
2.0
 40
2.0
 40
3.0
 40
3.0
 40
3.0
 40
4.0
 40
4.0
 40
4.0
 40
4.0
 10
1247.680948581309
 20
994.1139971473049
 30
0.0
 10
1247.680948581309
 20
993.3271373384738
 30
0.0
 10
1248.318980265177
 20
992.688761145057
 30
0.0
 10
1249.105840074008
 20
992.688761145057
 30
0.0
 10
1249.892699882839
 20
992.688761145057
 30
0.0
 10
1250.531420585805
 20
993.3271373384738
 30
0.0
 10
1250.531420585805
 20
994.1139971473049
 30
0.0
 10
1250.531420585805
 20
994.900856956136
 30
0.0
 10
1249.892699882839
 20
995.5388886400042
 30
0.0
 10
1249.105840074008
 20
995.5388886400042
 30
0.0
 10
1248.318980265177
 20
995.5388886400042
 30
0.0
 10
1247.680948581309
 20
994.900856956136
 30
0.0
 10
1247.680948581309
 20
994.1139971473049
 30
0.0
  0
ENDBLK
  5
79
330
76
100
AcDbEntity
  8
0
100
AcDbBlockEnd
  0
ENDSEC
  0
SECTION
  2
ENTITIES
  0
INSERT
  5
49
330
1F
100
AcDbEntity
  8
Layer 13
100
AcDbBlockReference
  2
block 2
 10
0.0
 20
0.0
 30
0.0
  0
INSERT
  5
5E
330
1F
100
AcDbEntity
  8
HIDE
100
AcDbBlockReference
  2
block 5
 10
0.0
 20
0.0
 30
0.0
  0
INSERT
  5
72
330
1F
100
AcDbEntity
  8
Layer 19
100
AcDbBlockReference
  2
block 6
 10
0.0
 20
0.0
 30
0.0
  0
INSERT
  5
77
330
1F
100
AcDbEntity
  8
Layer 19
100
AcDbBlockReference
  2
block 7
 10
0.0
 20
0.0
 30
0.0
  0
SPLINE
  5
7B
330
1F
100
AcDbEntity
  8
Layer 19
370
     0
100
AcDbSpline
210
0.0
220
0.0
230
1.0
 70
    11
 71
     3
 72
    23
 73
    19
 74
     0
 42
0.0000000001
 43
0.0000000001
 40
0.0
 40
0.0
 40
0.0
 40
0.0
 40
1.0
 40
1.0
 40
1.0
 40
2.0
 40
2.0
 40
2.0
 40
3.0
 40
3.0
 40
3.0
 40
4.0
 40
4.0
 40
4.0
 40
5.0
 40
5.0
 40
5.0
 40
6.0
 40
6.0
 40
6.0
 40
6.0
 10
1211.008596159922
 20
997.5618487089429
 30
0.0
 10
1204.960386526017
 20
997.5456567601623
 30
0.0
 10
1200.045613306759
 20
1002.435280782377
 30
0.0
 10
1200.02907684843
 20
1008.482801397185
 30
0.0
 10
1200.012540390101
 20
1014.529977502444
 30
0.0
 10
1204.901130883671
 20
1019.445784250347
 30
0.0
 10
1210.949340517575
 20
1019.462320708676
 30
0.0
 10
1210.949340517575
 20
1019.462320708676
 30
0.0
 10
1215.449324240408
 20
1019.469210899647
 30
0.0
 10
1215.449324240408
 20
1019.469210899647
 30
0.0
 10
1221.496844855216
 20
1019.485747357976
 30
0.0
 10
1226.413685131765
 20
1014.596123335761
 30
0.0
 10
1226.430221590094
 20
1008.54929174005
 30
0.0
 10
1226.446758048423
 20
1002.500737596597
 30
0.0
 10
1221.556789516659
 20
997.5859643773397
 30
0.0
 10
1215.509268901852
 20
997.569083409462
 30
0.0
 10
1215.509268901852
 20
997.569083409462
 30
0.0
 10
1211.008596159922
 20
997.5618487089429
 30
0.0
 10
1211.008596159922
 20
997.5618487089429
 30
0.0
  0
SPLINE
  5
7C
330
1F
100
AcDbEntity
  8
Layer 19
370
     0
100
AcDbSpline
210
0.0
220
0.0
230
1.0
 70
    11
 71
     3
 72
    23
 73
    19
 74
     0
 42
0.0000000001
 43
0.0000000001
 40
0.0
 40
0.0
 40
0.0
 40
0.0
 40
1.0
 40
1.0
 40
1.0
 40
2.0
 40
2.0
 40
2.0
 40
3.0
 40
3.0
 40
3.0
 40
4.0
 40
4.0
 40
4.0
 40
5.0
 40
5.0
 40
5.0
 40
6.0
 40
6.0
 40
6.0
 40
6.0
 10
1226.186308829738
 20
1022.554293906688
 30
0.0
 10
1225.357418855987
 20
1022.551882339848
 30
0.0
 10
1224.684936217266
 20
1023.221608902181
 30
0.0
 10
1224.682869159975
 20
1024.050498875932
 30
0.0
 10
1224.680113083587
 20
1024.879388849683
 30
0.0
 10
1225.349839645919
 20
1025.551871488404
 30
0.0
 10
1226.178040600574
 20
1025.554283055243
 30
0.0
 10
1226.178040600574
 20
1025.554283055243
 30
0.0
 10
1231.187898455224
 20
1025.56220677486
 30
0.0
 10
1231.187898455224
 20
1025.56220677486
 30
0.0
 10
1232.016788428975
 20
1025.564962851248
 30
0.0
 10
1232.689960086793
 20
1024.895236288915
 30
0.0
 10
1232.692027144084
 20
1024.066690824713
 30
0.0
 10
1232.694094201375
 20
1023.237800850961
 30
0.0
 10
1232.02505665814
 20
1022.564973702692
 30
0.0
 10
1231.196166684389
 20
1022.562217626304
 30
0.0
 10
1231.196166684389
 20
1022.562217626304
 30
0.0
 10
1226.186308829738
 20
1022.554293906688
 30
0.0
 10
1226.186308829738
 20
1022.554293906688
 30
0.0
  0
SPLINE
  5
7D
330
1F
100
AcDbEntity
  8
Layer 19
370
     0
100
AcDbSpline
210
0.0
220
0.0
230
1.0
 70
    11
 71
     3
 72
    23
 73
    19
 74
     0
 42
0.0000000001
 43
0.0000000001
 40
0.0
 40
0.0
 40
0.0
 40
0.0
 40
1.0
 40
1.0
 40
1.0
 40
2.0
 40
2.0
 40
2.0
 40
3.0
 40
3.0
 40
3.0
 40
4.0
 40
4.0
 40
4.0
 40
5.0
 40
5.0
 40
5.0
 40
6.0
 40
6.0
 40
6.0
 40
6.0
 10
1226.186308829738
 20
991.4695418528271
 30
0.0
 10
1225.357418855987
 20
991.467474795536
 30
0.0
 10
1224.684936217266
 20
992.1365123387715
 30
0.0
 10
1224.682869159975
 20
992.9654023125225
 30
0.0
 10
1224.680113083587
 20
993.7942922862737
 30
0.0
 10
1225.349839645919
 20
994.4674639440915
 30
0.0
 10
1226.178040600574
 20
994.4695310013826
 30
0.0
 10
1226.178040600574
 20
994.4695310013826
 30
0.0
 10
1231.187898455224
 20
994.4777992305472
 30
0.0
 10
1231.187898455224
 20
994.4777992305472
 30
0.0
 10
1232.016788428975
 20
994.4798662878384
 30
0.0
 10
1232.689960086793
 20
993.8104842350543
 30
0.0
 10
1232.692027144084
 20
992.9815942613033
 30
0.0
 10
1232.694094201375
 20
992.1530487971007
 30
0.0
 10
1232.02505665814
 20
991.4802216488314
 30
0.0
 10
1231.196166684389
 20
991.4778100819917
 30
0.0
 10
1231.196166684389
 20
991.4778100819917
 30
0.0
 10
1226.186308829738
 20
991.4695418528271
 30
0.0
 10
1226.186308829738
 20
991.4695418528271
 30
0.0
  0
SPLINE
  5
7E
330
1F
100
AcDbEntity
  8
Layer 19
370
     0
100
AcDbSpline
210
0.0
220
0.0
230
1.0
 70
    11
 71
     3
 72
    23
 73
    19
 74
     0
 42
0.0000000001
 43
0.0000000001
 40
0.0
 40
0.0
 40
0.0
 40
0.0
 40
1.0
 40
1.0
 40
1.0
 40
2.0
 40
2.0
 40
2.0
 40
3.0
 40
3.0
 40
3.0
 40
4.0
 40
4.0
 40
4.0
 40
5.0
 40
5.0
 40
5.0
 40
6.0
 40
6.0
 40
6.0
 40
6.0
 10
1195.186650634363
 20
1022.469889067299
 30
0.0
 10
1194.358449679709
 20
1022.46747750046
 30
0.0
 10
1193.685278021891
 20
1023.136859553244
 30
0.0
 10
1193.682521945503
 20
1023.965749526995
 30
0.0
 10
1193.680454888212
 20
1024.794639500746
 30
0.0
 10
1194.350181450544
 20
1025.467811158564
 30
0.0
 10
1195.178382405199
 20
1025.469878215855
 30
0.0
 10
1195.178382405199
 20
1025.469878215855
 30
0.0
 10
1200.188240259849
 20
1025.478146445019
 30
0.0
 10
1200.188240259849
 20
1025.478146445019
 30
0.0
 10
1201.0171302336
 20
1025.480213502311
 30
0.0
 10
1201.690301891418
 20
1024.811175959075
 30
0.0
 10
1201.692368948709
 20
1023.982285985324
 30
0.0
 10
1201.695125025097
 20
1023.153396011573
 30
0.0
 10
1201.025398462765
 20
1022.480568863303
 30
0.0
 10
1200.196508489013
 20
1022.478157296464
 30
0.0
 10
1200.196508489013
 20
1022.478157296464
 30
0.0
 10
1195.186650634363
 20
1022.469889067299
 30
0.0
 10
1195.186650634363
 20
1022.469889067299
 30
0.0
  0
SPLINE
  5
7F
330
1F
100
AcDbEntity
  8
Layer 19
370
     0
100
AcDbSpline
210
0.0
220
0.0
230
1.0
 70
    11
 71
     3
 72
    23
 73
    19
 74
     0
 42
0.0000000001
 43
0.0000000001
 40
0.0
 40
0.0
 40
0.0
 40
0.0
 40
1.0
 40
1.0
 40
1.0
 40
2.0
 40
2.0
 40
2.0
 40
3.0
 40
3.0
 40
3.0
 40
4.0
 40
4.0
 40
4.0
 40
5.0
 40
5.0
 40
5.0
 40
6.0
 40
6.0
 40
6.0
 40
6.0
 10
1195.2713999833
 20
991.4695418528271
 30
0.0
 10
1194.443199028646
 20
991.467474795536
 30
0.0
 10
1193.769338351731
 20
992.1372013578685
 30
0.0
 10
1193.76727129444
 20
992.9660913316196
 30
0.0
 10
1193.765204237149
 20
993.7942922862737
 30
0.0
 10
1194.434930799482
 20
994.4674639440915
 30
0.0
 10
1195.263131754136
 20
994.4695310013826
 30
0.0
 10
1195.263131754136
 20
994.4695310013826
 30
0.0
 10
1200.273334118335
 20
994.4777992305472
 30
0.0
 10
1200.273334118335
 20
994.4777992305472
 30
0.0
 10
1201.101879582537
 20
994.4798662878384
 30
0.0
 10
1201.774362221258
 20
993.8104842350543
 30
0.0
 10
1201.777118297646
 20
992.9826277899489
 30
0.0
 10
1201.779185354937
 20
992.1537378161977
 30
0.0
 10
1201.110147811702
 20
991.4802216488314
 30
0.0
 10
1200.281257837951
 20
991.4778100819917
 30
0.0
 10
1200.281257837951
 20
991.4778100819917
 30
0.0
 10
1195.2713999833
 20
991.4695418528271
 30
0.0
 10
1195.2713999833
 20
991.4695418528271
 30
0.0
  0
POLYLINE
  5
80
330
1F
100
AcDbEntity
  8
Layer 19
370
     0
100
AcDb2dPolyline
 66
     1
 10
0.0
 20
0.0
 30
0.0
  0
VERTEX
  5
81
330
80
100
AcDbEntity
  8
Layer 19
370
     0
100
AcDbVertex
100
AcDb2dVertex
 10
1148.18280136226
 20
998.8062171982151
 30
0.0
  0
VERTEX
  5
CB
330
80
100
AcDbEntity
  8
0
100
AcDbVertex
100
AcDb2dVertex
 10
1148.18280136226
 20
998.8062171982151
 30
0.0
  0
SEQEND
  5
82
330
80
100
AcDbEntity
  8
Layer 19
370
     0
  0
POLYLINE
  5
83
330
1F
100
AcDbEntity
  8
Layer 19
370
     0
100
AcDb2dPolyline
 66
     1
 10
0.0
 20
0.0
 30
0.0
  0
VERTEX
  5
84
330
83
100
AcDbEntity
  8
Layer 19
370
     0
100
AcDbVertex
100
AcDb2dVertex
 10
1148.18280136226
 20
1004.979828307783
 30
0.0
  0
VERTEX
  5
CC
330
83
100
AcDbEntity
  8
0
100
AcDbVertex
100
AcDb2dVertex
 10
1148.18280136226
 20
1004.979828307783
 30
0.0
  0
SEQEND
  5
85
330
83
100
AcDbEntity
  8
Layer 19
370
     0
  0
POLYLINE
  5
86
330
1F
100
AcDbEntity
  8
Layer 19
370
     0
100
AcDb2dPolyline
 66
     1
 10
0.0
 20
0.0
 30
0.0
  0
VERTEX
  5
87
330
86
100
AcDbEntity
  8
Layer 19
370
     0
100
AcDbVertex
100
AcDb2dVertex
 10
1148.18280136226
 20
1005.861772752007
 30
0.0
  0
VERTEX
  5
CD
330
86
100
AcDbEntity
  8
0
100
AcDbVertex
100
AcDb2dVertex
 10
1148.18280136226
 20
1005.861772752007
 30
0.0
  0
SEQEND
  5
88
330
86
100
AcDbEntity
  8
Layer 19
370
     0
  0
POLYLINE
  5
89
330
1F
100
AcDbEntity
  8
Layer 19
370
     0
100
AcDb2dPolyline
 66
     1
 10
0.0
 20
0.0
 30
0.0
  0
VERTEX
  5
8A
330
89
100
AcDbEntity
  8
Layer 19
370
     0
100
AcDbVertex
100
AcDb2dVertex
 10
1166.005313836103
 20
953.9279918405111
 30
0.0
  0
VERTEX
  5
CE
330
89
100
AcDbEntity
  8
0
100
AcDbVertex
100
AcDb2dVertex
 10
1166.005313836103
 20
953.9279918405111
 30
0.0
  0
SEQEND
  5
8B
330
89
100
AcDbEntity
  8
Layer 19
370
     0
  0
SPLINE
  5
8C
330
1F
100
AcDbEntity
  8
Layer 19
370
     0
100
AcDbSpline
210
0.0
220
0.0
230
1.0
 70
    11
 71
     3
 72
   101
 73
    97
 74
     0
 42
0.0000000001
 43
0.0000000001
 40
0.0
 40
0.0
 40
0.0
 40
0.0
 40
1.0
 40
1.0
 40
1.0
 40
2.0
 40
2.0
 40
2.0
 40
3.0
 40
3.0
 40
3.0
 40
4.0
 40
4.0
 40
4.0
 40
5.0
 40
5.0
 40
5.0
 40
6.0
 40
6.0
 40
6.0
 40
7.0
 40
7.0
 40
7.0
 40
8.0
 40
8.0
 40
8.0
 40
9.0
 40
9.0
 40
9.0
 40
10.0
 40
10.0
 40
10.0
 40
11.0
 40
11.0
 40
11.0
 40
12.0
 40
12.0
 40
12.0
 40
13.0
 40
13.0
 40
13.0
 40
14.0
 40
14.0
 40
14.0
 40
15.0
 40
15.0
 40
15.0
 40
16.0
 40
16.0
 40
16.0
 40
17.0
 40
17.0
 40
17.0
 40
18.0
 40
18.0
 40
18.0
 40
19.0
 40
19.0
 40
19.0
 40
20.0
 40
20.0
 40
20.0
 40
21.0
 40
21.0
 40
21.0
 40
22.0
 40
22.0
 40
22.0
 40
23.0
 40
23.0
 40
23.0
 40
24.0
 40
24.0
 40
24.0
 40
25.0
 40
25.0
 40
25.0
 40
26.0
 40
26.0
 40
26.0
 40
27.0
 40
27.0
 40
27.0
 40
28.0
 40
28.0
 40
28.0
 40
29.0
 40
29.0
 40
29.0
 40
30.0
 40
30.0
 40
30.0
 40
31.0
 40
31.0
 40
31.0
 40
32.0
 40
32.0
 40
32.0
 40
32.0
 10
1152.959426252559
 20
986.1020830868079
 30
0.0
 10
1152.959426252559
 20
986.1020830868079
 30
0.0
 10
1152.959426252559
 20
945.8209931446212
 30
0.0
 10
1152.959426252559
 20
945.8209931446212
 30
0.0
 10
1152.959426252559
 20
944.4577688611079
 30
0.0
 10
1154.027405852986
 20
942.1812497644547
 30
0.0
 10
1155.730661060894
 20
943.6529945557535
 30
0.0
 10
1155.730661060894
 20
943.6529945557535
 30
0.0
 10
1166.005313836103
 20
953.9279918405111
 30
0.0
 10
1166.005313836103
 20
953.9279918405111
 30
0.0
 10
1166.005313836103
 20
953.9279918405111
 30
0.0
 10
1169.444897168576
 20
957.367919682533
 30
0.0
 10
1169.444897168576
 20
957.367919682533
 30
0.0
 10
1169.444897168576
 20
957.367919682533
 30
0.0
 10
1186.186683188696
 20
974.1090166835561
 30
0.0
 10
1186.186683188696
 20
974.1090166835561
 30
0.0
 10
1188.519701851308
 20
976.4423798557158
 30
0.0
 10
1193.129239610572
 20
978.3616425505485
 30
0.0
 10
1196.428952066344
 20
978.3737003847469
 30
0.0
 10
1196.428952066344
 20
978.3737003847469
 30
0.0
 10
1213.910744596696
 20
978.4377791607725
 30
0.0
 10
1213.910744596696
 20
978.4377791607725
 30
0.0
 10
1213.910744596696
 20
978.4377791607725
 30
0.0
 10
1224.84754472417
 20
978.47808677795
 30
0.0
 10
1224.84754472417
 20
978.47808677795
 30
0.0
 10
1224.84754472417
 20
978.47808677795
 30
0.0
 10
1245.017889771211
 20
978.5518118213344
 30
0.0
 10
1245.017889771211
 20
978.5518118213344
 30
0.0
 10
1245.017889771211
 20
978.5518118213344
 30
0.0
 10
1252.102384127079
 20
978.5518118213344
 30
0.0
 10
1252.102384127079
 20
978.5518118213344
 30
0.0
 10
1253.305411470528
 20
978.5518118213344
 30
0.0
 10
1254.307934256736
 20
979.4130856926467
 30
0.0
 10
1254.5263533105
 20
980.5541013173615
 30
0.0
 10
1254.497414508424
 20
980.7056855187125
 30
0.0
 10
1254.5263533105
 20
980.8614038346458
 30
0.0
 10
1254.525664291403
 20
981.1976451540062
 30
0.0
 10
1254.525664291403
 20
981.1976451540062
 30
0.0
 10
1254.525664291403
 20
1004.286675096151
 30
0.0
 10
1254.525664291403
 20
1004.286675096151
 30
0.0
 10
1253.592732433998
 20
1003.557692891472
 30
0.0
 10
1252.421399969013
 20
1003.119476745748
 30
0.0
 10
1251.145336601276
 20
1003.119476745748
 30
0.0
 10
1248.10814042148
 20
1003.119476745748
 30
0.0
 10
1245.645586168623
 20
1005.582720017702
 30
0.0
 10
1245.645586168623
 20
1008.619916197498
 30
0.0
 10
1245.645586168623
 20
1011.657112377294
 30
0.0
 10
1248.10814042148
 20
1014.120011139699
 30
0.0
 10
1251.145336601276
 20
1014.120011139699
 30
0.0
 10
1251.872251748664
 20
1014.120011139699
 30
0.0
 10
1252.564026922102
 20
1013.975661638867
 30
0.0
 10
1253.199302529582
 20
1013.719346534765
 30
0.0
 10
1253.199302529582
 20
1013.719346534765
 30
0.0
 10
1254.528420367792
 20
1015.75953208113
 30
0.0
 10
1254.528420367792
 20
1015.75953208113
 30
0.0
 10
1254.528420367792
 20
1015.75953208113
 30
0.0
 10
1254.528420367792
 20
1033.640611178222
 30
0.0
 10
1254.528420367792
 20
1033.640611178222
 30
0.0
 10
1254.528420367792
 20
1033.640611178222
 30
0.0
 10
1251.362377616847
 20
1033.640611178222
 30
0.0
 10
1251.362377616847
 20
1033.640611178222
 30
0.0
 10
1251.362377616847
 20
1033.640611178222
 30
0.0
 10
1251.362377616847
 20
1042.432150347031
 30
0.0
 10
1251.362377616847
 20
1042.432150347031
 30
0.0
 10
1251.362377616847
 20
1042.432150347031
 30
0.0
 10
1242.543622193704
 20
1043.632421614092
 30
0.0
 10
1242.543622193704
 20
1043.632421614092
 30
0.0
 10
1242.543622193704
 20
1043.632421614092
 30
0.0
 10
1220.261433614206
 20
1043.632421614092
 30
0.0
 10
1220.261433614206
 20
1043.632421614092
 30
0.0
 10
1220.261433614206
 20
1043.632421614092
 30
0.0
 10
1213.205878060414
 20
1043.632421614092
 30
0.0
 10
1213.205878060414
 20
1043.632421614092
 30
0.0
 10
1213.205878060414
 20
1043.632421614092
 30
0.0
 10
1196.428952066344
 20
1043.632421614092
 30
0.0
 10
1196.428952066344
 20
1043.632421614092
 30
0.0
 10
1193.129239610572
 20
1043.632421614092
 30
0.0
 10
1188.519701851308
 20
1041.723149696167
 30
0.0
 10
1186.186683188696
 20
1039.389786524007
 30
0.0
 10
1186.186683188696
 20
1039.389786524007
 30
0.0
 10
1156.405899776003
 20
1009.609003111313
 30
0.0
 10
1156.405899776003
 20
1009.609003111313
 30
0.0
 10
1156.405899776003
 20
1009.609003111313
 30
0.0
 10
1155.428870696386
 20
1008.632318541245
 30
0.0
 10
1155.428870696386
 20
1008.632318541245
 30
0.0
 10
1155.428870696386
 20
1008.632318541245
 30
0.0
 10
1154.842515444796
 20
1008.105218932002
 30
0.0
 10
1154.194148474472
 20
1007.395184752492
 30
0.0
 10
1153.233655853185
 20
1006.342708081748
 30
0.0
 10
1152.959426252559
 20
1003.458129631948
 30
0.0
 10
1152.959426252559
 20
1000.158072666627
 30
0.0
 10
1152.959426252559
 20
1000.158072666627
 30
0.0
 10
1152.959426252559
 20
993.1576386405995
 30
0.0
 10
1152.959426252559
 20
993.1576386405995
 30
0.0
 10
1152.959426252559
 20
993.1576386405995
 30
0.0
 10
1152.959426252559
 20
986.1020830868079
 30
0.0
 10
1152.959426252559
 20
986.1020830868079
 30
0.0
  0
SPLINE
  5
8D
330
1F
100
AcDbEntity
  8
Layer 19
370
     0
100
AcDbSpline
210
0.0
220
0.0
230
1.0
 70
    11
 71
     3
 72
    17
 73
    13
 74
     0
 42
0.0000000001
 43
0.0000000001
 40
0.0
 40
0.0
 40
0.0
 40
0.0
 40
1.0
 40
1.0
 40
1.0
 40
2.0
 40
2.0
 40
2.0
 40
3.0
 40
3.0
 40
3.0
 40
4.0
 40
4.0
 40
4.0
 40
4.0
 10
1262.188245669696
 20
980.4641843251965
 30
0.0
 10
1262.188245669696
 20
981.2930742989477
 30
0.0
 10
1262.859694779771
 20
981.9638343899258
 30
0.0
 10
1263.688240243974
 20
981.9638343899258
 30
0.0
 10
1264.517130217725
 20
981.9638343899258
 30
0.0
 10
1265.188234818252
 20
981.2930742989477
 30
0.0
 10
1265.188234818252
 20
980.4641843251965
 30
0.0
 10
1265.188234818252
 20
979.6356388609939
 30
0.0
 10
1264.517130217725
 20
978.9641897509188
 30
0.0
 10
1263.688240243974
 20
978.9641897509188
 30
0.0
 10
1262.859694779771
 20
978.9641897509188
 30
0.0
 10
1262.188245669696
 20
979.6356388609939
 30
0.0
 10
1262.188245669696
 20
980.4641843251965
 30
0.0
  0
SPLINE
  5
8E
330
1F
100
AcDbEntity
  8
Layer 19
370
     0
100
AcDbSpline
210
0.0
220
0.0
230
1.0
 70
    11
 71
     3
 72
    17
 73
    13
 74
     0
 42
0.0000000001
 43
0.0000000001
 40
0.0
 40
0.0
 40
0.0
 40
0.0
 40
1.0
 40
1.0
 40
1.0
 40
2.0
 40
2.0
 40
2.0
 40
3.0
 40
3.0
 40
3.0
 40
4.0
 40
4.0
 40
4.0
 40
4.0
 10
1304.895716362144
 20
978.9641897509188
 30
0.0
 10
1304.067170897942
 20
978.9641897509188
 30
0.0
 10
1303.396066297415
 20
979.6356388609939
 30
0.0
 10
1303.396066297415
 20
980.4641843251965
 30
0.0
 10
1303.396066297415
 20
981.2930742989477
 30
0.0
 10
1304.067170897942
 20
981.9638343899258
 30
0.0
 10
1304.895716362144
 20
981.9638343899258
 30
0.0
 10
1305.724261826347
 20
981.9638343899258
 30
0.0
 10
1306.395710936422
 20
981.2930742989477
 30
0.0
 10
1306.395710936422
 20
980.4641843251965
 30
0.0
 10
1306.395710936422
 20
979.6356388609939
 30
0.0
 10
1305.724261826347
 20
978.9641897509188
 30
0.0
 10
1304.895716362144
 20
978.9641897509188
 30
0.0
  0
SPLINE
  5
8F
330
1F
100
AcDbEntity
  8
Layer 19
370
     0
100
AcDbSpline
210
0.0
220
0.0
230
1.0
 70
    11
 71
     3
 72
    17
 73
    13
 74
     0
 42
0.0000000001
 43
0.0000000001
 40
0.0
 40
0.0
 40
0.0
 40
0.0
 40
1.0
 40
1.0
 40
1.0
 40
2.0
 40
2.0
 40
2.0
 40
3.0
 40
3.0
 40
3.0
 40
4.0
 40
4.0
 40
4.0
 40
4.0
 10
1306.395710936422
 20
1021.671660443367
 30
0.0
 10
1306.395710936422
 20
1020.843114979164
 30
0.0
 10
1305.724261826347
 20
1020.171321359541
 30
0.0
 10
1304.895716362144
 20
1020.171321359541
 30
0.0
 10
1304.067170897942
 20
1020.171321359541
 30
0.0
 10
1303.396066297415
 20
1020.843114979164
 30
0.0
 10
1303.396066297415
 20
1021.671660443367
 30
0.0
 10
1303.396066297415
 20
1022.500550417118
 30
0.0
 10
1304.067170897942
 20
1023.171310508096
 30
0.0
 10
1304.895716362144
 20
1023.171310508096
 30
0.0
 10
1305.724261826347
 20
1023.171310508096
 30
0.0
 10
1306.395710936422
 20
1022.500550417118
 30
0.0
 10
1306.395710936422
 20
1021.671660443367
 30
0.0
  0
SPLINE
  5
90
330
1F
100
AcDbEntity
  8
Layer 19
370
     0
100
AcDbSpline
210
0.0
220
0.0
230
1.0
 70
    11
 71
     3
 72
    17
 73
    13
 74
     0
 42
0.0000000001
 43
0.0000000001
 40
0.0
 40
0.0
 40
0.0
 40
0.0
 40
1.0
 40
1.0
 40
1.0
 40
2.0
 40
2.0
 40
2.0
 40
3.0
 40
3.0
 40
3.0
 40
4.0
 40
4.0
 40
4.0
 40
4.0
 10
1263.688240243974
 20
1023.171310508096
 30
0.0
 10
1264.517130217725
 20
1023.171310508096
 30
0.0
 10
1265.188234818252
 20
1022.500550417118
 30
0.0
 10
1265.188234818252
 20
1021.671660443367
 30
0.0
 10
1265.188234818252
 20
1020.843114979164
 30
0.0
 10
1264.517130217725
 20
1020.171321359541
 30
0.0
 10
1263.688240243974
 20
1020.171321359541
 30
0.0
 10
1262.859694779771
 20
1020.171321359541
 30
0.0
 10
1262.188245669696
 20
1020.843114979164
 30
0.0
 10
1262.188245669696
 20
1021.671660443367
 30
0.0
 10
1262.188245669696
 20
1022.500550417118
 30
0.0
 10
1262.859694779771
 20
1023.171310508096
 30
0.0
 10
1263.688240243974
 20
1023.171310508096
 30
0.0
  0
POLYLINE
  5
91
330
1F
100
AcDbEntity
  8
Layer 19
370
     0
100
AcDb2dPolyline
 66
     1
 10
0.0
 20
0.0
 30
0.0
  0
VERTEX
  5
92
330
91
100
AcDbEntity
  8
Layer 19
370
     0
100
AcDbVertex
100
AcDb2dVertex
 10
1266.438804479397
 20
1004.468231628223
 30
0.0
  0
VERTEX
  5
93
330
91
100
AcDbEntity
  8
Layer 19
370
     0
100
AcDbVertex
100
AcDb2dVertex
 10
1270.437871318675
 20
1004.468231628223
 30
0.0
  0
VERTEX
  5
94
330
91
100
AcDbEntity
  8
Layer 19
370
     0
100
AcDbVertex
100
AcDb2dVertex
 10
1270.437871318675
 20
997.6676131403401
 30
0.0
  0
VERTEX
  5
95
330
91
100
AcDbEntity
  8
Layer 19
370
     0
100
AcDbVertex
100
AcDb2dVertex
 10
1266.438804479397
 20
997.6676131403401
 30
0.0
  0
VERTEX
  5
96
330
91
100
AcDbEntity
  8
Layer 19
370
     0
100
AcDbVertex
100
AcDb2dVertex
 10
1266.438804479397
 20
1004.468231628223
 30
0.0
  0
SEQEND
  5
97
330
91
100
AcDbEntity
  8
Layer 19
370
     0
  0
POLYLINE
  5
98
330
1F
100
AcDbEntity
  8
Layer 19
370
     0
100
AcDb2dPolyline
 66
     1
 10
0.0
 20
0.0
 30
0.0
  0
VERTEX
  5
99
330
98
100
AcDbEntity
  8
Layer 19
370
     0
100
AcDbVertex
100
AcDb2dVertex
 10
1287.692287547001
 20
1018.921096207943
 30
0.0
  0
VERTEX
  5
9A
330
98
100
AcDbEntity
  8
Layer 19
370
     0
100
AcDbVertex
100
AcDb2dVertex
 10
1287.692287547001
 20
1014.922029368665
 30
0.0
  0
VERTEX
  5
9B
330
98
100
AcDbEntity
  8
Layer 19
370
     0
100
AcDbVertex
100
AcDb2dVertex
 10
1280.891669059117
 20
1014.922029368665
 30
0.0
  0
VERTEX
  5
9C
330
98
100
AcDbEntity
  8
Layer 19
370
     0
100
AcDbVertex
100
AcDb2dVertex
 10
1280.891669059117
 20
1018.921096207943
 30
0.0
  0
VERTEX
  5
9D
330
98
100
AcDbEntity
  8
Layer 19
370
     0
100
AcDbVertex
100
AcDb2dVertex
 10
1287.692287547001
 20
1018.921096207943
 30
0.0
  0
SEQEND
  5
9E
330
98
100
AcDbEntity
  8
Layer 19
370
     0
  0
POLYLINE
  5
9F
330
1F
100
AcDbEntity
  8
Layer 19
370
     0
100
AcDb2dPolyline
 66
     1
 10
0.0
 20
0.0
 30
0.0
  0
VERTEX
  5
A0
330
9F
100
AcDbEntity
  8
Layer 19
370
     0
100
AcDbVertex
100
AcDb2dVertex
 10
1302.145841145818
 20
997.6579668729814
 30
0.0
  0
VERTEX
  5
A1
330
9F
100
AcDbEntity
  8
Layer 19
370
     0
100
AcDbVertex
100
AcDb2dVertex
 10
1298.146085287443
 20
997.6676131403401
 30
0.0
  0
VERTEX
  5
A2
330
9F
100
AcDbEntity
  8
Layer 19
370
     0
100
AcDbVertex
100
AcDb2dVertex
 10
1298.146085287443
 20
1004.468231628223
 30
0.0
  0
VERTEX
  5
A3
330
9F
100
AcDbEntity
  8
Layer 19
370
     0
100
AcDbVertex
100
AcDb2dVertex
 10
1302.145841145818
 20
1004.472365742806
 30
0.0
  0
VERTEX
  5
A4
330
9F
100
AcDbEntity
  8
Layer 19
370
     0
100
AcDbVertex
100
AcDb2dVertex
 10
1302.145841145818
 20
997.6579668729814
 30
0.0
  0
SEQEND
  5
A5
330
9F
100
AcDbEntity
  8
Layer 19
370
     0
  0
POLYLINE
  5
A6
330
1F
100
AcDbEntity
  8
Layer 19
370
     0
100
AcDb2dPolyline
 66
     1
 10
0.0
 20
0.0
 30
0.0
  0
VERTEX
  5
A7
330
A6
100
AcDbEntity
  8
Layer 19
370
     0
100
AcDbVertex
100
AcDb2dVertex
 10
1280.891669059117
 20
983.2140595415229
 30
0.0
  0
VERTEX
  5
A8
330
A6
100
AcDbEntity
  8
Layer 19
370
     0
100
AcDbVertex
100
AcDb2dVertex
 10
1280.891669059117
 20
987.213815399898
 30
0.0
  0
VERTEX
  5
A9
330
A6
100
AcDbEntity
  8
Layer 19
370
     0
100
AcDbVertex
100
AcDb2dVertex
 10
1287.691943037452
 20
987.213815399898
 30
0.0
  0
VERTEX
  5
AA
330
A6
100
AcDbEntity
  8
Layer 19
370
     0
100
AcDbVertex
100
AcDb2dVertex
 10
1287.691943037452
 20
983.2140595415229
 30
0.0
  0
VERTEX
  5
AB
330
A6
100
AcDbEntity
  8
Layer 19
370
     0
100
AcDbVertex
100
AcDb2dVertex
 10
1280.891669059117
 20
983.2140595415229
 30
0.0
  0
SEQEND
  5
AC
330
A6
100
AcDbEntity
  8
Layer 19
370
     0
  0
SPLINE
  5
AD
330
1F
100
AcDbEntity
  8
Layer 19
370
     0
100
AcDbSpline
210
0.0
220
0.0
230
1.0
 70
    11
 71
     3
 72
    17
 73
    13
 74
     0
 42
0.0000000001
 43
0.0000000001
 40
0.0
 40
0.0
 40
0.0
 40
0.0
 40
1.0
 40
1.0
 40
1.0
 40
2.0
 40
2.0
 40
2.0
 40
3.0
 40
3.0
 40
3.0
 40
4.0
 40
4.0
 40
4.0
 40
4.0
 10
1295.12198047049
 20
993.4714868393058
 30
0.0
 10
1296.916530708757
 20
993.4714868393058
 30
0.0
 10
1298.371739041727
 20
992.0162785063362
 30
0.0
 10
1298.371739041727
 20
990.2213837585211
 30
0.0
 10
1298.371739041727
 20
988.426489010706
 30
0.0
 10
1296.916530708757
 20
986.9712806777364
 30
0.0
 10
1295.12198047049
 20
986.9712806777364
 30
0.0
 10
1293.326396703578
 20
986.9712806777364
 30
0.0
 10
1291.871877389706
 20
988.426489010706
 30
0.0
 10
1291.871877389706
 20
990.2213837585211
 30
0.0
 10
1291.871877389706
 20
992.0162785063362
 30
0.0
 10
1293.326396703578
 20
993.4714868393058
 30
0.0
 10
1295.12198047049
 20
993.4714868393058
 30
0.0
  0
SPLINE
  5
AE
330
1F
100
AcDbEntity
  8
Layer 19
370
     0
100
AcDbSpline
210
0.0
220
0.0
230
1.0
 70
    11
 71
     3
 72
    17
 73
    13
 74
     0
 42
0.0000000001
 43
0.0000000001
 40
0.0
 40
0.0
 40
0.0
 40
0.0
 40
1.0
 40
1.0
 40
1.0
 40
2.0
 40
2.0
 40
2.0
 40
3.0
 40
3.0
 40
3.0
 40
4.0
 40
4.0
 40
4.0
 40
4.0
 10
1295.12198047049
 20
1015.129424116877
 30
0.0
 10
1296.916530708757
 20
1015.129424116877
 30
0.0
 10
1298.371739041727
 20
1013.674215783908
 30
0.0
 10
1298.371739041727
 20
1011.879321036093
 30
0.0
 10
1298.371739041727
 20
1010.084426288278
 30
0.0
 10
1296.916530708757
 20
1008.629217955308
 30
0.0
 10
1295.12198047049
 20
1008.629217955308
 30
0.0
 10
1293.326741213127
 20
1008.629217955308
 30
0.0
 10
1291.871532880157
 20
1010.084426288278
 30
0.0
 10
1291.871532880157
 20
1011.879321036093
 30
0.0
 10
1291.871532880157
 20
1013.674215783908
 30
0.0
 10
1293.326741213127
 20
1015.129424116877
 30
0.0
 10
1295.12198047049
 20
1015.129424116877
 30
0.0
  0
SPLINE
  5
AF
330
1F
100
AcDbEntity
  8
Layer 19
370
     0
100
AcDbSpline
210
0.0
220
0.0
230
1.0
 70
    11
 71
     3
 72
    17
 73
    13
 74
     0
 42
0.0000000001
 43
0.0000000001
 40
0.0
 40
0.0
 40
0.0
 40
0.0
 40
1.0
 40
1.0
 40
1.0
 40
2.0
 40
2.0
 40
2.0
 40
3.0
 40
3.0
 40
3.0
 40
4.0
 40
4.0
 40
4.0
 40
4.0
 10
1273.463009664273
 20
1016.878843604287
 30
0.0
 10
1276.22459820525
 20
1016.878843604287
 30
0.0
 10
1278.463221251565
 20
1014.640909577069
 30
0.0
 10
1278.463221251565
 20
1011.879321036093
 30
0.0
 10
1278.463221251565
 20
1009.117732495116
 30
0.0
 10
1276.22459820525
 20
1006.879109448801
 30
0.0
 10
1273.463009664273
 20
1006.879109448801
 30
0.0
 10
1270.702454651942
 20
1006.879109448801
 30
0.0
 10
1268.462798076981
 20
1009.117732495116
 30
0.0
 10
1268.462798076981
 20
1011.879321036093
 30
0.0
 10
1268.462798076981
 20
1014.640909577069
 30
0.0
 10
1270.702454651942
 20
1016.878843604287
 30
0.0
 10
1273.463009664273
 20
1016.878843604287
 30
0.0
  0
SPLINE
  5
B0
330
1F
100
AcDbEntity
  8
Layer 19
370
     0
100
AcDbSpline
210
0.0
220
0.0
230
1.0
 70
    11
 71
     3
 72
    17
 73
    13
 74
     0
 42
0.0000000001
 43
0.0000000001
 40
0.0
 40
0.0
 40
0.0
 40
0.0
 40
1.0
 40
1.0
 40
1.0
 40
2.0
 40
2.0
 40
2.0
 40
3.0
 40
3.0
 40
3.0
 40
4.0
 40
4.0
 40
4.0
 40
4.0
 10
1273.463009664273
 20
995.2209063267156
 30
0.0
 10
1276.22459820525
 20
995.2209063267156
 30
0.0
 10
1278.462876742016
 20
992.9822832804003
 30
0.0
 10
1278.462876742016
 20
990.2213837585211
 30
0.0
 10
1278.462876742016
 20
987.4597952175449
 30
0.0
 10
1276.22459820525
 20
985.2211721712295
 30
0.0
 10
1273.463009664273
 20
985.2211721712295
 30
0.0
 10
1270.702454651942
 20
985.2211721712295
 30
0.0
 10
1268.46314258653
 20
987.4597952175449
 30
0.0
 10
1268.46314258653
 20
990.2213837585211
 30
0.0
 10
1268.46314258653
 20
992.9822832804003
 30
0.0
 10
1270.702454651942
 20
995.2209063267156
 30
0.0
 10
1273.463009664273
 20
995.2209063267156
 30
0.0
  0
SPLINE
  5
B1
330
1F
100
AcDbEntity
  8
Layer 19
370
     0
100
AcDbSpline
210
0.0
220
0.0
230
1.0
 70
     8
 71
     3
 72
    26
 73
    22
 74
     0
 42
0.0000000001
 43
0.0000000001
 40
0.0
 40
0.0
 40
0.0
 40
0.0
 40
1.0
 40
1.0
 40
1.0
 40
2.0
 40
2.0
 40
2.0
 40
3.0
 40
3.0
 40
3.0
 40
4.0
 40
4.0
 40
4.0
 40
5.0
 40
5.0
 40
5.0
 40
6.0
 40
6.0
 40
6.0
 40
7.0
 40
7.0
 40
7.0
 40
7.0
 10
1305.386642468792
 20
976.6670000813541
 30
0.0
 10
1307.210476018683
 20
976.6670000813541
 30
0.0
 10
1308.702891382894
 20
978.1594154455644
 30
0.0
 10
1308.702891382894
 20
979.9832489954556
 30
0.0
 10
1308.702891382894
 20
979.9832489954556
 30
0.0
 10
1308.693245115535
 20
1022.162931059563
 30
0.0
 10
1308.693245115535
 20
1022.162931059563
 30
0.0
 10
1308.693245115535
 20
1023.986764609455
 30
0.0
 10
1307.200485241776
 20
1025.479179973665
 30
0.0
 10
1305.376996201433
 20
1025.479179973665
 30
0.0
 10
1305.376996201433
 20
1025.479179973665
 30
0.0
 10
1263.197314137326
 20
1025.469533706306
 30
0.0
 10
1263.197314137326
 20
1025.469533706306
 30
0.0
 10
1261.373480587434
 20
1025.469533706306
 30
0.0
 10
1259.881065223224
 20
1023.976429322999
 30
0.0
 10
1259.881065223224
 20
1022.153284792205
 30
0.0
 10
1259.881065223224
 20
1022.153284792205
 30
0.0
 10
1259.890711490583
 20
979.9736027280969
 30
0.0
 10
1259.890711490583
 20
979.9736027280969
 30
0.0
 10
1259.890711490583
 20
978.1494246686572
 30
0.0
 10
1261.383471364342
 20
976.6566647948983
 30
0.0
 10
1263.207304914233
 20
976.6566647948983
 30
0.0
  0
POLYLINE
  5
B2
330
1F
100
AcDbEntity
  8
Layer 19
370
     0
100
AcDb2dPolyline
 66
     1
 10
0.0
 20
0.0
 30
0.0
  0
VERTEX
  5
B3
330
B2
100
AcDbEntity
  8
Layer 19
370
     0
100
AcDbVertex
100
AcDb2dVertex
 10
1263.207304914233
 20
976.6566647948983
 30
0.0
  0
VERTEX
  5
B4
330
B2
100
AcDbEntity
  8
Layer 19
370
     0
100
AcDbVertex
100
AcDb2dVertex
 10
1305.386642468792
 20
976.6670000813541
 30
0.0
  0
SEQEND
  5
B5
330
B2
100
AcDbEntity
  8
Layer 19
370
     0
  0
SPLINE
  5
B6
330
1F
100
AcDbEntity
  8
Layer 19
370
     0
100
AcDbSpline
210
0.0
220
0.0
230
1.0
 70
    11
 71
     3
 72
    29
 73
    25
 74
     0
 42
0.0000000001
 43
0.0000000001
 40
0.0
 40
0.0
 40
0.0
 40
0.0
 40
1.0
 40
1.0
 40
1.0
 40
2.0
 40
2.0
 40
2.0
 40
3.0
 40
3.0
 40
3.0
 40
4.0
 40
4.0
 40
4.0
 40
5.0
 40
5.0
 40
5.0
 40
6.0
 40
6.0
 40
6.0
 40
7.0
 40
7.0
 40
7.0
 40
8.0
 40
8.0
 40
8.0
 40
8.0
 10
1208.764116451281
 20
931.5276364858681
 30
0.0
 10
1208.764116451281
 20
930.699435531214
 30
0.0
 10
1208.093011850755
 20
930.0276419115903
 30
0.0
 10
1207.264121877003
 20
930.0276419115903
 30
0.0
 10
1207.264121877003
 20
930.0276419115903
 30
0.0
 10
1204.7657386311
 20
930.0276419115903
 30
0.0
 10
1204.7657386311
 20
930.0276419115903
 30
0.0
 10
1203.936848657349
 20
930.0276419115903
 30
0.0
 10
1203.265744056823
 20
930.699435531214
 30
0.0
 10
1203.265744056823
 20
931.5276364858681
 30
0.0
 10
1203.265744056823
 20
931.5276364858681
 30
0.0
 10
1203.265744056823
 20
931.5276364858681
 30
0.0
 10
1203.265744056823
 20
931.5276364858681
 30
0.0
 10
1203.265744056823
 20
932.3565264596192
 30
0.0
 10
1203.936848657349
 20
933.027631060146
 30
0.0
 10
1204.7657386311
 20
933.027631060146
 30
0.0
 10
1204.7657386311
 20
933.027631060146
 30
0.0
 10
1207.264121877003
 20
933.027631060146
 30
0.0
 10
1207.264121877003
 20
933.027631060146
 30
0.0
 10
1208.093011850755
 20
933.027631060146
 30
0.0
 10
1208.764116451281
 20
932.3565264596192
 30
0.0
 10
1208.764116451281
 20
931.5276364858681
 30
0.0
 10
1208.764116451281
 20
931.5276364858681
 30
0.0
 10
1208.764116451281
 20
931.5276364858681
 30
0.0
 10
1208.764116451281
 20
931.5276364858681
 30
0.0
  0
SPLINE
  5
B7
330
1F
100
AcDbEntity
  8
Layer 19
370
     0
100
AcDbSpline
210
0.0
220
0.0
230
1.0
 70
    11
 71
     3
 72
    29
 73
    25
 74
     0
 42
0.0000000001
 43
0.0000000001
 40
0.0
 40
0.0
 40
0.0
 40
0.0
 40
1.0
 40
1.0
 40
1.0
 40
2.0
 40
2.0
 40
2.0
 40
3.0
 40
3.0
 40
3.0
 40
4.0
 40
4.0
 40
4.0
 40
5.0
 40
5.0
 40
5.0
 40
6.0
 40
6.0
 40
6.0
 40
7.0
 40
7.0
 40
7.0
 40
8.0
 40
8.0
 40
8.0
 40
8.0
 10
1230.245664840008
 20
955.5309947697979
 30
0.0
 10
1230.245664840008
 20
954.7027938151438
 30
0.0
 10
1229.573871220384
 20
954.03100019552
 30
0.0
 10
1228.74567026573
 20
954.03100019552
 30
0.0
 10
1228.74567026573
 20
954.03100019552
 30
0.0
 10
1226.24659800073
 20
954.03100019552
 30
0.0
 10
1226.24659800073
 20
954.03100019552
 30
0.0
 10
1225.418397046076
 20
954.03100019552
 30
0.0
 10
1224.746603426452
 20
954.7027938151438
 30
0.0
 10
1224.746603426452
 20
955.5309947697979
 30
0.0
 10
1224.746603426452
 20
955.5309947697979
 30
0.0
 10
1224.746603426452
 20
955.5309947697979
 30
0.0
 10
1224.746603426452
 20
955.5309947697979
 30
0.0
 10
1224.746603426452
 20
956.3595402340004
 30
0.0
 10
1225.418397046076
 20
957.0309893440756
 30
0.0
 10
1226.24659800073
 20
957.0309893440756
 30
0.0
 10
1226.24659800073
 20
957.0309893440756
 30
0.0
 10
1228.74567026573
 20
957.0309893440756
 30
0.0
 10
1228.74567026573
 20
957.0309893440756
 30
0.0
 10
1229.573871220384
 20
957.0309893440756
 30
0.0
 10
1230.245664840008
 20
956.3595402340004
 30
0.0
 10
1230.245664840008
 20
955.5309947697979
 30
0.0
 10
1230.245664840008
 20
955.5309947697979
 30
0.0
 10
1230.245664840008
 20
955.5309947697979
 30
0.0
 10
1230.245664840008
 20
955.5309947697979
 30
0.0
  0
SPLINE
  5
B8
330
1F
100
AcDbEntity
  8
Layer 19
370
     0
100
AcDbSpline
210
0.0
220
0.0
230
1.0
 70
    11
 71
     3
 72
    29
 73
    25
 74
     0
 42
0.0000000001
 43
0.0000000001
 40
0.0
 40
0.0
 40
0.0
 40
0.0
 40
1.0
 40
1.0
 40
1.0
 40
2.0
 40
2.0
 40
2.0
 40
3.0
 40
3.0
 40
3.0
 40
4.0
 40
4.0
 40
4.0
 40
5.0
 40
5.0
 40
5.0
 40
6.0
 40
6.0
 40
6.0
 40
7.0
 40
7.0
 40
7.0
 40
8.0
 40
8.0
 40
8.0
 40
8.0
 10
1323.062738384512
 20
956.7019827252343
 30
0.0
 10
1323.062738384512
 20
955.8737817705802
 30
0.0
 10
1322.390944764888
 20
955.2019881509565
 30
0.0
 10
1321.562399300686
 20
955.2019881509565
 30
0.0
 10
1321.562399300686
 20
955.2019881509565
 30
0.0
 10
1319.063671545234
 20
955.2019881509565
 30
0.0
 10
1319.063671545234
 20
955.2019881509565
 30
0.0
 10
1318.23547059058
 20
955.2019881509565
 30
0.0
 10
1317.563676970956
 20
955.8737817705802
 30
0.0
 10
1317.563676970956
 20
956.7019827252343
 30
0.0
 10
1317.563676970956
 20
956.7019827252343
 30
0.0
 10
1317.563676970956
 20
956.7019827252343
 30
0.0
 10
1317.563676970956
 20
956.7019827252343
 30
0.0
 10
1317.563676970956
 20
957.5305281894368
 30
0.0
 10
1318.23547059058
 20
958.201977299512
 30
0.0
 10
1319.063671545234
 20
958.201977299512
 30
0.0
 10
1319.063671545234
 20
958.201977299512
 30
0.0
 10
1321.562399300686
 20
958.201977299512
 30
0.0
 10
1321.562399300686
 20
958.201977299512
 30
0.0
 10
1322.390944764888
 20
958.201977299512
 30
0.0
 10
1323.062738384512
 20
957.5305281894368
 30
0.0
 10
1323.062738384512
 20
956.7019827252343
 30
0.0
 10
1323.062738384512
 20
956.7019827252343
 30
0.0
 10
1323.062738384512
 20
956.7019827252343
 30
0.0
 10
1323.062738384512
 20
956.7019827252343
 30
0.0
  0
SPLINE
  5
B9
330
1F
100
AcDbEntity
  8
Layer 19
370
     0
100
AcDbSpline
210
0.0
220
0.0
230
1.0
 70
    11
 71
     3
 72
    29
 73
    25
 74
     0
 42
0.0000000001
 43
0.0000000001
 40
0.0
 40
0.0
 40
0.0
 40
0.0
 40
1.0
 40
1.0
 40
1.0
 40
2.0
 40
2.0
 40
2.0
 40
3.0
 40
3.0
 40
3.0
 40
4.0
 40
4.0
 40
4.0
 40
5.0
 40
5.0
 40
5.0
 40
6.0
 40
6.0
 40
6.0
 40
7.0
 40
7.0
 40
7.0
 40
8.0
 40
8.0
 40
8.0
 40
8.0
 10
1187.478593995665
 20
931.5276364858681
 30
0.0
 10
1187.478593995665
 20
930.699435531214
 30
0.0
 10
1186.80714488559
 20
930.0276419115903
 30
0.0
 10
1185.978943930936
 20
930.0276419115903
 30
0.0
 10
1185.978943930936
 20
930.0276419115903
 30
0.0
 10
1184.185427221315
 20
930.0276419115903
 30
0.0
 10
1184.185427221315
 20
930.0276419115903
 30
0.0
 10
1183.357226266661
 20
930.0276419115903
 30
0.0
 10
1182.685432647037
 20
930.699435531214
 30
0.0
 10
1182.685432647037
 20
931.5276364858681
 30
0.0
 10
1182.685432647037
 20
931.5276364858681
 30
0.0
 10
1182.685432647037
 20
931.5276364858681
 30
0.0
 10
1182.685432647037
 20
931.5276364858681
 30
0.0
 10
1182.685432647037
 20
932.3565264596192
 30
0.0
 10
1183.357226266661
 20
933.027631060146
 30
0.0
 10
1184.185427221315
 20
933.027631060146
 30
0.0
 10
1184.185427221315
 20
933.027631060146
 30
0.0
 10
1185.978943930936
 20
933.027631060146
 30
0.0
 10
1185.978943930936
 20
933.027631060146
 30
0.0
 10
1186.80714488559
 20
933.027631060146
 30
0.0
 10
1187.478593995665
 20
932.3565264596192
 30
0.0
 10
1187.478593995665
 20
931.5276364858681
 30
0.0
 10
1187.478593995665
 20
931.5276364858681
 30
0.0
 10
1187.478593995665
 20
931.5276364858681
 30
0.0
 10
1187.478593995665
 20
931.5276364858681
 30
0.0
  0
SPLINE
  5
BA
330
1F
100
AcDbEntity
  8
Layer 19
370
     0
100
AcDbSpline
210
0.0
220
0.0
230
1.0
 70
    11
 71
     3
 72
    17
 73
    13
 74
     0
 42
0.0000000001
 43
0.0000000001
 40
0.0
 40
0.0
 40
0.0
 40
0.0
 40
1.0
 40
1.0
 40
1.0
 40
2.0
 40
2.0
 40
2.0
 40
3.0
 40
3.0
 40
3.0
 40
4.0
 40
4.0
 40
4.0
 40
4.0
 10
1226.746825865188
 20
932.5287812338818
 30
0.0
 10
1226.746825865188
 20
931.6998912601306
 30
0.0
 10
1226.075032245565
 20
931.0284421500554
 30
0.0
 10
1225.246831290911
 20
931.0284421500554
 30
0.0
 10
1224.417941317159
 20
931.0284421500554
 30
0.0
 10
1223.746836716633
 20
931.6998912601306
 30
0.0
 10
1223.746836716633
 20
932.5287812338818
 30
0.0
 10
1223.746836716633
 20
933.3569821885358
 30
0.0
 10
1224.417941317159
 20
934.0287758081595
 30
0.0
 10
1225.246831290911
 20
934.0287758081595
 30
0.0
 10
1226.075032245565
 20
934.0287758081595
 30
0.0
 10
1226.746825865188
 20
933.3569821885358
 30
0.0
 10
1226.746825865188
 20
932.5287812338818
 30
0.0
  0
SPLINE
  5
BB
330
1F
100
AcDbEntity
  8
Layer 19
370
     0
100
AcDbSpline
210
0.0
220
0.0
230
1.0
 70
    11
 71
     3
 72
    17
 73
    13
 74
     0
 42
0.0000000001
 43
0.0000000001
 40
0.0
 40
0.0
 40
0.0
 40
0.0
 40
1.0
 40
1.0
 40
1.0
 40
2.0
 40
2.0
 40
2.0
 40
3.0
 40
3.0
 40
3.0
 40
4.0
 40
4.0
 40
4.0
 40
4.0
 10
1324.313308045658
 20
933.6997691893182
 30
0.0
 10
1324.313308045658
 20
932.870879215567
 30
0.0
 10
1323.641514426034
 20
932.1994301054918
 30
0.0
 10
1322.81331347138
 20
932.1994301054918
 30
0.0
 10
1321.984423497629
 20
932.1994301054918
 30
0.0
 10
1321.313318897102
 20
932.870879215567
 30
0.0
 10
1321.313318897102
 20
933.6997691893182
 30
0.0
 10
1321.313318897102
 20
934.5279701439722
 30
0.0
 10
1321.984423497629
 20
935.1997637635959
 30
0.0
 10
1322.81331347138
 20
935.1997637635959
 30
0.0
 10
1323.641514426034
 20
935.1997637635959
 30
0.0
 10
1324.313308045658
 20
934.5279701439722
 30
0.0
 10
1324.313308045658
 20
933.6997691893182
 30
0.0
  0
SPLINE
  5
BC
330
1F
100
AcDbEntity
  8
Layer 19
370
     0
100
AcDbSpline
210
0.0
220
0.0
230
1.0
 70
    11
 71
     3
 72
    17
 73
    13
 74
     0
 42
0.0000000001
 43
0.0000000001
 40
0.0
 40
0.0
 40
0.0
 40
0.0
 40
1.0
 40
1.0
 40
1.0
 40
2.0
 40
2.0
 40
2.0
 40
3.0
 40
3.0
 40
3.0
 40
4.0
 40
4.0
 40
4.0
 40
4.0
 10
1279.510874788629
 20
931.0015704052705
 30
0.0
 10
1279.510874788629
 20
934.2709660207726
 30
0.0
 10
1276.869520080088
 20
936.9223115062208
 30
0.0
 10
1273.611148770139
 20
936.9223115062208
 30
0.0
 10
1270.35277746019
 20
936.9223115062208
 30
0.0
 10
1267.710733732551
 20
934.2709660207726
 30
0.0
 10
1267.710733732551
 20
931.0015704052705
 30
0.0
 10
1267.710733732551
 20
927.7321747897684
 30
0.0
 10
1270.35277746019
 20
925.0822073425143
 30
0.0
 10
1273.611148770139
 20
925.0822073425143
 30
0.0
 10
1276.869520080088
 20
925.0822073425143
 30
0.0
 10
1279.510874788629
 20
927.7321747897684
 30
0.0
 10
1279.510874788629
 20
931.0015704052705
 30
0.0
  0
SPLINE
  5
BD
330
1F
100
AcDbEntity
  8
Layer 19
370
     0
100
AcDbSpline
210
0.0
220
0.0
230
1.0
 70
    11
 71
     3
 72
    17
 73
    13
 74
     0
 42
0.0000000001
 43
0.0000000001
 40
0.0
 40
0.0
 40
0.0
 40
0.0
 40
1.0
 40
1.0
 40
1.0
 40
2.0
 40
2.0
 40
2.0
 40
3.0
 40
3.0
 40
3.0
 40
4.0
 40
4.0
 40
4.0
 40
4.0
 10
1200.906542668523
 20
929.8305824498341
 30
0.0
 10
1200.906542668523
 20
933.0999780653361
 30
0.0
 10
1198.265187959982
 20
935.7513235507844
 30
0.0
 10
1195.006816650033
 20
935.7513235507844
 30
0.0
 10
1191.748445340084
 20
935.7513235507844
 30
0.0
 10
1189.106401612446
 20
933.0999780653361
 30
0.0
 10
1189.106401612446
 20
929.8305824498341
 30
0.0
 10
1189.106401612446
 20
926.5611868343319
 30
0.0
 10
1191.748445340084
 20
923.9112193870778
 30
0.0
 10
1195.006816650033
 20
923.9112193870778
 30
0.0
 10
1198.265187959982
 20
923.9112193870778
 30
0.0
 10
1200.906542668523
 20
926.5611868343319
 30
0.0
 10
1200.906542668523
 20
929.8305824498341
 30
0.0
  0
SPLINE
  5
BE
330
1F
100
AcDbEntity
  8
Layer 19
370
     0
100
AcDbSpline
210
0.0
220
0.0
230
1.0
 70
    11
 71
     3
 72
    17
 73
    13
 74
     0
 42
0.0000000001
 43
0.0000000001
 40
0.0
 40
0.0
 40
0.0
 40
0.0
 40
1.0
 40
1.0
 40
1.0
 40
2.0
 40
2.0
 40
2.0
 40
3.0
 40
3.0
 40
3.0
 40
4.0
 40
4.0
 40
4.0
 40
4.0
 10
1251.696207369368
 20
938.8312389145977
 30
0.0
 10
1251.696207369368
 20
939.6311900862728
 30
0.0
 10
1251.047151379947
 20
940.2802460756939
 30
0.0
 10
1250.245822170077
 20
940.2802460756939
 30
0.0
 10
1249.445181979306
 20
940.2802460756939
 30
0.0
 10
1248.795436970787
 20
939.6311900862728
 30
0.0
 10
1248.795436970787
 20
938.8312389145977
 30
0.0
 10
1248.795436970787
 20
938.0299097047287
 30
0.0
 10
1249.445181979306
 20
937.3808537153076
 30
0.0
 10
1250.245822170077
 20
937.3808537153076
 30
0.0
 10
1251.047151379947
 20
937.3808537153076
 30
0.0
 10
1251.696207369368
 20
938.0299097047287
 30
0.0
 10
1251.696207369368
 20
938.8312389145977
 30
0.0
  0
SPLINE
  5
BF
330
1F
100
AcDbEntity
  8
Layer 19
370
     0
100
AcDbSpline
210
0.0
220
0.0
230
1.0
 70
    11
 71
     3
 72
    17
 73
    13
 74
     0
 42
0.0000000001
 43
0.0000000001
 40
0.0
 40
0.0
 40
0.0
 40
0.0
 40
1.0
 40
1.0
 40
1.0
 40
2.0
 40
2.0
 40
2.0
 40
3.0
 40
3.0
 40
3.0
 40
4.0
 40
4.0
 40
4.0
 40
4.0
 10
1330.658140400843
 20
940.0022268700342
 30
0.0
 10
1330.658140400843
 20
940.8021780417092
 30
0.0
 10
1330.00942892097
 20
941.4512340311303
 30
0.0
 10
1329.208099711101
 20
941.4512340311303
 30
0.0
 10
1328.407459520329
 20
941.4512340311303
 30
0.0
 10
1327.757714511811
 20
940.8021780417092
 30
0.0
 10
1327.757714511811
 20
940.0022268700342
 30
0.0
 10
1327.757714511811
 20
939.2008976601651
 30
0.0
 10
1328.407459520329
 20
938.551841670744
 30
0.0
 10
1329.208099711101
 20
938.551841670744
 30
0.0
 10
1330.00942892097
 20
938.551841670744
 30
0.0
 10
1330.658140400843
 20
939.2008976601651
 30
0.0
 10
1330.658140400843
 20
940.0022268700342
 30
0.0
  0
SPLINE
  5
C0
330
1F
100
AcDbEntity
  8
Layer 19
370
     0
100
AcDbSpline
210
0.0
220
0.0
230
1.0
 70
    11
 71
     3
 72
    17
 73
    13
 74
     0
 42
0.0000000001
 43
0.0000000001
 40
0.0
 40
0.0
 40
0.0
 40
0.0
 40
1.0
 40
1.0
 40
1.0
 40
2.0
 40
2.0
 40
2.0
 40
3.0
 40
3.0
 40
3.0
 40
4.0
 40
4.0
 40
4.0
 40
4.0
 10
1319.457790468747
 20
949.0015052966038
 30
0.0
 10
1319.457790468747
 20
945.7317651715532
 30
0.0
 10
1316.816435760206
 20
943.0814532147505
 30
0.0
 10
1313.558064450256
 20
943.0814532147505
 30
0.0
 10
1310.299693140307
 20
943.0814532147505
 30
0.0
 10
1307.657649412669
 20
945.7317651715532
 30
0.0
 10
1307.657649412669
 20
949.0015052966038
 30
0.0
 10
1307.657649412669
 20
952.270900912106
 30
0.0
 10
1310.299693140307
 20
954.9215573784571
 30
0.0
 10
1313.558064450256
 20
954.9215573784571
 30
0.0
 10
1316.816435760206
 20
954.9215573784571
 30
0.0
 10
1319.457790468747
 20
952.270900912106
 30
0.0
 10
1319.457790468747
 20
949.0015052966038
 30
0.0
  0
SPLINE
  5
C1
330
1F
100
AcDbEntity
  8
Layer 19
370
     0
100
AcDbSpline
210
0.0
220
0.0
230
1.0
 70
    11
 71
     3
 72
    17
 73
    13
 74
     0
 42
0.0000000001
 43
0.0000000001
 40
0.0
 40
0.0
 40
0.0
 40
0.0
 40
1.0
 40
1.0
 40
1.0
 40
2.0
 40
2.0
 40
2.0
 40
3.0
 40
3.0
 40
3.0
 40
4.0
 40
4.0
 40
4.0
 40
4.0
 10
1290.710535701628
 20
940.0022268700342
 30
0.0
 10
1290.710535701628
 20
939.2008976601651
 30
0.0
 10
1290.061479712207
 20
938.5511526516469
 30
0.0
 10
1289.260839521435
 20
938.5511526516469
 30
0.0
 10
1288.459510311566
 20
938.5511526516469
 30
0.0
 10
1287.810454322145
 20
939.2008976601651
 30
0.0
 10
1287.810454322145
 20
940.0022268700342
 30
0.0
 10
1287.810454322145
 20
940.8021780417092
 30
0.0
 10
1288.459510311566
 20
941.4512340311303
 30
0.0
 10
1289.260839521435
 20
941.4512340311303
 30
0.0
 10
1290.061479712207
 20
941.4512340311303
 30
0.0
 10
1290.710535701628
 20
940.8021780417092
 30
0.0
 10
1290.710535701628
 20
940.0022268700342
 30
0.0
  0
SPLINE
  5
C2
330
1F
100
AcDbEntity
  8
Layer 19
370
     0
100
AcDbSpline
210
0.0
220
0.0
230
1.0
 70
    11
 71
     3
 72
   110
 73
   106
 74
     0
 42
0.0000000001
 43
0.0000000001
 40
0.0
 40
0.0
 40
0.0
 40
0.0
 40
1.0
 40
1.0
 40
1.0
 40
2.0
 40
2.0
 40
2.0
 40
3.0
 40
3.0
 40
3.0
 40
4.0
 40
4.0
 40
4.0
 40
5.0
 40
5.0
 40
5.0
 40
6.0
 40
6.0
 40
6.0
 40
7.0
 40
7.0
 40
7.0
 40
8.0
 40
8.0
 40
8.0
 40
9.0
 40
9.0
 40
9.0
 40
10.0
 40
10.0
 40
10.0
 40
11.0
 40
11.0
 40
11.0
 40
12.0
 40
12.0
 40
12.0
 40
13.0
 40
13.0
 40
13.0
 40
14.0
 40
14.0
 40
14.0
 40
15.0
 40
15.0
 40
15.0
 40
16.0
 40
16.0
 40
16.0
 40
17.0
 40
17.0
 40
17.0
 40
18.0
 40
18.0
 40
18.0
 40
19.0
 40
19.0
 40
19.0
 40
20.0
 40
20.0
 40
20.0
 40
21.0
 40
21.0
 40
21.0
 40
22.0
 40
22.0
 40
22.0
 40
23.0
 40
23.0
 40
23.0
 40
24.0
 40
24.0
 40
24.0
 40
25.0
 40
25.0
 40
25.0
 40
26.0
 40
26.0
 40
26.0
 40
27.0
 40
27.0
 40
27.0
 40
28.0
 40
28.0
 40
28.0
 40
29.0
 40
29.0
 40
29.0
 40
30.0
 40
30.0
 40
30.0
 40
31.0
 40
31.0
 40
31.0
 40
32.0
 40
32.0
 40
32.0
 40
33.0
 40
33.0
 40
33.0
 40
34.0
 40
34.0
 40
34.0
 40
35.0
 40
35.0
 40
35.0
 40
35.0
 10
1292.658392688988
 20
940.0022268700342
 30
0.0
 10
1292.658392688988
 20
941.0378225729003
 30
0.0
 10
1292.192615779383
 20
941.9652422775296
 30
0.0
 10
1291.460188479218
 20
942.5888045603598
 30
0.0
 10
1291.460188479218
 20
942.5888045603598
 30
0.0
 10
1291.460188479218
 20
949.9013642373511
 30
0.0
 10
1291.460188479218
 20
949.9013642373511
 30
0.0
 10
1291.460188479218
 20
949.9013642373511
 30
0.0
 10
1287.260617082699
 20
949.9013642373511
 30
0.0
 10
1287.260617082699
 20
949.9013642373511
 30
0.0
 10
1287.260617082699
 20
949.9013642373511
 30
0.0
 10
1287.260617082699
 20
961.3011851980428
 30
0.0
 10
1287.260617082699
 20
961.3011851980428
 30
0.0
 10
1287.260617082699
 20
961.3011851980428
 30
0.0
 10
1277.210584533128
 20
961.3011851980428
 30
0.0
 10
1277.210584533128
 20
961.3011851980428
 30
0.0
 10
1277.210584533128
 20
961.3011851980428
 30
0.0
 10
1277.210584533128
 20
967.4010712642262
 30
0.0
 10
1277.210584533128
 20
967.4010712642262
 30
0.0
 10
1277.210584533128
 20
967.4010712642262
 30
0.0
 10
1270.009990459407
 20
967.4010712642262
 30
0.0
 10
1270.009990459407
 20
967.4010712642262
 30
0.0
 10
1270.009990459407
 20
967.4010712642262
 30
0.0
 10
1270.009990459407
 20
961.3011851980428
 30
0.0
 10
1270.009990459407
 20
961.3011851980428
 30
0.0
 10
1270.009990459407
 20
961.3011851980428
 30
0.0
 10
1255.760731022865
 20
961.3011851980428
 30
0.0
 10
1255.760731022865
 20
961.3011851980428
 30
0.0
 10
1255.760731022865
 20
961.3011851980428
 30
0.0
 10
1255.760731022865
 20
949.7015486992066
 30
0.0
 10
1255.760731022865
 20
949.7015486992066
 30
0.0
 10
1255.760731022865
 20
949.7015486992066
 30
0.0
 10
1259.76048688124
 20
949.7015486992066
 30
0.0
 10
1259.76048688124
 20
949.7015486992066
 30
0.0
 10
1259.76048688124
 20
949.7015486992066
 30
0.0
 10
1259.76048688124
 20
941.4016246561426
 30
0.0
 10
1259.76048688124
 20
941.4016246561426
 30
0.0
 10
1259.76048688124
 20
941.4016246561426
 30
0.0
 10
1262.626806324968
 20
941.4016246561426
 30
0.0
 10
1262.626806324968
 20
941.4016246561426
 30
0.0
 10
1262.626806324968
 20
941.4016246561426
 30
0.0
 10
1262.626806324968
 20
942.6018959232038
 30
0.0
 10
1262.626806324968
 20
942.6018959232038
 30
0.0
 10
1262.626806324968
 20
942.6018959232038
 30
0.0
 10
1264.726936532777
 20
942.6018959232038
 30
0.0
 10
1264.726936532777
 20
942.6018959232038
 30
0.0
 10
1264.726936532777
 20
942.6018959232038
 30
0.0
 10
1264.726936532777
 20
941.4016246561426
 30
0.0
 10
1264.726936532777
 20
941.4016246561426
 30
0.0
 10
1264.726936532777
 20
941.4016246561426
 30
0.0
 10
1266.114620994235
 20
941.4016246561426
 30
0.0
 10
1266.114620994235
 20
941.4016246561426
 30
0.0
 10
1266.114620994235
 20
941.4016246561426
 30
0.0
 10
1266.114620994235
 20
938.6007620266346
 30
0.0
 10
1266.114620994235
 20
938.6007620266346
 30
0.0
 10
1266.114620994235
 20
938.6007620266346
 30
0.0
 10
1264.726936532777
 20
938.6007620266346
 30
0.0
 10
1264.726936532777
 20
938.6007620266346
 30
0.0
 10
1264.726936532777
 20
938.6007620266346
 30
0.0
 10
1264.726936532777
 20
937.4015242882191
 30
0.0
 10
1264.726936532777
 20
937.4015242882191
 30
0.0
 10
1264.726936532777
 20
937.4015242882191
 30
0.0
 10
1262.626806324968
 20
937.4015242882191
 30
0.0
 10
1262.626806324968
 20
937.4015242882191
 30
0.0
 10
1262.626806324968
 20
937.4015242882191
 30
0.0
 10
1262.626806324968
 20
938.6007620266346
 30
0.0
 10
1262.626806324968
 20
938.6007620266346
 30
0.0
 10
1262.626806324968
 20
938.6007620266346
 30
0.0
 10
1259.76048688124
 20
938.6007620266346
 30
0.0
 10
1259.76048688124
 20
938.6007620266346
 30
0.0
 10
1259.76048688124
 20
938.6007620266346
 30
0.0
 10
1259.76048688124
 20
930.3018715122163
 30
0.0
 10
1259.76048688124
 20
930.3018715122163
 30
0.0
 10
1259.76048688124
 20
930.3018715122163
 30
0.0
 10
1255.760731022865
 20
930.3018715122163
 30
0.0
 10
1255.760731022865
 20
930.3018715122163
 30
0.0
 10
1255.760731022865
 20
930.3018715122163
 30
0.0
 10
1255.760731022865
 20
918.0018471012287
 30
0.0
 10
1255.760731022865
 20
918.0018471012287
 30
0.0
 10
1255.760731022865
 20
918.0018471012287
 30
0.0
 10
1270.009990459407
 20
918.0018471012287
 30
0.0
 10
1270.009990459407
 20
918.0018471012287
 30
0.0
 10
1270.009990459407
 20
918.0018471012287
 30
0.0
 10
1270.009990459407
 20
911.9016165254968
 30
0.0
 10
1270.009990459407
 20
911.9016165254968
 30
0.0
 10
1270.009990459407
 20
911.9016165254968
 30
0.0
 10
1277.210584533128
 20
911.9016165254968
 30
0.0
 10
1277.210584533128
 20
911.9016165254968
 30
0.0
 10
1277.210584533128
 20
911.9016165254968
 30
0.0
 10
1277.210584533128
 20
918.0018471012287
 30
0.0
 10
1277.210584533128
 20
918.0018471012287
 30
0.0
 10
1277.210584533128
 20
918.0018471012287
 30
0.0
 10
1287.260617082699
 20
918.0018471012287
 30
0.0
 10
1287.260617082699
 20
918.0018471012287
 30
0.0
 10
1287.260617082699
 20
918.0018471012287
 30
0.0
 10
1287.260617082699
 20
930.1017114645232
 30
0.0
 10
1287.260617082699
 20
930.1017114645232
 30
0.0
 10
1287.260617082699
 20
930.1017114645232
 30
0.0
 10
1291.460188479218
 20
930.1017114645232
 30
0.0
 10
1291.460188479218
 20
930.1017114645232
 30
0.0
 10
1291.460188479218
 20
930.1017114645232
 30
0.0
 10
1291.460188479218
 20
937.4142711415145
 30
0.0
 10
1291.460188479218
 20
937.4142711415145
 30
0.0
 10
1292.192615779383
 20
938.0367998956992
 30
0.0
 10
1292.658392688988
 20
938.9638750907799
 30
0.0
 10
1292.658392688988
 20
940.0022268700342
 30
0.0
  0
SPLINE
  5
C3
330
1F
100
AcDbEntity
  8
Layer 19
370
     0
100
AcDbSpline
210
0.0
220
0.0
230
1.0
 70
    11
 71
     3
 72
   113
 73
   109
 74
     0
 42
0.0000000001
 43
0.0000000001
 40
0.0
 40
0.0
 40
0.0
 40
0.0
 40
1.0
 40
1.0
 40
1.0
 40
2.0
 40
2.0
 40
2.0
 40
3.0
 40
3.0
 40
3.0
 40
4.0
 40
4.0
 40
4.0
 40
5.0
 40
5.0
 40
5.0
 40
6.0
 40
6.0
 40
6.0
 40
7.0
 40
7.0
 40
7.0
 40
8.0
 40
8.0
 40
8.0
 40
9.0
 40
9.0
 40
9.0
 40
10.0
 40
10.0
 40
10.0
 40
11.0
 40
11.0
 40
11.0
 40
12.0
 40
12.0
 40
12.0
 40
13.0
 40
13.0
 40
13.0
 40
14.0
 40
14.0
 40
14.0
 40
15.0
 40
15.0
 40
15.0
 40
16.0
 40
16.0
 40
16.0
 40
17.0
 40
17.0
 40
17.0
 40
18.0
 40
18.0
 40
18.0
 40
19.0
 40
19.0
 40
19.0
 40
20.0
 40
20.0
 40
20.0
 40
21.0
 40
21.0
 40
21.0
 40
22.0
 40
22.0
 40
22.0
 40
23.0
 40
23.0
 40
23.0
 40
24.0
 40
24.0
 40
24.0
 40
25.0
 40
25.0
 40
25.0
 40
26.0
 40
26.0
 40
26.0
 40
27.0
 40
27.0
 40
27.0
 40
28.0
 40
28.0
 40
28.0
 40
29.0
 40
29.0
 40
29.0
 40
30.0
 40
30.0
 40
30.0
 40
31.0
 40
31.0
 40
31.0
 40
32.0
 40
32.0
 40
32.0
 40
33.0
 40
33.0
 40
33.0
 40
34.0
 40
34.0
 40
34.0
 40
35.0
 40
35.0
 40
35.0
 40
36.0
 40
36.0
 40
36.0
 40
36.0
 10
1331.407448668884
 20
930.1017114645232
 30
0.0
 10
1331.407448668884
 20
930.1017114645232
 30
0.0
 10
1331.407448668884
 20
937.4142711415145
 30
0.0
 10
1331.407448668884
 20
937.4142711415145
 30
0.0
 10
1332.1395314595
 20
938.0367998956992
 30
0.0
 10
1332.605652878654
 20
938.9642196003284
 30
0.0
 10
1332.605652878654
 20
940.0022268700342
 30
0.0
 10
1332.605652878654
 20
941.0378225729003
 30
0.0
 10
1332.1395314595
 20
941.9652422775296
 30
0.0
 10
1331.407448668884
 20
942.5894935794569
 30
0.0
 10
1331.407448668884
 20
942.5894935794569
 30
0.0
 10
1331.407448668884
 20
949.9013642373511
 30
0.0
 10
1331.407448668884
 20
949.9013642373511
 30
0.0
 10
1331.407448668884
 20
949.9013642373511
 30
0.0
 10
1327.207877272365
 20
949.9013642373511
 30
0.0
 10
1327.207877272365
 20
949.9013642373511
 30
0.0
 10
1327.207877272365
 20
949.9013642373511
 30
0.0
 10
1327.207877272365
 20
961.3011851980428
 30
0.0
 10
1327.207877272365
 20
961.3011851980428
 30
0.0
 10
1327.207877272365
 20
961.3011851980428
 30
0.0
 10
1317.157155703697
 20
961.3011851980428
 30
0.0
 10
1317.157155703697
 20
961.3011851980428
 30
0.0
 10
1317.157155703697
 20
961.3011851980428
 30
0.0
 10
1317.157155703697
 20
967.4010712642262
 30
0.0
 10
1317.157155703697
 20
967.4010712642262
 30
0.0
 10
1317.157155703697
 20
967.4010712642262
 30
0.0
 10
1309.956906139525
 20
967.4010712642262
 30
0.0
 10
1309.956906139525
 20
967.4010712642262
 30
0.0
 10
1309.956906139525
 20
967.4010712642262
 30
0.0
 10
1309.956906139525
 20
961.3011851980428
 30
0.0
 10
1309.956906139525
 20
961.3011851980428
 30
0.0
 10
1309.956906139525
 20
961.3011851980428
 30
0.0
 10
1295.707302193434
 20
961.3011851980428
 30
0.0
 10
1295.707302193434
 20
961.3011851980428
 30
0.0
 10
1295.707302193434
 20
961.3011851980428
 30
0.0
 10
1295.707302193434
 20
949.7015486992066
 30
0.0
 10
1295.707302193434
 20
949.7015486992066
 30
0.0
 10
1295.707302193434
 20
949.7015486992066
 30
0.0
 10
1299.707058051809
 20
949.7015486992066
 30
0.0
 10
1299.707058051809
 20
949.7015486992066
 30
0.0
 10
1299.707058051809
 20
949.7015486992066
 30
0.0
 10
1299.707058051809
 20
941.4016246561426
 30
0.0
 10
1299.707058051809
 20
941.4016246561426
 30
0.0
 10
1299.707058051809
 20
941.4016246561426
 30
0.0
 10
1302.574066514634
 20
941.4016246561426
 30
0.0
 10
1302.574066514634
 20
941.4016246561426
 30
0.0
 10
1302.574066514634
 20
941.4016246561426
 30
0.0
 10
1302.574066514634
 20
942.6018959232038
 30
0.0
 10
1302.574066514634
 20
942.6018959232038
 30
0.0
 10
1302.574066514634
 20
942.6018959232038
 30
0.0
 10
1304.674196722443
 20
942.6018959232038
 30
0.0
 10
1304.674196722443
 20
942.6018959232038
 30
0.0
 10
1304.674196722443
 20
942.6018959232038
 30
0.0
 10
1304.674196722443
 20
941.4016246561426
 30
0.0
 10
1304.674196722443
 20
941.4016246561426
 30
0.0
 10
1304.674196722443
 20
941.4016246561426
 30
0.0
 10
1306.061881183901
 20
941.4016246561426
 30
0.0
 10
1306.061881183901
 20
941.4016246561426
 30
0.0
 10
1306.061881183901
 20
941.4016246561426
 30
0.0
 10
1306.061881183901
 20
938.6007620266346
 30
0.0
 10
1306.061881183901
 20
938.6007620266346
 30
0.0
 10
1306.061881183901
 20
938.6007620266346
 30
0.0
 10
1304.674196722443
 20
938.6007620266346
 30
0.0
 10
1304.674196722443
 20
938.6007620266346
 30
0.0
 10
1304.674196722443
 20
938.6007620266346
 30
0.0
 10
1304.674196722443
 20
937.4015242882191
 30
0.0
 10
1304.674196722443
 20
937.4015242882191
 30
0.0
 10
1304.674196722443
 20
937.4015242882191
 30
0.0
 10
1302.574066514634
 20
937.4015242882191
 30
0.0
 10
1302.574066514634
 20
937.4015242882191
 30
0.0
 10
1302.574066514634
 20
937.4015242882191
 30
0.0
 10
1302.574066514634
 20
938.6007620266346
 30
0.0
 10
1302.574066514634
 20
938.6007620266346
 30
0.0
 10
1302.574066514634
 20
938.6007620266346
 30
0.0
 10
1299.707058051809
 20
938.6007620266346
 30
0.0
 10
1299.707058051809
 20
938.6007620266346
 30
0.0
 10
1299.707058051809
 20
938.6007620266346
 30
0.0
 10
1299.707058051809
 20
930.3018715122163
 30
0.0
 10
1299.707058051809
 20
930.3018715122163
 30
0.0
 10
1299.707058051809
 20
930.3018715122163
 30
0.0
 10
1295.707302193434
 20
930.3018715122163
 30
0.0
 10
1295.707302193434
 20
930.3018715122163
 30
0.0
 10
1295.707302193434
 20
930.3018715122163
 30
0.0
 10
1295.707302193434
 20
918.0018471012287
 30
0.0
 10
1295.707302193434
 20
918.0018471012287
 30
0.0
 10
1295.707302193434
 20
918.0018471012287
 30
0.0
 10
1309.956906139525
 20
918.0018471012287
 30
0.0
 10
1309.956906139525
 20
918.0018471012287
 30
0.0
 10
1309.956906139525
 20
918.0018471012287
 30
0.0
 10
1309.956906139525
 20
911.9016165254968
 30
0.0
 10
1309.956906139525
 20
911.9016165254968
 30
0.0
 10
1309.956906139525
 20
911.9016165254968
 30
0.0
 10
1317.158189232342
 20
911.9016165254968
 30
0.0
 10
1317.158189232342
 20
911.9016165254968
 30
0.0
 10
1317.158189232342
 20
911.9016165254968
 30
0.0
 10
1317.158189232342
 20
918.0018471012287
 30
0.0
 10
1317.158189232342
 20
918.0018471012287
 30
0.0
 10
1317.158189232342
 20
918.0018471012287
 30
0.0
 10
1317.818614036865
 20
918.0018471012287
 30
0.0
 10
1317.818614036865
 20
918.0018471012287
 30
0.0
 10
1317.818614036865
 20
918.0018471012287
 30
0.0
 10
1317.818614036865
 20
917.9997800439376
 30
0.0
 10
1317.818614036865
 20
917.9997800439376
 30
0.0
 10
1317.818614036865
 20
922.018139417933
 30
0.0
 10
1326.458913513871
 20
930.1034340122659
 30
0.0
 10
1331.407448668884
 20
930.1034340122659
 30
0.0
 10
1331.407448668884
 20
930.1034340122659
 30
0.0
 10
1331.407448668884
 20
930.1017114645232
 30
0.0
 10
1331.407448668884
 20
930.1017114645232
 30
0.0
  0
SPLINE
  5
C4
330
1F
100
AcDbEntity
  8
Layer 19
370
     0
100
AcDbSpline
210
0.0
220
0.0
230
1.0
 70
    11
 71
     3
 72
    17
 73
    13
 74
     0
 42
0.0000000001
 43
0.0000000001
 40
0.0
 40
0.0
 40
0.0
 40
0.0
 40
1.0
 40
1.0
 40
1.0
 40
2.0
 40
2.0
 40
2.0
 40
3.0
 40
3.0
 40
3.0
 40
4.0
 40
4.0
 40
4.0
 40
4.0
 10
1240.495512927723
 20
947.8305173411674
 30
0.0
 10
1240.495512927723
 20
944.5607772161168
 30
0.0
 10
1237.854502728731
 20
941.910465259314
 30
0.0
 10
1234.595442399685
 20
941.910465259314
 30
0.0
 10
1231.337760108832
 20
941.910465259314
 30
0.0
 10
1228.695716381194
 20
944.5607772161168
 30
0.0
 10
1228.695716381194
 20
947.8305173411674
 30
0.0
 10
1228.695716381194
 20
951.0988794280239
 30
0.0
 10
1231.337760108832
 20
953.7498804039237
 30
0.0
 10
1234.595442399685
 20
953.7498804039237
 30
0.0
 10
1237.854502728731
 20
953.7498804039237
 30
0.0
 10
1240.495512927723
 20
951.0988794280239
 30
0.0
 10
1240.495512927723
 20
947.8305173411674
 30
0.0
  0
SPLINE
  5
C5
330
1F
100
AcDbEntity
  8
Layer 19
370
     0
100
AcDbSpline
210
0.0
220
0.0
230
1.0
 70
    11
 71
     3
 72
    17
 73
    13
 74
     0
 42
0.0000000001
 43
0.0000000001
 40
0.0
 40
0.0
 40
0.0
 40
0.0
 40
1.0
 40
1.0
 40
1.0
 40
2.0
 40
2.0
 40
2.0
 40
3.0
 40
3.0
 40
3.0
 40
4.0
 40
4.0
 40
4.0
 40
4.0
 10
1212.107237110168
 20
938.8312389145977
 30
0.0
 10
1212.107237110168
 20
938.0299097047287
 30
0.0
 10
1211.458181120747
 20
937.3801646962106
 30
0.0
 10
1210.657196420426
 20
937.3801646962106
 30
0.0
 10
1209.856211720105
 20
937.3801646962106
 30
0.0
 10
1209.207155730684
 20
938.0299097047287
 30
0.0
 10
1209.207155730684
 20
938.8312389145977
 30
0.0
 10
1209.207155730684
 20
939.6311900862728
 30
0.0
 10
1209.856211720105
 20
940.2802460756939
 30
0.0
 10
1210.657196420426
 20
940.2802460756939
 30
0.0
 10
1211.458181120747
 20
940.2802460756939
 30
0.0
 10
1212.107237110168
 20
939.6311900862728
 30
0.0
 10
1212.107237110168
 20
938.8312389145977
 30
0.0
  0
SPLINE
  5
C6
330
1F
100
AcDbEntity
  8
Layer 19
370
     0
100
AcDbSpline
210
0.0
220
0.0
230
1.0
 70
    11
 71
     3
 72
   113
 73
   109
 74
     0
 42
0.0000000001
 43
0.0000000001
 40
0.0
 40
0.0
 40
0.0
 40
0.0
 40
1.0
 40
1.0
 40
1.0
 40
2.0
 40
2.0
 40
2.0
 40
3.0
 40
3.0
 40
3.0
 40
4.0
 40
4.0
 40
4.0
 40
5.0
 40
5.0
 40
5.0
 40
6.0
 40
6.0
 40
6.0
 40
7.0
 40
7.0
 40
7.0
 40
8.0
 40
8.0
 40
8.0
 40
9.0
 40
9.0
 40
9.0
 40
10.0
 40
10.0
 40
10.0
 40
11.0
 40
11.0
 40
11.0
 40
12.0
 40
12.0
 40
12.0
 40
13.0
 40
13.0
 40
13.0
 40
14.0
 40
14.0
 40
14.0
 40
15.0
 40
15.0
 40
15.0
 40
16.0
 40
16.0
 40
16.0
 40
17.0
 40
17.0
 40
17.0
 40
18.0
 40
18.0
 40
18.0
 40
19.0
 40
19.0
 40
19.0
 40
20.0
 40
20.0
 40
20.0
 40
21.0
 40
21.0
 40
21.0
 40
22.0
 40
22.0
 40
22.0
 40
23.0
 40
23.0
 40
23.0
 40
24.0
 40
24.0
 40
24.0
 40
25.0
 40
25.0
 40
25.0
 40
26.0
 40
26.0
 40
26.0
 40
27.0
 40
27.0
 40
27.0
 40
28.0
 40
28.0
 40
28.0
 40
29.0
 40
29.0
 40
29.0
 40
30.0
 40
30.0
 40
30.0
 40
31.0
 40
31.0
 40
31.0
 40
32.0
 40
32.0
 40
32.0
 40
33.0
 40
33.0
 40
33.0
 40
34.0
 40
34.0
 40
34.0
 40
35.0
 40
35.0
 40
35.0
 40
36.0
 40
36.0
 40
36.0
 40
36.0
 10
1181.156499270683
 20
928.3615937349235
 30
0.0
 10
1184.051757516487
 20
927.5492402195016
 30
0.0
 10
1189.996614285834
 20
918.8145451261992
 30
0.0
 10
1189.996614285834
 20
916.8287920885011
 30
0.0
 10
1189.996614285834
 20
916.8287920885011
 30
0.0
 10
1189.996614285834
 20
916.8308591457924
 30
0.0
 10
1189.996614285834
 20
916.8308591457924
 30
0.0
 10
1189.996614285834
 20
916.8308591457924
 30
0.0
 10
1191.406347358399
 20
916.8308591457924
 30
0.0
 10
1191.406347358399
 20
916.8308591457924
 30
0.0
 10
1191.406347358399
 20
916.8308591457924
 30
0.0
 10
1191.406347358399
 20
910.7306285700604
 30
0.0
 10
1191.406347358399
 20
910.7306285700604
 30
0.0
 10
1191.406347358399
 20
910.7306285700604
 30
0.0
 10
1198.606596922571
 20
910.7306285700604
 30
0.0
 10
1198.606596922571
 20
910.7306285700604
 30
0.0
 10
1198.606596922571
 20
910.7306285700604
 30
0.0
 10
1198.606596922571
 20
916.8308591457924
 30
0.0
 10
1198.606596922571
 20
916.8308591457924
 30
0.0
 10
1198.606596922571
 20
916.8308591457924
 30
0.0
 10
1199.267366236641
 20
916.8308591457924
 30
0.0
 10
1199.267366236641
 20
916.8308591457924
 30
0.0
 10
1199.267366236641
 20
916.8308591457924
 30
0.0
 10
1199.267366236641
 20
916.8287920885011
 30
0.0
 10
1199.267366236641
 20
916.8287920885011
 30
0.0
 10
1199.267366236641
 20
920.8471514624966
 30
0.0
 10
1207.907665713648
 20
928.9324460568295
 30
0.0
 10
1212.856889887758
 20
928.9324460568295
 30
0.0
 10
1212.856889887758
 20
928.9324460568295
 30
0.0
 10
1212.856889887758
 20
936.2432831860781
 30
0.0
 10
1212.856889887758
 20
936.2432831860781
 30
0.0
 10
1213.589317187922
 20
936.8658119402628
 30
0.0
 10
1214.054749587979
 20
937.793231644892
 30
0.0
 10
1214.054749587979
 20
938.8312389145977
 30
0.0
 10
1214.054749587979
 20
939.8668346174638
 30
0.0
 10
1213.589317187922
 20
940.7942543220931
 30
0.0
 10
1212.856889887758
 20
941.4185056240204
 30
0.0
 10
1212.856889887758
 20
941.4185056240204
 30
0.0
 10
1212.856889887758
 20
948.7303762819147
 30
0.0
 10
1212.856889887758
 20
948.7303762819147
 30
0.0
 10
1212.856889887758
 20
948.7303762819147
 30
0.0
 10
1208.656629472142
 20
948.7303762819147
 30
0.0
 10
1208.656629472142
 20
948.7303762819147
 30
0.0
 10
1208.656629472142
 20
948.7303762819147
 30
0.0
 10
1208.656629472142
 20
960.1301972426064
 30
0.0
 10
1208.656629472142
 20
960.1301972426064
 30
0.0
 10
1208.656629472142
 20
960.1301972426064
 30
0.0
 10
1198.606596922571
 20
960.1301972426064
 30
0.0
 10
1198.606596922571
 20
960.1301972426064
 30
0.0
 10
1198.606596922571
 20
960.1301972426064
 30
0.0
 10
1198.606596922571
 20
966.2300833087897
 30
0.0
 10
1198.606596922571
 20
966.2300833087897
 30
0.0
 10
1198.606596922571
 20
966.2300833087897
 30
0.0
 10
1191.406347358399
 20
966.2300833087897
 30
0.0
 10
1191.406347358399
 20
966.2300833087897
 30
0.0
 10
1191.406347358399
 20
966.2300833087897
 30
0.0
 10
1191.406347358399
 20
960.1301972426064
 30
0.0
 10
1191.406347358399
 20
960.1301972426064
 30
0.0
 10
1191.406347358399
 20
960.1301972426064
 30
0.0
 10
1177.156743412308
 20
960.1301972426064
 30
0.0
 10
1177.156743412308
 20
960.1301972426064
 30
0.0
 10
1177.156743412308
 20
960.1301972426064
 30
0.0
 10
1177.156743412308
 20
948.5305607437701
 30
0.0
 10
1177.156743412308
 20
948.5305607437701
 30
0.0
 10
1177.156743412308
 20
948.5305607437701
 30
0.0
 10
1181.15718828978
 20
948.5305607437701
 30
0.0
 10
1181.15718828978
 20
948.5305607437701
 30
0.0
 10
1181.15718828978
 20
948.5305607437701
 30
0.0
 10
1181.15718828978
 20
940.2306367007063
 30
0.0
 10
1181.15718828978
 20
940.2306367007063
 30
0.0
 10
1181.15718828978
 20
940.2306367007063
 30
0.0
 10
1184.023507733508
 20
940.2306367007063
 30
0.0
 10
1184.023507733508
 20
940.2306367007063
 30
0.0
 10
1184.023507733508
 20
940.2306367007063
 30
0.0
 10
1184.023507733508
 20
941.4309079677673
 30
0.0
 10
1184.023507733508
 20
941.4309079677673
 30
0.0
 10
1184.023507733508
 20
941.4309079677673
 30
0.0
 10
1186.122948922219
 20
941.4309079677673
 30
0.0
 10
1186.122948922219
 20
941.4309079677673
 30
0.0
 10
1186.122948922219
 20
941.4309079677673
 30
0.0
 10
1186.122948922219
 20
940.2306367007063
 30
0.0
 10
1186.122948922219
 20
940.2306367007063
 30
0.0
 10
1186.122948922219
 20
940.2306367007063
 30
0.0
 10
1187.511322402775
 20
940.2306367007063
 30
0.0
 10
1187.511322402775
 20
940.2306367007063
 30
0.0
 10
1187.511322402775
 20
940.2306367007063
 30
0.0
 10
1187.511322402775
 20
937.4297740711982
 30
0.0
 10
1187.511322402775
 20
937.4297740711982
 30
0.0
 10
1187.511322402775
 20
937.4297740711982
 30
0.0
 10
1186.122948922219
 20
937.4297740711982
 30
0.0
 10
1186.122948922219
 20
937.4297740711982
 30
0.0
 10
1186.122948922219
 20
937.4297740711982
 30
0.0
 10
1186.122948922219
 20
936.2305363327827
 30
0.0
 10
1186.122948922219
 20
936.2305363327827
 30
0.0
 10
1186.122948922219
 20
936.2305363327827
 30
0.0
 10
1184.023507733508
 20
936.2305363327827
 30
0.0
 10
1184.023507733508
 20
936.2305363327827
 30
0.0
 10
1184.023507733508
 20
936.2305363327827
 30
0.0
 10
1184.023507733508
 20
937.4297740711982
 30
0.0
 10
1184.023507733508
 20
937.4297740711982
 30
0.0
 10
1184.023507733508
 20
937.4297740711982
 30
0.0
 10
1181.15718828978
 20
937.4297740711982
 30
0.0
 10
1181.15718828978
 20
937.4297740711982
 30
0.0
 10
1181.15718828978
 20
937.4297740711982
 30
0.0
 10
1181.15718828978
 20
928.3605602062779
 30
0.0
 10
1181.15718828978
 20
928.3605602062779
 30
0.0
 10
1181.15718828978
 20
928.3605602062779
 30
0.0
 10
1181.156499270683
 20
928.3615937349235
 30
0.0
 10
1181.156499270683
 20
928.3615937349235
 30
0.0
  0
POLYLINE
  5
C7
330
1F
100
AcDbEntity
  8
Layer 19
370
     0
100
AcDb2dPolyline
 66
     1
 10
0.0
 20
0.0
 30
0.0
  0
VERTEX
  5
C8
330
C7
100
AcDbEntity
  8
Layer 19
370
     0
100
AcDbVertex
100
AcDb2dVertex
 10
1239.606678292529
 20
916.8277585598556
 30
0.0
  0
VERTEX
  5
CF
330
C7
100
AcDbEntity
  8
0
100
AcDbVertex
100
AcDb2dVertex
 10
1239.606678292529
 20
916.8277585598556
 30
0.0
  0
SEQEND
  5
C9
330
C7
100
AcDbEntity
  8
Layer 19
370
     0
  0
SPLINE
  5
CA
330
1F
100
AcDbEntity
  8
Layer 19
370
     0
100
AcDbSpline
210
0.0
220
0.0
230
1.0
 70
    11
 71
     3
 72
   116
 73
   112
 74
     0
 42
0.0000000001
 43
0.0000000001
 40
0.0
 40
0.0
 40
0.0
 40
0.0
 40
1.0
 40
1.0
 40
1.0
 40
2.0
 40
2.0
 40
2.0
 40
3.0
 40
3.0
 40
3.0
 40
4.0
 40
4.0
 40
4.0
 40
5.0
 40
5.0
 40
5.0
 40
6.0
 40
6.0
 40
6.0
 40
7.0
 40
7.0
 40
7.0
 40
8.0
 40
8.0
 40
8.0
 40
9.0
 40
9.0
 40
9.0
 40
10.0
 40
10.0
 40
10.0
 40
11.0
 40
11.0
 40
11.0
 40
12.0
 40
12.0
 40
12.0
 40
13.0
 40
13.0
 40
13.0
 40
14.0
 40
14.0
 40
14.0
 40
15.0
 40
15.0
 40
15.0
 40
16.0
 40
16.0
 40
16.0
 40
17.0
 40
17.0
 40
17.0
 40
18.0
 40
18.0
 40
18.0
 40
19.0
 40
19.0
 40
19.0
 40
20.0
 40
20.0
 40
20.0
 40
21.0
 40
21.0
 40
21.0
 40
22.0
 40
22.0
 40
22.0
 40
23.0
 40
23.0
 40
23.0
 40
24.0
 40
24.0
 40
24.0
 40
25.0
 40
25.0
 40
25.0
 40
26.0
 40
26.0
 40
26.0
 40
27.0
 40
27.0
 40
27.0
 40
28.0
 40
28.0
 40
28.0
 40
29.0
 40
29.0
 40
29.0
 40
30.0
 40
30.0
 40
30.0
 40
31.0
 40
31.0
 40
31.0
 40
32.0
 40
32.0
 40
32.0
 40
33.0
 40
33.0
 40
33.0
 40
34.0
 40
34.0
 40
34.0
 40
35.0
 40
35.0
 40
35.0
 40
36.0
 40
36.0
 40
36.0
 40
37.0
 40
37.0
 40
37.0
 40
37.0
 10
1252.445860146958
 20
928.9324460568295
 30
0.0
 10
1252.445860146958
 20
928.9324460568295
 30
0.0
 10
1252.445860146958
 20
936.2432831860781
 30
0.0
 10
1252.445860146958
 20
936.2432831860781
 30
0.0
 10
1253.178287447122
 20
936.8658119402628
 30
0.0
 10
1253.644064356728
 20
937.7928871353434
 30
0.0
 10
1253.644064356728
 20
938.8312389145977
 30
0.0
 10
1253.644064356728
 20
939.8668346174638
 30
0.0
 10
1253.178287447122
 20
940.7942543220931
 30
0.0
 10
1252.445860146958
 20
941.4178166049234
 30
0.0
 10
1252.445860146958
 20
941.4178166049234
 30
0.0
 10
1252.445860146958
 20
948.7303762819147
 30
0.0
 10
1252.445860146958
 20
948.7303762819147
 30
0.0
 10
1252.445860146958
 20
948.7303762819147
 30
0.0
 10
1248.245599731341
 20
948.7303762819147
 30
0.0
 10
1248.245599731341
 20
948.7303762819147
 30
0.0
 10
1248.245599731341
 20
948.7303762819147
 30
0.0
 10
1248.245599731341
 20
960.1301972426064
 30
0.0
 10
1248.245599731341
 20
960.1301972426064
 30
0.0
 10
1248.245599731341
 20
960.1301972426064
 30
0.0
 10
1238.196256200868
 20
960.1301972426064
 30
0.0
 10
1238.196256200868
 20
960.1301972426064
 30
0.0
 10
1238.196256200868
 20
960.1301972426064
 30
0.0
 10
1238.196256200868
 20
966.2300833087897
 30
0.0
 10
1238.196256200868
 20
966.2300833087897
 30
0.0
 10
1238.196256200868
 20
966.2300833087897
 30
0.0
 10
1230.996006636695
 20
966.2300833087897
 30
0.0
 10
1230.996006636695
 20
966.2300833087897
 30
0.0
 10
1230.996006636695
 20
966.2300833087897
 30
0.0
 10
1230.996006636695
 20
960.1301972426064
 30
0.0
 10
1230.996006636695
 20
960.1301972426064
 30
0.0
 10
1230.996006636695
 20
960.1301972426064
 30
0.0
 10
1216.745713671508
 20
960.1301972426064
 30
0.0
 10
1216.745713671508
 20
960.1301972426064
 30
0.0
 10
1216.745713671508
 20
960.1301972426064
 30
0.0
 10
1216.745713671508
 20
948.5305607437701
 30
0.0
 10
1216.745713671508
 20
948.5305607437701
 30
0.0
 10
1216.745713671508
 20
948.5305607437701
 30
0.0
 10
1220.74615854898
 20
948.5305607437701
 30
0.0
 10
1220.74615854898
 20
948.5305607437701
 30
0.0
 10
1220.74615854898
 20
948.5305607437701
 30
0.0
 10
1220.74615854898
 20
940.2306367007063
 30
0.0
 10
1220.74615854898
 20
940.2306367007063
 30
0.0
 10
1220.74615854898
 20
940.2306367007063
 30
0.0
 10
1223.612477992708
 20
940.2306367007063
 30
0.0
 10
1223.612477992708
 20
940.2306367007063
 30
0.0
 10
1223.612477992708
 20
940.2306367007063
 30
0.0
 10
1223.612477992708
 20
941.4309079677673
 30
0.0
 10
1223.612477992708
 20
941.4309079677673
 30
0.0
 10
1223.612477992708
 20
941.4309079677673
 30
0.0
 10
1225.711919181419
 20
941.4309079677673
 30
0.0
 10
1225.711919181419
 20
941.4309079677673
 30
0.0
 10
1225.711919181419
 20
941.4309079677673
 30
0.0
 10
1225.711919181419
 20
940.2306367007063
 30
0.0
 10
1225.711919181419
 20
940.2306367007063
 30
0.0
 10
1225.711919181419
 20
940.2306367007063
 30
0.0
 10
1227.100292661975
 20
940.2306367007063
 30
0.0
 10
1227.100292661975
 20
940.2306367007063
 30
0.0
 10
1227.100292661975
 20
940.2306367007063
 30
0.0
 10
1227.100292661975
 20
937.4297740711982
 30
0.0
 10
1227.100292661975
 20
937.4297740711982
 30
0.0
 10
1227.100292661975
 20
937.4297740711982
 30
0.0
 10
1225.711919181419
 20
937.4297740711982
 30
0.0
 10
1225.711919181419
 20
937.4297740711982
 30
0.0
 10
1225.711919181419
 20
937.4297740711982
 30
0.0
 10
1225.711919181419
 20
936.2305363327827
 30
0.0
 10
1225.711919181419
 20
936.2305363327827
 30
0.0
 10
1225.711919181419
 20
936.2305363327827
 30
0.0
 10
1223.612477992708
 20
936.2305363327827
 30
0.0
 10
1223.612477992708
 20
936.2305363327827
 30
0.0
 10
1223.612477992708
 20
936.2305363327827
 30
0.0
 10
1223.612477992708
 20
937.4297740711982
 30
0.0
 10
1223.612477992708
 20
937.4297740711982
 30
0.0
 10
1223.612477992708
 20
937.4297740711982
 30
0.0
 10
1220.74615854898
 20
937.4297740711982
 30
0.0
 10
1220.74615854898
 20
937.4297740711982
 30
0.0
 10
1220.74615854898
 20
937.4297740711982
 30
0.0
 10
1220.74615854898
 20
928.3605602062779
 30
0.0
 10
1220.74615854898
 20
928.3605602062779
 30
0.0
 10
1220.74615854898
 20
928.3605602062779
 30
0.0
 10
1220.745469529883
 20
928.3615937349235
 30
0.0
 10
1220.745469529883
 20
928.3615937349235
 30
0.0
 10
1223.641416794784
 20
927.5492402195016
 30
0.0
 10
1229.586273564131
 20
918.8135115975537
 30
0.0
 10
1229.586273564131
 20
916.8277585598556
 30
0.0
 10
1229.586273564131
 20
916.8277585598556
 30
0.0
 10
1229.586273564131
 20
916.8308591457924
 30
0.0
 10
1229.586273564131
 20
916.8308591457924
 30
0.0
 10
1229.586273564131
 20
916.8308591457924
 30
0.0
 10
1230.996006636695
 20
916.8308591457924
 30
0.0
 10
1230.996006636695
 20
916.8308591457924
 30
0.0
 10
1230.996006636695
 20
916.8308591457924
 30
0.0
 10
1230.996006636695
 20
910.7306285700604
 30
0.0
 10
1230.996006636695
 20
910.7306285700604
 30
0.0
 10
1230.996006636695
 20
910.7306285700604
 30
0.0
 10
1238.196256200868
 20
910.7306285700604
 30
0.0
 10
1238.196256200868
 20
910.7306285700604
 30
0.0
 10
1238.196256200868
 20
910.7306285700604
 30
0.0
 10
1238.196256200868
 20
916.8308591457924
 30
0.0
 10
1238.196256200868
 20
916.8308591457924
 30
0.0
 10
1238.196256200868
 20
916.8308591457924
 30
0.0
 10
1248.245599731341
 20
916.8308591457924
 30
0.0
 10
1248.245599731341
 20
916.8308591457924
 30
0.0
 10
1248.245599731341
 20
916.8308591457924
 30
0.0
 10
1248.245599731341
 20
928.9307235090868
 30
0.0
 10
1248.245599731341
 20
928.9307235090868
 30
0.0
 10
1248.245599731341
 20
928.9307235090868
 30
0.0
 10
1252.445515637409
 20
928.9307235090868
 30
0.0
 10
1252.445515637409
 20
928.9307235090868
 30
0.0
 10
1252.445515637409
 20
928.9307235090868
 30
0.0
 10
1252.445860146958
 20
928.9324460568295
 30
0.0
 10
1252.445860146958
 20
928.9324460568295
 30
0.0
  0
ENDSEC
  0
SECTION
  2
OBJECTS
  0
DICTIONARY
  5
C
330
0
100
AcDbDictionary
281
     1
  3
ACAD_GROUP
350
D
  3
ACAD_LAYOUT
350
1A
  3
ACAD_MLINESTYLE
350
17
  3
ACAD_PLOTSETTINGS
350
19
  3
ACAD_PLOTSTYLENAME
350
E
  3
ACAD_TABLESTYLE
350
D0
  3
ACAD_VISUALSTYLE
350
2A
  0
DICTIONARY
  5
D
102
{ACAD_REACTORS
330
C
102
}
330
C
100
AcDbDictionary
281
     1
  0
DICTIONARY
  5
1A
102
{ACAD_REACTORS
330
C
102
}
330
C
100
AcDbDictionary
281
     1
  3
Layout1
350
1E
  3
Layout2
350
26
  3
Model
350
22
  0
DICTIONARY
  5
17
102
{ACAD_REACTORS
330
C
102
}
330
C
100
AcDbDictionary
281
     1
  3
Standard
350
18
  0
DICTIONARY
  5
19
102
{ACAD_REACTORS
330
C
102
}
330
C
100
AcDbDictionary
281
     1
  0
ACDBDICTIONARYWDFLT
  5
E
102
{ACAD_REACTORS
330
C
102
}
330
C
100
AcDbDictionary
281
     1
  3
Normal
350
F
100
AcDbDictionaryWithDefault
340
F
  0
DICTIONARY
  5
D0
102
{ACAD_REACTORS
330
C
102
}
330
C
100
AcDbDictionary
281
     1
  0
DICTIONARY
  5
2A
102
{ACAD_REACTORS
330
C
102
}
330
C
100
AcDbDictionary
281
     1
  3
2dWireframe
350
2F
  3
3D Hidden
350
31
  3
3dWireframe
350
30
  3
Basic
350
32
  3
Brighten
350
36
  3
ColorChange
350
3A
  3
Conceptual
350
34
  3
Dim
350
35
  3
Facepattern
350
39
  3
Flat
350
2B
  3
FlatWithEdges
350
2C
  3
Gouraud
350
2D
  3
GouraudWithEdges
350
2E
  3
Linepattern
350
38
  3
Realistic
350
33
  3
Thicken
350
37
  0
LAYOUT
  5
1E
102
{ACAD_REACTORS
330
1A
102
}
330
1A
100
AcDbPlotSettings
  1

  2
none_device
  4

  6

 40
0.0
 41
0.0
 42
0.0
 43
0.0
 44
0.0
 45
0.0
 46
0.0
 47
0.0
 48
0.0
 49
0.0
140
0.0
141
0.0
142
1.0
143
1.0
 70
   688
 72
     0
 73
     0
 74
     5
  7

 75
    16
 76
     0
 77
     2
 78
   300
147
1.0
148
0.0
149
0.0
100
AcDbLayout
  1
Layout1
 70
     1
 71
     1
 10
0.0
 20
0.0
 11
12.0
 21
9.0
 12
0.0
 22
0.0
 32
0.0
 14
1.000000000000000E+20
 24
1.000000000000000E+20
 34
1.000000000000000E+20
 15
-1.000000000000000E+20
 25
-1.000000000000000E+20
 35
-1.000000000000000E+20
146
0.0
 13
0.0
 23
0.0
 33
0.0
 16
1.0
 26
0.0
 36
0.0
 17
0.0
 27
1.0
 37
0.0
 76
     0
330
1B
  0
LAYOUT
  5
26
102
{ACAD_REACTORS
330
1A
102
}
330
1A
100
AcDbPlotSettings
  1

  2
none_device
  4

  6

 40
0.0
 41
0.0
 42
0.0
 43
0.0
 44
0.0
 45
0.0
 46
0.0
 47
0.0
 48
0.0
 49
0.0
140
0.0
141
0.0
142
1.0
143
1.0
 70
   688
 72
     0
 73
     0
 74
     5
  7

 75
    16
 76
     0
 77
     2
 78
   300
147
1.0
148
0.0
149
0.0
100
AcDbLayout
  1
Layout2
 70
     1
 71
     2
 10
0.0
 20
0.0
 11
0.0
 21
0.0
 12
0.0
 22
0.0
 32
0.0
 14
0.0
 24
0.0
 34
0.0
 15
0.0
 25
0.0
 35
0.0
146
0.0
 13
0.0
 23
0.0
 33
0.0
 16
1.0
 26
0.0
 36
0.0
 17
0.0
 27
1.0
 37
0.0
 76
     0
330
23
  0
LAYOUT
  5
22
102
{ACAD_REACTORS
330
1A
102
}
330
1A
100
AcDbPlotSettings
  1

  2
none_device
  4

  6

 40
0.0
 41
0.0
 42
0.0
 43
0.0
 44
0.0
 45
0.0
 46
0.0
 47
0.0
 48
0.0
 49
0.0
140
0.0
141
0.0
142
1.0
143
1.0
 70
  1712
 72
     0
 73
     0
 74
     0
  7

 75
     0
 76
     0
 77
     2
 78
   300
147
1.0
148
0.0
149
0.0
100
AcDbLayout
  1
Model
 70
     1
 71
     0
 10
0.0
 20
0.0
 11
12.0
 21
9.0
 12
0.0
 22
0.0
 32
0.0
 14
1.000000000000000E+20
 24
1.000000000000000E+20
 34
1.000000000000000E+20
 15
-1.000000000000000E+20
 25
-1.000000000000000E+20
 35
-1.000000000000000E+20
146
0.0
 13
0.0
 23
0.0
 33
0.0
 16
1.0
 26
0.0
 36
0.0
 17
0.0
 27
1.0
 37
0.0
 76
     0
330
1F
331
29
  0
MLINESTYLE
  5
18
102
{ACAD_REACTORS
330
17
102
}
330
17
100
AcDbMlineStyle
  2
Standard
 70
     0
  3

 62
   256
 51
90.0
 52
90.0
 71
     2
 49
0.5
 62
   256
  6
BYLAYER
 49
-0.5
 62
   256
  6
BYLAYER
  0
ACDBPLACEHOLDER
  5
F
102
{ACAD_REACTORS
330
E
102
}
330
E
  0
VISUALSTYLE
  5
2F
102
{ACAD_REACTORS
330
2A
102
}
330
2A
100
AcDbVisualStyle
  2
2dWireframe
 70
     4
 71
     0
 72
     2
 73
     0
 90
        0
 40
-0.6
 41
-30.0
 62
     5
 63
     7
421
 16777215
 74
     1
 91
        4
 64
     7
 65
   257
 75
     1
175
     1
 42
1.0
 92
        0
 66
   257
 43
1.0
 76
     1
 77
     6
 78
     2
 67
     7
 79
     5
170
     0
171
     0
290
     0
174
     0
 93
        1
 44
0.0
173
     0
291
     0
 45
0.0
1001
ACAD
1000
AcDbSavedByObjectVersion
1070
     0
  0
VISUALSTYLE
  5
31
102
{ACAD_REACTORS
330
2A
102
}
330
2A
100
AcDbVisualStyle
  2
3D Hidden
 70
     6
 71
     1
 72
     2
 73
     2
 90
        0
 40
-0.6
 41
-30.0
 62
     5
 63
     7
421
 16777215
 74
     2
 91
        2
 64
     7
 65
   257
 75
     2
175
     1
 42
40.0
 92
        0
 66
   257
 43
1.0
 76
     1
 77
     6
 78
     2
 67
     7
 79
     3
170
     0
171
     0
290
     0
174
     0
 93
        1
 44
0.0
173
     0
291
     0
 45
0.0
1001
ACAD
1000
AcDbSavedByObjectVersion
1070
     0
  0
VISUALSTYLE
  5
30
102
{ACAD_REACTORS
330
2A
102
}
330
2A
100
AcDbVisualStyle
  2
3dWireframe
 70
     5
 71
     0
 72
     2
 73
     0
 90
        0
 40
-0.6
 41
-30.0
 62
     5
 63
     7
421
 16777215
 74
     1
 91
        4
 64
     7
 65
   257
 75
     1
175
     1
 42
1.0
 92
        0
 66
   257
 43
1.0
 76
     1
 77
     6
 78
     2
 67
     7
 79
     5
170
     0
171
     0
290
     0
174
     0
 93
        1
 44
0.0
173
     0
291
     0
 45
0.0
1001
ACAD
1000
AcDbSavedByObjectVersion
1070
     0
  0
VISUALSTYLE
  5
32
102
{ACAD_REACTORS
330
2A
102
}
330
2A
100
AcDbVisualStyle
  2
Basic
 70
     7
 71
     1
 72
     0
 73
     1
 90
        0
 40
-0.6
 41
-30.0
 62
     5
 63
     7
421
 16777215
 74
     0
 91
        4
 64
     7
 65
   257
 75
     1
175
     1
 42
1.0
 92
        8
 66
     7
 43
1.0
 76
     1
 77
     6
 78
     2
 67
     7
 79
     5
170
     0
171
     0
290
     0
174
     0
 93
        1
 44
0.0
173
     0
291
     1
 45
0.0
1001
ACAD
1000
AcDbSavedByObjectVersion
1070
     0
  0
VISUALSTYLE
  5
36
102
{ACAD_REACTORS
330
2A
102
}
330
2A
100
AcDbVisualStyle
  2
Brighten
 70
    12
 71
     2
 72
     2
 73
     0
 90
        0
 40
-0.6
 41
-30.0
 62
     5
 63
     7
421
 16777215
 74
     1
 91
        4
 64
     7
 65
   257
 75
     1
175
     1
 42
1.0
 92
        8
 66
     7
 43
1.0
 76
     1
 77
     6
 78
     2
 67
     7
 79
     5
170
     0
171
     0
290
     0
174
     0
 93
        1
 44
50.0
173
     0
291
     1
 45
0.0
1001
ACAD
1000
AcDbSavedByObjectVersion
1070
     0
  0
VISUALSTYLE
  5
3A
102
{ACAD_REACTORS
330
2A
102
}
330
2A
100
AcDbVisualStyle
  2
ColorChange
 70
    16
 71
     2
 72
     2
 73
     3
 90
        0
 40
-0.6
 41
-30.0
 62
     5
 63
     8
421
  8421504
 74
     1
 91
        4
 64
     7
 65
   257
 75
     1
175
     1
 42
1.0
 92
        8
 66
     8
424
  8421504
 43
1.0
 76
     1
 77
     6
 78
     2
 67
     7
 79
     5
170
     0
171
     0
290
     0
174
     0
 93
        1
 44
0.0
173
     0
291
     1
 45
0.0
1001
ACAD
1000
AcDbSavedByObjectVersion
1070
     0
  0
VISUALSTYLE
  5
34
102
{ACAD_REACTORS
330
2A
102
}
330
2A
100
AcDbVisualStyle
  2
Conceptual
 70
     9
 71
     3
 72
     2
 73
     0
 90
        0
 40
-0.6
 41
-30.0
 62
     5
 63
     7
421
 16777215
 74
     2
 91
        2
 64
     7
 65
   257
 75
     1
175
     1
 42
40.0
 92
        8
 66
     7
 43
1.0
 76
     1
 77
     6
 78
     2
 67
     7
 79
     3
170
     0
171
     0
290
     0
174
     0
 93
        1
 44
0.0
173
     0
291
     0
 45
0.0
1001
ACAD
1000
AcDbSavedByObjectVersion
1070
     0
  0
VISUALSTYLE
  5
35
102
{ACAD_REACTORS
330
2A
102
}
330
2A
100
AcDbVisualStyle
  2
Dim
 70
    11
 71
     2
 72
     2
 73
     0
 90
        0
 40
-0.6
 41
-30.0
 62
     5
 63
     7
421
 16777215
 74
     1
 91
        4
 64
     7
 65
   257
 75
     1
175
     1
 42
1.0
 92
        8
 66
     7
 43
1.0
 76
     1
 77
     6
 78
     2
 67
     7
 79
     5
170
     0
171
     0
290
     0
174
     0
 93
        1
 44
-50.0
173
     0
291
     1
 45
0.0
1001
ACAD
1000
AcDbSavedByObjectVersion
1070
     0
  0
VISUALSTYLE
  5
39
102
{ACAD_REACTORS
330
2A
102
}
330
2A
100
AcDbVisualStyle
  2
Facepattern
 70
    15
 71
     2
 72
     2
 73
     0
 90
        0
 40
-0.6
 41
-30.0
 62
     5
 63
     7
421
 16777215
 74
     1
 91
        4
 64
     7
 65
   257
 75
     1
175
     1
 42
1.0
 92
        8
 66
     7
 43
1.0
 76
     1
 77
     6
 78
     2
 67
     7
 79
     5
170
     0
171
     0
290
     0
174
     0
 93
        1
 44
0.0
173
     0
291
     1
 45
0.0
1001
ACAD
1000
AcDbSavedByObjectVersion
1070
     0
  0
VISUALSTYLE
  5
2B
102
{ACAD_REACTORS
330
2A
102
}
330
2A
100
AcDbVisualStyle
  2
Flat
 70
     0
 71
     2
 72
     1
 73
     1
 90
        2
 40
-0.6
 41
30.0
 62
     5
 63
     7
421
 16777215
 74
     0
 91
        4
 64
     7
 65
   257
 75
     1
175
     1
 42
1.0
 92
        8
 66
     7
 43
1.0
 76
     1
 77
     6
 78
     2
 67
     7
 79
     5
170
     0
171
     0
290
     0
174
     0
 93
       13
 44
0.0
173
     0
291
     1
 45
0.0
1001
ACAD
1000
AcDbSavedByObjectVersion
1070
     0
  0
VISUALSTYLE
  5
2C
102
{ACAD_REACTORS
330
2A
102
}
330
2A
100
AcDbVisualStyle
  2
FlatWithEdges
 70
     1
 71
     2
 72
     1
 73
     1
 90
        2
 40
-0.6
 41
30.0
 62
     5
 63
     7
421
 16777215
 74
     1
 91
        4
 64
     7
 65
   257
 75
     1
175
     1
 42
1.0
 92
        0
 66
   257
 43
1.0
 76
     1
 77
     6
 78
     2
 67
     7
 79
     5
170
     0
171
     0
290
     0
174
     0
 93
       13
 44
0.0
173
     0
291
     1
 45
0.0
1001
ACAD
1000
AcDbSavedByObjectVersion
1070
     0
  0
VISUALSTYLE
  5
2D
102
{ACAD_REACTORS
330
2A
102
}
330
2A
100
AcDbVisualStyle
  2
Gouraud
 70
     2
 71
     2
 72
     2
 73
     1
 90
        2
 40
-0.6
 41
30.0
 62
     5
 63
     7
421
 16777215
 74
     0
 91
        4
 64
     7
 65
   257
 75
     1
175
     1
 42
1.0
 92
        0
 66
     7
 43
1.0
 76
     1
 77
     6
 78
     2
 67
     7
 79
     5
170
     0
171
     0
290
     0
174
     0
 93
       13
 44
0.0
173
     0
291
     1
 45
0.0
1001
ACAD
1000
AcDbSavedByObjectVersion
1070
     0
  0
VISUALSTYLE
  5
2E
102
{ACAD_REACTORS
330
2A
102
}
330
2A
100
AcDbVisualStyle
  2
GouraudWithEdges
 70
     3
 71
     2
 72
     2
 73
     1
 90
        2
 40
-0.6
 41
30.0
 62
     5
 63
     7
421
 16777215
 74
     1
 91
        4
 64
     7
 65
   257
 75
     1
175
     1
 42
1.0
 92
        0
 66
   257
 43
1.0
 76
     1
 77
     6
 78
     2
 67
     7
 79
     5
170
     0
171
     0
290
     0
174
     0
 93
       13
 44
0.0
173
     0
291
     1
 45
0.0
1001
ACAD
1000
AcDbSavedByObjectVersion
1070
     0
  0
VISUALSTYLE
  5
38
102
{ACAD_REACTORS
330
2A
102
}
330
2A
100
AcDbVisualStyle
  2
Linepattern
 70
    14
 71
     2
 72
     2
 73
     0
 90
        0
 40
-0.6
 41
-30.0
 62
     5
 63
     7
421
 16777215
 74
     1
 91
        4
 64
     7
 65
   257
 75
     7
175
     7
 42
1.0
 92
        8
 66
     7
 43
1.0
 76
     1
 77
     6
 78
     2
 67
     7
 79
     5
170
     0
171
     0
290
     0
174
     0
 93
        1
 44
0.0
173
     0
291
     1
 45
0.0
1001
ACAD
1000
AcDbSavedByObjectVersion
1070
     0
  0
VISUALSTYLE
  5
33
102
{ACAD_REACTORS
330
2A
102
}
330
2A
100
AcDbVisualStyle
  2
Realistic
 70
     8
 71
     2
 72
     2
 73
     0
 90
        0
 40
-0.6
 41
-30.0
 62
     5
 63
     7
421
 16777215
 74
     1
 91
        0
 64
     7
 65
   257
 75
     1
175
     1
 42
1.0
 92
        8
 66
     8
424
  7895160
 43
1.0
 76
     1
 77
     6
 78
     2
 67
     7
 79
     5
170
     0
171
     0
290
     0
174
     0
 93
       13
 44
0.0
173
     0
291
     0
 45
0.0
1001
ACAD
1000
AcDbSavedByObjectVersion
1070
     0
  0
VISUALSTYLE
  5
37
102
{ACAD_REACTORS
330
2A
102
}
330
2A
100
AcDbVisualStyle
  2
Thicken
 70
    13
 71
     2
 72
     2
 73
     0
 90
        0
 40
-0.6
 41
-30.0
 62
     5
 63
     7
421
 16777215
 74
     1
 91
        4
 64
     7
 65
   257
 75
     1
175
     1
 42
1.0
 92
       12
 66
     7
 43
1.0
 76
     1
 77
     6
 78
     2
 67
     7
 79
     5
170
     0
171
     0
290
     0
174
     0
 93
        1
 44
0.0
173
     0
291
     1
 45
0.0
1001
ACAD
1000
AcDbSavedByObjectVersion
1070
     0
  0
ENDSEC
  0
EOF
